<?xml version="1.0" encoding="UTF-8" standalone="yes"?><svg width="800" height="600" xml:id="page.N848U6LSEDEKH65NF5EVJITLO"><title>Sep 3-1:12 PM</title><g class="foreground"><image xmlns:xlink="http://www.w3.org/1999/xlink" RotationPoint="(320.000000,240.000000)" transform="rotate(0.00,414.00,291.00)" xml:id="annotation.R6VA5ALOKGQ4D6ET5KN950EE8" visible="1" x="60.00" y="50.00" width="708.00" height="482.00" xlink:href="images/clipboard(1).png"/><g class="group" xml:id="annotation.0Q9HL28JN54OF4C4VAE5UE6HG" xbk_transform="rotate(0.00,390.01,309.48)"><polyline fill="none" points="396.235687,268.280273 394.235199,267.754974 390.153687,267.789612 385.470123,268.910797 380.835571,270.647522 377.093781,272.123932 373.295776,273.863586 369.019745,275.922424 365.164093,278.250000 360.319031,282.803436 355.726349,287.615051 353.178406,292.375519 351.036377,297.159576 350.506317,301.044647 350.401611,305.813019 350.786682,310.438202 351.680542,314.622986 352.674896,318.947357 354.094879,323.459595 356.095917,327.622131 359.190765,332.330292 363.405151,337.056580 367.800812,340.058502 370.429077,341.409210 375.367737,343.337799 379.651550,343.828308 384.561646,343.925201 388.351135,343.941986 392.163269,343.541229 395.982147,342.478851 399.802917,341.088318 404.203064,339.096802 408.066620,336.841309 412.881805,333.295441 417.303345,328.985260 421.615448,324.513672 424.562378,320.302765 425.470764,319.172058 427.427460,314.815399 428.768036,310.521057 429.624146,305.671844 429.412689,301.030731 428.788269,297.064087 427.816406,292.464020 426.975342,289.911499 424.725555,285.725555 421.303680,280.817230 417.233063,276.396057 412.244537,272.161224 407.406830,269.340729 403.361725,267.354248 399.291473,266.282471 396.235229,266.301208 394.282227,266.721313 390.121033,268.280273 " stroke-linecap="round" stroke-linejoin="round" stroke="#0000ff" stroke-width="1.00" fade-time="6" fade-enable="0" RotationPoint="(320.000000,240.000000)" transform="rotate(0.00,390.01,305.11)" xml:id="annotation.BVIPJLSSF97P33C88MQM2E79T" visible="1"/><polyline fill="none" points="384.006378,249.171982 383.401428,251.892746 383.273560,256.031677 383.248322,260.412964 383.243286,264.599976 383.242065,266.751617 " stroke-linecap="round" stroke-linejoin="round" stroke="#0000ff" stroke-width="1.00" fade-time="6" fade-enable="0" RotationPoint="(320.000000,240.000000)" transform="rotate(0.00,384.12,257.96)" xml:id="annotation.T9QUBQG72912V5SI41COVA79I" visible="1"/><polyline fill="none" points="397.764343,249.936310 396.952850,249.124802 396.374084,248.970673 394.021454,249.159531 392.449036,249.534470 391.842896,249.923203 390.942932,251.034500 390.838806,251.687576 391.176056,253.092575 392.776581,255.460312 394.144470,257.130951 394.825012,258.484253 394.957642,259.934937 394.874084,260.678497 394.563629,261.259125 393.539246,262.130737 393.164185,262.057465 392.914124,261.668854 392.747437,261.070099 392.918579,258.604431 393.515839,257.157532 396.764984,252.204605 398.279724,250.334763 399.295624,249.688782 400.821686,249.171982 " stroke-linecap="round" stroke-linejoin="round" stroke="#0000ff" stroke-width="1.00" fade-time="6" fade-enable="0" RotationPoint="(320.000000,240.000000)" transform="rotate(0.00,395.83,255.55)" xml:id="annotation.7T9962KI0H68D6MGTM578LILF" visible="1"/><polyline fill="none" points="402.350342,250.700653 407.039886,249.396942 411.824280,248.554718 412.572906,248.845413 413.156891,249.378876 413.631134,250.074249 413.931610,251.752747 413.697144,253.631104 411.694458,258.615601 409.993652,262.929962 " stroke-linecap="round" stroke-linejoin="round" stroke="#0000ff" stroke-width="1.00" fade-time="6" fade-enable="0" RotationPoint="(320.000000,240.000000)" transform="rotate(0.00,408.14,255.74)" xml:id="annotation.9694ABV06H70NAI6HKJ47AUSH" visible="1"/><polyline fill="none" points="406.936340,257.579620 408.071808,256.529053 409.229309,256.050964 " stroke-linecap="round" stroke-linejoin="round" stroke="#0000ff" stroke-width="1.00" fade-time="6" fade-enable="0" RotationPoint="(320.000000,240.000000)" transform="rotate(0.00,408.08,257.32)" xml:id="annotation.E3P08UUQK17PLB4HAMD0T7IRK" visible="1"/><polyline fill="none" points="427.573273,251.464981 426.761749,250.653442 425.231049,250.481522 423.220184,250.858047 419.614227,252.949249 417.016632,255.195862 421.046661,251.114655 423.821228,249.558884 425.311188,248.975937 426.065186,248.956360 427.582428,249.387558 428.088928,249.910187 428.651703,251.396744 428.402832,256.339447 427.856812,260.552551 427.573273,265.222931 " stroke-linecap="round" stroke-linejoin="round" stroke="#0000ff" stroke-width="1.00" fade-time="6" fade-enable="0" RotationPoint="(320.000000,240.000000)" transform="rotate(0.00,422.83,257.09)" xml:id="annotation.98LCASCIG139DD3S0UK9NE0IA" visible="1"/><polyline fill="none" points="367.191101,351.592377 366.532990,355.847717 366.447723,360.576355 366.426758,363.057343 " stroke-linecap="round" stroke-linejoin="round" stroke="#0000ff" stroke-width="1.00" fade-time="6" fade-enable="0" RotationPoint="(320.000000,240.000000)" transform="rotate(0.00,367.31,357.32)" xml:id="annotation.MLVINMFK7L725A7H1M63CT442" visible="1"/><polyline fill="none" points="378.656067,351.592377 376.385101,352.897705 373.191223,355.843872 372.889679,356.379974 372.858521,356.907257 373.276825,357.946045 376.164734,362.359192 376.699554,363.936005 376.937256,365.769165 376.589966,367.489777 375.439484,369.664368 374.983002,370.264587 374.508850,370.409912 374.022888,370.252075 373.529083,369.892029 373.284790,369.142456 373.239807,366.950806 374.733490,362.403137 376.580688,357.943176 377.729736,356.021851 379.284607,353.090118 379.329895,352.760742 379.105286,352.710968 377.891754,353.121033 " stroke-linecap="round" stroke-linejoin="round" stroke="#0000ff" stroke-width="1.00" fade-time="6" fade-enable="0" RotationPoint="(320.000000,240.000000)" transform="rotate(0.00,376.26,361.00)" xml:id="annotation.518SHJGGEH7FBC5PAC2TQ4DO4" visible="1"/><polyline fill="none" points="386.299377,353.121033 385.082092,353.526794 384.258026,354.405396 383.919373,354.996368 383.769562,356.332428 383.848480,357.045441 384.615601,358.290558 387.213165,361.165161 387.922791,362.839142 388.068268,364.489014 387.988220,365.285675 387.680054,365.901703 386.658234,366.812653 386.113983,366.919708 385.581360,366.821198 385.056366,366.585693 384.791290,366.088989 384.723236,364.631226 385.595886,360.165314 386.842590,356.334381 387.063721,356.178345 " stroke-linecap="round" stroke-linejoin="round" stroke="#0000ff" stroke-width="1.00" fade-time="6" fade-enable="0" RotationPoint="(320.000000,240.000000)" transform="rotate(0.00,385.92,360.02)" xml:id="annotation.OIHUJ70L5D2J10JFSQB4DGAEP" visible="1"/><polyline fill="none" points="393.942688,357.707031 394.637817,355.961334 395.412262,354.921234 396.775574,354.345734 397.614716,354.192261 398.259064,354.429688 398.773560,354.927643 399.201508,355.599335 399.223999,357.477966 398.010040,362.162170 396.338287,366.503204 395.322479,369.060669 395.372101,369.522369 395.659973,369.745300 396.659210,369.766479 401.610779,368.382812 403.125671,368.056915 407.700653,368.407654 " stroke-linecap="round" stroke-linejoin="round" stroke="#0000ff" stroke-width="1.00" fade-time="6" fade-enable="0" RotationPoint="(320.000000,240.000000)" transform="rotate(0.00,400.82,361.98)" xml:id="annotation.S514ABMHCD4FH9KD5TQBPE5OH" visible="1"/></g><polyline fill="none" points="600.312134,277.452209 595.398682,278.516083 590.971191,279.524628 586.547668,280.241455 581.678955,280.474243 576.934998,280.502594 572.748596,280.507477 568.696228,280.508911 564.390991,280.424438 560.388367,279.984222 555.684509,279.565979 551.371643,278.532684 546.923340,277.852417 542.028442,276.836182 537.337463,275.314362 533.112183,273.905823 528.470398,272.358521 523.879456,270.828217 519.293091,268.774048 514.707031,266.942444 510.205933,264.701111 507.442230,263.103668 504.081177,261.539429 499.679291,258.588440 495.363617,256.033234 491.082489,253.279617 486.432892,250.851913 481.841278,247.483261 477.183990,243.587357 472.505310,239.774765 467.714661,235.700333 463.275940,230.988663 458.539337,226.864807 454.842499,222.173065 451.268005,217.282059 447.700714,212.451767 445.301422,207.895248 443.450867,203.471100 441.383118,198.740067 439.807129,194.141373 438.274292,189.327805 437.254883,184.621490 436.896240,179.873703 436.249817,175.299423 436.034027,170.533325 435.996674,166.338715 436.212036,162.265030 436.587280,157.972382 436.714050,153.478546 437.572601,148.520279 438.791748,143.880005 439.804199,139.858978 441.161591,135.300568 443.008453,130.819901 444.374603,126.289742 445.810699,123.091927 448.003296,119.013763 450.067078,114.721115 452.551056,110.431679 456.257660,105.510017 460.069275,100.894562 464.523285,96.235069 468.870178,91.798477 473.520050,87.911644 477.913208,85.130890 482.658264,82.552429 487.622742,79.475334 492.139069,76.719452 496.739685,75.181198 501.511017,73.329811 506.155609,71.328499 510.636871,69.822853 515.296448,68.204376 519.919006,67.041710 524.395813,65.909317 529.281006,64.364578 533.066284,63.487122 536.877197,62.689278 541.563293,61.658840 546.370422,60.637497 550.142090,59.872780 554.994385,59.079998 559.249146,58.492489 563.360779,57.643566 567.444153,57.161331 571.521973,56.273438 576.391357,55.632565 581.104858,54.585670 585.644470,54.330364 589.611511,54.267517 " stroke-linecap="round" stroke-linejoin="round" stroke="#0000ff" stroke-width="1.00" fade-time="6" fade-enable="0" RotationPoint="(320.000000,240.000000)" transform="rotate(0.00,518.65,167.39)" xml:id="annotation.9A9B0T7SVP45383LFTFLUDAK8" visible="1"/><g class="group" xml:id="annotation.4VLQ17U71L7TBD8RTM2VLM3S2" xbk_transform="rotate(0.00,337.38,261.00)"><polyline fill="none" points="261.713379,250.700653 257.934692,250.700653 253.856369,250.927109 249.873703,251.532089 246.768692,252.475662 241.870789,254.703308 237.257431,256.990601 232.669022,260.492981 228.082840,263.908112 223.723297,268.299042 219.854431,272.867889 217.151016,277.298309 215.093842,281.293823 212.626953,285.931702 211.108276,290.334229 209.197845,294.500244 207.795090,299.119659 206.700195,303.391449 206.071869,307.506439 205.422501,312.115784 205.206146,316.385559 205.163406,320.500183 205.154953,324.584167 205.379761,328.662079 206.456650,333.232666 207.678238,336.890808 209.498962,341.393402 212.310303,346.134064 215.854919,350.647430 220.484299,355.042419 225.029404,358.864441 229.452637,360.908356 234.022430,362.805786 238.642944,364.723785 243.418030,366.099274 247.455475,367.130707 251.723328,367.491455 255.535629,367.598297 260.392456,367.549500 264.711060,367.036591 268.835388,366.504333 273.006165,365.496521 277.604523,363.976410 281.809204,362.427368 286.705688,359.984192 291.252899,357.450165 296.084625,353.784515 300.607269,349.290558 303.857574,345.070831 306.755768,340.712311 309.349731,335.772583 311.167084,331.715088 312.368988,327.642426 313.864594,323.566711 314.780609,318.877106 315.130463,314.833618 315.191071,310.505096 315.124115,306.703094 314.689056,302.179535 314.272583,297.478607 313.069794,292.774841 311.243286,288.275055 309.879852,283.742340 307.507416,278.769836 305.016815,274.467773 301.442108,269.815338 297.642151,265.308411 293.225555,260.816254 288.430450,256.422485 284.033813,253.773331 279.080109,251.306946 274.779633,249.506607 270.489136,248.163406 266.085876,247.830963 262.477722,248.407654 " stroke-linecap="round" stroke-linejoin="round" stroke="#0000ff" stroke-width="1.00" fade-time="6" fade-enable="0" RotationPoint="(320.000000,240.000000)" transform="rotate(0.00,260.17,307.71)" xml:id="annotation.637ABJMA415MP0758BBTOBRJ9" visible="1"/><polyline fill="none" points="270.885376,246.114655 273.418823,243.987000 277.785431,242.075089 281.967255,239.937744 283.991974,238.679367 288.474945,236.355957 292.741547,234.382812 297.495544,231.624329 300.114532,230.299637 305.049805,228.210678 309.718506,225.723328 313.589508,223.692474 318.128662,221.429245 322.321655,218.959702 326.946411,216.751343 331.445679,214.176239 335.992523,212.006836 340.772095,209.857758 344.539001,207.884262 348.344421,206.186050 352.161255,204.607132 355.981506,203.063583 359.802765,201.530533 363.709229,200.000549 367.971191,198.471512 371.960999,196.942734 375.832550,195.414032 379.668976,193.800446 383.494995,191.831421 387.317963,190.134537 391.139984,188.556030 394.961731,186.927658 398.783417,185.039200 402.605103,183.696442 406.426758,181.845413 411.295837,179.655258 415.959778,177.587021 420.885132,175.542862 425.443787,173.503479 430.408142,171.465027 434.867523,169.952057 439.019653,168.105652 443.111053,166.105347 447.190338,164.684799 451.880798,162.919342 456.604614,160.393646 461.202698,158.738312 465.789673,156.540436 469.611511,154.394913 " stroke-linecap="round" stroke-linejoin="round" stroke="#0000ff" stroke-width="1.00" fade-time="6" fade-enable="0" RotationPoint="(320.000000,240.000000)" transform="rotate(0.00,370.25,200.75)" xml:id="annotation.PH1F96C9J96AT86ABVBI97SFT" visible="1"/><polyline fill="none" points="313.687927,180.382172 313.687927,184.637558 313.082977,189.199219 312.549286,193.966232 312.321228,198.386673 312.779449,202.078110 312.923584,204.076447 " stroke-linecap="round" stroke-linejoin="round" stroke="#0000ff" stroke-width="1.00" fade-time="6" fade-enable="0" RotationPoint="(320.000000,240.000000)" transform="rotate(0.00,313.50,192.23)" xml:id="annotation.AORBV3O7V13370LIUR8L7KMN9" visible="1"/><polyline fill="none" points="333.560516,177.324844 330.461273,177.551315 328.197784,178.382751 324.471832,180.760544 323.264893,182.078995 322.960052,182.872208 322.847809,184.659409 323.307495,186.133133 324.162872,187.354294 327.732239,190.474136 331.446777,192.935837 332.507812,193.916290 333.092651,195.597595 333.267670,197.590454 333.062347,199.325409 332.235077,200.945755 331.018158,202.345322 328.160950,203.935791 327.413055,204.237442 326.744537,204.268707 325.548889,203.850494 325.247070,203.416260 325.138123,202.254379 326.873505,197.277939 328.553253,194.766235 332.544861,190.172058 335.694611,185.646118 336.547211,183.740814 336.643097,182.044754 336.464813,181.575485 336.176117,181.347580 335.089203,181.146500 " stroke-linecap="round" stroke-linejoin="round" stroke="#0000ff" stroke-width="1.00" fade-time="6" fade-enable="0" RotationPoint="(320.000000,240.000000)" transform="rotate(0.00,329.75,190.80)" xml:id="annotation.D4KEB4J08L341BUQBD0261DCG" visible="1"/><polyline fill="none" points="346.554169,175.796188 344.808472,176.491318 343.253235,177.795013 342.227936,179.062485 342.056396,179.672226 342.111938,180.248596 342.318787,180.802673 342.711456,181.002213 343.227997,180.965378 345.887665,180.091614 346.534485,180.188461 347.706024,180.975494 348.001495,181.711914 348.011536,184.692184 347.254028,188.785614 346.036102,193.274612 345.447571,195.468964 345.789825,197.197464 " stroke-linecap="round" stroke-linejoin="round" stroke="#0000ff" stroke-width="1.00" fade-time="6" fade-enable="0" RotationPoint="(320.000000,240.000000)" transform="rotate(0.00,345.03,186.50)" xml:id="annotation.DP80IA42N13Q35BSMB4TGDQP4" visible="1"/><polyline fill="none" points="359.547791,173.503189 358.244080,177.939590 356.996094,182.296890 356.640289,185.261826 357.010040,187.051987 357.346405,187.886047 357.995270,188.442078 359.848602,189.059891 364.677734,189.489075 367.191101,189.554153 " stroke-linecap="round" stroke-linejoin="round" stroke="#0000ff" stroke-width="1.00" fade-time="6" fade-enable="0" RotationPoint="(320.000000,240.000000)" transform="rotate(0.00,361.92,181.53)" xml:id="annotation.43GKIII35D70F9L34B9OETQRH" visible="1"/><polyline fill="none" points="364.133789,181.146500 362.916534,181.552261 360.942230,183.021866 359.555206,185.070892 357.448669,190.013275 355.868195,194.127029 354.476196,198.775772 354.197479,200.254791 " stroke-linecap="round" stroke-linejoin="round" stroke="#0000ff" stroke-width="1.00" fade-time="6" fade-enable="0" RotationPoint="(320.000000,240.000000)" transform="rotate(0.00,359.67,190.70)" xml:id="annotation.F0II5DDLDP64930J014U6EEAU" visible="1"/></g><g class="group" xml:id="annotation.J0K7AMMCVD1BN5NGV83VA9QCD" xbk_transform="rotate(0.00,210.04,203.69)"><polyline fill="none" points="225.789825,134.522293 221.128693,135.180389 217.133438,136.472427 212.722488,138.063080 208.594116,139.610092 203.920242,142.264740 199.222504,145.468979 194.592422,149.347977 189.758881,154.022827 186.174347,158.397858 183.097824,163.058548 180.766434,167.564911 178.670319,172.113174 176.705582,176.892990 175.411621,181.699722 174.338211,186.351303 173.918594,191.274261 173.835709,195.832443 174.225082,200.390915 175.119797,204.562546 176.114319,208.657806 177.552826,213.232086 180.378113,217.714828 183.897202,222.409882 188.197403,225.409241 192.666061,228.456833 197.117081,230.646851 202.110992,232.299286 206.175034,233.364471 210.859238,234.392670 214.609634,235.073639 218.410187,235.398102 222.225571,235.824509 227.092529,235.520264 231.756058,235.029221 235.502853,234.356384 240.488190,233.283279 244.832245,231.750244 249.367279,230.198669 253.741898,227.731293 257.877228,225.293777 262.290283,221.631805 266.276276,216.983032 269.065308,212.184280 270.522705,208.143982 271.628357,204.074677 272.258850,199.593887 272.908661,195.229996 272.898590,190.870300 272.509766,186.351059 272.263123,182.187134 270.981354,178.093430 269.696533,175.033112 267.385590,170.955658 264.553101,166.086365 261.360748,161.542770 257.198395,157.487656 252.483673,154.466660 248.453583,152.370880 244.301361,150.406219 239.706726,148.885773 235.858154,147.695343 231.179276,147.031219 226.792206,147.060928 221.911392,147.831802 219.675171,148.280258 " stroke-linecap="round" stroke-linejoin="round" stroke="#0000ff" stroke-width="1.00" fade-time="6" fade-enable="0" RotationPoint="(320.000000,240.000000)" transform="rotate(0.00,223.37,185.17)" xml:id="annotation.B5K1025KVD64R4KUACNHOVOSD" visible="1"/><polyline fill="none" points="200.566895,233.121033 200.972656,237.376389 202.115433,241.711594 203.372055,246.123016 204.643677,250.990097 206.748703,255.829041 208.627960,260.368683 210.325302,265.199402 212.995148,269.806854 213.978058,271.846558 215.089172,272.866241 " stroke-linecap="round" stroke-linejoin="round" stroke="#0000ff" stroke-width="1.00" fade-time="6" fade-enable="0" RotationPoint="(320.000000,240.000000)" transform="rotate(0.00,207.83,252.99)" xml:id="annotation.HNU94FV1V16TN71JH6JAO4Q2K" visible="1"/><polyline fill="none" points="147.828033,241.528671 147.169937,245.784058 147.909119,250.345703 148.457397,254.706970 149.090988,258.839661 149.530701,262.474274 150.121033,264.458618 " stroke-linecap="round" stroke-linejoin="round" stroke="#0000ff" stroke-width="1.00" fade-time="6" fade-enable="0" RotationPoint="(320.000000,240.000000)" transform="rotate(0.00,148.65,252.99)" xml:id="annotation.B3C20653MD5VP1Q2MTKH78DB0" visible="1"/><polyline fill="none" points="168.464981,243.821671 167.247726,243.010162 164.461929,242.505493 161.352951,243.167480 159.091873,244.439346 157.346176,246.703430 156.158966,249.525711 156.229889,251.282501 156.486603,252.107651 156.997437,252.742691 158.470917,253.674744 160.031677,253.919128 160.804565,253.865417 163.515350,252.572556 165.658478,250.575867 168.204437,246.257599 168.688889,245.159073 168.699158,245.222839 168.399216,245.973083 166.756760,249.254013 166.345245,252.300797 167.341705,256.524292 168.706055,261.245544 170.091568,263.647797 170.143860,263.918091 169.993637,264.458618 " stroke-linecap="round" stroke-linejoin="round" stroke="#0000ff" stroke-width="1.00" fade-time="6" fade-enable="0" RotationPoint="(320.000000,240.000000)" transform="rotate(0.00,163.15,253.48)" xml:id="annotation.8BS5TOHOI56KL6F93Q7THT27N" visible="1"/><polyline fill="none" points="178.401276,247.643326 176.133438,250.364090 175.270203,252.164673 174.869171,255.003250 175.076340,256.689331 175.677948,258.061493 176.076172,258.665192 177.198044,259.562469 177.853897,259.920654 179.262039,260.092133 180.737137,259.800323 182.241989,259.104462 183.307129,258.002563 184.384216,255.723328 185.014771,252.670090 184.992416,250.471909 184.416321,248.645691 183.367630,247.437714 180.694275,245.350327 " stroke-linecap="round" stroke-linejoin="round" stroke="#0000ff" stroke-width="1.00" fade-time="6" fade-enable="0" RotationPoint="(320.000000,240.000000)" transform="rotate(0.00,179.94,252.72)" xml:id="annotation.NVP5RCD2RL6U93RPBDRVKGIQN" visible="1"/><polyline fill="none" points="193.687897,246.114655 192.218323,250.370041 189.339523,255.005295 188.634460,258.307800 188.922470,260.281158 189.701553,261.922577 190.897079,263.218231 194.452240,265.222931 " stroke-linecap="round" stroke-linejoin="round" stroke="#0000ff" stroke-width="1.00" fade-time="6" fade-enable="0" RotationPoint="(320.000000,240.000000)" transform="rotate(0.00,191.66,255.67)" xml:id="annotation.2NFLDHRGK501V8M4HD5FHIOIF" visible="1"/><polyline fill="none" points="199.038239,256.050964 195.594376,258.178650 192.424820,261.154358 189.626205,266.017548 188.337585,269.044586 " stroke-linecap="round" stroke-linejoin="round" stroke="#0000ff" stroke-width="1.00" fade-time="6" fade-enable="0" RotationPoint="(320.000000,240.000000)" transform="rotate(0.00,194.19,262.55)" xml:id="annotation.K84QOFLAO51ALDE9BFK9RVFBR" visible="1"/></g><g class="group" xml:id="annotation.I3PACP9U7H3130FN42MIUJJ8T" xbk_transform="rotate(0.00,341.20,128.25)"><polyline fill="none" points="237.254791,145.222931 242.168259,145.222931 246.796555,144.612732 250.622177,143.919220 254.945145,143.175873 259.283356,142.502701 263.652222,142.005722 267.866333,140.955597 272.707397,140.273163 277.542938,139.698883 281.589447,139.224945 285.867584,138.606049 290.210327,138.169250 294.726227,137.696091 299.499695,137.077347 304.305145,136.640594 308.956482,136.167450 312.701233,136.085480 316.500061,135.655441 320.314972,135.395905 324.134613,134.913254 328.361450,134.638138 332.435272,134.556625 336.331604,134.532471 340.175415,134.119553 344.003662,133.865112 347.827271,133.789719 351.649445,133.767365 355.471283,133.760742 359.292999,133.758789 363.520386,133.352448 367.594391,133.099960 371.490814,133.025131 375.334625,133.002960 379.162872,132.996399 382.986481,132.994461 386.808746,132.993881 391.379150,132.468399 396.282928,132.276535 400.071320,132.243301 403.883148,132.233459 407.701874,132.230530 412.390686,132.229553 417.113373,132.229355 421.405518,132.002853 425.524567,131.571228 429.806519,131.496460 434.028778,131.474304 438.564514,131.381897 443.412750,130.331268 445.152893,130.700638 " stroke-linecap="round" stroke-linejoin="round" stroke="#0000ff" stroke-width="1.00" fade-time="6" fade-enable="0" RotationPoint="(320.000000,240.000000)" transform="rotate(0.00,341.20,138.28)" xml:id="annotation.Q88Q5SCIF53GBB7H6MKBN9IS1" visible="1"/><polyline fill="none" points="273.942688,114.649689 271.815002,118.905060 269.903137,123.792641 269.464661,128.008743 269.604492,131.974365 270.885376,136.815292 " stroke-linecap="round" stroke-linejoin="round" stroke="#0000ff" stroke-width="1.00" fade-time="6" fade-enable="0" RotationPoint="(320.000000,240.000000)" transform="rotate(0.00,272.20,125.73)" xml:id="annotation.TP9F150JK14V18M7IUNPGM4E2" visible="1"/><polyline fill="none" points="288.464996,110.828033 284.912811,112.112396 283.803864,112.703377 282.118774,114.492363 279.653046,119.100800 278.456085,122.432327 278.524719,124.308212 278.780823,125.165138 279.376160,125.651497 281.170044,125.965424 282.929810,125.368927 285.729706,123.315781 288.779602,118.882088 289.765472,117.181854 290.011414,116.932281 290.090424,117.105591 289.170715,121.298676 288.198639,125.559677 287.883942,129.672562 288.777466,134.370132 289.254974,135.303925 289.993652,136.050964 " stroke-linecap="round" stroke-linejoin="round" stroke="#0000ff" stroke-width="1.00" fade-time="6" fade-enable="0" RotationPoint="(320.000000,240.000000)" transform="rotate(0.00,284.27,123.44)" xml:id="annotation.4KD0G09A095KRA7CR21V8KP9D" visible="1"/><polyline fill="none" points="299.929962,116.178352 297.802277,120.181389 296.005707,124.926926 295.624969,128.518097 295.836884,130.410034 296.267059,131.101379 297.650909,132.096008 299.171814,132.368225 299.934082,132.321915 301.234009,131.817535 302.462830,130.857330 305.670441,127.322159 307.194244,123.387070 307.772827,121.307213 307.633667,119.250488 307.358734,118.226448 306.373901,116.862144 305.754547,116.379433 304.160553,115.843086 300.694275,115.414017 " stroke-linecap="round" stroke-linejoin="round" stroke="#0000ff" stroke-width="1.00" fade-time="6" fade-enable="0" RotationPoint="(320.000000,240.000000)" transform="rotate(0.00,301.70,123.89)" xml:id="annotation.B75I0LD75H0O9E10T36H5Q7NM" visible="1"/><polyline fill="none" points="318.273895,111.592361 319.491180,110.780846 321.871155,110.276184 323.524506,110.611076 324.322052,110.938171 324.853790,111.495934 325.444580,113.021545 325.371460,115.790291 324.406097,118.356377 321.062561,123.289650 317.492615,128.189011 315.966461,130.635864 315.216583,133.757965 " stroke-linecap="round" stroke-linejoin="round" stroke="#0000ff" stroke-width="1.00" fade-time="6" fade-enable="0" RotationPoint="(320.000000,240.000000)" transform="rotate(0.00,320.33,122.02)" xml:id="annotation.IBA9L46LAP49D4SNLTAHKVDVE" visible="1"/><polyline fill="none" points="309.866272,124.585991 314.628357,123.981041 318.552582,123.642418 322.942474,123.230698 327.017395,123.335167 330.149780,123.677528 332.796204,123.821663 " stroke-linecap="round" stroke-linejoin="round" stroke="#0000ff" stroke-width="1.00" fade-time="6" fade-enable="0" RotationPoint="(320.000000,240.000000)" transform="rotate(0.00,321.33,124.41)" xml:id="annotation.HM8MKA5FS1749C60M498PV55A" visible="1"/><polyline fill="none" points="337.382172,129.171982 337.382172,129.936310 " stroke-linecap="round" stroke-linejoin="round" stroke="#0000ff" stroke-width="1.00" fade-time="6" fade-enable="0" RotationPoint="(320.000000,240.000000)" transform="rotate(0.00,337.88,129.67)" xml:id="annotation.6B3KMVVRCT4JN1MJCTT5GCHRN" visible="1"/></g></g></svg>