<?xml version="1.0" encoding="UTF-8" standalone="yes"?><svg width="800" height="727" xml:id="page.GD77P6IL0J64VERCHKFPL6U89"><title>Sep 6-9:37 AM</title><g class="foreground"><image xmlns:xlink="http://www.w3.org/1999/xlink" RotationPoint="(320.000000,240.000000)" transform="rotate(0.00,408.00,342.34)" xml:id="annotation.5K86E4377UQKRF23THO27AD79" visible="1" x="8.00" y="-13.00" width="800.00" height="710.68" xlink:href="images/clipboard.png"/><g class="group" xml:id="annotation.OTQCPS6BVD5C57IU5U8RVGSG9" xbk_transform="rotate(0.00,284.23,285.30)"><polyline fill="none" points="305.946899,363.017273 309.861755,362.731232 311.655975,362.139191 315.226379,359.403961 316.682373,357.011993 317.793182,354.265076 317.776611,350.387909 317.092346,346.867157 316.702728,346.350403 316.228394,346.220490 315.697662,346.348419 315.665649,346.540955 316.488281,347.040985 316.943634,346.895416 317.735687,345.875458 317.873138,344.063354 317.469391,341.827637 316.035797,338.371094 312.999451,333.964844 308.331421,329.596344 304.349365,324.858734 304.023682,324.061646 303.947876,322.317810 305.057251,317.620422 305.444214,315.700439 305.258606,313.774292 304.038483,310.880646 300.449585,306.432678 296.076080,301.766785 293.583160,297.821655 291.234314,296.308533 286.786591,294.943420 283.046204,294.609436 279.434906,294.295898 276.910736,292.939575 272.157440,289.298401 269.784058,287.489655 267.632935,286.611115 265.246521,286.435211 260.730713,287.196350 258.233551,288.583252 254.154190,293.067413 253.396271,293.427246 251.695984,293.541046 247.028839,292.458099 242.115311,290.254700 237.599091,288.733521 235.449417,288.272461 230.859055,288.850555 227.808563,289.979218 224.407166,292.282745 221.950867,296.399750 " stroke-linecap="round" stroke-linejoin="round" stroke="#ff0000" stroke-width="3.00" fade-time="6" fade-enable="0" RotationPoint="(320.000000,240.000000)" transform="rotate(0.00,269.91,324.73)" xml:id="annotation.GJ56O48UIH2JLAMNDNVQONJEF" visible="1"/><polyline fill="none" points="216.158051,292.537842 220.070145,287.861572 221.222275,286.383087 222.091904,284.653198 222.263855,282.811646 221.875427,281.027710 220.987625,279.519653 219.591827,278.420319 215.560944,276.840485 212.917847,275.311798 212.496063,274.617371 212.313477,272.987549 212.736786,272.424194 214.351425,271.798218 218.006271,271.845367 219.518295,271.147644 220.619431,269.836304 221.063248,269.036072 221.270309,267.002655 220.529160,262.713440 219.564255,258.767151 220.451279,253.921738 220.879898,249.286896 220.954132,245.514053 220.693161,240.681046 220.426407,238.488022 221.129257,233.869843 222.301132,229.826782 222.828033,229.275558 223.501114,229.015320 228.376923,228.735611 231.605591,227.851273 " stroke-linecap="round" stroke-linejoin="round" stroke="#ff0000" stroke-width="3.00" fade-time="6" fade-enable="0" RotationPoint="(320.000000,240.000000)" transform="rotate(0.00,221.96,260.19)" xml:id="annotation.5MVQ4SLMFD3LPD7LKV2NBJSOJ" visible="1"/><polyline fill="none" points="246.087646,207.576370 249.810471,208.626617 253.770203,209.246368 257.661102,209.716049 262.307556,210.835831 267.302612,212.409134 272.044769,214.120834 276.151031,216.965851 280.569092,219.387756 284.652100,221.010422 287.872894,221.747910 292.805420,221.997101 296.629791,221.527740 300.480591,220.709244 304.339142,220.299866 308.712616,220.178574 312.892914,220.655167 317.486145,221.777267 322.414276,223.031937 325.951843,224.277832 330.030334,226.108398 334.904022,228.597824 339.844727,230.289734 344.650330,230.657227 348.166626,230.434814 352.750519,229.911102 354.389587,230.125549 356.151398,230.747681 " stroke-linecap="round" stroke-linejoin="round" stroke="#ff0000" stroke-width="3.00" fade-time="6" fade-enable="0" RotationPoint="(320.000000,240.000000)" transform="rotate(0.00,301.12,219.16)" xml:id="annotation.6KNLOV7185343F0RTPFBJSF66" visible="1"/></g><g class="group" xml:id="annotation.KNLLIFKI8P7819I8S6FJ5DHLB" xbk_transform="rotate(0.00,300.64,191.11)"><polyline fill="none" points="118.645432,111.994690 123.585793,108.701111 127.643066,106.186981 131.573990,103.980438 136.135742,101.002373 139.399139,98.634521 142.995010,96.151817 147.024734,93.618065 151.426086,91.061623 156.242889,88.495102 158.728836,87.102684 161.244354,85.638031 163.779556,84.125214 166.327866,82.687592 168.884964,81.300056 171.447876,79.945953 174.121964,78.506828 176.870163,77.011040 179.667755,75.477478 182.498306,74.026009 185.350784,72.629257 188.217911,71.268997 190.987564,69.825783 193.692169,68.327263 196.353439,66.791885 199.093094,65.339195 201.884995,63.941635 204.711731,62.580837 207.561707,61.244534 210.427155,59.924568 213.302917,58.615494 216.078293,57.313683 218.786743,56.016708 221.450577,54.722954 224.084656,53.538635 226.698914,52.427261 229.299942,51.364521 231.892151,50.226929 234.478516,49.039440 239.426208,46.683014 243.770660,44.562969 248.133118,42.834049 252.467758,41.243198 256.539764,39.463409 260.208984,37.885715 265.004150,35.791283 269.956116,33.161449 274.033295,31.239462 278.913696,27.998672 " stroke-linecap="round" stroke-linejoin="round" stroke="#0000ff" stroke-width="3.00" fade-time="6" fade-enable="0" RotationPoint="(320.000000,240.000000)" transform="rotate(0.00,198.78,70.00)" xml:id="annotation.5DECT3F6M144TB5V1G0GLJBAQ" visible="1"/><polyline fill="none" points="278.913696,27.998672 " stroke-linecap="round" stroke-linejoin="round" stroke="#0000ff" stroke-width="3.00" fade-time="6" fade-enable="0" RotationPoint="(320.000000,240.000000)" transform="rotate(0.00,279.41,28.50)" xml:id="annotation.NNTDBN6V7D0ST24EH33J2JKU7" visible="1"/><polyline fill="none" points="204.572388,125.511292 209.537491,124.747124 213.588516,124.033340 217.899796,122.749092 222.466949,121.689171 225.934845,120.916161 229.264038,119.857430 232.817657,118.671722 236.542542,117.429565 240.343536,116.162346 244.464432,114.597900 248.799026,112.829849 253.228546,110.971298 257.700317,109.072533 262.298126,107.155884 267.202240,105.231300 269.818756,104.160248 272.528595,103.017120 275.300598,101.825935 278.006836,100.602707 280.669128,99.358131 283.302216,98.099312 286.023071,96.938278 288.802460,95.842438 291.620850,94.790039 294.465240,93.659348 297.327026,92.476448 300.200317,91.258751 303.081299,90.125137 305.967468,89.047569 308.857025,88.007362 311.856140,86.884804 314.928314,85.707321 318.049164,84.493233 321.095184,83.362030 324.091370,82.286057 327.054260,81.246925 330.102295,80.125069 333.207062,78.948074 336.349640,77.734306 339.410156,76.603310 342.415955,75.527481 345.385315,74.488441 348.437653,73.473923 351.545288,72.475746 354.689789,71.488480 357.751556,70.508476 360.758209,69.533325 363.728149,68.561394 366.673553,67.591614 369.602661,66.623276 372.520844,65.655891 375.324524,64.796417 378.051849,64.008881 380.728241,63.269314 383.370697,62.561718 385.990570,61.875443 388.595306,61.203369 391.190002,60.540775 393.777954,59.884502 396.361511,59.232430 401.234558,57.935776 405.903442,56.644321 410.481567,55.355179 414.733276,54.353123 418.661163,53.550186 422.194794,52.835743 425.553192,52.160629 430.459503,51.463512 434.738098,50.970894 439.066986,49.843365 443.900146,49.318623 444.974792,49.239044 " stroke-linecap="round" stroke-linejoin="round" stroke="#0000ff" stroke-width="3.00" fade-time="6" fade-enable="0" RotationPoint="(320.000000,240.000000)" transform="rotate(0.00,324.77,87.38)" xml:id="annotation.JF5UNCBB3501R7CDRVG6S43QM" visible="1"/><polyline fill="none" points="297.257660,156.406372 302.030701,154.305908 306.896240,152.208206 311.734955,149.834518 315.170380,148.336365 319.200348,146.597778 323.494476,144.752319 327.906067,142.859375 332.369873,140.945312 336.856812,138.735825 341.461395,136.430771 346.368530,134.333557 348.878540,133.216461 351.410095,132.042648 353.956024,130.830994 356.618744,129.594131 359.359375,128.340454 362.151947,127.075577 364.871857,125.910507 367.543304,124.811958 370.182465,123.757774 372.907410,122.625893 375.689484,121.442192 378.509705,120.223969 381.355286,118.982727 384.217865,117.726128 387.091675,116.459290 389.973053,115.185646 392.859406,113.907440 395.749146,112.626213 398.641083,111.450233 401.534546,110.344429 404.428955,109.285400 407.324036,108.257561 410.219604,107.250496 413.115417,106.257309 415.904114,105.273354 418.621490,104.295563 421.291260,103.321877 423.929291,102.350922 426.546234,101.381805 429.149017,100.413902 431.742432,99.554077 434.329529,98.766319 436.912476,98.026596 441.784882,96.632545 446.453461,95.297806 451.031464,93.989418 455.283081,92.692757 459.210999,91.508575 462.744598,90.624695 466.103027,89.874260 470.437134,88.848686 475.297394,87.541077 480.067627,86.913292 482.628174,85.926964 " stroke-linecap="round" stroke-linejoin="round" stroke="#0000ff" stroke-width="3.00" fade-time="6" fade-enable="0" RotationPoint="(320.000000,240.000000)" transform="rotate(0.00,389.94,121.17)" xml:id="annotation.KKN2FJE3PD7RB2FREVVAPD2HD" visible="1"/><polyline fill="none" points="313.670654,173.784866 316.753845,172.799530 320.365112,170.703766 324.784424,168.676331 329.598175,166.716766 333.193420,165.422791 336.936798,163.846451 340.853271,162.073120 345.097015,160.212219 349.772247,158.312408 354.603516,156.395309 359.253845,154.470505 361.759766,153.506683 364.395844,152.542297 367.118713,151.577560 369.792145,150.612564 372.432617,149.647415 375.051147,148.682159 377.762299,147.716843 380.535217,146.751465 383.349274,145.786057 386.190826,144.927902 389.050659,144.141266 391.922668,143.402267 394.695526,142.587799 397.402313,141.722992 400.065033,140.824631 402.805634,140.118423 405.598206,139.540375 408.425354,139.047729 411.168304,138.504745 413.855194,137.928207 416.504639,137.329300 419.129089,136.715469 421.736938,136.091705 426.708527,134.933777 431.063629,134.061554 434.286499,133.602402 438.216492,133.235062 " stroke-linecap="round" stroke-linejoin="round" stroke="#0000ff" stroke-width="3.00" fade-time="6" fade-enable="0" RotationPoint="(320.000000,240.000000)" transform="rotate(0.00,375.94,153.51)" xml:id="annotation.O429Q8C66D3T70M0E2SHK3F71" visible="1"/><polyline fill="none" points="145.678619,188.266937 150.640976,184.354797 154.907059,181.820541 159.881821,179.253922 163.820755,177.217072 168.444473,174.730301 171.995239,173.275360 175.718857,171.913528 179.519287,170.485840 183.353867,168.778580 187.203613,167.233124 191.060089,165.723801 194.919601,163.980240 199.066483,162.418640 203.412613,161.009445 207.847290,159.667969 212.035263,158.356583 216.149353,157.058594 220.480927,155.766525 224.623077,154.477112 228.609512,153.188873 232.526764,151.901169 236.699326,150.613708 240.842331,149.326309 244.471573,148.038986 248.158524,147.037750 251.835403,146.127899 255.257462,145.008347 260.199585,143.684372 265.060944,142.612686 269.385834,141.615738 272.640869,140.964737 277.519928,140.281189 281.111053,140.078644 283.741058,139.993362 " stroke-linecap="round" stroke-linejoin="round" stroke="#0000ff" stroke-width="3.00" fade-time="6" fade-enable="0" RotationPoint="(320.000000,240.000000)" transform="rotate(0.00,214.71,164.13)" xml:id="annotation.RVV7RS2EFH2357120QS7PBEJP" visible="1"/><polyline fill="none" points="187.193909,233.644089 192.156250,229.731949 196.422348,227.197678 200.643784,225.273727 205.291626,222.832321 210.065796,220.583252 213.557648,218.935471 217.255066,217.237656 221.043869,215.767929 224.873260,214.113449 228.827988,212.305389 233.088730,210.429077 237.199402,208.522400 241.279129,206.709518 245.595413,205.188629 250.016815,203.797501 254.377701,202.356796 258.461365,200.643738 262.707886,199.095703 266.991028,197.585251 271.040161,195.841202 274.985229,194.279373 278.991364,192.870071 283.274963,191.528534 287.109711,190.217148 290.709229,188.919128 294.454498,187.627075 297.978485,186.337677 302.977997,184.691589 307.856354,183.238419 312.698822,181.735107 316.958527,180.610260 321.281036,179.269119 326.206848,177.934540 329.118195,177.646729 " stroke-linecap="round" stroke-linejoin="round" stroke="#0000ff" stroke-width="3.00" fade-time="6" fade-enable="0" RotationPoint="(320.000000,240.000000)" transform="rotate(0.00,258.16,205.65)" xml:id="annotation.1HTDJLDGJ152HDJ3PQN1DODUO" visible="1"/><polyline fill="none" points="203.606903,269.366547 207.885834,265.194916 211.752213,261.992004 216.050598,258.592865 220.511246,254.854172 224.253845,251.466537 228.592941,248.257706 233.275604,244.243668 238.060120,240.169800 241.554382,237.831711 245.145615,235.505249 248.529648,232.683380 252.107605,229.927322 255.950592,227.379395 260.161682,225.174225 264.250244,222.835342 268.320160,220.365494 272.632080,217.837479 277.051575,215.283585 281.411591,212.825470 285.494873,210.660233 290.027283,208.339081 294.687805,206.091675 298.904663,204.377670 302.924286,202.614670 306.856262,200.758362 310.749298,198.860580 314.338989,197.230453 317.722321,195.898071 322.642639,194.437576 327.282928,192.800980 332.128845,190.946487 336.673828,189.058472 338.772919,188.266937 " stroke-linecap="round" stroke-linejoin="round" stroke="#0000ff" stroke-width="3.00" fade-time="6" fade-enable="0" RotationPoint="(320.000000,240.000000)" transform="rotate(0.00,271.19,228.82)" xml:id="annotation.TKPG95QCP138JCH3DGNCB4TIJ" visible="1"/><polyline fill="none" points="337.807434,229.782211 333.776031,227.094604 329.386688,224.717972 325.309357,223.104263 320.328644,221.425369 315.804291,220.129578 311.779755,218.840607 307.222260,217.552979 303.111694,216.265625 298.231201,214.656494 293.396851,213.047363 289.474609,212.081894 286.182037,211.724304 282.680450,211.458115 277.908112,210.919678 274.145966,211.344177 269.836853,212.256653 265.794769,213.945435 261.156860,217.058838 257.321533,220.748459 254.314041,225.597992 252.110901,229.718536 250.756821,233.172272 250.022278,236.509598 249.338226,240.174118 248.349991,244.649567 247.485077,248.693268 247.181107,252.608994 247.091080,256.486847 247.171661,260.353485 247.827255,264.216766 249.009842,269.080383 250.788986,273.684418 253.313751,278.062439 256.514191,282.661987 259.756714,286.701355 264.737732,291.280579 269.641266,294.601868 274.078400,298.356934 278.689606,301.911682 282.731293,305.224213 287.311005,309.648071 291.439178,314.518860 294.034332,318.298981 294.466248,320.686310 294.106293,324.728882 293.320190,328.751556 292.093567,333.506500 291.032806,337.807037 291.633728,342.041626 291.899261,343.240662 293.052460,345.145111 296.783356,348.792023 301.280151,351.418793 305.028992,353.072693 308.857391,353.956085 312.709351,354.217865 316.854370,354.009338 321.193481,353.268127 324.910736,352.083038 329.562500,349.247925 333.792145,344.640045 337.793976,339.641724 341.023926,334.991699 344.243713,330.187714 348.226318,325.649506 352.557953,321.240997 356.381439,316.747528 359.679413,312.161499 362.819916,307.276672 364.408752,303.353333 365.976135,298.841461 366.428619,294.000305 366.154297,290.398682 365.396729,286.289978 364.179718,282.018494 363.119110,279.158386 360.790466,275.029114 358.625244,271.057190 356.979736,266.959167 356.519562,264.291656 356.887146,261.961853 357.872986,259.960907 360.344604,257.628235 363.854156,255.685501 368.136078,254.275528 372.062836,252.546631 374.272430,251.306610 374.883118,250.353760 375.275604,247.864655 374.380890,243.960327 372.756958,241.110931 368.181763,236.383759 363.806580,232.456680 359.038788,228.592804 354.731842,225.289566 350.012726,222.824295 346.680298,221.605972 343.600281,221.092972 " stroke-linecap="round" stroke-linejoin="round" stroke="#0000ff" stroke-width="3.00" fade-time="6" fade-enable="0" RotationPoint="(320.000000,240.000000)" transform="rotate(0.00,311.18,282.57)" xml:id="annotation.6CK20BGFA92B19ODORQUN0QFP" visible="1"/></g><g class="group" xml:id="annotation.KT2O283Q7L3CH7ICTALEU2QFQ" xbk_transform="rotate(0.00,297.26,273.54)"><polyline fill="none" points="231.605591,281.917664 232.630676,280.892609 236.997009,278.624054 241.180984,276.109955 245.619049,273.547302 249.357742,271.618408 253.183167,269.688110 257.546753,267.244812 262.236725,264.482635 267.023346,262.138550 270.518127,260.468567 274.109558,258.760864 277.493713,257.286682 282.414429,254.738068 285.940582,253.174500 289.545959,251.657135 292.936279,249.910049 297.860535,247.629669 302.716553,245.082642 306.227600,243.519501 309.718994,242.109589 314.204254,240.109665 318.775299,238.265503 322.787750,236.884735 327.367126,234.836502 331.859406,233.367111 336.509338,231.380310 339.425293,230.410660 341.669342,230.747681 " stroke-linecap="round" stroke-linejoin="round" stroke="#0000ff" stroke-width="3.00" fade-time="6" fade-enable="0" RotationPoint="(320.000000,240.000000)" transform="rotate(0.00,286.64,256.16)" xml:id="annotation.HBJ0R2MS7T0A5DDBG2E2O6A8K" visible="1"/><polyline fill="none" points="271.189911,316.674652 275.733856,315.330872 279.930450,313.425354 283.637054,312.148010 288.084656,310.351135 292.906769,307.935425 296.503937,306.497101 300.248169,304.856598 304.165039,303.054749 308.408936,301.181213 312.798218,299.275757 317.252075,297.356110 321.734589,295.430267 326.229919,293.787628 330.623688,292.342407 334.721924,290.984894 338.688843,289.380341 342.704681,287.701721 346.992615,286.240509 350.829285,285.161987 355.718750,283.665649 359.598999,282.435608 362.909698,281.917664 " stroke-linecap="round" stroke-linejoin="round" stroke="#0000ff" stroke-width="3.00" fade-time="6" fade-enable="0" RotationPoint="(320.000000,240.000000)" transform="rotate(0.00,317.05,299.30)" xml:id="annotation.VLOG657G1P7VB68C4EG4JFVB2" visible="1"/></g><polyline fill="none" points="404.424988,335.984070 400.223999,335.697968 395.346924,334.640259 391.532196,333.202026 386.613464,330.793945 381.972290,326.969391 378.041992,322.896271 375.462158,318.436005 373.399048,313.935425 371.786652,309.903320 369.983185,305.062561 368.390686,300.706726 367.191711,296.019104 366.157074,291.233124 365.278351,286.525330 364.863068,282.472382 364.102112,277.593231 363.942474,273.377441 363.895142,269.410706 363.881104,265.517731 363.876923,261.646637 363.875702,257.782013 363.875336,253.633270 363.589203,249.293045 363.111053,245.289444 362.969330,241.385559 362.927338,237.225159 363.201019,232.881485 363.675415,228.876846 364.102051,224.972672 365.207275,220.321716 366.565887,215.533203 368.789062,211.027374 372.702942,206.556778 376.453674,202.452255 378.476685,200.257080 382.699615,197.099670 386.688477,194.409927 391.608429,191.812592 395.537903,189.877716 399.944244,188.052872 403.907898,186.999649 408.756836,186.923996 413.253479,186.796295 417.696808,187.151794 422.529907,187.784439 426.619568,188.636505 431.228363,190.080917 435.478455,192.380234 439.967896,195.099731 444.182587,197.943726 448.933655,201.701675 453.587769,205.638245 458.199280,210.189743 462.621185,214.603394 467.177460,219.158920 471.042267,223.309708 474.904419,227.791611 477.991547,231.951675 481.036835,235.947937 484.340179,240.710480 487.602997,245.350189 490.395660,249.353806 493.451691,253.780075 496.407379,258.325562 499.546021,262.787323 503.534515,267.585510 506.763397,271.996643 509.982971,276.216888 513.201416,280.451782 515.655518,284.875336 518.806213,289.864044 521.274780,293.867279 523.799255,298.211823 525.875305,303.194153 527.687866,308.016357 529.282043,312.154449 530.374207,315.835938 530.667236,319.091034 530.797546,322.683228 530.855408,326.317963 530.881165,329.721313 530.892578,333.307861 530.790344,337.047424 530.387390,340.854919 529.557434,345.079529 528.632080,349.394592 527.678528,353.045074 526.716553,357.702515 525.752075,361.621277 523.761841,365.845734 521.646545,370.494415 518.902283,374.665466 514.434265,378.926025 510.551056,380.985321 507.267700,382.302643 503.555603,383.388763 499.402771,383.871490 495.912109,383.799957 491.534515,383.442657 487.519867,383.050659 483.612732,382.255157 479.451324,381.340027 475.107361,380.389465 470.816559,379.142365 466.434296,377.414032 462.132172,375.543091 457.460388,373.629974 452.679138,371.704285 447.865448,369.488861 443.042114,366.794159 438.502075,363.957581 434.439240,361.078857 430.517822,358.187683 426.352173,355.292847 422.006958,352.396881 418.001862,349.214569 414.097534,345.840088 410.223083,342.515961 405.582214,338.061005 400.795654,333.418457 396.004181,329.005035 391.926880,324.545532 387.358948,320.565582 383.246307,316.680359 378.365387,311.848053 373.530975,307.020050 369.080933,302.570923 366.675507,300.058258 365.806122,298.330688 " stroke-linecap="round" stroke-linejoin="round" stroke="#ff0000" stroke-width="3.00" fade-time="6" fade-enable="0" RotationPoint="(320.000000,240.000000)" transform="rotate(0.00,446.91,285.33)" xml:id="annotation.61E16A8O7L56V3K4UIPVO6NP6" visible="1"/></g></svg>