<?xml version="1.0" encoding="UTF-8" standalone="yes"?><svg width="800" height="688" xml:id="page.31LVI9AL4P0218NTI0SKL7U5N"><title>Sep 2-10:40 AM</title><g class="foreground"><g class="group" xml:id="annotation.EA87FCC6K102TE3NQHD4VKC67" xbk_transform="rotate(0.00,407.33,325.99)"><polyline fill="none" points="189.866241,296.560516 189.866241,301.221649 189.340958,305.697021 189.172760,310.185303 189.122910,314.195038 189.332550,318.636322 189.760818,322.784821 190.455627,327.045349 191.410690,331.938202 192.585953,336.589294 192.923584,338.598755 " stroke-linecap="round" stroke-linejoin="round" stroke="#000000" stroke-width="1.00" fade-time="6" fade-enable="0" RotationPoint="(320.000000,240.000000)" transform="rotate(0.00,191.02,317.58)" xml:id="annotation.CCG6MJD3495TR7QBI3T48EC43" visible="1"/><polyline fill="none" points="225.025482,303.439514 220.868332,302.003082 218.676788,301.612152 213.988937,301.854736 212.222244,302.565308 211.394455,303.111481 210.842590,303.815308 210.229401,305.503204 210.409821,307.159271 211.934631,311.069397 214.771271,315.308441 217.373856,319.669464 219.928848,324.609558 222.071808,329.278870 222.536728,332.081665 221.966080,333.833893 221.457214,334.657837 219.533020,335.799835 217.064209,336.420593 212.245850,336.353607 207.997681,335.909424 204.504868,334.838989 203.616821,334.223877 202.403641,332.634552 202.216019,331.904938 202.260788,331.248749 203.553055,328.569366 205.764023,326.341858 209.639420,323.831940 214.405869,320.970825 219.030640,318.358002 224.016907,315.687378 225.596359,314.573029 226.864471,313.228485 227.185669,312.513275 227.316055,311.039124 227.062088,310.374298 226.100494,309.182617 223.720993,307.962616 218.910828,306.496826 " stroke-linecap="round" stroke-linejoin="round" stroke="#000000" stroke-width="1.00" fade-time="6" fade-enable="0" RotationPoint="(320.000000,240.000000)" transform="rotate(0.00,214.77,319.02)" xml:id="annotation.ERO9G4RJFT1IN78BDD3005UQR" visible="1"/><polyline fill="none" points="251.012756,310.318481 250.317642,308.572784 249.543152,307.532684 248.179855,306.957214 246.526505,306.786377 242.936203,307.595154 240.098816,308.888763 238.773575,310.022766 237.618423,311.659058 237.218231,313.518677 237.653320,317.074738 238.762390,318.445099 241.070206,319.945068 241.836624,320.303101 243.367599,320.474426 244.132538,320.401215 246.832138,319.080902 249.377731,317.076111 252.460312,312.754852 253.269699,311.656097 253.366638,311.719788 252.479660,316.311859 251.985245,320.445343 251.838760,324.897247 251.795349,329.443481 252.186447,334.327423 252.541412,337.070068 " stroke-linecap="round" stroke-linejoin="round" stroke="#000000" stroke-width="1.00" fade-time="6" fade-enable="0" RotationPoint="(320.000000,240.000000)" transform="rotate(0.00,245.29,321.93)" xml:id="annotation.KP14QSLEUH0LN4030T78O9618" visible="1"/><polyline fill="none" points="264.770721,311.082825 269.026093,311.082825 273.966278,311.309265 278.023773,311.740875 281.077850,312.627167 281.586914,313.216431 281.756470,313.948944 281.699646,314.777008 281.406982,315.413971 280.402405,316.348206 275.540771,318.186737 270.891449,320.148376 270.549713,320.693390 270.491730,321.311493 270.622925,321.978363 272.127563,323.398743 276.839630,325.980804 281.334167,328.126434 285.769928,330.185913 290.496216,332.869476 291.093018,333.505341 291.321045,334.099091 291.303192,334.664795 291.121460,335.211761 290.240112,336.046021 289.648407,336.387360 285.207336,336.935211 280.656311,337.043427 276.099213,337.064819 271.806793,337.674377 270.885376,337.834412 " stroke-linecap="round" stroke-linejoin="round" stroke="#000000" stroke-width="1.00" fade-time="6" fade-enable="0" RotationPoint="(320.000000,240.000000)" transform="rotate(0.00,278.05,324.46)" xml:id="annotation.JU3P9LRQRP0L34DHK6TICMFO5" visible="1"/><polyline fill="none" points="195.216583,355.414032 197.217041,354.888733 201.922821,354.275421 206.725891,353.710266 211.172485,353.237427 214.881744,352.749786 219.075851,352.473175 223.951477,351.985413 228.755386,351.708801 232.316650,351.644104 236.079163,351.615356 239.733002,351.602570 243.565002,351.596893 247.617722,351.594391 251.966690,351.593231 256.220856,351.819244 260.461212,352.117828 264.893616,352.250549 269.411316,352.309509 274.051880,352.335754 278.945190,352.347382 283.724426,352.579010 288.481201,352.965088 293.426208,353.419739 295.933838,353.574951 298.454834,353.678436 303.265869,353.878326 307.385712,354.250244 312.235809,354.531311 315.216583,354.649689 " stroke-linecap="round" stroke-linejoin="round" stroke="#000000" stroke-width="1.00" fade-time="6" fade-enable="0" RotationPoint="(320.000000,240.000000)" transform="rotate(0.00,255.22,353.50)" xml:id="annotation.TNTS47M56P58T1LDFU95F0SJI" visible="1"/><polyline fill="none" points="302.222961,308.025482 302.222931,312.938934 301.817169,316.756653 300.834320,321.306335 299.013123,325.542267 297.911926,330.310791 296.876587,334.473572 296.108307,337.070068 " stroke-linecap="round" stroke-linejoin="round" stroke="#000000" stroke-width="1.00" fade-time="6" fade-enable="0" RotationPoint="(320.000000,240.000000)" transform="rotate(0.00,299.17,322.55)" xml:id="annotation.2I85E9IKUD3RF095DGJLJ9H8F" visible="1"/><polyline fill="none" points="322.095551,314.904480 318.001434,319.777008 315.750977,322.377930 313.283936,324.958221 310.870972,328.677917 309.710999,330.733521 309.253174,331.317047 308.744537,332.871277 308.608917,333.761322 308.911102,335.429688 309.696533,337.020416 311.656006,339.263428 314.435242,340.956573 318.229645,342.106079 319.802551,342.420410 " stroke-linecap="round" stroke-linejoin="round" stroke="#000000" stroke-width="1.00" fade-time="6" fade-enable="0" RotationPoint="(320.000000,240.000000)" transform="rotate(0.00,315.35,328.66)" xml:id="annotation.MQQAGNDLRD1RT75326HA6LNSJ" visible="1"/><polyline fill="none" points="323.624207,331.719757 320.524963,333.609131 317.501312,336.782776 314.971191,341.005920 314.452240,342.420410 " stroke-linecap="round" stroke-linejoin="round" stroke="#000000" stroke-width="1.00" fade-time="6" fade-enable="0" RotationPoint="(320.000000,240.000000)" transform="rotate(0.00,319.04,337.07)" xml:id="annotation.JU3DTD0EVH1BF7PUT38F2NTLP" visible="1"/><polyline fill="none" points="350.375824,333.248413 354.380951,332.643433 358.384888,332.757782 362.781189,333.151520 366.426758,334.012756 " stroke-linecap="round" stroke-linejoin="round" stroke="#000000" stroke-width="1.00" fade-time="6" fade-enable="0" RotationPoint="(320.000000,240.000000)" transform="rotate(0.00,358.40,333.33)" xml:id="annotation.E07JAK7AC16EFBPFC8E7O67BA" visible="1"/><polyline fill="none" points="404.643341,323.312103 403.579498,327.720917 402.681213,332.313843 402.448364,336.311920 402.596191,341.018768 403.823792,345.606628 405.407654,348.535034 " stroke-linecap="round" stroke-linejoin="round" stroke="#000000" stroke-width="1.00" fade-time="6" fade-enable="0" RotationPoint="(320.000000,240.000000)" transform="rotate(0.00,403.93,335.92)" xml:id="annotation.P29MCDO1LL0HP0TR22J03UD3Q" visible="1"/><polyline fill="none" points="401.585999,319.490448 402.281097,317.744781 403.055603,316.704651 407.403961,314.290161 410.784302,313.031158 415.635773,312.260986 418.401306,311.847137 " stroke-linecap="round" stroke-linejoin="round" stroke="#000000" stroke-width="1.00" fade-time="6" fade-enable="0" RotationPoint="(320.000000,240.000000)" transform="rotate(0.00,409.99,315.67)" xml:id="annotation.DC04G83KQT0KR1HA6CSK6LHRI" visible="1"/><polyline fill="none" points="403.878998,334.777069 405.502014,334.777069 410.001892,333.055145 414.579651,331.719757 " stroke-linecap="round" stroke-linejoin="round" stroke="#000000" stroke-width="1.00" fade-time="6" fade-enable="0" RotationPoint="(320.000000,240.000000)" transform="rotate(0.00,409.23,333.25)" xml:id="annotation.GU9V7TVHHP7DB8EG5G97VAC9D" visible="1"/><polyline fill="none" points="421.458618,342.420410 420.647095,344.043396 420.408081,344.096893 420.248718,343.707916 420.056915,338.960205 420.999298,334.177795 422.160370,332.783875 422.945557,332.174408 424.950348,331.723633 429.855133,332.325073 430.630615,332.484100 " stroke-linecap="round" stroke-linejoin="round" stroke="#000000" stroke-width="1.00" fade-time="6" fade-enable="0" RotationPoint="(320.000000,240.000000)" transform="rotate(0.00,425.34,337.91)" xml:id="annotation.BNGE3EP5FT3IDB7R1GNJG17CB" visible="1"/><polyline fill="none" points="447.445862,350.063721 448.663116,350.875214 451.043152,351.379883 454.280518,350.940186 458.906982,349.456757 462.326233,347.214783 464.367249,345.313019 464.671631,344.603577 464.704651,343.875854 464.556824,343.135925 464.118591,342.727539 463.486694,342.540253 462.725769,342.500275 461.427368,342.908844 460.843323,343.255585 460.623779,343.826447 460.832825,345.366608 461.944824,346.957001 462.716949,347.737762 464.933655,348.831787 469.697113,350.226135 471.904480,350.828033 " stroke-linecap="round" stroke-linejoin="round" stroke="#000000" stroke-width="1.00" fade-time="6" fade-enable="0" RotationPoint="(320.000000,240.000000)" transform="rotate(0.00,459.68,346.94)" xml:id="annotation.I3A3OP23154KNC43PTCPVLISF" visible="1"/><polyline fill="none" points="487.955444,339.363068 488.361176,344.024231 489.174286,347.565399 489.277557,347.463989 489.307373,346.190674 488.860992,341.208710 488.341949,336.472137 488.031769,331.972809 487.970551,327.309540 488.364227,323.092041 489.504395,318.797791 490.087585,317.314240 490.912964,316.088715 492.525391,315.204346 494.742371,314.698059 497.426208,314.756104 500.091095,315.744446 504.796112,318.975128 506.901367,321.092896 508.758636,324.850464 508.864471,326.600220 508.773804,327.542389 507.993591,329.268677 507.428864,330.085724 505.442596,331.219971 501.232788,332.640198 496.287048,333.213196 494.007996,333.600769 493.179443,333.992889 492.032349,335.107971 491.947235,335.761993 492.532166,337.168121 494.699585,338.986359 499.408600,341.749146 504.005402,343.425323 508.114044,344.285950 509.908447,344.155396 511.328766,343.587830 511.945312,343.198700 512.856812,342.086945 513.218811,341.433777 513.394470,339.802124 513.274414,338.624023 513.221069,339.232788 513.881958,341.866241 515.559998,345.116638 517.252747,346.899414 517.932861,347.444611 519.820801,348.050415 520.918762,348.211945 521.820618,348.064850 523.275574,347.222076 525.049561,344.909393 526.245239,342.072723 526.731567,339.080780 526.884766,338.920074 528.312927,343.704651 530.955994,348.144287 533.050964,350.828033 " stroke-linecap="round" stroke-linejoin="round" stroke="#000000" stroke-width="1.00" fade-time="6" fade-enable="0" RotationPoint="(320.000000,240.000000)" transform="rotate(0.00,510.50,332.76)" xml:id="annotation.QQ67OFL5MD1QP3TFFU73RMA8J" visible="1"/><polyline fill="none" points="551.394958,336.305756 547.139526,334.583801 543.802368,333.776184 542.047363,333.935913 541.341553,334.216278 540.955994,334.827850 540.753967,336.639679 541.400208,338.407440 545.427856,343.279816 549.879272,347.120972 552.163147,349.333344 552.416626,350.001434 552.330811,350.616638 552.018860,351.196655 551.386292,351.413483 548.637024,350.992096 544.149658,349.796997 539.200562,348.279236 537.636963,347.770721 " stroke-linecap="round" stroke-linejoin="round" stroke="#000000" stroke-width="1.00" fade-time="6" fade-enable="0" RotationPoint="(320.000000,240.000000)" transform="rotate(0.00,545.03,342.59)" xml:id="annotation.JFUP12D4FL1TJ6JKKHRGRCJ71" visible="1"/><polyline fill="none" points="564.388550,337.070068 563.982788,335.447052 563.608459,334.884033 562.513184,334.031982 559.652649,333.074829 556.927307,333.064880 556.357117,333.550720 555.723511,335.222809 555.724365,336.008423 556.178284,337.334259 559.820190,342.251495 563.776245,346.383179 563.980347,347.015533 563.861694,347.606934 563.527771,348.171082 562.880493,348.547150 561.028992,348.965057 557.599304,348.794556 552.923584,347.006378 " stroke-linecap="round" stroke-linejoin="round" stroke="#000000" stroke-width="1.00" fade-time="6" fade-enable="0" RotationPoint="(320.000000,240.000000)" transform="rotate(0.00,558.66,341.01)" xml:id="annotation.Q3KPJK9QKP0RRAJSL91SKEFOQ" visible="1"/><polyline fill="none" points="575.853516,339.363068 576.259277,344.276550 577.382202,347.770721 " stroke-linecap="round" stroke-linejoin="round" stroke="#000000" stroke-width="1.00" fade-time="6" fade-enable="0" RotationPoint="(320.000000,240.000000)" transform="rotate(0.00,576.62,343.57)" xml:id="annotation.BBQCV7QQR547R91UKIQET5AI7" visible="1"/><polyline fill="none" points="572.031860,327.898102 572.796204,329.426758 " stroke-linecap="round" stroke-linejoin="round" stroke="#000000" stroke-width="1.00" fade-time="6" fade-enable="0" RotationPoint="(320.000000,240.000000)" transform="rotate(0.00,572.53,328.66)" xml:id="annotation.5372Q2T2I517F6F5IIHU8JQPU" visible="1"/><polyline fill="none" points="594.197510,337.070068 591.098267,338.127991 588.480286,339.930603 587.256958,341.824219 586.356628,343.998871 586.337585,344.661682 586.769287,345.851044 587.753784,346.719391 588.373047,347.069855 589.740479,347.232788 590.461792,347.157288 591.716248,346.394073 593.905518,343.828125 595.932922,339.352478 595.948853,339.016296 595.789734,338.962036 595.513733,339.095703 595.433594,340.376587 595.765991,342.191437 598.152222,346.816467 598.783447,348.535034 " stroke-linecap="round" stroke-linejoin="round" stroke="#000000" stroke-width="1.00" fade-time="6" fade-enable="0" RotationPoint="(320.000000,240.000000)" transform="rotate(0.00,592.56,342.80)" xml:id="annotation.G3JPO3DR25667BBSTPA76R991" visible="1"/><polyline fill="none" points="607.955444,346.242065 612.612732,342.648651 614.328247,342.097229 616.223083,341.937042 618.197571,342.148956 619.754517,342.752716 622.543701,344.930023 625.535034,349.299377 " stroke-linecap="round" stroke-linejoin="round" stroke="#000000" stroke-width="1.00" fade-time="6" fade-enable="0" RotationPoint="(320.000000,240.000000)" transform="rotate(0.00,616.75,345.62)" xml:id="annotation.NKC03T1VO55E79HOHVU5V27VK" visible="1"/></g><g class="group" xml:id="annotation.9S97OHFORL02362KLSOGAOGC3" xbk_transform="rotate(0.00,235.10,190.34)"><polyline fill="none" points="185.280273,172.738861 184.448807,176.896027 183.483582,181.316574 182.475098,186.071182 181.684555,190.872910 181.097488,195.117783 180.773926,199.227493 180.936478,203.536957 181.756851,206.747467 182.987274,209.426758 " stroke-linecap="round" stroke-linejoin="round" stroke="#000000" stroke-width="1.00" fade-time="6" fade-enable="0" RotationPoint="(320.000000,240.000000)" transform="rotate(0.00,183.03,191.08)" xml:id="annotation.MSMLFFKKAT39PFSQM22JV85P0" visible="1"/><polyline fill="none" points="220.439514,171.210205 219.222229,170.804428 214.357483,171.098068 210.660629,171.593826 206.097321,173.587250 204.553513,174.644592 201.641281,177.733078 201.044388,179.487869 200.864029,181.513351 201.066956,183.262833 201.893158,184.889648 205.361572,189.547256 209.530716,194.139526 213.382874,198.726074 216.711243,203.418350 216.765045,204.147263 216.371872,205.636597 215.689529,206.220566 210.733261,208.066177 205.880402,207.978943 202.239258,207.508316 199.845123,206.433228 198.519287,205.067291 197.927933,204.227448 197.497345,202.614899 197.673965,200.964020 199.636536,196.543289 203.770111,191.794540 208.135239,188.166092 212.476273,184.995926 216.604980,182.142792 221.101486,179.393616 223.211731,177.928391 224.261169,176.560516 " stroke-linecap="round" stroke-linejoin="round" stroke="#000000" stroke-width="1.00" fade-time="6" fade-enable="0" RotationPoint="(320.000000,240.000000)" transform="rotate(0.00,210.88,189.44)" xml:id="annotation.HL2555PRQD0KL4E5SKD2ME4SO" visible="1"/><polyline fill="none" points="249.484100,172.738861 248.672562,171.927353 245.733368,171.422684 241.140762,171.862381 236.886963,172.611282 232.704239,174.827377 229.149780,177.838837 227.993179,180.175888 227.518387,183.019806 227.706543,183.839111 228.595001,185.202408 230.065598,186.147995 231.766586,186.681488 233.371857,186.635529 234.708084,186.105530 239.171875,182.248947 241.681580,177.646011 242.737228,175.127014 243.032883,174.840515 243.314911,174.904282 243.587860,175.201584 243.664688,176.664246 243.427765,181.468948 243.386719,185.828033 243.374573,190.346786 242.845154,194.693024 242.652527,198.734665 242.796005,200.598282 244.133759,203.312103 " stroke-linecap="round" stroke-linejoin="round" stroke="#000000" stroke-width="1.00" fade-time="6" fade-enable="0" RotationPoint="(320.000000,240.000000)" transform="rotate(0.00,238.50,187.37)" xml:id="annotation.AECRTPNNU15EH42OQVEHKB6CP" visible="1"/><polyline fill="none" points="267.828033,177.324844 265.387238,178.104889 263.572662,179.200195 262.313263,180.536270 259.405945,184.981689 258.113892,187.491638 256.510773,191.383118 255.463211,195.625671 255.426468,200.242004 256.359222,204.025467 257.711304,206.486435 259.187653,208.291336 260.873901,209.148605 264.663513,209.882202 269.646912,209.724319 273.694916,208.265121 278.378632,205.841110 282.081635,203.648102 285.730835,199.551483 288.213989,194.845398 289.434540,190.816345 289.422241,186.549988 288.572296,182.223282 287.776642,180.521057 286.403931,179.141678 282.295959,176.428619 278.241150,175.106445 273.782104,174.433228 268.905670,174.289352 267.828033,174.267517 " stroke-linecap="round" stroke-linejoin="round" stroke="#000000" stroke-width="1.00" fade-time="6" fade-enable="0" RotationPoint="(320.000000,240.000000)" transform="rotate(0.00,272.43,192.07)" xml:id="annotation.E66SSVLAUD4ALC3J6IDHPF0N2" visible="1"/></g><g class="group" xml:id="annotation.AHT6LHGPCH7BNBMLMVESE4RVC" xbk_transform="rotate(0.00,480.81,194.91)"><polyline fill="none" points="354.961792,178.089172 354.130402,182.624832 352.914764,187.323730 351.902710,191.733688 350.885010,195.901169 349.837891,200.411194 349.250427,204.767868 348.847137,208.662430 " stroke-linecap="round" stroke-linejoin="round" stroke="#000000" stroke-width="1.00" fade-time="6" fade-enable="0" RotationPoint="(320.000000,240.000000)" transform="rotate(0.00,351.90,193.38)" xml:id="annotation.EAAJDKA71L159BS24BJ47QD0P" visible="1"/><polyline fill="none" points="354.961792,172.738861 354.556061,173.956146 354.583344,175.233154 355.698578,180.157715 356.661560,184.495895 358.358032,189.240692 360.328735,194.178879 362.353638,198.837570 364.999390,203.029007 367.748962,207.128189 368.967712,208.999664 373.780243,213.731369 374.556244,213.995010 376.550842,214.061462 377.337494,213.705536 378.438080,212.404175 379.517487,207.820480 380.052948,203.400574 380.158691,198.438507 380.179565,193.595795 379.777954,189.342804 379.491058,185.146591 379.434357,180.996170 379.420410,178.853516 " stroke-linecap="round" stroke-linejoin="round" stroke="#000000" stroke-width="1.00" fade-time="6" fade-enable="0" RotationPoint="(320.000000,240.000000)" transform="rotate(0.00,367.37,193.40)" xml:id="annotation.T7FC7H96SH0PNAVAUSAP0O1CG" visible="1"/><polyline fill="none" points="387.063721,205.605103 388.686737,205.605103 393.031433,203.563736 394.641724,202.744522 397.751434,199.916214 399.600555,197.323624 400.007599,196.517227 400.024170,195.724869 399.363220,194.165054 398.745361,193.732132 397.152924,193.477539 395.312866,194.100433 392.175140,196.170517 390.456024,198.110458 388.670013,202.407990 388.389374,203.218918 388.400116,206.794739 389.774841,211.262756 390.703186,213.045319 391.358398,213.622559 392.992249,214.263962 394.850800,214.096100 396.639282,213.455322 400.783386,210.589142 404.108032,206.337280 407.103912,201.780624 407.803467,200.253525 408.023956,200.084091 408.170990,200.310837 408.249359,201.553589 407.834229,205.811310 408.132812,210.335632 408.498322,211.136719 409.583832,212.253281 410.314911,212.415146 412.033142,212.142059 413.702637,211.001572 418.095154,206.013565 421.199341,202.410294 421.540558,202.371185 421.768005,202.769775 423.014465,207.379715 423.593842,209.111450 424.417511,210.447266 426.647675,212.559982 428.492401,213.367081 429.459930,213.582306 431.440796,213.368500 433.283661,212.707321 434.668915,211.847290 438.075989,207.368637 439.120117,205.539642 440.255951,201.132019 440.258820,199.031082 439.305542,196.108292 437.509583,193.375809 " stroke-linecap="round" stroke-linejoin="round" stroke="#000000" stroke-width="1.00" fade-time="6" fade-enable="0" RotationPoint="(320.000000,240.000000)" transform="rotate(0.00,413.66,203.82)" xml:id="annotation.N42EB10KVH3E5CJAQJ2JQK8NQ" visible="1"/><polyline fill="none" points="491.777100,177.324844 490.965637,176.513321 489.434845,176.114914 487.339020,176.107681 482.533691,177.487045 478.762268,179.354523 474.955505,182.059280 471.138306,185.012146 467.770874,188.264984 464.756287,193.168350 462.084869,197.700623 460.964752,201.517349 460.764984,205.998077 461.320190,208.157654 462.587708,210.400101 465.256226,212.140259 469.547729,212.920090 472.961334,212.745392 475.726135,211.719757 " stroke-linecap="round" stroke-linejoin="round" stroke="#000000" stroke-width="1.00" fade-time="6" fade-enable="0" RotationPoint="(320.000000,240.000000)" transform="rotate(0.00,476.27,194.51)" xml:id="annotation.ERUB3B4K112JFBC9VRQCCBH42" visible="1"/><polyline fill="none" points="493.305786,198.726120 492.088470,199.131866 490.114227,201.007233 487.845490,205.292160 487.142212,207.589172 487.112732,210.025482 488.062164,212.070801 488.790955,212.972885 490.733032,213.975204 495.033936,214.618683 497.724396,214.324387 501.691345,212.390930 504.360596,210.427475 505.592804,208.505997 506.495758,206.323105 506.489655,203.251205 505.931000,201.558228 505.031647,200.239609 503.782623,199.087387 502.151794,198.462067 498.644409,198.110016 493.756409,198.396835 489.897095,199.881485 487.191101,201.783447 " stroke-linecap="round" stroke-linejoin="round" stroke="#000000" stroke-width="1.00" fade-time="6" fade-enable="0" RotationPoint="(320.000000,240.000000)" transform="rotate(0.00,496.80,206.36)" xml:id="annotation.6I0VMLPV75011FELHN924P003" visible="1"/><polyline fill="none" points="517.000000,197.961792 514.846497,202.607407 513.451477,206.902588 512.844116,209.528091 512.973145,211.736465 513.766602,213.454010 514.334839,214.149811 515.872131,214.922913 516.757690,215.129089 518.647461,214.905212 520.449829,214.239563 524.078796,211.440155 525.561218,209.844040 527.939880,205.404800 529.448486,200.463257 529.524902,199.045227 529.229309,197.197464 " stroke-linecap="round" stroke-linejoin="round" stroke="#000000" stroke-width="1.00" fade-time="6" fade-enable="0" RotationPoint="(320.000000,240.000000)" transform="rotate(0.00,521.18,206.16)" xml:id="annotation.8DOT1G0LQD1FNAFH960JU16FR" visible="1"/><polyline fill="none" points="537.636963,215.541412 537.196594,213.185516 537.967957,208.201202 540.085144,203.299591 541.731140,201.015411 543.832336,199.130783 545.542664,198.481354 547.350159,198.277634 550.630615,198.726120 " stroke-linecap="round" stroke-linejoin="round" stroke="#000000" stroke-width="1.00" fade-time="6" fade-enable="0" RotationPoint="(320.000000,240.000000)" transform="rotate(0.00,543.91,206.91)" xml:id="annotation.GT0SEB1N390MDD652CCGGII2B" visible="1"/><polyline fill="none" points="569.738892,203.312103 570.144653,202.094833 570.094299,201.566422 569.585510,200.526337 568.113770,199.724380 566.129150,199.254715 561.860657,199.645203 559.698181,200.153702 558.170898,200.945892 557.865479,201.479843 557.831787,202.090607 558.332153,203.533539 562.082825,208.518661 564.862854,212.223999 564.959534,213.075012 564.387512,214.700012 563.057556,216.045029 562.227356,216.641495 559.946045,217.077759 556.023376,216.845886 552.851318,216.239319 550.630615,215.541412 " stroke-linecap="round" stroke-linejoin="round" stroke="#000000" stroke-width="1.00" fade-time="6" fade-enable="0" RotationPoint="(320.000000,240.000000)" transform="rotate(0.00,560.39,208.17)" xml:id="annotation.IBC885VKL15V1DLJMI2SBFPA1" visible="1"/><polyline fill="none" points="575.853516,208.662430 580.767029,208.662430 584.954956,208.577499 589.833435,207.830994 590.778564,207.598602 592.281616,206.660950 592.920227,206.054214 593.261108,205.394958 593.413330,203.983032 592.518494,202.506271 591.804260,201.755768 589.425415,200.695419 586.641357,200.110916 584.271606,200.134216 580.507629,201.451385 575.979980,203.439285 574.607544,204.699142 573.601257,206.391403 573.154053,208.275864 573.408203,209.792816 574.506165,211.601746 575.509521,212.601486 579.796997,215.013138 582.759216,215.885010 586.880249,216.222641 588.082825,216.305740 " stroke-linecap="round" stroke-linejoin="round" stroke="#000000" stroke-width="1.00" fade-time="6" fade-enable="0" RotationPoint="(320.000000,240.000000)" transform="rotate(0.00,583.28,208.21)" xml:id="annotation.PMOQQSCVPP2ML5BOU0CBLOH3E" visible="1"/><polyline fill="none" points="611.777100,215.541412 611.777100,217.070068 " stroke-linecap="round" stroke-linejoin="round" stroke="#000000" stroke-width="1.00" fade-time="6" fade-enable="0" RotationPoint="(320.000000,240.000000)" transform="rotate(0.00,612.28,216.31)" xml:id="annotation.M91867OT0D0GB48P31DA8GSL3" visible="1"/></g><polyline fill="none" points="393.942688,355.414032 398.198059,355.414032 401.940979,355.414032 406.682953,355.819763 410.635742,356.072083 415.581390,356.146851 419.726685,356.169006 424.255585,356.176514 428.924683,356.404449 432.559692,356.783173 437.541473,356.911163 442.406982,356.936462 446.188751,356.940826 449.998596,356.942139 453.816742,356.942505 457.637390,356.942627 461.458710,356.942657 465.365204,356.942657 469.627228,356.942657 473.617096,356.942657 477.573456,356.942657 481.850311,356.942657 485.929504,356.942657 490.242676,357.027588 494.332611,357.467987 498.648956,357.636200 502.739838,357.686035 507.056458,357.785736 511.147461,358.230469 515.464050,358.399994 519.555054,358.450195 523.871704,358.465088 527.877747,358.554413 531.839050,358.996063 536.117249,359.164703 540.111877,359.214661 544.069763,359.229462 548.431885,359.233856 552.866638,359.320038 556.992615,359.760803 561.319580,359.929138 565.413696,359.979034 569.731262,359.993835 573.822510,359.998169 578.139221,359.999481 582.145325,359.999847 586.106506,360.000000 590.384705,360.000000 594.464294,360.000000 598.862488,360.000000 603.307983,360.000000 607.352112,360.000000 611.239807,360.000000 615.080994,360.000000 618.908447,360.000000 622.731750,360.084930 626.553955,360.525269 631.196777,360.943604 635.471375,361.528687 " stroke-linecap="round" stroke-linejoin="round" stroke="#000000" stroke-width="1.00" fade-time="6" fade-enable="0" RotationPoint="(320.000000,240.000000)" transform="rotate(0.00,514.71,358.47)" xml:id="annotation.5DD7KRMJUD6FFDP075FP9LAOL" visible="1"/><polyline fill="none" points="163.114655,220.891724 165.555466,221.942291 169.535309,222.552429 173.594559,223.223831 178.562347,223.734192 182.039749,223.938492 185.566864,224.312363 189.677521,224.594559 194.194778,224.689911 198.861557,224.708755 203.485535,224.712463 208.403000,224.713211 212.960098,224.713348 217.924118,224.713379 221.722977,224.713379 225.537903,224.713379 229.763290,224.713379 233.836685,224.307617 237.732925,224.055298 241.576675,223.980545 245.404877,223.958374 249.634262,223.546066 253.708817,223.291794 258.011169,223.216446 262.107361,223.194122 266.010345,223.187500 269.856110,223.185547 273.684906,222.779205 277.508698,222.526718 281.330994,222.451889 285.152771,222.429718 288.974518,222.423157 292.796204,222.421204 297.023621,222.014862 301.097595,221.762375 304.994019,221.687561 309.243561,221.665405 313.324097,221.253067 317.222473,220.998795 321.066864,220.923447 324.895264,220.901138 328.718933,220.894516 332.946899,220.486801 337.021118,220.233887 340.917603,220.158966 344.761353,220.136749 348.589569,220.130173 352.413208,220.128220 356.235413,219.721893 360.057251,219.469376 363.878967,219.394562 367.700684,218.966660 371.522308,218.707748 375.343964,218.631042 379.914246,218.079865 384.817902,217.882904 389.469849,217.844009 394.185211,217.836304 398.702423,217.608322 403.658539,217.176392 407.456055,217.101562 411.270569,217.079407 415.753479,217.071899 420.136658,216.843979 425.066345,216.412079 429.603821,216.326752 434.274597,216.309891 438.493561,216.306564 443.208374,216.305893 448.002258,216.305786 452.245575,216.305756 456.354980,216.305756 460.664429,216.305740 465.173706,216.305740 469.335663,216.305756 473.428986,216.305740 477.914490,216.305740 482.279327,216.305756 486.639252,216.305740 490.764313,216.305740 495.298676,216.305740 500.229248,216.305740 504.559357,216.831024 509.189087,217.022858 513.805847,217.060745 518.281433,217.153168 522.940063,217.674667 527.562378,217.802856 532.039185,217.913101 536.697998,218.438141 541.320312,218.972763 545.797119,219.285980 550.682373,219.574295 554.467651,219.963531 558.278442,220.078842 562.964600,220.117798 567.771729,220.650772 571.543396,220.820343 575.350281,220.870560 579.167480,220.885468 582.987854,220.974777 586.809143,221.416443 590.630615,221.669998 594.452271,222.160294 599.321289,222.595490 604.133789,223.184723 " stroke-linecap="round" stroke-linejoin="round" stroke="#000000" stroke-width="1.00" fade-time="6" fade-enable="0" RotationPoint="(320.000000,240.000000)" transform="rotate(0.00,383.62,220.51)" xml:id="annotation.HKGPAS23DP499CJFF01RLTNTS" visible="1"/><g class="group" xml:id="annotation.H2I4L89CO13LFEHC15FAMMIFO" xbk_transform="rotate(0.00,505.15,368.79)"><polyline fill="none" points="390.121033,362.292999 394.731079,362.897949 398.847229,363.010101 403.281403,363.048035 407.953766,363.055481 412.235962,363.283447 416.758820,363.715393 421.131042,363.800690 425.280273,363.821686 " stroke-linecap="round" stroke-linejoin="round" stroke="#000000" stroke-width="1.00" fade-time="6" fade-enable="0" RotationPoint="(320.000000,240.000000)" transform="rotate(0.00,407.70,363.06)" xml:id="annotation.44B61EBDG56T552HDG22H6SPP" visible="1"/><polyline fill="none" points="488.719788,366.878998 493.380890,367.537109 497.376160,368.017609 501.787109,368.292114 506.622192,368.469757 510.848511,369.008118 514.954529,369.545380 519.646973,369.859100 523.398804,369.998383 527.199768,370.454834 531.015320,370.627808 534.920105,370.679077 539.181580,370.779205 543.341125,371.224060 548.178223,371.393616 552.876343,371.443848 557.580505,371.543671 560.966492,371.867950 564.452881,372.068695 567.984070,372.157928 571.535034,372.197601 575.094849,372.215210 578.658569,372.223053 582.224121,372.226532 585.790344,372.454529 589.441895,372.754059 593.329407,372.887146 596.869019,372.946320 600.310547,372.972626 604.104736,372.984314 607.829346,373.215973 612.815491,373.823853 616.755615,374.541809 620.184753,375.286652 " stroke-linecap="round" stroke-linejoin="round" stroke="#000000" stroke-width="1.00" fade-time="6" fade-enable="0" RotationPoint="(320.000000,240.000000)" transform="rotate(0.00,554.45,371.08)" xml:id="annotation.MT6DV5CN4P1CR4FUMGEGV5BDJ" visible="1"/></g><g class="group" xml:id="annotation.KIMJRUNV111FF93BGRV68HJHH" xbk_transform="rotate(0.00,468.08,396.43)"><polyline fill="none" points="513.942688,383.694275 511.860596,387.775269 510.062073,392.253815 507.565552,397.186005 504.384399,402.074829 500.055908,406.984955 495.587463,410.583801 491.775665,413.227814 486.964508,415.839111 482.065765,417.739380 478.013245,418.608276 473.941559,419.210815 469.781158,419.452545 464.958374,418.997009 460.322479,418.476135 455.610229,417.470490 451.320129,415.950775 446.795715,414.401886 442.423218,412.460297 437.670135,409.933167 432.937653,406.878723 429.402710,403.821655 427.412476,400.647949 426.487640,398.257568 426.044617,395.159241 " stroke-linecap="round" stroke-linejoin="round" stroke="#000000" stroke-width="1.00" fade-time="6" fade-enable="0" RotationPoint="(320.000000,240.000000)" transform="rotate(0.00,469.99,401.57)" xml:id="annotation.3Q74MGSU7D777E8FNP6Q14J8Q" visible="1"/><polyline fill="none" points="416.872620,402.802551 417.936493,397.889099 418.919708,393.701141 419.592896,389.688293 420.089813,384.711548 420.340698,382.617737 420.169128,380.837921 420.259247,380.431244 420.489197,380.329956 420.812347,380.432281 421.397827,381.225403 424.039886,385.501099 428.054962,390.245300 431.394897,393.630585 " stroke-linecap="round" stroke-linejoin="round" stroke="#000000" stroke-width="1.00" fade-time="6" fade-enable="0" RotationPoint="(320.000000,240.000000)" transform="rotate(0.00,424.13,391.57)" xml:id="annotation.2IJ3I7V4F13V741DSDUFSDE4R" visible="1"/><polyline fill="none" points="492.541443,388.280273 496.622437,385.587952 500.874512,383.077545 504.899292,380.316681 509.826538,375.573639 511.383179,373.616577 511.811737,373.408936 512.182373,373.525269 512.820618,374.333954 514.589661,378.467010 517.115845,382.979889 519.293030,387.515930 " stroke-linecap="round" stroke-linejoin="round" stroke="#000000" stroke-width="1.00" fade-time="6" fade-enable="0" RotationPoint="(320.000000,240.000000)" transform="rotate(0.00,505.92,380.84)" xml:id="annotation.A8R0IV3F9942V81UCU4DALE1C" visible="1"/></g></g></svg>