<?xml version="1.0" encoding="UTF-8" standalone="yes"?><svg width="800" height="688" xml:id="page.SC29NJDQOGQ4V5MIJLVLHOEG3"><title>Sep 6-8:58 AM</title><g class="foreground"><image xmlns:xlink="http://www.w3.org/1999/xlink" RotationPoint="(320.000000,240.000000)" transform="rotate(0.00,402.00,278.00)" xml:id="annotation.HENPJR8M95341ALB4I0D00DT3" visible="1" x="166.00" y="-3.00" width="472.00" height="562.00" xlink:href="images/clipboard(2).png"/><polyline fill="none" points="430.669312,49.402390 426.503479,46.772705 421.579865,45.191170 416.741364,44.734039 411.758881,44.643745 406.915222,45.048904 402.243286,46.070030 397.385559,47.648941 394.069946,49.030411 389.258575,52.097980 384.579712,55.817074 379.684326,60.561298 376.557495,65.172966 373.927917,69.848495 371.861267,74.490898 370.371948,78.642899 368.700562,83.109367 367.914581,87.805183 367.211731,92.231514 366.981079,97.040741 366.935547,101.427155 366.926514,106.251450 366.924774,110.942535 366.924438,114.796021 367.347382,119.640984 367.610382,123.777351 368.335388,128.750336 369.095032,133.667542 369.721802,137.229523 371.096954,141.975998 372.221191,146.871399 373.531891,151.340424 375.469696,155.633423 377.557556,159.803116 380.205719,164.096512 382.418152,167.232880 386.875732,171.299225 389.332794,173.002136 393.906403,174.709991 398.852386,176.088013 403.057434,176.733521 407.845917,176.861053 412.293793,176.650146 417.005646,175.782135 421.651581,174.669586 426.504181,172.836548 430.899170,170.769348 435.725128,168.567352 440.180450,165.666550 444.470764,162.535873 448.639893,159.359787 453.356201,154.955109 457.705566,150.410706 460.514252,146.311020 463.321808,142.002441 465.673279,137.216492 467.419861,132.411652 469.165070,127.747375 470.218048,122.891151 470.659515,119.103653 471.114960,115.089302 471.268829,110.137161 471.210693,105.443779 470.756897,101.647415 470.494537,97.807487 469.657593,93.056328 468.639771,88.304283 467.497589,83.955368 465.658752,79.686104 463.590363,75.432556 460.315765,70.986412 457.428467,66.393898 454.508026,63.235359 449.550995,59.155483 444.996490,56.333298 440.351440,53.655373 436.026764,51.863216 431.453522,50.562614 427.482086,50.199203 " stroke-linecap="round" stroke-linejoin="round" stroke="#ff0000" stroke-width="3.00" fade-time="6" fade-enable="0" RotationPoint="(320.000000,240.000000)" transform="rotate(0.00,419.10,110.75)" xml:id="annotation.3OKDR2F58922T3JM5PQAEB9KI" visible="1"/><polyline fill="none" points="382.860565,23.107571 381.411194,21.835293 378.692963,20.477882 374.690491,19.564152 370.573090,19.342604 366.205231,19.709793 361.703003,20.114824 356.861877,20.726349 352.197662,21.815739 348.043030,22.937651 343.812134,24.536469 339.566132,26.154074 334.885529,28.701698 330.265442,31.891068 325.611755,35.184620 320.719849,39.165546 316.352203,43.835384 313.020538,48.606522 310.983093,53.220444 308.812531,58.152756 307.436279,62.415077 306.722839,66.449677 306.560638,70.920898 307.033936,74.911583 308.223206,78.965370 310.559967,83.573112 314.756775,88.093048 316.115875,89.263138 320.886292,92.234230 325.505585,94.006683 329.564697,95.261131 334.144501,95.993599 338.855194,96.595039 342.610413,97.089462 346.981018,97.175102 350.417114,97.195137 355.127563,97.206421 359.474426,96.973663 363.743042,96.343971 367.987915,95.761024 371.688995,94.921204 375.738495,93.378098 380.371674,91.830414 384.864227,89.887611 389.184082,87.594376 394.123688,83.927727 398.788422,79.400787 402.137085,74.875778 404.711792,70.117363 407.197540,65.338455 408.881134,60.469223 409.714386,56.503754 409.881714,52.657448 409.832306,49.343990 409.306763,44.348442 408.335999,40.101490 406.939056,35.890926 404.077576,31.167246 399.521851,26.481865 395.052460,23.751947 390.437286,22.095034 386.337280,20.959791 384.454193,20.717131 " stroke-linecap="round" stroke-linejoin="round" stroke="#ff0000" stroke-width="3.00" fade-time="6" fade-enable="0" RotationPoint="(320.000000,240.000000)" transform="rotate(0.00,358.22,58.27)" xml:id="annotation.LTJ5QS0GPL5S1C494039GGKIQ" visible="1"/><polyline fill="none" points="349.394409,87.649406 346.587677,85.019722 342.098053,82.612160 337.125153,81.045494 332.828247,79.954033 329.100586,79.240715 325.192474,78.990021 320.378235,79.141396 315.971100,79.574638 311.932983,80.296349 307.056213,81.291466 302.253082,82.340584 297.689484,83.901863 294.431702,85.413902 290.274078,85.971260 288.836639,86.055779 " stroke-linecap="round" stroke-linejoin="round" stroke="#ff0000" stroke-width="3.00" fade-time="6" fade-enable="0" RotationPoint="(320.000000,240.000000)" transform="rotate(0.00,319.12,83.32)" xml:id="annotation.JDGK175SEH1GV2J8B3J3AVGVK" visible="1"/><polyline fill="none" points="489.633453,61.354584 489.633453,62.948208 " stroke-linecap="round" stroke-linejoin="round" stroke="#ff0000" stroke-width="3.00" fade-time="6" fade-enable="0" RotationPoint="(320.000000,240.000000)" transform="rotate(0.00,490.13,62.15)" xml:id="annotation.MSO8ELHA1L4C763HV69PS9F8S" visible="1"/><g class="group" xml:id="annotation.ITSLL77RVT5OJBK6V0TMGAKQH" xbk_transform="rotate(0.00,552.64,153.78)"><polyline fill="none" points="503.179291,104.382469 499.240021,103.751801 494.314972,103.618469 490.164764,104.018379 485.364136,104.399078 480.512878,105.482048 475.909668,107.644562 471.388275,110.324150 466.533081,114.225395 461.834167,118.838326 458.447113,123.398476 455.425903,127.711983 453.256592,131.783554 450.827148,136.426895 449.574158,140.538605 448.205383,145.190536 447.560974,149.303284 447.522278,153.702988 448.047852,157.803680 449.018585,162.215637 450.326965,166.489868 451.210266,168.822739 454.199890,173.517548 458.897278,177.947525 461.137360,179.457779 465.631592,181.095184 470.330933,181.833267 475.106567,182.386246 479.290955,182.217468 483.527740,181.357788 488.322479,180.335434 492.771606,179.044815 497.483734,177.111008 502.041077,174.935379 506.587677,172.039764 511.299347,168.910126 516.079407,164.307693 520.207825,160.565613 523.249756,156.416229 526.080444,152.186371 528.370972,147.940598 529.892334,143.144104 530.809326,138.694611 531.016724,134.405457 530.421509,130.147995 529.451416,125.896797 528.407166,121.646828 526.846924,116.965347 524.912109,113.271988 520.426147,108.477058 515.509521,105.146881 511.944214,103.585655 " stroke-linecap="round" stroke-linejoin="round" stroke="#ff0000" stroke-width="3.00" fade-time="6" fade-enable="0" RotationPoint="(320.000000,240.000000)" transform="rotate(0.00,489.27,142.99)" xml:id="annotation.JVRBE8FD0P637FL5AACBETB1G" visible="1"/><polyline fill="none" points="549.394409,164.940247 549.482971,168.757065 550.030579,173.094910 550.665039,177.567459 551.160400,181.632843 551.784851,183.266937 " stroke-linecap="round" stroke-linejoin="round" stroke="#ff0000" stroke-width="3.00" fade-time="6" fade-enable="0" RotationPoint="(320.000000,240.000000)" transform="rotate(0.00,550.59,174.10)" xml:id="annotation.IBMV1NEV6P5EL7K6QB00IB9FI" visible="1"/><polyline fill="none" points="550.191223,167.330673 550.368286,164.149979 551.463562,160.800720 554.547852,156.238541 559.144104,151.974396 563.053589,148.814743 567.721130,145.816727 " stroke-linecap="round" stroke-linejoin="round" stroke="#ff0000" stroke-width="3.00" fade-time="6" fade-enable="0" RotationPoint="(320.000000,240.000000)" transform="rotate(0.00,558.96,156.57)" xml:id="annotation.N14AAJ76MT7N34CSLNBFB8TG7" visible="1"/><polyline fill="none" points="554.175293,169.721115 558.429688,166.191376 562.940247,163.346619 " stroke-linecap="round" stroke-linejoin="round" stroke="#ff0000" stroke-width="3.00" fade-time="6" fade-enable="0" RotationPoint="(320.000000,240.000000)" transform="rotate(0.00,558.56,166.53)" xml:id="annotation.GLLQ1V6C1D55RBVL2ROGPQU5H" visible="1"/><polyline fill="none" points="594.015930,141.832672 594.015930,146.166489 594.438965,150.774902 594.827393,155.095428 595.428833,159.359116 595.319885,162.312683 594.489929,166.959198 593.733337,171.017761 592.525452,174.177902 590.623169,176.373398 588.377380,177.722366 586.817505,177.910522 585.238953,177.610519 583.651978,176.886948 581.688354,175.061096 579.673279,171.314743 " stroke-linecap="round" stroke-linejoin="round" stroke="#ff0000" stroke-width="3.00" fade-time="6" fade-enable="0" RotationPoint="(320.000000,240.000000)" transform="rotate(0.00,587.55,159.87)" xml:id="annotation.M3CHAM974D3TT0UTVNMGKVBL6" visible="1"/><polyline fill="none" points="599.593628,160.159363 600.696533,163.390335 601.125671,164.172577 603.421753,166.119507 605.338135,166.556274 607.193176,166.366745 608.607910,165.692291 610.822937,163.894058 612.315308,161.679108 612.895325,158.917664 612.558777,157.364609 612.221130,156.702576 610.901611,155.730896 609.134705,155.092438 606.503052,154.821548 606.059143,154.918655 605.171326,155.378494 " stroke-linecap="round" stroke-linejoin="round" stroke="#ff0000" stroke-width="3.00" fade-time="6" fade-enable="0" RotationPoint="(320.000000,240.000000)" transform="rotate(0.00,606.24,160.69)" xml:id="annotation.4VVU2MLTMD2H7BMIUL8AKS035" visible="1"/><polyline fill="none" points="618.717163,145.816727 616.897278,147.177536 615.812927,148.457840 615.630066,149.082565 615.685303,149.676102 615.899109,150.248886 616.844910,151.121384 621.511719,153.660660 621.819641,154.233276 621.925720,155.577805 621.487732,157.827988 620.568176,159.152710 618.236816,161.445923 617.954285,161.459747 617.854431,161.114822 617.876465,160.530746 618.609070,159.173462 623.156250,154.801163 628.152710,150.783020 629.639343,149.529053 630.796997,147.861053 630.843018,147.976440 629.570374,152.271011 629.759644,152.687088 630.239990,152.875946 630.914307,152.913315 633.555359,152.119904 636.157776,149.917374 638.232910,146.459518 639.648804,142.780594 640.579956,137.932724 640.895142,133.181198 640.900024,129.107452 640.587463,127.057922 640.203064,126.493683 639.681213,126.206070 639.067688,126.102844 638.747253,126.299644 638.622131,126.696442 639.057434,129.664688 640.487488,133.836121 642.373291,137.933395 644.271057,141.901886 646.789978,146.606262 648.366760,150.648636 649.934082,154.857361 651.096313,159.276001 651.733337,163.380005 651.599670,165.781387 650.772949,167.556961 650.180603,168.278351 648.578186,169.315979 646.596924,169.983719 643.081360,170.271118 638.911865,169.619888 636.247009,168.924301 " stroke-linecap="round" stroke-linejoin="round" stroke="#ff0000" stroke-width="3.00" fade-time="6" fade-enable="0" RotationPoint="(320.000000,240.000000)" transform="rotate(0.00,633.68,148.19)" xml:id="annotation.UELGIO4J9D2OH6UBAIK2URK75" visible="1"/><polyline fill="none" points="546.207153,203.984070 551.050293,200.007782 555.616455,197.344986 559.775330,195.219330 564.430115,192.671326 568.300293,190.814636 572.250549,188.720047 576.224731,186.840256 580.628784,185.161850 584.875000,183.543106 588.936707,181.519043 593.366760,179.660156 598.043762,177.987930 602.370850,175.948029 606.879578,173.661453 611.579773,171.301773 615.913757,169.343460 620.424500,167.218781 624.702332,164.907089 629.196411,162.539978 633.469299,160.156448 637.539001,157.768051 642.332397,155.129105 647.214111,152.378098 652.053589,149.100739 657.045166,146.255707 657.760986,145.816727 " stroke-linecap="round" stroke-linejoin="round" stroke="#ff0000" stroke-width="3.00" fade-time="6" fade-enable="0" RotationPoint="(320.000000,240.000000)" transform="rotate(0.00,601.98,174.90)" xml:id="annotation.G9BGGOON8T4RH6FA4A0OVVG9L" visible="1"/></g></g></svg>