<?xml version="1.0" encoding="UTF-8" standalone="yes"?><svg width="800" height="1191" xml:id="page.UB17IR4OG51N52U9C8VTB8KEO"><title>Aug 28-2:23 PM</title><g class="foreground"><text transform="translate(17,13) rotate(0.000,278.455,20.109) scale(1.000,1.000)" RotationPoint="(320.000000,240.000000)" xml:id="annotation.QUUD8V222D0B7ELGPQN5AA4FB" visible="1" smart-txt-ver="2.10" editwidth="556.91" editheight="40.22" forcewidth="0" forceheight="0" language_direction="1" textdirection="0" theme_anno_style="0"><tspan justification="left" bullet="0"><tspan><tspan fill="#0000FF" font-size="36.000" font-family="Arial" char-transform="0.00 1.00 0.00 0.00 0.00 1.00" textLength="556.91" y="32.59" x="0.00">The First and Second Balkan Wars</tspan></tspan></tspan></text><text transform="translate(37,107) rotate(0.000,78.814,16.723) scale(1.000,1.000)" RotationPoint="(320.000000,240.000000)" xml:id="annotation.7O6445H2JT3QT0V7BKH1SIJP0" visible="1" smart-txt-ver="2.10" editwidth="157.63" editheight="33.45" forcewidth="0" forceheight="0" language_direction="1" textdirection="0" theme_anno_style="0"><tspan justification="left" bullet="0"><tspan><tspan fill="#000000" font-size="24.000" font-family="Comic Sans MS" char-transform="0.00 1.00 0.00 0.00 0.00 1.00" textLength="157.63" y="26.45" x="0.00">In Oct 1912....</tspan></tspan></tspan></text><text transform="translate(22,229) rotate(0.000,164.086,16.723) scale(1.000,1.000)" RotationPoint="(320.000000,240.000000)" xml:id="annotation.BIDEA1TN857HT720IDS3R7OFV" visible="1" smart-txt-ver="2.10" editwidth="328.17" editheight="33.45" forcewidth="0" forceheight="0" language_direction="1" textdirection="0" theme_anno_style="0"><tspan justification="left" bullet="0"><tspan><tspan fill="#000000" font-size="24.000" font-family="Comic Sans MS" char-transform="0.00 1.00 0.00 0.00 0.00 1.00" textLength="328.17" y="26.45" x="0.00">The Balkan league achieved....</tspan></tspan></tspan></text><text transform="translate(19,342) rotate(0.000,181.529,16.723) scale(1.000,1.000)" RotationPoint="(320.000000,240.000000)" xml:id="annotation.UOFS1TV3BT5ITCHTI9L3K81VS" visible="1" smart-txt-ver="2.10" editwidth="363.06" editheight="33.45" forcewidth="0" forceheight="0" language_direction="1" textdirection="0" theme_anno_style="0"><tspan justification="left" bullet="0"><tspan><tspan fill="#000000" font-size="24.000" font-family="Comic Sans MS" char-transform="0.00 1.00 0.00 0.00 0.00 1.00" textLength="363.06" y="26.45" x="0.00">Bulgaria launched a second...........</tspan></tspan></tspan></text><text transform="translate(16,457) rotate(0.000,161.361,16.723) scale(1.000,1.000)" RotationPoint="(320.000000,240.000000)" xml:id="annotation.VTJO7MBGG10OH5UED1P9D4L4Q" visible="1" smart-txt-ver="2.10" editwidth="322.72" editheight="33.45" forcewidth="0" forceheight="0" language_direction="1" textdirection="0" theme_anno_style="0"><tspan justification="left" bullet="0"><tspan><tspan fill="#000000" font-size="24.000" font-family="Comic Sans MS" char-transform="0.00 1.00 0.00 0.00 0.00 1.00" textLength="322.72" y="26.45" x="0.00">For Serbia this resulted in....</tspan></tspan></tspan></text><text transform="translate(6,544) rotate(0.000,297.018,16.723) scale(1.000,1.000)" RotationPoint="(320.000000,240.000000)" xml:id="annotation.PHM2U85DK52NHBDQQLV0TOU6J" visible="1" smart-txt-ver="2.10" editwidth="594.04" editheight="33.45" forcewidth="0" forceheight="0" language_direction="1" textdirection="0" theme_anno_style="0"><tspan justification="left" bullet="0"><tspan><tspan fill="#000000" font-size="24.000" font-family="Comic Sans MS" char-transform="0.00 1.00 0.00 0.00 0.00 1.00" textLength="594.04" y="26.45" x="0.00">This greatly increased concerns in Austria because....</tspan></tspan></tspan></text><text transform="translate(26,642) rotate(0.000,350.953,16.723) scale(1.000,1.000)" RotationPoint="(320.000000,240.000000)" xml:id="annotation.LMS1I9NG917QP1HR7F2GCEJ1C" visible="1" smart-txt-ver="2.10" editwidth="701.91" editheight="33.45" forcewidth="0" forceheight="0" language_direction="1" textdirection="0" theme_anno_style="0"><tspan justification="left" bullet="0"><tspan><tspan fill="#000000" font-size="24.000" font-family="Comic Sans MS" char-transform="0.00 1.00 0.00 0.00 0.00 1.00" textLength="701.91" y="26.45" x="0.00">In Germany there was an increased willingness to accept the ...</tspan></tspan></tspan></text><text transform="translate(22,717) rotate(0.000,194.918,16.723) scale(1.000,1.000)" RotationPoint="(320.000000,240.000000)" xml:id="annotation.MDQAUP28S56PRCOKEAIUULDVM" visible="1" smart-txt-ver="2.10" editwidth="389.84" editheight="33.45" forcewidth="0" forceheight="0" language_direction="1" textdirection="0" theme_anno_style="0"><tspan justification="left" bullet="0"><tspan><tspan fill="#000000" font-size="24.000" font-family="Comic Sans MS" char-transform="0.00 1.00 0.00 0.00 0.00 1.00" textLength="389.84" y="26.45" x="0.00">German support for Austria was ....</tspan></tspan></tspan></text><text transform="translate(5,804) rotate(0.000,210.023,16.723) scale(1.000,1.000)" RotationPoint="(320.000000,240.000000)" xml:id="annotation.MF0JD4LVV55U30R5P4O25QE9I" visible="1" smart-txt-ver="2.10" editwidth="420.05" editheight="33.45" forcewidth="0" forceheight="0" language_direction="1" textdirection="0" theme_anno_style="0"><tspan justification="left" bullet="0"><tspan><tspan fill="#000000" font-size="24.000" font-family="Comic Sans MS" char-transform="0.00 1.00 0.00 0.00 0.00 1.00" textLength="420.05" y="26.45" x="0.00">German military spending increased....</tspan></tspan></tspan></text><text transform="translate(21,889) rotate(0.000,62.042,20.109) scale(1.000,1.000)" RotationPoint="(320.000000,240.000000)" xml:id="annotation.EV6TG20ALP58343NH8A9U2IKI" visible="1" smart-txt-ver="2.10" editwidth="124.08" editheight="40.22" forcewidth="0" forceheight="0" language_direction="1" textdirection="0" theme_anno_style="0"><tspan justification="left" bullet="0"><tspan><tspan fill="#0000FF" font-size="36.000" font-family="Arial" char-transform="0.00 1.00 0.00 0.00 0.00 1.00" textLength="124.08" y="32.59" x="0.00">Tension</tspan></tspan></tspan></text><text transform="translate(272,896) rotate(0.000,63.000,20.109) scale(1.000,1.000)" RotationPoint="(320.000000,240.000000)" xml:id="annotation.VUI80EU63H26RBNP829OD2T3T" visible="1" smart-txt-ver="2.10" editwidth="126.00" editheight="40.22" forcewidth="0" forceheight="0" language_direction="1" textdirection="0" theme_anno_style="0"><tspan justification="left" bullet="0"><tspan><tspan fill="#0000FF" font-size="36.000" font-family="Arial" char-transform="0.00 1.00 0.00 0.00 0.00 1.00" textLength="126.00" y="32.59" x="0.00">Mistrust</tspan></tspan></tspan></text><text transform="translate(486,881) rotate(0.000,75.990,20.109) scale(1.000,1.000)" RotationPoint="(320.000000,240.000000)" xml:id="annotation.338URLTDJL6SRAV3NT5B0UL8A" visible="1" smart-txt-ver="2.10" editwidth="151.98" editheight="40.22" forcewidth="0" forceheight="0" language_direction="1" textdirection="0" theme_anno_style="0"><tspan justification="left" bullet="0"><tspan><tspan fill="#0000FF" font-size="36.000" font-family="Arial" char-transform="0.00 1.00 0.00 0.00 0.00 1.00" textLength="151.98" y="32.59" x="0.00">Militarism</tspan></tspan></tspan></text><text transform="translate(89,921) rotate(0.000,94.034,20.109) scale(1.000,1.000)" RotationPoint="(320.000000,240.000000)" xml:id="annotation.TIBL2CSE3L1B79CNVHCI87J1O" visible="1" smart-txt-ver="2.10" editwidth="188.07" editheight="40.22" forcewidth="0" forceheight="0" language_direction="1" textdirection="0" theme_anno_style="0"><tspan justification="left" bullet="0"><tspan><tspan fill="#0000FF" font-size="36.000" font-family="Arial" char-transform="0.00 1.00 0.00 0.00 0.00 1.00" textLength="188.07" y="32.59" x="0.00">Nationalism</tspan></tspan></tspan></text><g class="group" xml:id="annotation.A9DTJRQAAH3L55868BE17MKQD" xbk_transform="rotate(0.00,192.62,69.90)"><polyline fill="none" points="148.429306,51.596180 147.561707,55.040558 147.342346,58.878036 146.870819,62.640869 146.333954,66.323761 146.095367,70.298409 145.989319,74.028694 145.942200,77.697113 145.921234,81.665337 146.285965,84.644653 147.166870,88.206367 " stroke-linecap="round" stroke-linejoin="round" stroke="#0000ff" stroke-width="1.00" fade-time="6" fade-enable="0" RotationPoint="(340.000000,231.000000)" transform="rotate(0.00,147.68,69.90)" xml:id="annotation.FDBVJKASA16CH7K3D1NNKRKQD" visible="1"/><polyline fill="none" points="167.365585,54.121017 166.025253,52.780666 165.069336,52.526112 162.511017,52.617310 159.877777,54.247562 155.428711,59.195698 153.386490,63.635540 153.110565,66.485291 153.233368,67.834351 153.736053,68.593460 154.491974,68.959259 155.416718,69.062851 157.192307,68.429871 159.056870,66.932877 162.332153,62.795361 164.240158,59.145191 166.891556,54.487511 167.470367,54.084801 167.856247,54.377419 168.113525,55.133564 167.805389,59.548634 166.825745,63.958309 166.424347,67.376846 166.386185,70.953476 167.153320,75.332840 167.879105,77.996201 169.043274,79.834496 171.152878,81.894257 " stroke-linecap="round" stroke-linejoin="round" stroke="#0000ff" stroke-width="1.00" fade-time="6" fade-enable="0" RotationPoint="(340.000000,231.000000)" transform="rotate(0.00,162.13,67.21)" xml:id="annotation.OVR8TF39QH7PTB8VFO5RENPMN" visible="1"/><polyline fill="none" points="181.252258,54.121017 181.111984,58.292721 180.582062,61.819645 180.253021,65.350937 180.247070,69.071182 180.711990,73.530014 181.012131,77.568985 181.555130,82.249176 182.514648,85.681519 " stroke-linecap="round" stroke-linejoin="round" stroke="#0000ff" stroke-width="1.00" fade-time="6" fade-enable="0" RotationPoint="(340.000000,231.000000)" transform="rotate(0.00,181.38,69.90)" xml:id="annotation.9T59C75MGD1K78GO8H0MHIQ3H" visible="1"/><polyline fill="none" points="193.876465,55.383446 195.216812,54.043098 197.371033,53.385044 201.364227,52.640537 203.937256,52.200611 207.891876,52.741573 210.952988,53.414421 213.435608,54.929131 214.490402,55.922180 214.913055,57.145294 214.634583,60.000504 213.575684,62.391640 210.610001,66.882729 206.314896,70.954483 201.414246,75.291481 197.652832,78.020889 196.394043,78.891212 196.256195,79.471420 196.865631,79.858238 199.272766,80.147751 203.782379,79.522125 207.022522,78.829460 210.706848,78.428101 214.541885,78.249718 218.116608,78.170433 221.575623,78.135201 225.263748,78.119537 229.708298,78.112587 233.366882,78.483543 237.044296,79.106956 239.323547,79.369438 " stroke-linecap="round" stroke-linejoin="round" stroke="#0000ff" stroke-width="1.00" fade-time="6" fade-enable="0" RotationPoint="(340.000000,231.000000)" transform="rotate(0.00,216.60,66.17)" xml:id="annotation.O4I27JSDCP4TFFT33LI97O6CN" visible="1"/></g><g class="group" xml:id="annotation.BT7NOUM68P3BFFE7GS2LQN9PI" xbk_transform="rotate(0.00,484.00,73.64)"><polyline fill="none" points="431.000000,61.000000 431.000000,65.647469 431.000000,70.488136 431.000000,74.105843 431.000000,77.565559 431.530884,82.105850 432.729706,86.993362 433.000000,88.000000 " stroke-linecap="round" stroke-linejoin="round" stroke="#0000ff" stroke-width="1.00" fade-time="6" fade-enable="0" RotationPoint="(320.000000,240.000000)" transform="rotate(0.00,432.00,74.50)" xml:id="annotation.110F98E4VT5I3CKTISIOMALFE" visible="1"/><polyline fill="none" points="458.000000,61.000000 456.938263,59.938274 455.231812,59.417011 454.154541,59.278008 452.364960,59.716152 448.343719,62.338993 445.632751,64.569580 443.952911,67.168762 443.857483,68.001396 444.344086,69.519135 444.896027,69.790535 445.597351,69.749245 449.117981,68.086266 453.134399,65.506752 457.796112,62.198868 458.864075,61.465912 459.464935,61.421719 459.754395,61.836704 459.779694,63.594086 459.169281,67.706886 458.395844,72.444016 458.117279,77.255013 458.256958,81.322472 459.077148,83.217392 459.886108,84.207733 461.000000,85.000000 " stroke-linecap="round" stroke-linejoin="round" stroke="#0000ff" stroke-width="1.00" fade-time="6" fade-enable="0" RotationPoint="(320.000000,240.000000)" transform="rotate(0.00,452.43,72.14)" xml:id="annotation.SK2S2V48HH7F14063GGE7HR2V" visible="1"/><polyline fill="none" points="476.000000,61.000000 475.312775,63.617283 474.981567,67.491539 474.229126,71.071564 473.413574,75.329849 473.000000,80.000000 " stroke-linecap="round" stroke-linejoin="round" stroke="#0000ff" stroke-width="1.00" fade-time="6" fade-enable="0" RotationPoint="(320.000000,240.000000)" transform="rotate(0.00,475.00,70.50)" xml:id="annotation.SIVAQLM57L07V90Q4UFACHQLF" visible="1"/><polyline fill="none" points="495.000000,61.000000 498.193390,59.625519 501.711609,59.296452 504.914551,59.964386 506.962036,60.947136 507.308014,61.631428 507.205353,62.420952 506.202362,64.075981 504.645508,65.552284 500.353882,67.623489 498.638733,68.795624 498.314728,69.530418 498.320923,70.353607 498.547272,71.235741 500.576599,72.808479 504.578247,74.943260 509.447540,77.124596 514.001953,79.423790 517.432678,81.471245 518.784912,83.209435 518.856567,83.917404 518.571045,84.500488 518.047363,85.000328 514.125122,85.703796 509.271667,86.443108 504.315063,86.834999 499.858795,86.951111 495.002014,87.785065 494.000000,88.000000 " stroke-linecap="round" stroke-linejoin="round" stroke="#0000ff" stroke-width="1.00" fade-time="6" fade-enable="0" RotationPoint="(320.000000,240.000000)" transform="rotate(0.00,506.43,73.65)" xml:id="annotation.UI3VELRIUP05BC7D46CIQABD4" visible="1"/><polyline fill="none" points="534.000000,85.000000 537.000000,87.000000 " stroke-linecap="round" stroke-linejoin="round" stroke="#0000ff" stroke-width="1.00" fade-time="6" fade-enable="0" RotationPoint="(320.000000,240.000000)" transform="rotate(0.00,535.50,86.00)" xml:id="annotation.T5FTABR4IP2QF14O0NCU5TF64" visible="1"/></g><polyline fill="none" points="85.808899,861.768127 81.781769,860.157349 77.556915,858.467346 73.038155,856.929565 68.782112,856.246094 66.197395,856.063843 63.294220,855.942322 60.178738,855.861328 55.368465,856.220886 51.376217,856.942627 47.354183,857.825317 43.768448,858.779541 38.906460,860.264526 34.262909,862.221741 30.869858,864.161255 26.552200,866.708984 22.273155,869.527100 18.460812,872.296875 14.419033,875.920166 11.086165,880.290405 8.993408,883.879822 7.388996,887.722900 6.282588,891.678528 5.790851,895.684326 6.021827,900.161865 6.854977,904.455811 9.388160,909.105896 11.891255,912.701477 15.338335,916.906006 19.300428,920.287170 23.677341,923.424255 28.177197,925.683655 32.713459,928.226135 36.193802,930.134033 39.988319,931.937317 43.922470,933.300659 47.469139,934.468506 52.309132,936.073792 55.579578,937.105835 59.280807,938.126465 63.173496,938.692383 67.151276,938.943970 71.166885,939.055786 75.199303,939.554993 79.070602,940.001648 82.476944,939.638184 86.575729,939.364380 91.038467,939.242554 95.269600,939.188538 99.397812,938.714844 103.480263,937.942505 107.542389,937.037170 111.595474,936.072998 115.644539,935.251160 119.691833,934.885864 123.288788,933.824463 128.157074,931.780823 131.434143,930.477722 135.138321,928.774597 139.481873,926.444336 143.716217,923.891479 148.332687,920.221619 151.920532,916.855164 154.863770,913.111328 157.127136,909.031067 158.694992,904.407959 159.054657,899.543701 158.484024,895.077942 156.435776,890.499634 154.517715,886.015076 151.720459,881.483337 147.763611,877.106201 143.388214,873.430481 138.720245,869.381836 135.061218,867.062500 131.187302,864.907959 127.049271,862.826416 122.400520,860.777466 117.974304,858.742981 113.590843,856.883484 108.833000,855.495178 103.908775,854.316162 98.910599,853.398804 96.397736,853.154175 93.879593,852.991089 91.357948,852.882324 88.833954,852.809937 84.118980,852.897949 80.337639,853.498962 76.971275,853.878479 72.154114,854.182129 " stroke-linecap="round" stroke-linejoin="round" stroke="#000000" stroke-width="1.00" fade-time="6" fade-enable="0" RotationPoint="(320.000000,240.000000)" transform="rotate(0.00,82.42,896.41)" xml:id="annotation.BC0ACR08FL6VFE0UKJ6639L01" visible="1"/><polyline fill="none" points="310.354126,854.182129 305.402954,852.531738 301.132507,851.108276 297.658142,850.287354 292.742462,849.922424 289.846985,849.825134 286.736633,849.760315 283.483002,849.717041 278.519257,850.118530 274.627380,850.858887 269.761566,852.392090 265.941101,854.738037 261.849640,856.744507 258.258545,859.736389 255.507950,862.944275 253.498810,866.617676 252.043884,870.329468 250.835358,873.664917 250.185822,877.732178 250.065704,882.012329 250.574295,885.600403 251.808365,890.463623 253.241684,895.107544 254.733994,899.686584 257.049255,903.440857 259.065186,907.493896 262.340973,911.897766 266.936005,916.873962 271.079010,920.914429 275.509552,924.321960 280.025269,927.466797 284.566254,930.533936 289.114685,933.578125 293.665344,936.615356 298.385284,939.482056 302.056427,940.868347 305.935760,942.495850 309.907593,944.174500 313.920563,945.482483 317.502289,946.625732 320.948486,947.695801 324.727814,948.733215 329.104828,949.306763 333.691162,949.730225 337.977203,950.480347 342.129852,951.375671 346.223175,952.167053 350.290100,952.518677 354.345337,952.674927 358.395355,952.912903 362.443085,953.580750 366.489777,953.989807 370.535980,954.171570 374.582001,954.252441 378.627930,954.288391 382.505219,954.135803 385.914276,953.506104 389.564728,952.664307 393.266266,951.728210 398.193420,950.253357 402.856323,948.748718 407.272278,947.066833 410.959534,944.676575 413.732605,943.401794 418.137085,938.514587 420.237976,934.538208 421.565063,930.523071 422.154846,926.491028 421.967468,922.900696 421.322235,919.282104 420.473572,914.864136 418.242584,910.054443 414.636780,905.240173 412.354950,901.227844 407.673462,896.766052 404.035614,893.659607 399.754761,890.603821 394.833862,887.563171 391.225067,885.538696 386.350128,882.503479 381.534149,879.468872 377.840485,877.445801 374.400726,875.422913 369.620911,872.838135 366.364532,871.408264 362.669556,869.648926 358.779663,867.743164 354.803131,865.940979 350.788055,864.578003 347.205444,862.960754 343.758789,861.286743 339.979279,859.980774 336.501343,858.838501 333.101227,857.768921 329.342377,856.731506 325.873596,855.708557 322.477570,854.691956 318.720520,853.678223 315.252563,852.665771 310.456909,851.148010 307.196838,850.136353 303.500214,849.124878 300.059143,848.113342 295.278534,846.596130 292.022003,845.753296 288.326965,845.378662 284.886597,844.762573 280.555969,843.917603 276.975769,843.561768 " stroke-linecap="round" stroke-linejoin="round" stroke="#000000" stroke-width="1.00" fade-time="6" fade-enable="0" RotationPoint="(320.000000,240.000000)" transform="rotate(0.00,336.11,898.93)" xml:id="annotation.TLDSU3H8RP3O591LI7GU064G4" visible="1"/><polyline fill="none" points="434.764282,849.630554 433.721588,854.475586 433.458038,858.077454 433.790405,862.375488 434.668610,867.095398 436.182800,872.002747 438.429138,876.543823 440.944672,880.641296 444.256470,885.622803 447.373016,889.477600 450.600342,893.579163 454.516052,897.004700 459.394684,901.632263 463.696289,905.440857 468.173828,908.704651 473.152985,911.806946 476.775421,914.014465 480.071106,916.681274 483.671234,919.102783 487.519012,921.302856 491.476776,923.404602 495.933044,925.462463 500.554626,927.500977 504.856415,929.530823 509.015991,931.556885 513.281006,933.412598 517.986145,934.799194 522.886963,936.427002 527.874695,938.274231 530.384827,939.238831 532.901123,940.219055 535.421570,941.209656 537.944702,942.207336 540.469727,943.209534 543.164490,944.214905 545.972534,945.222229 548.856018,946.230896 551.621216,947.071960 554.307556,947.801331 556.941345,948.455994 559.708679,949.229736 562.564941,950.082703 565.480591,950.988403 568.435913,951.760925 571.417603,952.444336 574.416809,953.068604 577.427734,953.821960 580.446533,954.661377 583.470459,955.558105 586.497925,956.324585 589.527710,957.004028 592.559021,957.625549 595.422729,958.208618 598.174866,958.765869 600.852417,959.305847 603.480347,959.834473 606.075256,960.355469 608.648010,960.871399 611.206116,961.215271 613.754395,961.444580 616.296143,961.597351 619.002136,961.699280 621.817505,961.767273 624.705933,961.812500 627.474426,961.842712 630.162964,961.862854 632.798279,961.876282 637.524414,961.441650 641.872681,960.686646 646.052979,959.789062 650.158569,958.378662 654.231018,956.628113 658.288574,954.726135 661.890198,952.307373 666.311523,948.102539 669.756897,943.653625 672.913086,938.682861 674.795837,934.893799 676.194580,930.962158 677.378174,926.517456 678.297546,921.732544 678.706177,916.796143 678.646484,914.299744 678.438232,911.792542 678.130798,909.278198 677.925842,906.759155 677.789185,904.236877 677.300171,899.355225 675.959045,894.937927 674.239075,890.277405 672.350830,885.396423 670.387756,880.417542 669.223694,877.909790 667.941895,875.395081 665.169006,870.521790 662.250916,866.108154 659.268311,861.898865 656.088257,857.780396 652.427185,853.702271 648.102783,850.091553 643.539795,846.632507 639.264038,842.847412 636.842651,841.062622 634.216980,839.367004 631.455017,837.730896 628.770813,836.134338 626.138489,834.564270 623.540710,833.011841 620.966003,831.639771 618.406616,830.387878 615.857483,829.216064 613.146606,828.097778 610.327881,827.015015 607.437195,825.956116 604.498718,825.081604 601.528137,824.329895 598.536377,823.660278 595.698975,822.876648 592.964539,822.017090 590.298584,821.106934 587.509888,820.331604 584.639282,819.646118 581.714050,819.020569 578.752441,818.434998 575.766602,817.875916 572.764587,817.334656 569.583191,816.805237 566.282227,816.283752 562.901550,815.767517 559.636230,815.423340 556.447937,815.193848 553.310913,815.040894 550.208069,814.770325 547.128113,814.421448 544.063293,814.020264 541.008667,813.752808 537.960693,813.574463 534.917297,813.455566 531.708313,813.376343 528.388977,813.323486 524.996033,813.288269 521.722595,813.264771 518.528870,813.249084 515.388245,813.238647 512.283020,813.231689 509.201385,813.227112 506.135529,813.224060 503.080139,813.390503 500.031738,813.670105 496.988037,814.025024 493.947388,814.261658 490.908905,814.419495 487.871735,814.524658 484.835449,814.763306 481.799866,815.091064 478.764648,815.478088 475.898346,815.904724 473.144531,816.357666 470.465790,816.828247 467.837036,817.310547 465.241699,817.800659 462.668549,818.296021 460.110229,818.794739 457.561798,819.295837 455.019958,819.798462 452.482483,820.302185 449.947968,820.806458 445.052765,821.984924 440.629364,823.632690 436.415680,825.488831 432.295288,827.268982 428.216278,828.622253 424.605255,830.235107 419.729004,832.589050 415.980347,834.354187 413.523560,835.975769 " stroke-linecap="round" stroke-linejoin="round" stroke="#000000" stroke-width="1.00" fade-time="6" fade-enable="0" RotationPoint="(320.000000,240.000000)" transform="rotate(0.00,546.11,887.55)" xml:id="annotation.MH32P9B6B57857ICELSMU303J" visible="1"/><g class="group" xml:id="annotation.2N75Q8BTUP0V33G9FS91OVO3E" xbk_transform="rotate(0.00,186.87,953.68)"><polyline fill="none" points="138.910828,907.284058 135.689133,905.673157 131.859711,904.432739 127.516708,903.488159 123.338768,903.068298 120.774887,902.956421 117.885582,902.881714 114.779327,902.831970 109.979332,903.226196 106.160225,904.131958 102.777069,905.658264 99.138145,907.460571 94.197517,910.370789 90.148758,913.368286 86.195702,916.841248 81.839439,921.740295 78.751266,925.727844 76.506386,930.112427 73.968147,934.614502 71.886177,939.151306 71.192131,943.531006 71.007050,946.114929 71.052254,948.849060 71.250954,951.683289 71.552010,954.584229 72.336060,959.156006 73.415024,962.705261 75.749413,966.767273 77.920822,970.930481 82.564972,975.892578 85.041458,978.572510 88.389832,980.887390 93.260506,984.086243 96.819092,986.597107 100.648376,989.230347 104.597984,991.524475 108.601051,993.667847 112.627907,995.744385 116.665344,997.791077 121.156998,999.824524 126.131462,1001.852234 128.874054,1002.864990 131.713898,1003.877319 134.450027,1004.889343 137.117004,1005.901123 139.737869,1006.912903 142.328018,1007.755859 144.897644,1008.486572 147.453644,1009.142212 150.169083,1009.916504 152.990845,1010.769775 155.883499,1011.675781 158.654816,1012.448425 161.345230,1013.132080 163.981735,1013.756348 166.750885,1014.341248 169.608444,1014.899719 172.524963,1015.440552 175.312180,1015.969727 178.013199,1016.491089 180.656754,1017.007263 183.430603,1017.519897 186.291321,1018.030273 189.209930,1018.539062 191.998535,1019.046753 194.700500,1019.553955 197.344711,1020.060608 200.118973,1020.398315 202.979935,1020.623474 205.898727,1020.773560 208.687454,1020.873718 211.389496,1020.940430 214.033752,1020.984924 216.808060,1021.014587 219.669083,1021.034302 222.587891,1021.047424 225.376617,1021.056213 228.078674,1021.062073 230.722916,1021.065979 233.497208,1021.068604 236.358215,1021.070312 239.277023,1021.071472 241.897202,1020.903625 246.606659,1020.267700 251.397003,1019.423157 256.167114,1018.485901 260.534821,1017.507385 264.723755,1016.510498 268.833191,1015.336975 272.907288,1013.691650 276.965729,1011.836365 280.848602,1009.888000 284.260040,1007.898315 289.023956,1004.077087 292.833038,999.741882 296.096954,995.254578 297.724060,991.785583 299.009125,988.164734 300.142212,984.869629 301.207672,981.269836 302.074615,977.422241 302.459869,973.464539 302.631104,969.457764 302.707214,965.429321 302.741028,961.391296 302.306519,957.798401 301.551514,954.347229 300.654053,950.565674 299.243713,946.637268 297.493011,942.812195 294.611877,937.815369 291.622894,932.963379 289.610596,929.261292 287.142822,925.817810 282.460724,921.035706 278.739227,917.947449 274.837524,914.889160 270.855713,912.293701 266.838348,909.847778 262.805145,907.074890 258.315338,904.606201 253.510254,902.385254 248.565033,900.274231 246.066284,899.407898 243.557541,898.661682 241.042191,897.995667 238.522369,897.214478 235.999619,896.356628 233.474899,895.447510 230.780304,894.672852 227.972412,893.987854 225.089035,893.362549 222.155304,892.777222 219.188049,892.218323 216.198425,891.677185 213.193848,891.147766 210.179337,890.626343 207.158203,890.110107 204.132614,889.597412 201.104111,889.087036 198.073639,888.578186 195.210449,888.239014 192.458771,888.012878 189.781433,887.862061 186.816498,887.592957 183.659821,887.244995 180.375320,886.844482 177.174194,886.577332 174.028656,886.399353 170.920181,886.280701 167.667786,886.370178 164.319519,886.598389 160.907257,886.919067 157.620972,887.132935 154.418640,887.275452 151.272293,887.370422 147.994690,887.433838 144.629578,887.476074 141.206116,887.504211 137.912354,887.691528 134.705032,887.985107 131.555374,888.349243 128.275558,888.760620 124.908951,889.203430 121.484505,889.667236 118.190079,890.145081 114.982330,890.632141 111.832375,891.125427 108.889519,891.622864 106.084724,892.123169 103.371971,892.625244 99.009193,893.632568 95.058388,894.697937 93.394897,895.146484 " stroke-linecap="round" stroke-linejoin="round" stroke="#000000" stroke-width="1.00" fade-time="6" fade-enable="0" RotationPoint="(320.000000,240.000000)" transform="rotate(0.00,186.87,953.68)" xml:id="annotation.G95T4TDSIL0K96LJS1B9GEDR3" visible="1"/><polyline fill="none" points="141.945190,957.351562 136.994019,955.701172 132.274109,954.727234 130.440491,954.590576 127.504028,955.337646 126.248962,956.008972 125.580826,956.962219 125.303993,958.103516 125.288017,959.370056 126.618858,962.125854 130.211395,966.520752 134.029312,970.576294 137.295837,974.362854 138.339890,975.772705 138.698761,977.218384 138.198456,980.173096 137.255859,981.331970 134.410370,983.069153 129.998947,984.403076 127.406502,984.994873 124.835320,985.557983 122.278305,986.101868 117.358063,987.155762 112.923592,988.186096 110.053642,988.756409 107.049683,989.212708 " stroke-linecap="round" stroke-linejoin="round" stroke="#000000" stroke-width="1.00" fade-time="6" fade-enable="0" RotationPoint="(320.000000,240.000000)" transform="rotate(0.00,125.00,971.90)" xml:id="annotation.MKNOLKEEO953BDJ5K0A5KHGT2" visible="1"/><polyline fill="none" points="140.427979,981.626709 145.273071,981.626709 148.874939,981.626709 152.723465,981.626709 156.513046,981.458130 159.883072,980.821350 160.815460,980.078308 161.268494,979.077271 161.401917,977.904175 160.647964,976.953491 157.562561,975.447632 153.831177,975.115540 149.925095,975.698486 145.941345,977.081482 143.271713,979.269409 142.323807,980.560913 141.720123,983.794189 141.795135,985.600342 142.350906,987.141663 144.317032,989.753235 146.427109,991.588318 149.531189,993.764282 " stroke-linecap="round" stroke-linejoin="round" stroke="#000000" stroke-width="1.00" fade-time="6" fade-enable="0" RotationPoint="(320.000000,240.000000)" transform="rotate(0.00,150.91,984.44)" xml:id="annotation.PLPKFA0A4P1LT2KR83U5OC9KA" visible="1"/><polyline fill="none" points="166.220337,996.798706 166.220322,993.576965 166.220322,989.747620 166.388901,985.404541 167.025772,981.226562 167.768753,980.011292 168.769806,979.369690 169.942902,979.110535 171.062134,979.443604 175.280975,982.712646 178.357971,984.661133 " stroke-linecap="round" stroke-linejoin="round" stroke="#000000" stroke-width="1.00" fade-time="6" fade-enable="0" RotationPoint="(320.000000,240.000000)" transform="rotate(0.00,172.29,988.45)" xml:id="annotation.561CH1M80P6ONF0OQ4P6FGVES" visible="1"/><polyline fill="none" points="193.529907,946.731201 192.318634,950.702087 191.418182,954.677246 190.456070,958.804016 189.635101,963.391663 189.416183,966.266907 189.270218,969.363953 189.172928,972.102905 189.064819,976.944397 188.567215,980.894287 188.121292,984.672852 188.485031,989.161682 188.986618,990.190125 189.658142,990.369995 190.442993,989.984253 193.158478,985.414124 195.106781,981.961365 196.098343,980.332581 197.433701,979.415344 200.715591,978.845764 202.197632,979.266968 204.743454,981.083679 206.099701,984.026367 206.702469,987.750549 206.970383,992.215393 206.536072,993.911743 205.740814,995.211182 204.704910,996.246094 203.339981,996.767456 200.025284,996.897278 197.203445,996.392883 193.529907,995.281494 " stroke-linecap="round" stroke-linejoin="round" stroke="#000000" stroke-width="1.00" fade-time="6" fade-enable="0" RotationPoint="(320.000000,240.000000)" transform="rotate(0.00,197.55,971.81)" xml:id="annotation.8VLSJ6QT6H0DP23AK9CKSVLHI" visible="1"/><polyline fill="none" points="214.770691,978.592346 214.770691,983.437378 214.770706,987.039185 214.770706,989.539185 214.770691,992.247131 " stroke-linecap="round" stroke-linejoin="round" stroke="#000000" stroke-width="1.00" fade-time="6" fade-enable="0" RotationPoint="(320.000000,240.000000)" transform="rotate(0.00,215.27,985.42)" xml:id="annotation.C581FJF65D43D15F0MA75SGNF" visible="1"/><polyline fill="none" points="217.805054,961.903137 216.287903,964.937561 " stroke-linecap="round" stroke-linejoin="round" stroke="#000000" stroke-width="1.00" fade-time="6" fade-enable="0" RotationPoint="(320.000000,240.000000)" transform="rotate(0.00,217.55,963.42)" xml:id="annotation.TI4LUM6PF10MF6VNUDN7Q8A1U" visible="1"/><polyline fill="none" points="237.528625,980.109497 232.852173,980.278076 229.887146,980.914917 227.333130,982.658936 225.242737,985.288513 223.751770,988.704956 223.792465,990.222778 224.325333,991.571960 225.186310,992.808472 226.434601,993.464111 229.619751,993.743347 232.384003,992.855896 234.736374,991.169189 236.905762,988.733643 237.787720,988.556213 238.544250,989.112183 241.775101,993.238708 242.551117,993.413879 243.237061,993.024963 243.862915,992.260010 244.558319,989.611877 245.035980,986.187134 245.810165,982.417419 246.716202,978.943665 247.193817,977.309326 248.017944,976.556885 249.073105,976.392456 250.282288,976.619995 251.256989,977.277405 252.789490,979.356567 254.600006,983.370361 256.129639,987.178040 257.764771,991.342773 259.464478,996.025085 260.286621,998.315918 " stroke-linecap="round" stroke-linejoin="round" stroke="#000000" stroke-width="1.00" fade-time="6" fade-enable="0" RotationPoint="(320.000000,240.000000)" transform="rotate(0.00,242.02,987.35)" xml:id="annotation.BA9OJLS12P6UJDJPAT2F31HIU" visible="1"/><polyline fill="none" points="278.492981,1001.350281 276.076691,1000.544861 272.642731,1000.598877 268.475464,1001.016418 264.375641,1001.201843 259.856262,1001.284302 254.869431,1001.489502 252.123566,1001.780273 249.281509,1002.142639 246.375336,1002.384277 243.426453,1002.545349 240.449066,1002.652771 237.452637,1002.724243 234.443573,1002.772034 231.426086,1002.803833 228.234344,1002.993652 224.926498,1003.288757 221.541229,1003.654053 218.104340,1003.897583 214.633041,1004.059875 211.138779,1004.168091 207.629242,1004.240234 204.109497,1004.288391 200.582977,1004.320435 197.051895,1004.341919 193.517822,1004.356140 189.981735,1004.365601 186.275711,1004.540588 182.456421,1004.825745 178.561600,1005.184448 174.785019,1005.423584 171.087234,1005.583130 167.442017,1005.689392 163.831818,1005.928833 160.244980,1006.256958 156.673721,1006.644287 153.281403,1006.902588 150.008392,1007.074768 146.814926,1007.189514 143.674484,1007.434692 140.569397,1007.766602 137.487869,1008.156555 134.759216,1008.416504 129.929214,1008.705322 125.534843,1009.283203 121.068031,1010.106689 119.187256,1010.453491 " stroke-linecap="round" stroke-linejoin="round" stroke="#000000" stroke-width="1.00" fade-time="6" fade-enable="0" RotationPoint="(320.000000,240.000000)" transform="rotate(0.00,199.34,1005.50)" xml:id="annotation.EIB14Q3CJ11KP33KUNS0TMS1Q" visible="1"/><polyline fill="none" points="273.941406,1011.970703 271.350311,1009.716736 267.385864,1007.837646 263.891357,1006.144104 259.641022,1005.166565 254.942368,1004.563538 250.044434,1003.733643 247.389709,1003.444946 244.608398,1003.252502 241.742737,1003.124146 238.652252,1003.038574 235.411926,1002.981689 232.071640,1002.943604 228.664719,1003.086792 225.213440,1003.350830 221.732529,1003.695435 218.231873,1004.093750 214.718048,1004.527893 211.195450,1004.985901 207.835602,1005.459778 204.584229,1005.944336 201.405197,1006.435913 196.524307,1007.431641 192.281845,1008.490479 190.495544,1008.936279 " stroke-linecap="round" stroke-linejoin="round" stroke="#000000" stroke-width="1.00" fade-time="6" fade-enable="0" RotationPoint="(320.000000,240.000000)" transform="rotate(0.00,232.72,1007.96)" xml:id="annotation.CD1N444NI96512EC0S34JUM9B" visible="1"/></g></g></svg>