<?xml version="1.0" encoding="UTF-8" standalone="yes"?><svg width="800" height="1297" xml:id="page.EM9UU1L3E57719TKG0K191QSM"><title>Aug 27-4:22 PM</title><g class="foreground"><text transform="translate(42,148) rotate(0.000,359.487,11.074) scale(1.000,1.000)" metadatatoken="annotationmetadata/metadata(3).xml" shortcut="http://upload.wikimedia.org/wikipedia/commons/c/c4/Balkans_Animation_1800-2006.gif" shortcutArea="0" RotationPoint="(372.000000,514.000000)" xml:id="annotation.T06T9OQ29D321BNBJOT5D4HQ6" visible="1" smart-txt-ver="2.10" editwidth="718.97" editheight="22.15" forcewidth="0" forceheight="0" language_direction="1" textdirection="0" theme_anno_style="0"><tspan justification="left" bullet="0"><tspan><tspan fill="#000000" font-size="20.000" font-family="Times New Roman" char-transform="0.00 1.00 0.00 0.00 0.00 1.00" textLength="718.97" y="17.82" x="0.00">http://upload.wikimedia.org/wikipedia/commons/c/c4/Balkans_Animation_1800-2006.gif</tspan></tspan></tspan></text><text transform="translate(29,261) rotate(0.000,392.000,80.446) scale(1.000,1.000)" metadatatoken="annotationmetadata/metadata(4).xml" RotationPoint="(389.000000,269.000000)" xml:id="annotation.J696QDOFA573V412UEUH6LCAU" visible="1" smart-txt-ver="2.10" editwidth="784.00" editheight="160.89" forcewidth="1" forceheight="0" language_direction="1" textdirection="0" theme_anno_style="0"><tspan justification="left" bullet="0"><tspan><tspan fill="#000000" font-size="24.000" font-family="Comic Sans MS" char-transform="0.00 1.00 0.00 0.00 0.00 1.00" textLength="436.78" y="26.45" x="0.00">The term refers to the division of the </tspan><tspan fill="#000000" backgroundColor="#FFFFFF" background-opacity="0" font-size="24.000" font-family="Comic Sans MS" char-transform="0.00 1.00 0.00 0.00 0.00 1.00" textLength="299.54" y="26.45" x="436.78">Balkan peninsula, formerly </tspan></tspan><tspan><tspan fill="#000000" backgroundColor="#FFFFFF" background-opacity="0" font-size="24.000" font-family="Comic Sans MS" char-transform="0.00 1.00 0.00 0.00 0.00 1.00" textLength="707.71" y="63.86" x="0.00">ruled almost entirely by the Ottoman Empire, into a number of </tspan></tspan><tspan><tspan fill="#000000" backgroundColor="#FFFFFF" background-opacity="0" font-size="24.000" font-family="Comic Sans MS" char-transform="0.00 1.00 0.00 0.00 0.00 1.00" textLength="428.41" y="101.27" x="0.00">smaller states between 1817 and 1912.</tspan></tspan></tspan><tspan justification="left" bullet="0"><tspan><tspan x="0.00" y="-858993459" textLength="0.50" fill="#000000" backgroundColor="#FFFFFF" background-opacity="0" font-size="24.000" font-family="Comic Sans MS" char-transform="0.00 1.00 0.00 0.00 0.00 1.00" /></tspan></tspan></text><text transform="translate(16,29) rotate(0.000,153.097,20.109) scale(1.000,1.000)" RotationPoint="(319.000000,252.000000)" xml:id="annotation.S63OICAGA942N9M52IOHAR9C5" visible="1" smart-txt-ver="2.10" editwidth="306.19" editheight="40.22" forcewidth="0" forceheight="0" language_direction="1" textdirection="0" theme_anno_style="0"><tspan justification="left" bullet="0"><tspan><tspan fill="#0000FF" font-size="36.000" font-family="Arial" char-transform="0.00 1.00 0.00 0.00 0.00 1.00" textLength="306.19" y="32.59" x="0.00">The Balkan Region</tspan></tspan></tspan></text><text transform="translate(13,207) rotate(0.000,107.068,20.109) scale(1.000,1.000)" RotationPoint="(322.000000,227.000000)" xml:id="annotation.T67UUCA1PP4FP16SDSL94RC18" visible="1" smart-txt-ver="2.10" editwidth="214.14" editheight="40.22" forcewidth="0" forceheight="0" language_direction="1" textdirection="0" theme_anno_style="0"><tspan justification="left" bullet="0"><tspan><tspan fill="#0000FF" font-size="36.000" font-family="Arial" char-transform="0.00 1.00 0.00 0.00 0.00 1.00" textLength="214.14" y="32.59" x="0.00">Balkanization</tspan></tspan></tspan></text><text transform="translate(14,405) rotate(0.000,372.765,42.663) scale(1.000,1.000)" RotationPoint="(296.000000,231.000000)" xml:id="annotation.L8IVIRC7S96DB2TNC6P2UKNGG" visible="1" smart-txt-ver="2.10" editwidth="745.53" editheight="85.33" forcewidth="1" forceheight="0" language_direction="1" textdirection="0" theme_anno_style="0"><tspan justification="left" bullet="0"><tspan><tspan fill="#0000FF" font-size="36.000" font-family="Arial" char-transform="0.00 1.00 0.00 0.00 0.00 1.00" textLength="714.36" y="32.59" x="0.00">Why were the great powers interested in the </tspan></tspan><tspan><tspan fill="#0000FF" backgroundColor="#FFFFFF" background-opacity="0" font-size="36.000" font-family="Arial" char-transform="0.00 1.00 0.00 0.00 0.00 1.00" textLength="250.17" y="77.70" x="0.00">Balkan region ?</tspan></tspan></tspan></text><text transform="translate(7,515) rotate(0.000,301.500,72.842) scale(1.000,1.000)" RotationPoint="(74.000000,227.000000)" xml:id="annotation.S2TTD9LD1909B1ICLKAHA1JNQ" visible="1" smart-txt-ver="2.10" editwidth="603.00" editheight="145.68" forcewidth="1" forceheight="0" language_direction="1" textdirection="0" theme_anno_style="0"><tspan justification="left" bullet="0"><tspan><tspan fill="#000000" font-size="24.000" font-family="Comic Sans MS" char-transform="0.00 1.00 0.00 0.00 0.00 1.00" textLength="591.47" y="26.45" x="0.00">Interested in retaining great power status following </tspan></tspan><tspan><tspan fill="#000000" backgroundColor="#FFFFFF" background-opacity="0" font-size="24.000" font-family="Comic Sans MS" char-transform="0.00 1.00 0.00 0.00 0.00 1.00" textLength="535.34" y="63.86" x="0.00">loss of territory and long slow decline. Internal </tspan></tspan><tspan><tspan fill="#000000" backgroundColor="#FFFFFF" background-opacity="0" font-size="24.000" font-family="Comic Sans MS" char-transform="0.00 1.00 0.00 0.00 0.00 1.00" textLength="577.62" y="101.27" x="0.00">political problems weakened their ability to control </tspan></tspan><tspan><tspan fill="#000000" backgroundColor="#FFFFFF" background-opacity="0" font-size="24.000" font-family="Comic Sans MS" char-transform="0.00 1.00 0.00 0.00 0.00 1.00" textLength="120.80" y="138.69" x="0.00">the region.</tspan></tspan></tspan></text><text transform="translate(15,706) rotate(0.000,303.145,72.842) scale(1.000,1.000)" RotationPoint="(86.000000,207.000000)" xml:id="annotation.9OE519U7R938JF6H8SQUQ6TAJ" visible="1" smart-txt-ver="2.10" editwidth="606.29" editheight="145.68" forcewidth="1" forceheight="0" language_direction="1" textdirection="0" theme_anno_style="0"><tspan justification="left" bullet="0"><tspan><tspan fill="#000000" font-size="24.000" font-family="Comic Sans MS" char-transform="0.00 1.00 0.00 0.00 0.00 1.00" textLength="611.89" y="26.45" x="0.00">Interested in influencing the region to prevent Balkan </tspan></tspan><tspan><tspan fill="#000000" backgroundColor="#FFFFFF" background-opacity="0" font-size="24.000" font-family="Comic Sans MS" char-transform="0.00 1.00 0.00 0.00 0.00 1.00" textLength="595.70" y="63.86" x="0.00">nationalism from destabalising their existing empire. </tspan></tspan><tspan><tspan fill="#000000" backgroundColor="#FFFFFF" background-opacity="0" font-size="24.000" font-family="Comic Sans MS" char-transform="0.00 1.00 0.00 0.00 0.00 1.00" textLength="583.17" y="101.27" x="0.00">Nationalist movements threatened to spread within </tspan></tspan><tspan><tspan fill="#000000" backgroundColor="#FFFFFF" background-opacity="0" font-size="24.000" font-family="Comic Sans MS" char-transform="0.00 1.00 0.00 0.00 0.00 1.00" textLength="145.76" y="138.69" x="0.00">their empire.</tspan></tspan></tspan></text><text transform="translate(27,937) rotate(0.000,312.475,91.548) scale(1.000,1.000)" RotationPoint="(94.000000,213.000000)" xml:id="annotation.UE69HL8T612NNB5FT61TUBACG" visible="1" smart-txt-ver="2.10" editwidth="624.95" editheight="183.10" forcewidth="1" forceheight="0" language_direction="1" textdirection="0" theme_anno_style="0"><tspan justification="left" bullet="0"><tspan><tspan fill="#000000" font-size="24.000" font-family="Comic Sans MS" char-transform="0.00 1.00 0.00 0.00 0.00 1.00" textLength="569.93" y="26.45" x="0.00">Defeat against Japan in 1905 and internal political </tspan></tspan><tspan><tspan fill="#000000" backgroundColor="#FFFFFF" background-opacity="0" font-size="24.000" font-family="Comic Sans MS" char-transform="0.00 1.00 0.00 0.00 0.00 1.00" textLength="596.36" y="63.86" x="0.00">problems weakened this empire. Slav nationalism was </tspan></tspan><tspan><tspan fill="#000000" backgroundColor="#FFFFFF" background-opacity="0" font-size="24.000" font-family="Comic Sans MS" char-transform="0.00 1.00 0.00 0.00 0.00 1.00" textLength="619.18" y="101.27" x="0.00">ecouraged by this empire. the region was also of major </tspan></tspan><tspan><tspan fill="#000000" backgroundColor="#FFFFFF" background-opacity="0" font-size="24.000" font-family="Comic Sans MS" char-transform="0.00 1.00 0.00 0.00 0.00 1.00" textLength="575.66" y="138.69" x="0.00">strategic importance for them. Humiliation in 1908 </tspan></tspan><tspan><tspan fill="#000000" backgroundColor="#FFFFFF" background-opacity="0" font-size="24.000" font-family="Comic Sans MS" char-transform="0.00 1.00 0.00 0.00 0.00 1.00" textLength="424.28" y="176.10" x="0.00">increased their interest in the region.</tspan></tspan></tspan></text><text transform="translate(34,1197) rotate(0.000,289.090,35.429) scale(1.000,1.000)" RotationPoint="(68.000000,168.000000)" xml:id="annotation.B8AKOK4CVL5O19DKTG26PL5DL" visible="1" smart-txt-ver="2.10" editwidth="578.18" editheight="70.86" forcewidth="1" forceheight="0" language_direction="1" textdirection="0" theme_anno_style="0"><tspan justification="left" bullet="0"><tspan><tspan fill="#000000" font-size="24.000" font-family="Comic Sans MS" char-transform="0.00 1.00 0.00 0.00 0.00 1.00" textLength="527.13" y="26.45" x="0.00">This power had major irredentist claims in the </tspan></tspan><tspan><tspan fill="#000000" backgroundColor="#FFFFFF" background-opacity="0" font-size="24.000" font-family="Comic Sans MS" char-transform="0.00 1.00 0.00 0.00 0.00 1.00" textLength="451.56" y="63.86" x="0.00">region, especially Trentino and Dalmatia.</tspan></tspan></tspan></text><text transform="translate(638,553) rotate(0.000,73.000,20.109) scale(1.000,1.000)" RotationPoint="(320.000000,240.000000)" xml:id="annotation.2VSOQGINQT46J375BKPECREHS" visible="1" smart-txt-ver="2.10" editwidth="146.00" editheight="40.22" forcewidth="1" forceheight="0" language_direction="1" textdirection="0" theme_anno_style="0"><tspan justification="left" bullet="0"><tspan><tspan fill="#0000FF" font-size="36.000" font-family="Arial" char-transform="0.00 1.00 0.00 0.00 0.00 1.00" textLength="138.06" y="32.59" x="0.00">Ottoman</tspan></tspan></tspan></text><text transform="translate(642,714) rotate(0.000,56.021,20.109) scale(1.000,1.000)" RotationPoint="(320.000000,240.000000)" xml:id="annotation.35GKRLP55149TEBSC2K2H50LB" visible="1" smart-txt-ver="2.10" editwidth="112.04" editheight="40.22" forcewidth="0" forceheight="0" language_direction="1" textdirection="0" theme_anno_style="0"><tspan justification="left" bullet="0"><tspan><tspan fill="#0000FF" font-size="36.000" font-family="Arial" char-transform="0.00 1.00 0.00 0.00 0.00 1.00" textLength="112.04" y="32.59" x="0.00">Austria</tspan></tspan></tspan></text><text transform="translate(665,987) rotate(0.000,59.500,20.109) scale(1.000,1.000)" RotationPoint="(320.000000,240.000000)" xml:id="annotation.HQH45DE3H11RVFPOVI86D8EQO" visible="1" smart-txt-ver="2.10" editwidth="119.00" editheight="40.22" forcewidth="1" forceheight="0" language_direction="1" textdirection="0" theme_anno_style="0"><tspan justification="left" bullet="0"><tspan><tspan fill="#0000FF" font-size="36.000" font-family="Arial" char-transform="0.00 1.00 0.00 0.00 0.00 1.00" textLength="110.04" y="32.59" x="0.00">Russia</tspan></tspan></tspan></text><text transform="translate(658,1200) rotate(0.000,33.012,20.109) scale(1.000,1.000)" RotationPoint="(320.000000,240.000000)" xml:id="annotation.4LGTPTR5N92UB4DE8EQLUDMDE" visible="1" smart-txt-ver="2.10" editwidth="66.02" editheight="40.22" forcewidth="0" forceheight="0" language_direction="1" textdirection="0" theme_anno_style="0"><tspan justification="left" bullet="0"><tspan><tspan fill="#0000FF" font-size="36.000" font-family="Arial" char-transform="0.00 1.00 0.00 0.00 0.00 1.00" textLength="66.02" y="32.59" x="0.00">Italy</tspan></tspan></tspan></text><g class="group" xml:id="annotation.2DDEBI81095TB6SO9BBNL5ERR" xbk_transform="rotate(0.00,293.97,1246.28)"><polyline fill="none" points="293.466248,1245.780884 293.466248,1245.781006 293.466248,1245.780762 293.466248,1245.780884 " stroke-linecap="round" stroke-linejoin="round" stroke="#ff0000" stroke-width="1.00" fade-time="6" fade-enable="0" RotationPoint="(320.000000,240.000000)" transform="rotate(0.00,293.97,1246.28)" xml:id="annotation.T5VL32V8UT5KFFGURSJ23PSRQ" visible="1"/></g><g class="group" xml:id="annotation.HJD39O77IT1C50HK39EF97SJI" xbk_transform="rotate(0.00,81.98,780.68)"><polyline fill="none" points="10.935059,779.852234 13.566375,781.606384 17.305990,782.467712 22.027733,783.034119 24.571938,783.442139 27.185978,783.897705 30.213734,784.201477 33.517300,784.403931 37.004738,784.538940 40.614769,784.628967 44.306519,784.688904 48.052753,784.728943 51.284573,784.939148 54.173447,785.262939 56.833687,785.662354 59.525089,785.928650 62.237251,786.106140 64.963264,786.224487 69.950363,786.355957 74.798203,786.414368 77.376022,786.429932 80.012482,786.440369 84.900078,786.451904 89.520081,786.456970 94.021172,786.459351 98.958946,786.460327 101.560745,786.460632 106.409836,786.460876 111.196327,786.461060 113.757782,786.461121 116.383316,786.461060 121.258789,786.461182 125.873421,786.277588 130.372101,785.584045 133.150543,785.325684 136.287918,785.153442 139.664566,785.038635 142.649994,784.962097 145.374588,784.911011 149.625824,784.854370 153.026794,784.808960 " stroke-linecap="round" stroke-linejoin="round" stroke="#ff0000" stroke-width="1.00" fade-time="6" fade-enable="0" RotationPoint="(320.000000,240.000000)" transform="rotate(0.00,81.98,783.16)" xml:id="annotation.BE05QA14KD5CB1NRMVABH9GGF" visible="1"/><polyline fill="none" points="12.587280,774.895569 16.972839,774.895569 21.573692,774.895569 26.311029,775.079163 30.252340,775.772705 32.808720,776.031067 35.798050,776.203369 39.076000,776.318115 42.546364,776.578247 46.144993,776.935303 49.829147,777.356934 53.019573,777.638000 55.880852,777.825378 58.522701,777.950256 63.416275,778.578552 68.222527,779.286194 70.789253,779.474792 73.418320,779.600525 78.297707,780.229919 82.914085,780.937988 87.413536,781.252686 91.861053,781.882080 96.285477,782.590210 100.699615,782.904968 105.109215,783.534424 109.516777,784.426025 113.923447,785.434326 116.493767,785.776550 119.308807,786.004761 122.286995,786.156921 126.085625,786.325928 129.895569,786.461182 " stroke-linecap="round" stroke-linejoin="round" stroke="#ff0000" stroke-width="1.00" fade-time="6" fade-enable="0" RotationPoint="(320.000000,240.000000)" transform="rotate(0.00,71.24,780.68)" xml:id="annotation.EKHR2E8MT103L23J09HFLH3O6" visible="1"/></g><g class="group" xml:id="annotation.QIC3NBARBL4LN8GB3L11ER944" xbk_transform="rotate(0.00,586.74,742.69)"><polyline fill="none" points="529.735107,738.546509 533.875916,737.411072 537.511230,737.123962 540.059448,737.047424 543.043335,736.996399 546.317688,736.962402 549.969238,736.939697 553.872192,736.924561 557.942810,736.914490 561.390930,737.091309 564.423950,737.392822 567.180237,737.777405 569.935791,738.033752 572.690674,738.204651 575.445190,738.318604 578.015808,738.578125 582.830322,739.356140 585.325806,739.636963 587.907410,739.824219 590.546326,739.949097 595.436707,740.577332 600.241516,741.284912 602.807861,741.473572 605.436707,741.599365 608.107117,741.866821 610.805359,742.228699 613.522034,742.653503 616.618286,742.936829 619.967468,743.125671 623.485291,743.251526 626.748474,743.335449 629.841797,743.391357 632.821899,743.428650 637.601807,743.959656 641.920532,744.801086 643.738892,745.155457 " stroke-linecap="round" stroke-linejoin="round" stroke="#ff0000" stroke-width="1.00" fade-time="6" fade-enable="0" RotationPoint="(320.000000,240.000000)" transform="rotate(0.00,586.74,741.03)" xml:id="annotation.51LIM8TDJL0CNCB0IMB414PQG" visible="1"/><polyline fill="none" points="539.648438,745.155457 543.789185,744.019958 547.424561,743.732910 551.977661,743.605286 556.877319,743.548584 561.502625,743.523376 564.498474,743.700256 567.964294,744.001709 571.743530,744.386292 574.997375,744.642639 577.900818,744.813599 580.570862,744.927490 583.268738,745.003479 585.985291,745.054138 588.714172,745.087891 591.451416,745.294006 594.194092,745.614990 596.940369,746.012512 599.872803,746.461182 602.929199,746.943787 606.068298,747.449158 609.556274,748.010681 612.346558,748.459900 " stroke-linecap="round" stroke-linejoin="round" stroke="#ff0000" stroke-width="1.00" fade-time="6" fade-enable="0" RotationPoint="(320.000000,240.000000)" transform="rotate(0.00,576.00,745.99)" xml:id="annotation.4H3AUC3TRD6BRCN6UPKU5VEB9" visible="1"/></g><g class="group" xml:id="annotation.LOA5NG4EF12B3449TDU5UAEO3" xbk_transform="rotate(0.00,77.24,760.03)"><polyline fill="none" points="12.587280,748.459900 10.132745,752.600647 8.865059,756.236023 8.179256,760.299561 8.058036,764.369629 8.616094,768.014465 9.476054,771.959717 10.502761,776.351074 10.935059,778.200012 " stroke-linecap="round" stroke-linejoin="round" stroke="#ff0000" stroke-width="1.00" fade-time="6" fade-enable="0" RotationPoint="(320.000000,240.000000)" transform="rotate(0.00,10.32,763.33)" xml:id="annotation.0LDFEK8AD551FBFB7MPV04OO0" visible="1"/><polyline fill="none" points="10.935059,741.850952 14.892238,743.170044 19.573191,744.485596 23.463724,744.857727 27.640604,744.533569 31.944746,743.961243 36.305435,743.706726 41.180820,743.593750 43.765995,743.563599 48.596596,743.530090 53.007690,743.331665 56.804008,742.631348 61.306160,742.197815 66.183212,742.005188 70.798546,741.919495 75.787102,741.881470 78.402443,741.871338 83.266571,742.349548 87.876167,742.990540 92.372612,743.275330 96.818787,743.402039 101.242607,743.641846 105.656494,744.360413 110.065971,745.291687 114.473503,746.133911 118.880127,746.508240 123.286377,747.164185 127.508888,747.700500 131.221359,747.326843 134.707184,747.528015 137.908661,748.412842 140.555405,750.030029 142.466064,752.462158 144.573807,756.927856 145.598267,760.300964 146.053589,764.247925 146.255951,768.449890 146.345901,772.214417 146.417847,776.547791 " stroke-linecap="round" stroke-linejoin="round" stroke="#ff0000" stroke-width="1.00" fade-time="6" fade-enable="0" RotationPoint="(320.000000,240.000000)" transform="rotate(0.00,78.68,759.20)" xml:id="annotation.3KNQLJ69PL3IFDUO4U1207MOQ" visible="1"/></g><g class="group" xml:id="annotation.GLNQBO09PT0D1D3O79SA62SP9" xbk_transform="rotate(0.00,412.03,1171.26)"><polyline fill="none" points="47.733093,1181.596313 " stroke-linecap="round" stroke-linejoin="round" stroke="#ff0000" stroke-width="3.00" fade-time="6" fade-enable="0" RotationPoint="(320.000000,240.000000)" transform="rotate(0.00,48.23,1182.10)" xml:id="annotation.J2HE10IGCD26778H544V21JFH" visible="1"/><polyline fill="none" points="44.288208,1186.763672 47.945736,1186.763672 51.782841,1186.763672 56.231373,1186.763672 58.757332,1186.763672 61.398220,1186.763672 64.115715,1186.763672 66.884300,1186.763672 69.686920,1186.763672 72.512253,1186.763672 75.352730,1186.763672 78.203285,1186.763672 81.251968,1186.763672 84.432701,1186.763672 87.701485,1186.763672 91.028976,1186.763672 94.395599,1186.763672 97.788315,1186.763672 101.198410,1186.763672 104.620110,1186.763672 108.049530,1186.763672 111.101357,1186.763672 113.901421,1186.763672 116.533661,1186.763672 119.436790,1186.572388 122.520493,1186.253418 125.724602,1185.849365 129.008972,1185.580078 132.346848,1185.400513 135.720367,1185.280762 138.734924,1185.201050 141.510193,1185.147705 146.443802,1184.897095 150.550369,1184.147827 153.023407,1183.871460 155.820404,1183.687256 158.833359,1183.564331 161.607513,1183.482544 164.222488,1183.427979 168.978043,1183.175781 173.005463,1182.426025 175.648773,1182.149414 178.750671,1181.965088 182.158264,1181.842163 185.769669,1181.760254 189.516953,1181.705566 193.354813,1181.669189 197.253082,1181.645020 201.191605,1181.628662 205.156967,1181.617920 208.566071,1181.610718 211.604355,1181.605957 214.395401,1181.602783 219.027618,1181.088867 223.191574,1180.413818 227.593964,1180.113892 232.102371,1179.980469 236.657867,1179.921265 241.234299,1179.895020 245.820038,1179.883301 250.409912,1179.878052 255.001648,1179.875732 259.594208,1179.364502 264.187103,1178.690552 268.780151,1178.391113 273.373291,1178.257935 277.966431,1178.198730 282.559601,1178.172485 287.152771,1178.160889 291.745911,1177.964355 296.339111,1177.238892 300.932281,1176.788940 305.525452,1176.588867 310.118683,1176.500000 312.606689,1176.284912 315.222229,1175.950195 317.922852,1175.535645 320.488800,1175.259277 325.381256,1174.952271 330.107452,1174.815918 334.951111,1174.755249 337.582428,1174.738892 340.293549,1174.728149 342.866516,1174.529663 347.766785,1173.798584 352.496429,1173.346069 357.341675,1173.145020 359.973419,1173.091431 362.684814,1173.055664 365.257965,1173.031860 370.158386,1173.005371 372.728271,1172.806885 375.398468,1172.483276 378.135529,1172.076050 380.725739,1171.804565 385.645172,1171.503052 388.220184,1171.422607 390.893707,1171.368896 393.632996,1171.333130 396.416107,1171.309448 399.228424,1171.293457 402.060211,1171.282959 404.713623,1171.275879 409.703247,1171.267944 412.296936,1171.074463 414.983002,1170.754150 417.730621,1170.349121 420.519257,1170.079224 423.335266,1169.899170 426.169495,1169.779175 429.015930,1169.699219 431.870453,1169.645874 434.730408,1169.610229 437.402527,1169.586548 439.949554,1169.570801 442.413025,1169.560181 445.012238,1169.553101 447.702026,1169.548462 450.452087,1169.545410 453.242371,1169.543335 456.059448,1169.541870 458.894470,1169.540894 461.549957,1169.348999 466.541992,1168.625244 469.136353,1168.355835 471.822784,1168.176270 474.570679,1168.056396 477.359558,1167.976562 480.175629,1167.923340 483.010010,1167.887817 485.856476,1167.864136 488.711060,1167.848145 491.571045,1167.837646 494.434570,1167.830688 497.300415,1167.826172 500.168030,1167.823120 503.036591,1167.820923 505.905914,1167.819458 508.775696,1167.818604 511.454437,1167.817993 514.005798,1167.817627 516.472229,1167.817261 519.073425,1167.625732 521.764526,1167.306519 524.515503,1166.902466 527.306335,1166.633179 530.123840,1166.453613 532.959045,1166.333862 535.806152,1166.254028 538.661072,1166.200806 541.521301,1166.165405 544.193604,1165.950195 546.740723,1165.615601 549.204346,1165.201050 551.994995,1164.924561 555.003784,1164.740479 558.157898,1164.617676 561.026245,1164.535645 563.703918,1164.481201 566.254639,1164.444824 568.911987,1164.229126 571.640381,1163.894043 574.416321,1163.479126 577.223816,1163.202515 580.052490,1163.018066 582.895081,1162.895264 585.747131,1162.813232 588.605408,1162.758545 591.467834,1162.722168 594.141602,1162.697876 596.689697,1162.681763 599.153931,1162.671021 601.753662,1162.663818 604.443726,1162.658936 607.194031,1162.655762 609.984436,1162.462280 612.801697,1162.141846 615.636719,1161.736816 618.483704,1161.466919 621.338562,1161.286865 624.198730,1161.166992 627.062378,1161.087036 629.928467,1161.033691 632.796021,1160.998169 635.473267,1160.783081 638.023682,1160.448364 642.898804,1159.757446 647.617310,1159.450317 650.138672,1159.368408 652.776550,1159.313843 655.492065,1159.277466 658.067810,1159.253174 662.971375,1159.226196 665.541992,1159.027588 668.212830,1158.703857 670.950256,1158.296631 673.540649,1158.025269 678.460449,1157.723511 683.198730,1157.589478 687.856384,1157.529907 692.478210,1157.503296 697.084167,1157.491577 699.384094,1157.488403 702.257202,1157.486328 705.512207,1157.484863 709.021851,1157.484009 711.935791,1157.291992 716.704590,1156.568237 719.354187,1156.298706 722.268860,1156.119019 725.360291,1155.999268 728.378174,1155.919312 731.346924,1155.866089 734.283142,1155.830566 737.388855,1155.807007 740.607666,1155.791138 743.901794,1155.780640 746.863403,1155.773682 749.603394,1155.769043 752.195618,1155.765869 757.117126,1155.762329 761.856262,1155.760864 766.514343,1155.760254 770.625977,1156.270264 774.175842,1157.135010 775.658325,1157.633423 779.771606,1159.204590 " stroke-linecap="round" stroke-linejoin="round" stroke="#ff0000" stroke-width="3.00" fade-time="6" fade-enable="0" RotationPoint="(320.000000,240.000000)" transform="rotate(0.00,412.03,1171.26)" xml:id="annotation.4R2HTLJVK56TT4KTFLBD0OCHJ" visible="1"/></g><g class="group" xml:id="annotation.BKAO9CJEOL73H61ENIAKDTBJ7" xbk_transform="rotate(0.00,518.45,992.19)"><polyline fill="none" points="393.944275,976.625549 395.319366,980.942322 396.341644,984.732178 396.923615,989.478638 397.373627,994.395081 398.211578,998.494080 398.711578,1002.739990 399.125183,1007.178833 399.946991,1011.703430 400.439789,1014.735107 400.834045,1017.964172 " stroke-linecap="round" stroke-linejoin="round" stroke="#0000ff" stroke-width="3.00" fade-time="6" fade-enable="0" RotationPoint="(320.000000,240.000000)" transform="rotate(0.00,397.39,997.29)" xml:id="annotation.CD1Q9GNPD54LD6MGT2C1P2CDR" visible="1"/><polyline fill="none" points="404.278931,971.458191 407.936462,971.458191 411.263214,971.968628 414.655609,972.833313 418.077179,973.855591 422.022003,974.947937 426.327057,975.879944 430.792175,976.294128 433.246002,976.595947 435.838776,976.988708 438.524231,977.441833 441.080048,977.743896 445.961304,978.079590 450.682495,978.228760 455.523956,978.295044 458.154724,978.312744 460.865448,978.324524 463.629547,978.332275 466.429138,978.337585 469.252472,978.341003 471.900208,978.343384 476.883606,978.345947 481.139801,978.857422 485.136658,979.531372 489.464844,979.830872 494.450562,979.963989 497.119781,979.999451 499.664795,980.214417 504.533997,980.963806 507.095581,981.240051 509.760193,981.424377 512.493530,981.547180 515.081238,981.629028 519.997986,981.720032 522.572266,981.744324 525.245361,981.760498 527.984314,981.771240 530.575806,981.778442 535.496643,981.786438 539.725098,981.279724 543.709595,980.607910 548.032288,980.309326 551.994873,979.666260 556.052551,978.742554 561.045776,977.694031 565.944336,977.100464 570.673218,976.645264 575.326721,975.804993 579.436340,974.793640 583.368042,973.897583 587.667297,973.499268 591.619446,972.811829 595.481201,971.868469 599.749268,970.811340 603.687622,969.703430 607.543213,968.764465 611.808594,968.347229 615.745789,967.651367 619.600769,966.895569 623.865967,966.559631 628.313232,966.410278 632.650269,966.535278 636.491638,967.228882 637.745667,968.255798 639.139038,971.438354 639.758240,975.404602 640.224854,979.719116 641.070251,984.188599 641.573547,988.726685 641.797241,993.295349 641.896606,997.877747 642.451172,1001.955750 642.952759,1005.682007 642.537842,1009.251953 641.776550,1010.625000 639.399475,1012.660889 635.918701,1013.693237 631.628662,1014.152222 629.144897,1014.274536 624.216309,1014.219116 620.112000,1013.556641 615.353271,1013.134521 612.744568,1013.021973 610.048523,1012.946960 607.294189,1012.896912 604.501160,1012.863586 601.873535,1012.841309 596.912659,1012.816650 594.326660,1013.001343 591.645752,1013.316101 588.901489,1013.717163 586.306519,1013.984558 581.381775,1014.281616 578.805359,1014.360840 576.130859,1014.413757 573.390930,1014.448914 570.607422,1014.472412 567.794800,1014.488037 564.962830,1014.498474 562.309326,1014.505371 557.319519,1014.513123 553.060425,1014.006165 549.062317,1013.334290 544.733582,1013.035706 540.257996,1012.903015 535.717041,1012.844055 531.147034,1012.817871 528.665222,1012.810852 526.053833,1012.806213 523.355957,1012.803101 520.791809,1012.801025 515.901428,1012.798706 511.176117,1012.797607 506.524200,1012.797241 501.904999,1012.796997 499.410065,1012.796997 496.789825,1012.796997 494.086090,1012.796936 491.518127,1012.796875 486.623322,1012.796875 484.054932,1012.796875 481.385803,1012.796875 478.649445,1012.796875 475.868256,1012.796875 473.057251,1012.796875 470.226318,1012.796875 467.573486,1012.796875 462.584534,1012.796875 458.325806,1013.307190 454.327789,1013.789185 449.999146,1013.365540 445.523560,1013.049561 440.982605,1012.909119 436.412628,1012.846802 433.930786,1012.830139 431.319397,1012.819031 428.621521,1012.811646 425.866089,1012.998047 423.072144,1013.313782 420.252655,1013.715637 417.607452,1013.792175 412.626923,1013.366821 408.371918,1013.560547 404.279572,1014.235229 402.556458,1014.519287 " stroke-linecap="round" stroke-linejoin="round" stroke="#0000ff" stroke-width="3.00" fade-time="6" fade-enable="0" RotationPoint="(320.000000,240.000000)" transform="rotate(0.00,522.75,990.46)" xml:id="annotation.69P482BA256M35V85FESNTCOV" visible="1"/></g></g></svg>