<?xml version="1.0" encoding="UTF-8" standalone="yes"?><svg width="800" height="721" xml:id="page.BG8TDNH1052U5BBTHPKKKEEK5"><title>Sep 2-9:05 AM</title><g class="foreground"><text transform="translate(60,7) rotate(0.000,255.532,26.777) scale(1.000,1.000)" RotationPoint="(134.000000,228.000000)" xml:id="annotation.G7DAP1OR8P59N49RDN7Q1QADU" visible="1" smart-txt-ver="2.10" editwidth="511.06" editheight="53.55" forcewidth="1" forceheight="0" language_direction="1" textdirection="0" theme_anno_style="0"><tspan justification="left" line-spacing="1.00" prepara-spacing="1.00" bullet="0"><tspan><tspan fill="#000000" font-size="49.260" font-family="Arial" char-transform="0.00 1.00 0.00 0.00 0.00 1.00" leading="0.970" textLength="492.93" y="43.12" x="0.00">The Situation by 1908.</tspan></tspan></tspan></text><text transform="translate(50,99) rotate(0.000,69.000,8.761) scale(1.000,1.000)" RotationPoint="(320.000000,240.000000)" xml:id="annotation.GAB74DT8A56E95RVFLEK1HEE6" visible="1" smart-txt-ver="2.10" editwidth="138.00" editheight="17.52" forcewidth="1" forceheight="0" language_direction="1" textdirection="0" theme_anno_style="0"><tspan justification="left" line-spacing="1.00" prepara-spacing="1.00" bullet="0"><tspan><tspan fill="#000000" font-size="16.117" font-family="Arial" char-transform="0.00 0.99 0.00 0.00 0.00 1.00" leading="0.970" textLength="130.34" y="14.11" x="0.00">Two armed camps</tspan></tspan></tspan></text><text transform="translate(71,557) rotate(0.000,69.000,8.698) scale(1.000,1.000)" RotationPoint="(320.000000,240.000000)" xml:id="annotation.LMVHGBC9P1345ADAU7VT99U3L" visible="1" smart-txt-ver="2.10" editwidth="138.00" editheight="17.40" forcewidth="1" forceheight="0" language_direction="1" textdirection="0" theme_anno_style="0"><tspan justification="left" line-spacing="1.00" prepara-spacing="1.00" bullet="0"><tspan><tspan fill="#000000" font-size="16.000" font-family="Arial" char-transform="0.00 1.00 0.00 0.00 0.00 1.00" leading="0.970" textLength="131.60" y="14.00" x="0.00">Growing insecurity</tspan></tspan></tspan></text><text transform="translate(47,258) rotate(0.000,103.000,8.656) scale(1.000,1.000)" RotationPoint="(320.000000,240.000000)" xml:id="annotation.C69HEGVMJ95QR4IRN09RL1P2J" visible="1" smart-txt-ver="2.10" editwidth="206.00" editheight="17.31" forcewidth="1" forceheight="0" language_direction="1" textdirection="0" theme_anno_style="0"><tspan justification="left" line-spacing="1.00" prepara-spacing="1.00" bullet="0"><tspan><tspan fill="#000000" font-size="15.923" font-family="Arial" char-transform="0.00 1.00 0.00 0.00 0.00 1.00" leading="0.970" textLength="199.14" y="13.94" x="0.00">End of Bismarckian Balance</tspan></tspan></tspan></text><text transform="translate(46,358) rotate(0.000,93.000,8.744) scale(1.000,1.000)" RotationPoint="(320.000000,240.000000)" xml:id="annotation.PNUV83MN5D3D53CV8LC54L9P4" visible="1" smart-txt-ver="2.10" editwidth="186.00" editheight="17.49" forcewidth="1" forceheight="0" language_direction="1" textdirection="0" theme_anno_style="0"><tspan justification="left" line-spacing="1.00" prepara-spacing="1.00" bullet="0"><tspan><tspan fill="#000000" font-size="16.086" font-family="Arial" char-transform="0.00 1.00 0.00 0.00 0.00 1.00" leading="0.970" textLength="178.85" y="14.08" x="0.00">End of splendid isolation.</tspan></tspan></tspan></text><text transform="translate(53,475) rotate(0.000,109.000,8.979) scale(1.000,1.000)" RotationPoint="(320.000000,240.000000)" xml:id="annotation.VUEG6SBCJ971HA7T5DES1ABLT" visible="1" smart-txt-ver="2.10" editwidth="218.00" editheight="17.96" forcewidth="1" forceheight="0" language_direction="1" textdirection="0" theme_anno_style="0"><tspan justification="left" line-spacing="1.00" prepara-spacing="1.00" bullet="0"><tspan><tspan fill="#000000" font-size="16.074" font-family="Arial" char-transform="0.00 1.00 0.00 0.00 0.00 1.00" leading="0.970" textLength="75.94" y="14.55" x="0.00">Perceived </tspan><tspan fill="#000000" backgroundColor="#FFFFFF" background-opacity="0" font-style="italic" font-size="16.074" font-family="Arial" char-transform="0.00 1.01 0.00 0.00 0.00 1.00" textLength="134.45" y="14.55" x="75.94">Einkreisungspolitik</tspan></tspan></tspan></text><text transform="translate(54,674) rotate(0.000,79.000,8.643) scale(1.000,1.000)" RotationPoint="(320.000000,240.000000)" xml:id="annotation.7UR2K49UAP0NBFB9RCDT04U6A" visible="1" smart-txt-ver="2.10" editwidth="158.00" editheight="17.29" forcewidth="1" forceheight="0" language_direction="1" textdirection="0" theme_anno_style="0"><tspan justification="left" line-spacing="1.00" prepara-spacing="1.00" bullet="0"><tspan><tspan fill="#000000" font-size="15.899" font-family="Arial" char-transform="0.00 1.01 0.00 0.00 0.00 1.00" leading="0.970" textLength="151.43" y="13.92" x="0.00">The Balkan VORTEX</tspan></tspan></tspan></text><path fill-rule="evenodd" slscaler="0.033333" d="M353.0000 68.0000 L387.0000 68.0000 L387.0000 102.0000 L353.0000 102.0000 z" constrain="1" shapename="3" fill="none" st_id="19" stroke="#000000" stroke-width="3.00" fade-time="6" fade-enable="0" RotationPoint="(339.000000,218.000000)" transform="rotate(0.00,370.00,85.00)" xml:id="annotation.3JT8Q7R8R56FVDQ5PTPJAHVRI" visible="1"/><path fill-rule="evenodd" slscaler="0.033333" d="M345.0000 156.0000 L391.0000 156.0000 L391.0000 202.0000 L345.0000 202.0000 z" constrain="1" shapename="3" fill="none" st_id="19" stroke="#000000" stroke-width="3.00" fade-time="6" fade-enable="0" RotationPoint="(320.000000,240.000000)" transform="rotate(0.00,368.00,179.00)" xml:id="annotation.8EGDOODBC93NN97S4G7UGABV3" visible="1"/><path fill-rule="evenodd" slscaler="0.033333" d="M580.0000 71.0000 L670.0000 71.0000 L670.0000 161.0000 L580.0000 161.0000 z" constrain="1" shapename="3" fill="none" st_id="19" stroke="#000000" stroke-width="3.00" fade-time="6" fade-enable="0" RotationPoint="(320.000000,240.000000)" transform="rotate(0.00,625.00,116.00)" xml:id="annotation.HH62NMD25H4LV4QIPOH6C4AJF" visible="1"/><ellipse cx="480.00" cy="87.00" rx="41.04" ry="41.04" shapename="0" fill="none" st_id="16" stroke="#000000" stroke-width="3.00" fade-time="6" fade-enable="0" RotationPoint="(320.000000,240.000000)" transform="rotate(0.00,480.00,87.00)" xml:id="annotation.OCGK1N32L96CF9AS8O2GS5KQT" visible="1"/><ellipse cx="525.00" cy="168.00" rx="45.22" ry="45.22" shapename="0" fill="none" st_id="16" stroke="#000000" stroke-width="3.00" fade-time="6" fade-enable="0" RotationPoint="(320.000000,240.000000)" transform="rotate(0.00,525.00,168.00)" xml:id="annotation.AIJ2I3EB390C16O0ICLS7GEG6" visible="1"/><ellipse cx="455.00" cy="207.00" rx="14.87" ry="14.87" shapename="0" fill="none" st_id="16" stroke="#000000" stroke-width="3.00" fade-time="6" fade-enable="0" RotationPoint="(320.000000,240.000000)" transform="rotate(0.00,455.00,207.00)" xml:id="annotation.KNBVAS5B597BV8OL857S32T41" visible="1"/><g class="group" xml:id="annotation.D5K1RV3BDD4F94FEFD372VFLK" xbk_transform="rotate(0.00,0.00,0.00)"><polyline fill="none" points="" stroke-linecap="round" stroke-linejoin="round" stroke="#009300" stroke-width="1.00" fade-time="6" fade-enable="0" RotationPoint="(320.000000,240.000000)" transform="rotate(0.00,0.00,0.00)" xml:id="annotation.P4CPR61GQD51VBVLM3FIL1Q8S" visible="1"/><polyline fill="none" points="" stroke-linecap="round" stroke-linejoin="round" stroke="#009300" stroke-width="1.00" fade-time="6" fade-enable="0" RotationPoint="(320.000000,240.000000)" transform="rotate(0.00,0.00,0.00)" xml:id="annotation.1Q6I8QU0JH3NBCKDI6OL69PVL" visible="1"/><polyline fill="none" points="" stroke-linecap="round" stroke-linejoin="round" stroke="#009300" stroke-width="1.00" fade-time="6" fade-enable="0" RotationPoint="(320.000000,240.000000)" transform="rotate(0.00,0.00,0.00)" xml:id="annotation.UU1V15VR2D3K53KBUJP7PBV49" visible="1"/><polyline fill="none" points="" stroke-linecap="round" stroke-linejoin="round" stroke="#009300" stroke-width="1.00" fade-time="6" fade-enable="0" RotationPoint="(320.000000,240.000000)" transform="rotate(0.00,0.00,0.00)" xml:id="annotation.3PNQH56F1H3OPE8PQ3HMP2G89" visible="1"/><polyline fill="none" points="" stroke-linecap="round" stroke-linejoin="round" stroke="#009300" stroke-width="1.00" fade-time="6" fade-enable="0" RotationPoint="(320.000000,240.000000)" transform="rotate(0.00,0.00,0.00)" xml:id="annotation.13VJCOBD7T2H97LVV3SDLB0A0" visible="1"/><polyline fill="none" points="" stroke-linecap="round" stroke-linejoin="round" stroke="#009300" stroke-width="1.00" fade-time="6" fade-enable="0" RotationPoint="(320.000000,240.000000)" transform="rotate(0.00,0.00,0.00)" xml:id="annotation.FPQJ4952QP7NV94PHCFTLSD66" visible="1"/><polyline fill="none" points="" stroke-linecap="round" stroke-linejoin="round" stroke="#009300" stroke-width="1.00" fade-time="6" fade-enable="0" RotationPoint="(320.000000,240.000000)" transform="rotate(0.00,0.00,0.00)" xml:id="annotation.K8F4I2OBCP3GN0UMFKE261VL8" visible="1"/><polyline fill="none" points="" stroke-linecap="round" stroke-linejoin="round" stroke="#009300" stroke-width="1.00" fade-time="6" fade-enable="0" RotationPoint="(320.000000,240.000000)" transform="rotate(0.00,0.00,0.00)" xml:id="annotation.2R82LMKUC11FT2B4SORN8VPT9" visible="1"/><polyline fill="none" points="" stroke-linecap="round" stroke-linejoin="round" stroke="#009300" stroke-width="1.00" fade-time="6" fade-enable="0" RotationPoint="(320.000000,240.000000)" transform="rotate(0.00,0.00,0.00)" xml:id="annotation.932PV13LGD2UL65RONVFT76AU" visible="1"/><polyline fill="none" points="" stroke-linecap="round" stroke-linejoin="round" stroke="#009300" stroke-width="1.00" fade-time="6" fade-enable="0" RotationPoint="(320.000000,240.000000)" transform="rotate(0.00,0.00,0.00)" xml:id="annotation.JNAN2AN09123LELQMDT38NFRO" visible="1"/><polyline fill="none" points="" stroke-linecap="round" stroke-linejoin="round" stroke="#009300" stroke-width="1.00" fade-time="6" fade-enable="0" RotationPoint="(320.000000,240.000000)" transform="rotate(0.00,0.00,0.00)" xml:id="annotation.40JCOIGSD12KT5VEVR84760OP" visible="1"/></g><polyline fill="none" points="206.594910,655.788513 202.272141,651.162598 197.648636,647.617737 193.920349,645.498169 189.629349,643.577454 185.126297,641.817810 180.560410,640.706665 175.975876,640.332153 171.487915,640.221191 167.425400,640.290344 163.137436,641.013916 159.134201,642.373596 154.863785,643.570190 150.967819,645.274109 146.266418,648.268799 141.319656,652.315002 137.262268,656.534912 133.947311,660.834473 131.708786,664.983459 129.679138,669.355957 127.777687,673.685608 126.801109,678.369751 126.222511,681.495056 126.606697,685.165100 127.468918,689.733643 129.264954,694.175354 131.120300,698.000854 135.939178,702.754944 140.745865,706.512390 145.418961,709.531799 149.641739,711.258362 154.573074,711.977356 158.660339,712.509644 162.728836,712.667358 167.165970,712.714111 171.712341,712.727905 176.291077,712.459839 180.879410,711.461914 185.198425,710.145813 189.335602,708.837280 193.793076,706.884827 198.073334,704.367371 201.926895,701.682373 206.886108,698.032349 210.961304,693.629944 214.109680,688.829407 217.161987,683.950256 219.628281,679.055542 221.204025,674.157776 222.010437,669.259399 221.848557,665.993713 220.911530,661.227478 219.341232,658.148499 215.497604,653.270569 211.074875,650.143250 206.326843,647.211060 204.757965,646.603821 " stroke-linecap="round" stroke-linejoin="round" stroke="#ff0000" stroke-width="1.00" fade-time="6" fade-enable="0" RotationPoint="(320.000000,240.000000)" transform="rotate(0.00,174.12,676.47)" xml:id="annotation.CELU7AEKFH01300TS2ERV2IEM" visible="1"/><polyline fill="none" points="192.817841,546.490417 189.404755,545.027649 185.824097,543.765259 181.953506,542.523804 178.192215,541.291748 174.207336,540.335876 170.157120,539.570862 166.315979,538.890747 162.295593,538.520447 158.127563,538.355835 153.893875,538.282715 149.903152,538.522339 145.986404,538.968994 141.864380,539.507751 138.195435,540.359436 133.261169,541.986450 128.839645,544.033325 124.176109,546.980225 122.748100,548.545105 120.121506,553.050415 119.687401,555.257019 119.930603,559.769470 120.648987,564.009277 122.539276,568.996887 124.878136,573.308289 127.793159,577.572998 131.948349,581.994812 136.095291,586.194458 139.884613,589.448608 143.966904,592.351807 148.033936,594.878845 152.742767,597.192383 156.126999,598.823914 161.003067,600.889954 164.492661,602.168152 169.412140,603.547668 172.822372,604.267822 176.277023,604.825989 181.090683,605.140259 185.748596,605.131348 190.258347,604.425659 194.225235,602.969299 199.222748,600.648621 201.481445,599.339478 205.748917,595.113831 208.631363,590.751282 210.894043,585.958679 211.866348,581.081055 211.854309,576.186646 210.370300,571.288940 208.576630,566.390625 205.523605,561.696289 200.576355,557.438232 195.899475,553.454346 193.736298,552.001282 " stroke-linecap="round" stroke-linejoin="round" stroke="#ff0000" stroke-width="1.00" fade-time="6" fade-enable="0" RotationPoint="(320.000000,240.000000)" transform="rotate(0.00,165.78,571.71)" xml:id="annotation.64QJ88C8TP2UT8S4PPN38IA9G" visible="1"/><polyline fill="none" points="198.328644,470.257324 194.005920,468.978943 189.110443,468.098297 185.455185,467.494843 181.687515,466.988525 177.631760,466.763489 173.720139,466.663452 169.838531,466.619019 165.732147,466.599274 161.798019,466.590485 158.008469,466.586578 154.283173,466.584808 150.586426,466.856232 145.607010,467.582733 141.274155,468.716461 137.030823,470.345062 133.188217,472.120270 128.720291,474.548676 124.309555,478.217896 122.422699,480.542023 121.058556,484.144897 120.886269,486.430664 120.983200,487.468872 122.582359,490.880341 125.865593,494.223633 130.374451,497.476288 134.873489,499.846741 139.091705,501.158600 143.675262,502.692566 147.096436,503.484619 150.658005,504.176880 154.384018,504.824707 158.421265,505.452759 162.324661,506.072113 166.202591,506.585449 170.307343,506.813599 174.512909,507.187134 178.763275,507.693390 183.033554,508.258514 187.312683,508.577698 191.697784,508.719604 196.368103,508.782654 200.893066,508.810669 205.285370,508.925201 209.618744,509.316254 214.198029,509.558105 218.852631,509.665619 223.302536,509.713318 227.661514,509.734589 231.878021,509.744019 235.793030,509.748199 239.846252,509.477905 243.926865,509.119690 247.781509,508.960480 251.535706,508.617554 255.245300,508.227051 258.935059,508.053528 262.616028,507.704224 266.190979,507.208771 271.072357,506.356140 275.648315,505.457214 280.631226,504.239136 284.593903,502.528259 286.911713,500.819153 287.976715,498.808044 288.586121,496.111298 288.253357,491.456757 287.416382,489.068115 283.625031,484.092499 279.073456,479.884399 274.753296,476.330109 269.754028,473.179230 265.927643,471.249786 261.845825,469.371735 257.650482,467.516479 253.132507,465.671448 248.403122,463.830872 243.579788,461.992340 241.048523,461.175507 238.442505,460.426880 235.786728,459.723663 233.097748,459.050720 230.386597,458.398010 227.660721,457.758759 224.924988,457.128479 222.182678,456.504242 219.436005,455.883942 216.584366,455.368347 213.662750,454.922546 210.694473,454.523285 207.695114,454.257141 204.675018,454.079712 201.641098,453.961395 198.597961,453.780487 195.548660,453.557831 192.495285,453.307373 189.439163,453.242371 186.381241,453.301178 183.322098,453.442413 180.262146,453.536560 177.201660,453.599304 174.140808,453.641144 171.079712,453.873108 168.018463,454.231903 164.957108,454.675201 161.997726,455.072723 159.106323,455.439880 156.260269,455.786682 153.648529,456.119934 148.841614,456.762299 144.868256,457.387970 141.123291,458.041870 139.546478,458.317200 " stroke-linecap="round" stroke-linejoin="round" stroke="#ff0000" stroke-width="1.00" fade-time="6" fade-enable="0" RotationPoint="(320.000000,240.000000)" transform="rotate(0.00,204.74,481.50)" xml:id="annotation.K4DMK5CAAL1MN58SQO2HGMSEP" visible="1"/><polyline fill="none" points="161.589813,352.692993 157.201538,352.692963 152.869980,352.692963 148.325516,352.795044 143.924515,353.180542 139.587311,353.692047 135.278427,354.259583 130.982147,354.851990 126.963608,355.455475 123.034508,356.165924 118.906998,357.162048 115.235611,358.012909 110.299950,359.337830 105.878014,360.750977 101.214340,362.630310 96.410416,365.842194 95.481247,366.663818 94.448845,368.665253 94.173538,369.770477 94.296158,370.711395 95.248817,372.301117 98.481590,374.343597 103.412086,375.497833 108.316917,376.602661 112.264030,377.228302 116.665199,377.685791 121.473038,378.195526 124.880440,378.416809 129.871582,379.013123 133.749756,379.188416 137.582458,379.266327 141.429016,379.402985 145.519806,379.803894 149.991287,380.050171 154.597961,380.159607 159.026581,380.208221 163.376114,380.229828 167.792480,380.341492 172.476746,380.731262 177.007874,380.972534 181.504990,381.079803 186.225098,381.127472 190.772186,381.148621 195.174332,381.158051 199.512070,381.162262 203.821152,381.164093 208.117523,381.164917 212.408264,381.165283 216.424362,381.165436 220.250336,381.165527 223.991791,381.165588 227.423553,381.165588 232.224335,380.893433 235.538773,380.432312 239.393051,379.887177 243.628906,378.518951 245.267853,377.131836 245.847763,376.333344 245.826202,375.494843 244.713608,373.746735 241.304474,370.231964 237.777298,368.117615 232.842834,366.096436 228.942123,364.467041 224.827271,362.994507 220.413086,361.659668 217.950134,361.018005 215.389679,360.386108 212.764252,359.760742 210.095490,359.139740 207.397842,358.521606 204.680939,358.007477 201.951202,357.562653 199.212891,357.164062 196.366837,356.796295 193.448944,356.449036 190.483139,356.115479 187.383377,355.791077 184.194290,355.472748 180.945663,355.158478 177.657333,354.948975 174.342529,354.809265 171.010086,354.716156 167.665894,354.756134 164.313858,354.884857 160.956573,355.072693 157.595825,355.299988 154.232742,355.553589 150.868118,355.824677 147.808624,356.005432 144.952515,356.125885 142.232040,356.206238 137.576447,356.567596 133.145782,357.072693 131.280243,357.285339 " stroke-linecap="round" stroke-linejoin="round" stroke="#ff0000" stroke-width="1.00" fade-time="6" fade-enable="0" RotationPoint="(320.000000,240.000000)" transform="rotate(0.00,170.01,366.93)" xml:id="annotation.NTPSSTPQV13HL1CRETJFGJCOK" visible="1"/><polyline fill="none" points="224.045868,250.742676 219.777283,250.742676 215.059128,251.014816 211.479355,251.475952 207.066956,252.309296 202.675354,253.304596 198.743454,254.744751 194.029892,256.469513 189.284668,259.343536 184.571899,263.622681 183.165909,265.005493 181.714447,268.394257 181.613205,272.142395 182.259125,274.064758 184.336884,276.961945 186.597061,278.388885 190.836868,279.887360 194.498703,281.364746 198.872040,282.392120 202.244034,282.668243 205.783752,283.063141 209.500076,283.476746 213.532990,283.660583 217.978745,283.742310 222.574005,283.778595 226.997543,283.794708 231.616943,283.801880 236.289352,283.805084 240.747177,283.806488 245.109680,283.807159 249.327744,283.705353 253.243454,283.319977 257.024811,283.080627 260.644440,282.872192 265.346863,282.079041 268.667816,280.596771 270.275360,279.455078 271.398071,277.995178 271.840302,277.177246 272.059570,274.907745 271.975159,273.588165 271.064972,271.305542 267.498444,266.858002 263.567719,263.749786 258.683807,260.889862 255.156555,259.300598 251.547836,257.811859 247.902939,256.129669 244.241943,254.633652 240.675827,253.390488 236.003525,252.116852 231.393616,250.742676 " stroke-linecap="round" stroke-linejoin="round" stroke="#ff0000" stroke-width="1.00" fade-time="6" fade-enable="0" RotationPoint="(320.000000,240.000000)" transform="rotate(0.00,226.84,267.27)" xml:id="annotation.4DTAPT728D7GL62MH62JELDA6" visible="1"/><g class="group" xml:id="annotation.RGT026EEF94U35B0SIJBOKE2F" xbk_transform="rotate(0.00,139.80,109.35)"><polyline fill="none" points="76.171967,124.912102 80.042397,124.912094 83.539055,124.912094 86.930077,124.639946 91.707893,124.185127 96.627335,123.778229 100.264938,123.285576 104.262878,122.726456 108.420967,122.137779 112.752281,121.638008 117.398712,121.415909 122.185181,121.045044 127.033875,120.540054 131.910263,119.975426 134.455673,119.784050 137.071091,119.656456 139.733170,119.571396 142.324310,119.514687 144.868149,119.476891 147.380463,119.451675 149.973801,119.434875 152.621170,119.423676 155.304565,119.416214 157.909897,119.513283 160.463211,119.680054 165.375290,120.035431 169.939667,120.193375 174.349503,120.263580 178.588608,120.396835 182.513687,120.796227 186.027069,121.041779 190.601654,121.180016 195.316910,121.714302 199.247131,122.156685 " stroke-linecap="round" stroke-linejoin="round" stroke="#ff0000" stroke-width="1.00" fade-time="6" fade-enable="0" RotationPoint="(320.000000,240.000000)" transform="rotate(0.00,137.71,122.66)" xml:id="annotation.K4JS4AAH6H61NBAUMERDFI0F7" visible="1"/><polyline fill="none" points="89.949036,135.015289 85.778336,131.882034 82.873619,129.891434 78.334557,124.983215 75.837563,121.690186 74.780220,117.641556 74.466934,113.210304 74.937935,110.730690 76.903374,106.644234 80.092369,102.888855 84.547371,98.926727 88.688721,95.713707 92.042259,93.871765 95.573776,92.372772 99.184380,90.754066 102.932198,89.116173 106.979111,87.707870 111.158958,86.401604 115.397896,85.242744 119.663071,84.387520 124.212074,83.667259 128.853195,83.109016 133.297134,82.860909 137.925598,82.750641 142.602036,82.701630 147.061676,82.679848 151.697098,82.942307 156.376617,83.297073 160.837631,83.454742 164.929398,84.069107 168.891052,84.920456 173.033020,85.639000 176.982971,86.570663 180.779541,87.665092 184.507950,88.831848 187.933945,90.030769 192.459305,92.125374 196.385483,94.412849 198.689636,95.844917 203.049316,100.429070 204.662338,104.121750 205.123672,106.487236 204.988541,109.239441 204.044006,111.619232 201.430634,115.154015 197.482407,118.448914 192.499481,121.171036 187.586868,123.055244 183.859543,124.188889 180.502090,125.032898 176.764740,126.020332 172.722458,127.037468 168.544693,127.829720 164.306671,128.522018 159.939835,129.169876 155.277634,129.797974 150.484116,130.417297 145.632278,131.032745 140.754517,131.646454 136.953796,132.259369 132.198730,133.178345 " stroke-linecap="round" stroke-linejoin="round" stroke="#ff0000" stroke-width="1.00" fade-time="6" fade-enable="0" RotationPoint="(320.000000,240.000000)" transform="rotate(0.00,139.80,109.35)" xml:id="annotation.KJ5LHTV96L3FJA9BET9SOD8AC" visible="1"/></g><g class="group" xml:id="annotation.9T9QU2FRK16JPA6PSKG1LF9MC" xbk_transform="rotate(0.00,141.72,149.31)"><polyline fill="none" points="36.677704,151.547775 32.842548,152.826157 30.200621,155.169540 27.966419,158.936798 26.499353,163.284683 25.418335,166.829422 25.497574,167.654587 25.856558,168.306747 26.402037,168.843567 27.173901,169.099396 29.120077,169.111511 31.073605,168.232407 32.023167,167.569366 35.013683,163.145081 37.297718,159.443909 38.761848,155.329971 38.985603,155.089752 39.134781,155.337830 39.198471,156.702011 38.952103,160.903961 39.423443,163.053848 41.270065,166.243317 " stroke-linecap="round" stroke-linejoin="round" stroke="#ff0000" stroke-width="1.00" fade-time="6" fade-enable="0" RotationPoint="(320.000000,240.000000)" transform="rotate(0.00,33.34,160.33)" xml:id="annotation.37QPCKLQN92CFAH0JOQJ20MS3" visible="1"/><polyline fill="none" points="49.536301,167.161774 48.809334,163.165359 48.655659,158.525665 49.116619,155.384186 49.664726,154.819763 50.438339,154.545502 55.047134,154.303177 " stroke-linecap="round" stroke-linejoin="round" stroke="#ff0000" stroke-width="1.00" fade-time="6" fade-enable="0" RotationPoint="(320.000000,240.000000)" transform="rotate(0.00,51.85,161.23)" xml:id="annotation.TB3FNH726H3KP4VUV03KFTOS8" visible="1"/><polyline fill="none" points="64.231842,164.406372 63.256672,165.381531 62.969418,165.056473 62.650242,163.062469 63.178596,158.259674 63.695702,155.823502 64.180573,154.908524 65.535736,153.619720 66.223679,153.541382 66.886421,153.795319 67.532349,154.270767 68.522186,155.887604 69.989174,159.764145 70.621368,160.393066 72.412369,161.091904 73.155312,160.972092 73.752655,160.586060 74.252937,160.022552 75.891174,155.655930 76.931625,153.577728 77.494820,153.105179 78.074394,152.994263 78.664879,153.124420 79.160591,153.517319 79.983505,154.770325 80.145149,156.619888 80.080925,158.598495 80.764313,161.650955 " stroke-linecap="round" stroke-linejoin="round" stroke="#ff0000" stroke-width="1.00" fade-time="6" fade-enable="0" RotationPoint="(320.000000,240.000000)" transform="rotate(0.00,71.71,159.20)" xml:id="annotation.16PQTH4F5D177ADHGPIHE5DHH" visible="1"/><polyline fill="none" points="89.030579,162.569427 90.701218,161.102905 94.750435,158.847748 95.905380,158.251373 96.573296,157.445572 96.916527,156.500168 97.043282,155.461685 96.719589,154.871414 96.095573,154.579941 95.271355,154.487686 93.539154,155.201599 90.420082,157.666931 88.954697,159.994263 88.361748,163.110428 88.767326,165.157059 89.161232,166.131454 89.934097,166.781052 94.541382,168.080246 " stroke-linecap="round" stroke-linejoin="round" stroke="#ff0000" stroke-width="1.00" fade-time="6" fade-enable="0" RotationPoint="(320.000000,240.000000)" transform="rotate(0.00,92.70,161.28)" xml:id="annotation.QMI4K8LAE52OL6566TONFGNMT" visible="1"/><polyline fill="none" points="110.155396,155.221649 108.692657,155.709244 107.430222,156.765030 104.956703,159.937469 103.603157,163.093582 103.530922,166.614059 104.106255,167.306900 105.000061,167.666733 106.106201,167.804581 107.047729,167.488251 108.638145,166.048233 111.220169,161.166397 112.364532,157.402618 112.748962,153.497971 112.862869,148.757889 112.794563,145.391739 112.629211,145.300629 112.416924,145.546066 112.118134,149.304581 112.320396,152.966034 112.852524,156.668411 114.299614,161.047760 116.617134,165.640366 118.431259,167.629456 120.258606,168.998718 " stroke-linecap="round" stroke-linejoin="round" stroke="#ff0000" stroke-width="1.00" fade-time="6" fade-enable="0" RotationPoint="(320.000000,240.000000)" transform="rotate(0.00,111.89,157.15)" xml:id="annotation.B4Q5OF22494T184G3C9ERQNNI" visible="1"/><polyline fill="none" points="163.426758,131.341400 162.795532,135.211823 162.635941,138.708481 162.546112,143.230545 162.519501,147.155746 162.024017,150.904099 161.718460,155.087616 161.188110,159.625015 161.424057,159.688019 162.332565,158.839539 165.410416,154.968689 167.267899,152.966125 169.454132,151.735931 170.506577,151.571152 172.492371,151.932358 174.123337,153.317520 175.324463,155.293839 175.858292,157.532898 175.551270,159.616608 174.632416,161.563217 173.203506,163.448914 171.275772,164.763229 169.058304,165.585495 165.412857,165.946350 161.452576,165.350235 158.748367,163.824265 155.687790,160.889633 154.242035,158.895538 " stroke-linecap="round" stroke-linejoin="round" stroke="#ff0000" stroke-width="1.00" fade-time="6" fade-enable="0" RotationPoint="(320.000000,240.000000)" transform="rotate(0.00,165.05,148.64)" xml:id="annotation.1HJ9BJVM5T2HBFNEH78V0P80O" visible="1"/><polyline fill="none" points="185.470062,129.504456 185.470062,133.773010 185.470062,137.674759 185.470062,141.960434 185.470062,146.836121 185.470062,151.240295 184.982452,155.897964 185.166824,158.823792 186.388519,161.650955 " stroke-linecap="round" stroke-linejoin="round" stroke="#ff0000" stroke-width="1.00" fade-time="6" fade-enable="0" RotationPoint="(320.000000,240.000000)" transform="rotate(0.00,185.73,145.58)" xml:id="annotation.R7SB5DIK7P5BPAPEGJSEMDB7T" visible="1"/><polyline fill="none" points="202.921021,146.955414 198.323196,150.292770 195.000504,154.669601 193.623306,157.167160 193.447968,159.215912 193.812256,161.283081 194.654510,162.882187 195.368973,163.390244 197.251358,163.954758 201.093689,163.784973 203.163422,163.075638 208.074463,159.740829 210.276276,157.637894 211.224609,155.989380 211.844635,152.852463 211.523468,151.907303 210.078033,150.312851 206.481674,148.755295 204.197372,148.537766 199.396286,149.492096 196.491699,150.629303 " stroke-linecap="round" stroke-linejoin="round" stroke="#ff0000" stroke-width="1.00" fade-time="6" fade-enable="0" RotationPoint="(320.000000,240.000000)" transform="rotate(0.00,202.65,155.46)" xml:id="annotation.3N93TQCB8P1VV2VMEP3V6QO68" visible="1"/><polyline fill="none" points="231.393616,146.036942 226.583328,147.315323 222.109665,149.798523 219.003006,152.177414 217.052170,154.489746 215.669067,157.601456 215.492355,159.647064 215.588104,160.621185 216.060135,161.270599 216.783051,161.703552 219.750793,162.312866 222.943314,162.221268 226.801270,161.650955 " stroke-linecap="round" stroke-linejoin="round" stroke="#ff0000" stroke-width="1.00" fade-time="6" fade-enable="0" RotationPoint="(320.000000,240.000000)" transform="rotate(0.00,223.94,154.17)" xml:id="annotation.LAFIJPDMUP3PR7SS61ASK7213" visible="1"/><polyline fill="none" points="252.518463,144.199997 248.220917,144.302048 244.056107,145.035309 241.817856,145.965958 241.302612,146.601929 241.163254,147.332092 241.274429,148.125000 241.654709,148.755661 246.183640,151.917892 251.181564,154.923920 255.293304,157.366409 257.561676,158.590118 258.023712,159.202179 258.025543,159.814331 257.720642,160.426544 255.476883,161.106766 250.741699,161.489700 246.379150,161.603195 242.229065,161.636795 237.822937,161.650955 " stroke-linecap="round" stroke-linejoin="round" stroke="#ff0000" stroke-width="1.00" fade-time="6" fade-enable="0" RotationPoint="(320.000000,240.000000)" transform="rotate(0.00,247.92,152.93)" xml:id="annotation.RMHEBKRTB13R3AOCVEAEGHTC3" visible="1"/></g><g class="group" xml:id="annotation.4DO1NTJ6FD1OTDLURKV0DRERL" xbk_transform="rotate(0.00,372.46,297.58)"><polyline fill="none" points="175.366882,282.889160 173.800247,287.691071 172.876511,292.175751 172.689987,296.050110 173.114548,300.955444 174.161743,302.688660 174.869614,303.436584 176.744690,304.267609 181.274597,304.801147 186.100311,304.906525 189.863632,305.026825 194.164978,305.561401 198.569061,305.765167 203.493896,305.561859 206.594910,304.932465 " stroke-linecap="round" stroke-linejoin="round" stroke="#009300" stroke-width="1.00" fade-time="6" fade-enable="0" RotationPoint="(320.000000,240.000000)" transform="rotate(0.00,189.64,294.33)" xml:id="annotation.LPNMDVTU59201FPOA7TK59T2T" visible="1"/><polyline fill="none" points="202.002533,295.747772 206.804474,294.283203 211.561264,293.984375 215.618286,294.204742 220.158676,295.193512 220.944153,295.684448 222.089035,297.046295 222.665894,298.944214 222.819733,300.021851 222.446365,302.307739 220.816513,305.889648 218.010529,309.781952 213.873596,313.151947 210.255142,315.638733 208.425781,316.052094 206.898361,315.895599 206.491043,315.711060 205.676422,315.035675 " stroke-linecap="round" stroke-linejoin="round" stroke="#009300" stroke-width="1.00" fade-time="6" fade-enable="0" RotationPoint="(320.000000,240.000000)" transform="rotate(0.00,212.41,305.02)" xml:id="annotation.R15P8HR0QT0JHEBF5HDJS802C" visible="1"/><polyline fill="none" points="236.904449,288.399994 235.626068,293.210297 235.233002,296.946259 235.116516,301.126099 235.067505,305.850952 " stroke-linecap="round" stroke-linejoin="round" stroke="#009300" stroke-width="1.00" fade-time="6" fade-enable="0" RotationPoint="(320.000000,240.000000)" transform="rotate(0.00,236.49,297.13)" xml:id="annotation.KPNHTCJNQ177N2I6CRBSNCB6V" visible="1"/><polyline fill="none" points="253.436951,284.726105 251.486618,284.726105 248.810974,285.701263 246.079208,287.282867 245.470200,288.165497 244.793549,290.506927 244.919250,291.437439 245.309219,292.159851 249.855881,296.027466 252.273819,298.858185 252.967682,299.964478 253.226151,301.008179 252.969070,302.984222 251.676819,305.330353 250.307480,306.402008 249.513687,306.830658 247.815292,307.034760 246.933762,306.946320 246.346069,306.377075 245.693085,304.383911 245.813080,300.393036 246.494934,296.954071 249.519394,291.971466 251.816452,288.685944 253.436951,287.481537 " stroke-linecap="round" stroke-linejoin="round" stroke="#009300" stroke-width="1.00" fade-time="6" fade-enable="0" RotationPoint="(320.000000,240.000000)" transform="rotate(0.00,249.62,295.88)" xml:id="annotation.SU8GFL0JV51UV73A34HK1K9CL" visible="1"/><polyline fill="none" points="260.784698,288.399994 265.410675,286.330811 267.228943,286.221710 268.955536,286.615417 270.403259,287.470764 270.870972,288.290771 271.390656,290.562592 271.195587,294.710327 269.584198,299.318756 268.177338,303.509888 267.214020,305.850952 " stroke-linecap="round" stroke-linejoin="round" stroke="#009300" stroke-width="1.00" fade-time="6" fade-enable="0" RotationPoint="(320.000000,240.000000)" transform="rotate(0.00,266.09,296.04)" xml:id="annotation.A333K8L8H54HJB43HEN1TAI9R" visible="1"/><polyline fill="none" points="259.866241,298.503174 264.861755,297.776245 269.170410,297.369324 273.134399,296.602417 276.398712,295.747772 " stroke-linecap="round" stroke-linejoin="round" stroke="#009300" stroke-width="1.00" fade-time="6" fade-enable="0" RotationPoint="(320.000000,240.000000)" transform="rotate(0.00,268.13,297.63)" xml:id="annotation.DCMD3EG6KL6ORFID8NK5CRQ4M" visible="1"/><polyline fill="none" points="287.420380,282.889160 286.141968,287.211914 285.261353,291.132233 284.841644,295.525452 284.717316,299.571228 284.680450,303.842896 285.583435,308.606354 " stroke-linecap="round" stroke-linejoin="round" stroke="#009300" stroke-width="1.00" fade-time="6" fade-enable="0" RotationPoint="(320.000000,240.000000)" transform="rotate(0.00,286.55,295.75)" xml:id="annotation.4JJ4TO7KED18J15JU2KH5987G" visible="1"/><polyline fill="none" points="316.811462,297.584717 321.806976,298.311646 325.843445,298.446411 329.896912,298.486359 334.057495,298.770325 337.875580,299.228638 342.822815,299.383514 347.412994,300.143585 348.957947,300.340118 " stroke-linecap="round" stroke-linejoin="round" stroke="#009300" stroke-width="1.00" fade-time="6" fade-enable="0" RotationPoint="(320.000000,240.000000)" transform="rotate(0.00,332.88,298.96)" xml:id="annotation.NKGS2FNDNH1GLCU6N56V1GQ9J" visible="1"/><polyline fill="none" points="344.365601,290.236938 349.361115,290.236938 353.669769,290.236938 358.178070,290.236938 362.745483,290.509064 367.330505,290.963867 371.376404,291.370789 374.514191,292.409851 375.486328,292.910187 376.134399,293.651947 376.854492,295.564667 376.740356,296.544189 375.797150,298.448944 373.544861,301.242523 369.307709,304.196045 364.539795,306.472778 360.154663,307.935425 358.764740,308.036041 357.224182,307.687897 " stroke-linecap="round" stroke-linejoin="round" stroke="#009300" stroke-width="1.00" fade-time="6" fade-enable="0" RotationPoint="(320.000000,240.000000)" transform="rotate(0.00,360.61,299.14)" xml:id="annotation.L6E38VQOEH2513S8JNE4HI81N" visible="1"/><polyline fill="none" points="413.250916,283.807648 411.972595,288.617920 410.893127,292.956024 410.301941,297.365845 409.720276,301.702942 410.107086,305.767151 410.380463,309.715454 411.414001,314.117188 " stroke-linecap="round" stroke-linejoin="round" stroke="#009300" stroke-width="1.00" fade-time="6" fade-enable="0" RotationPoint="(320.000000,240.000000)" transform="rotate(0.00,411.99,298.96)" xml:id="annotation.VGCG8N2SF154JEQ8MIR4JB3NV" visible="1"/><polyline fill="none" points="435.294281,286.563049 432.024811,285.836090 429.963196,285.933807 427.183350,287.136322 425.702362,288.212555 424.208649,290.453552 424.127930,291.299805 424.582520,293.056519 425.985962,295.279205 430.615143,298.753937 432.296173,300.451569 433.383545,302.226593 433.510162,303.026489 433.390533,303.763885 433.106628,304.459564 431.974792,305.504700 430.349182,306.207306 428.265991,306.519592 426.523682,306.114105 425.773315,305.720184 425.375122,305.151489 425.211731,304.466156 425.404388,302.684174 426.660339,299.118347 429.509521,294.769196 433.641602,290.103973 436.258453,286.715637 436.212738,286.563049 " stroke-linecap="round" stroke-linejoin="round" stroke="#009300" stroke-width="1.00" fade-time="6" fade-enable="0" RotationPoint="(320.000000,240.000000)" transform="rotate(0.00,430.21,296.18)" xml:id="annotation.F6GH3TG38L5MD2IM4RJ2Q020Q" visible="1"/><polyline fill="none" points="449.071381,284.726105 448.096191,285.701263 443.171692,288.253357 442.791016,289.016602 442.640228,290.953217 443.185547,292.630341 443.616699,293.363312 446.173798,295.370087 450.617432,297.766785 453.300079,300.069916 453.625427,300.874359 453.714722,302.856720 453.289490,303.752747 451.728485,305.292603 449.674011,306.113037 445.028961,306.639771 443.158630,306.167511 442.374176,305.755829 441.851166,305.073151 441.270020,303.226105 441.556061,301.044495 442.363464,298.918304 445.834961,294.484436 450.047424,290.679077 452.745270,289.318481 " stroke-linecap="round" stroke-linejoin="round" stroke="#009300" stroke-width="1.00" fade-time="6" fade-enable="0" RotationPoint="(320.000000,240.000000)" transform="rotate(0.00,447.49,295.68)" xml:id="annotation.U7SKNE1P6L4OB64TPN5ELLCSL" visible="1"/><polyline fill="none" points="472.033081,281.970703 469.202118,281.441528 464.675415,282.368439 461.926941,283.710083 460.635895,285.090942 460.148773,285.887817 460.130127,286.623169 460.423889,287.317505 462.300140,289.269867 467.202271,292.373627 470.023438,294.419189 471.514130,296.415894 472.040588,298.936218 472.038086,300.322662 471.218964,302.679565 469.732300,304.645569 466.600311,306.797791 464.277771,307.734528 463.291046,307.821045 461.650391,307.372894 461.335358,306.763489 461.529572,304.997894 462.786469,302.196442 466.725189,297.458740 470.032104,294.517181 473.310516,289.922272 474.505798,288.260132 474.901001,286.500885 474.863495,285.603149 474.430267,285.106689 473.733276,284.877777 472.176422,284.895538 470.196167,285.644592 " stroke-linecap="round" stroke-linejoin="round" stroke="#009300" stroke-width="1.00" fade-time="6" fade-enable="0" RotationPoint="(320.000000,240.000000)" transform="rotate(0.00,467.52,294.63)" xml:id="annotation.D78PSD8OPD1712HH0UTRKEGRV" visible="1"/><polyline fill="none" points="503.261108,272.785980 501.535095,276.782410 499.733856,281.422089 498.496796,285.538727 496.996338,289.502563 495.259064,293.749939 493.939270,298.240051 492.414246,302.314545 490.803680,306.717194 489.502808,311.139771 488.263092,315.479370 486.274292,320.211792 485.810181,322.383423 " stroke-linecap="round" stroke-linejoin="round" stroke="#009300" stroke-width="1.00" fade-time="6" fade-enable="0" RotationPoint="(320.000000,240.000000)" transform="rotate(0.00,495.04,297.58)" xml:id="annotation.BUPMD61P1L1SR9I5IGFHA8III" visible="1"/><polyline fill="none" points="519.793701,286.563049 517.843384,286.563049 515.167725,287.538208 510.175079,290.881104 509.809479,291.584839 509.675293,293.183228 510.661133,295.804321 514.008057,300.472778 515.822876,302.647247 516.125977,303.408997 516.190552,305.071808 515.860779,305.841766 514.677979,307.241577 513.831909,307.594482 511.803223,307.714417 511.098999,307.297363 510.629486,306.611115 510.316467,305.745392 510.513000,303.422852 511.382751,300.791748 514.163452,296.048645 517.857910,291.195038 519.072632,288.717896 519.108887,288.305786 518.875122,287.481537 " stroke-linecap="round" stroke-linejoin="round" stroke="#009300" stroke-width="1.00" fade-time="6" fade-enable="0" RotationPoint="(320.000000,240.000000)" transform="rotate(0.00,515.23,297.14)" xml:id="annotation.PV292J9JUH5AF3UHB1U3EVIK8" visible="1"/><polyline fill="none" points="506.016541,287.481537 505.041382,288.456696 504.562622,290.024017 503.598877,294.903320 503.055725,298.680328 502.342651,300.340118 " stroke-linecap="round" stroke-linejoin="round" stroke="#009300" stroke-width="1.00" fade-time="6" fade-enable="0" RotationPoint="(320.000000,240.000000)" transform="rotate(0.00,504.68,293.91)" xml:id="annotation.5VDSV9RV890M76LR3AF58AEQ6" visible="1"/><polyline fill="none" points="528.059875,283.807648 526.597168,283.320038 525.962158,283.380524 524.712341,283.992004 521.633240,287.626740 521.020020,288.496796 520.610840,290.279968 520.644592,291.184113 521.075256,291.786865 521.770630,292.188690 522.642395,292.456573 524.699585,291.937836 527.880615,289.924469 531.698364,286.988922 532.220459,287.153107 532.466431,287.874878 532.365540,290.105591 531.181946,294.863831 530.923889,298.785553 531.119568,302.090668 531.733765,304.014008 " stroke-linecap="round" stroke-linejoin="round" stroke="#009300" stroke-width="1.00" fade-time="6" fade-enable="0" RotationPoint="(320.000000,240.000000)" transform="rotate(0.00,526.54,293.67)" xml:id="annotation.BJMK5IU1F56BP3J60TMU859ND" visible="1"/><polyline fill="none" points="544.592346,285.644592 542.596619,287.844391 541.359009,290.548553 540.550049,294.592773 540.968079,299.317566 541.824951,301.722595 542.543335,302.588470 544.430054,303.822632 548.762390,304.603638 551.616394,303.969910 554.143494,302.565674 558.727600,298.143616 560.255798,295.641235 561.584412,290.688354 561.839355,288.158417 561.601135,287.116364 560.520081,285.414246 558.746948,284.521667 556.496216,284.227051 552.564331,284.634949 548.266235,285.644592 " stroke-linecap="round" stroke-linejoin="round" stroke="#009300" stroke-width="1.00" fade-time="6" fade-enable="0" RotationPoint="(320.000000,240.000000)" transform="rotate(0.00,551.19,294.42)" xml:id="annotation.8I6GPO857D64D9K14NOB12S07" visible="1"/><polyline fill="none" points="571.228027,292.073883 570.309570,291.155396 " stroke-linecap="round" stroke-linejoin="round" stroke="#009300" stroke-width="1.00" fade-time="6" fade-enable="0" RotationPoint="(320.000000,240.000000)" transform="rotate(0.00,571.27,292.11)" xml:id="annotation.LK722U4DBD55R058MF0I1SG0B" visible="1"/></g><g class="group" xml:id="annotation.8RK5S4SM4D3MBFGU3PMS9GM94" xbk_transform="rotate(0.00,181.34,401.19)"><polyline fill="none" points="127.606354,391.268768 126.879395,395.537354 126.744629,399.439087 126.699089,404.414612 126.160950,409.226227 126.687897,413.312103 " stroke-linecap="round" stroke-linejoin="round" stroke="#ff0000" stroke-width="1.00" fade-time="6" fade-enable="0" RotationPoint="(320.000000,240.000000)" transform="rotate(0.00,127.38,402.29)" xml:id="annotation.MCIH2219I155787DLF659UFRT" visible="1"/><polyline fill="none" points="125.769409,393.105713 126.256996,391.642944 127.312813,390.380524 128.904633,389.241150 132.980545,387.678192 137.251663,386.386749 138.798706,386.309570 140.464966,386.676422 " stroke-linecap="round" stroke-linejoin="round" stroke="#ff0000" stroke-width="1.00" fade-time="6" fade-enable="0" RotationPoint="(320.000000,240.000000)" transform="rotate(0.00,133.12,390.21)" xml:id="annotation.ANHDIHVFUH7MDD1ULGM0O9VO6" visible="1"/><polyline fill="none" points="125.769409,399.535034 129.493698,398.263763 131.302643,397.439209 134.954132,396.779602 " stroke-linecap="round" stroke-linejoin="round" stroke="#ff0000" stroke-width="1.00" fade-time="6" fade-enable="0" RotationPoint="(320.000000,240.000000)" transform="rotate(0.00,130.36,398.66)" xml:id="annotation.VMHOKDGVFD54L8CGEOGQQ33P9" visible="1"/><polyline fill="none" points="155.160492,399.535034 154.161392,404.075745 153.571793,408.704407 153.397110,412.763275 153.323547,416.067505 " stroke-linecap="round" stroke-linejoin="round" stroke="#ff0000" stroke-width="1.00" fade-time="6" fade-enable="0" RotationPoint="(320.000000,240.000000)" transform="rotate(0.00,154.74,407.80)" xml:id="annotation.7Q9REHU0KL0IB4EV3F908FK8K" visible="1"/><polyline fill="none" points="146.894257,405.964325 150.890686,405.237396 155.530380,405.083710 159.752869,405.045868 " stroke-linecap="round" stroke-linejoin="round" stroke="#ff0000" stroke-width="1.00" fade-time="6" fade-enable="0" RotationPoint="(320.000000,240.000000)" transform="rotate(0.00,153.32,406.01)" xml:id="annotation.EVTMNI24PT3VD8VQB8517JVI7" visible="1"/><polyline fill="none" points="177.203827,398.616547 177.203827,402.612976 177.203827,406.332062 177.203827,408.168793 177.203827,403.917511 177.691406,399.200714 178.969788,394.412720 181.128799,390.737549 182.826233,389.229736 183.707504,388.684784 185.775269,388.351440 186.898163,388.405426 188.690109,389.281830 190.064819,390.691833 191.015991,392.339050 191.637619,395.475250 191.334244,398.502197 190.593658,400.130524 190.110428,400.850525 188.757065,401.922607 185.393631,403.442413 185.010895,403.976898 184.959839,404.639374 185.129913,405.387177 186.407440,406.762329 190.553741,409.308228 195.303650,411.674561 199.628540,412.958374 202.002533,413.312103 " stroke-linecap="round" stroke-linejoin="round" stroke="#ff0000" stroke-width="1.00" fade-time="6" fade-enable="0" RotationPoint="(320.000000,240.000000)" transform="rotate(0.00,189.60,400.83)" xml:id="annotation.17JOJNVLQH6TD2T2V895SRH23" visible="1"/><polyline fill="none" points="221.290436,400.453491 226.013824,399.726562 230.807190,399.572876 235.276718,399.542542 236.904449,399.535034 " stroke-linecap="round" stroke-linejoin="round" stroke="#ff0000" stroke-width="1.00" fade-time="6" fade-enable="0" RotationPoint="(320.000000,240.000000)" transform="rotate(0.00,229.10,400.49)" xml:id="annotation.542HC40O8P5PP2HFB6LF9A9HK" visible="1"/><polyline fill="none" points="222.208923,405.045868 226.932297,405.045868 231.725662,405.533447 234.149048,405.964325 " stroke-linecap="round" stroke-linejoin="round" stroke="#ff0000" stroke-width="1.00" fade-time="6" fade-enable="0" RotationPoint="(320.000000,240.000000)" transform="rotate(0.00,228.18,405.55)" xml:id="annotation.DBOG4I4A5H6I7BD8U4V2473JP" visible="1"/></g><g class="group" xml:id="annotation.N87A300RMH6N176OP1J8R74KP" xbk_transform="rotate(0.00,299.07,400.78)"><polyline fill="none" points="263.540131,387.594910 262.541016,391.863464 261.679321,396.037354 261.049774,400.233551 261.135376,403.790070 261.703186,406.882782 " stroke-linecap="round" stroke-linejoin="round" stroke="#ff0000" stroke-width="1.00" fade-time="6" fade-enable="0" RotationPoint="(320.000000,240.000000)" transform="rotate(0.00,262.79,397.24)" xml:id="annotation.92OS264JR95OD21QMREA9P8O4" visible="1"/><polyline fill="none" points="287.420380,386.676422 283.224884,386.880554 280.725220,387.651581 278.797852,388.946747 277.998138,389.720764 277.109558,391.669312 276.872620,392.760406 276.918732,393.691925 277.514282,395.271240 280.822144,399.841858 284.296234,404.187958 286.693634,408.444458 287.539612,410.434326 287.499847,411.189484 287.167206,411.794952 286.639282,412.300659 285.981201,412.535736 283.388123,412.379059 278.588196,411.411774 276.657471,410.732605 275.118988,409.750427 274.027008,408.361420 273.592957,407.562378 273.654907,405.313873 274.362823,402.919861 275.357788,401.175507 277.553040,399.045929 281.872986,396.395721 285.856110,394.012482 288.051819,392.624268 288.555664,391.968353 288.687500,391.326965 288.571289,390.695251 288.187653,390.172058 286.944977,389.318604 283.746490,388.513367 " stroke-linecap="round" stroke-linejoin="round" stroke="#ff0000" stroke-width="1.00" fade-time="6" fade-enable="0" RotationPoint="(320.000000,240.000000)" transform="rotate(0.00,281.14,399.61)" xml:id="annotation.HL0LAT8H2H25VE9FE4OPDMTD7" visible="1"/><polyline fill="none" points="310.382172,387.594910 308.431824,386.619751 306.657837,386.413147 305.756195,386.500916 303.937897,387.414886 301.465149,389.650665 300.763611,390.496216 300.397949,391.366028 300.263824,393.148956 300.816528,394.689758 301.249634,395.386353 301.946594,395.748718 303.809570,395.879181 306.665802,394.891357 308.963531,392.818359 310.449402,390.265198 310.733154,390.089447 310.922333,390.380524 311.048431,390.982788 310.540466,395.570251 310.429077,399.448853 310.879028,403.928955 311.300629,406.882782 " stroke-linecap="round" stroke-linejoin="round" stroke="#ff0000" stroke-width="1.00" fade-time="6" fade-enable="0" RotationPoint="(320.000000,240.000000)" transform="rotate(0.00,305.82,396.65)" xml:id="annotation.484E4SM9FD2T166AB9QGB13UJ" visible="1"/><polyline fill="none" points="329.670044,387.594910 327.168030,392.192719 324.418121,396.490509 323.102020,399.449402 322.940979,401.606079 323.040894,402.752686 323.968353,404.570923 327.399750,408.044891 330.516846,409.721741 334.410797,410.663879 336.099365,411.475159 " stroke-linecap="round" stroke-linejoin="round" stroke="#ff0000" stroke-width="1.00" fade-time="6" fade-enable="0" RotationPoint="(320.000000,240.000000)" transform="rotate(0.00,329.52,399.54)" xml:id="annotation.QSODCPJ6I57955ATVVBMC0AU0" visible="1"/><polyline fill="none" points="336.099365,399.535034 332.751770,402.091797 329.655151,406.654572 327.613220,410.772522 325.077698,415.149048 " stroke-linecap="round" stroke-linejoin="round" stroke="#ff0000" stroke-width="1.00" fade-time="6" fade-enable="0" RotationPoint="(320.000000,240.000000)" transform="rotate(0.00,331.09,407.34)" xml:id="annotation.N759CH656H1LN59JFTDI90BKE" visible="1"/></g><g class="group" xml:id="annotation.5GM4CVKVR93B1E66TRF10JI60" xbk_transform="rotate(0.00,181.80,435.36)"><polyline fill="none" points="128.524841,425.252228 127.246437,429.574951 126.798225,434.300537 126.822624,438.353882 127.606354,442.703186 " stroke-linecap="round" stroke-linejoin="round" stroke="#ff0000" stroke-width="1.00" fade-time="6" fade-enable="0" RotationPoint="(320.000000,240.000000)" transform="rotate(0.00,128.16,433.98)" xml:id="annotation.56KH3ADLL57OVF5FOVR3KLO0K" visible="1"/><polyline fill="none" points="127.606354,426.170685 128.581512,424.707947 129.379044,424.277069 134.053207,423.585541 138.628021,423.415283 " stroke-linecap="round" stroke-linejoin="round" stroke="#ff0000" stroke-width="1.00" fade-time="6" fade-enable="0" RotationPoint="(320.000000,240.000000)" transform="rotate(0.00,133.12,425.29)" xml:id="annotation.50D53EP9ST2VD4V08TA9R0CC4" visible="1"/><polyline fill="none" points="126.687897,433.518463 130.684311,432.519348 135.487961,431.160675 136.791077,430.763062 " stroke-linecap="round" stroke-linejoin="round" stroke="#ff0000" stroke-width="1.00" fade-time="6" fade-enable="0" RotationPoint="(320.000000,240.000000)" transform="rotate(0.00,131.74,432.64)" xml:id="annotation.JOAJ803H6T4FNB32VABRDV5D3" visible="1"/><polyline fill="none" points="156.078979,429.844574 154.800583,434.167328 154.352371,438.790802 154.263824,442.818604 154.242035,444.540131 " stroke-linecap="round" stroke-linejoin="round" stroke="#ff0000" stroke-width="1.00" fade-time="6" fade-enable="0" RotationPoint="(320.000000,240.000000)" transform="rotate(0.00,155.66,437.19)" xml:id="annotation.IIPBCDNT193O94A7OR6OBMPOL" visible="1"/><polyline fill="none" points="149.649689,436.273865 154.645203,436.001740 158.681702,435.546936 162.508270,435.355408 " stroke-linecap="round" stroke-linejoin="round" stroke="#ff0000" stroke-width="1.00" fade-time="6" fade-enable="0" RotationPoint="(320.000000,240.000000)" transform="rotate(0.00,156.08,436.31)" xml:id="annotation.T8CTL4B7UP44PDLRLFDA4ARAJ" visible="1"/><polyline fill="none" points="186.388519,424.333740 183.988541,429.033600 182.996506,432.893402 183.070282,436.360779 183.583679,441.086792 183.633118,441.784698 " stroke-linecap="round" stroke-linejoin="round" stroke="#ff0000" stroke-width="1.00" fade-time="6" fade-enable="0" RotationPoint="(320.000000,240.000000)" transform="rotate(0.00,185.19,433.06)" xml:id="annotation.C1H1OA80OL2PPE9BFB54TTRS9" visible="1"/><polyline fill="none" points="187.307007,423.415283 185.844238,423.902893 183.471817,426.156403 181.805084,429.409424 181.152481,433.446259 181.665237,437.915131 182.180191,439.860779 183.293518,441.473907 184.019043,442.189819 184.910934,442.565063 186.990463,442.709839 188.731140,442.161835 191.511688,440.147003 192.918396,437.410156 193.191040,437.235474 193.372803,437.629303 194.421722,442.575531 195.573242,447.295532 " stroke-linecap="round" stroke-linejoin="round" stroke="#ff0000" stroke-width="1.00" fade-time="6" fade-enable="0" RotationPoint="(320.000000,240.000000)" transform="rotate(0.00,188.36,435.36)" xml:id="annotation.AKS86NHKKT0I38FIAFRK46ECI" visible="1"/><polyline fill="none" points="203.839478,430.763062 203.310333,433.594086 203.704697,437.479401 204.452957,442.313843 204.757965,443.621643 " stroke-linecap="round" stroke-linejoin="round" stroke="#ff0000" stroke-width="1.00" fade-time="6" fade-enable="0" RotationPoint="(320.000000,240.000000)" transform="rotate(0.00,204.07,437.19)" xml:id="annotation.6B3AHEHOFL77F81HRR2N3NGV4" visible="1"/><polyline fill="none" points="204.757965,425.252228 207.691025,425.456299 211.929138,426.978302 213.762131,427.754242 215.257156,428.779449 215.533371,429.440643 215.513397,430.187622 215.295975,430.991760 214.237976,432.429535 212.747223,433.646790 208.882950,436.085419 208.630524,436.760559 208.666336,437.516785 208.894333,438.327118 210.236206,440.043884 212.193314,441.623322 216.999405,444.313477 217.205109,444.899292 217.036102,445.493927 216.617264,446.094482 216.031876,446.392761 214.565063,446.452087 209.764297,445.658569 205.595673,444.519165 203.839478,443.621643 " stroke-linecap="round" stroke-linejoin="round" stroke="#ff0000" stroke-width="1.00" fade-time="6" fade-enable="0" RotationPoint="(320.000000,240.000000)" transform="rotate(0.00,210.52,435.85)" xml:id="annotation.N744TME1J17A9FAQVMVRVSQPL" visible="1"/><polyline fill="none" points="225.882782,434.436951 229.879211,434.436951 233.054016,434.436951 235.985992,434.436951 " stroke-linecap="round" stroke-linejoin="round" stroke="#ff0000" stroke-width="1.00" fade-time="6" fade-enable="0" RotationPoint="(320.000000,240.000000)" transform="rotate(0.00,230.93,434.94)" xml:id="annotation.0CCJO8RQR56LR6BTG9V8N01AG" visible="1"/><polyline fill="none" points="226.801270,441.784698 230.797684,441.784698 235.601364,442.415894 236.904449,442.703186 " stroke-linecap="round" stroke-linejoin="round" stroke="#ff0000" stroke-width="1.00" fade-time="6" fade-enable="0" RotationPoint="(320.000000,240.000000)" transform="rotate(0.00,231.85,442.28)" xml:id="annotation.NUCBCVLF7T44R0LR9JS8LSDNB" visible="1"/></g><g class="group" xml:id="annotation.4A0U64S7P115TFMHOIUJ626QC" xbk_transform="rotate(0.00,300.46,442.70)"><polyline fill="none" points="260.784698,430.763062 259.018768,435.085785 257.491455,439.607239 256.479218,443.826538 256.549500,447.084106 257.216644,449.443970 258.029297,450.969421 " stroke-linecap="round" stroke-linejoin="round" stroke="#ff0000" stroke-width="1.00" fade-time="6" fade-enable="0" RotationPoint="(320.000000,240.000000)" transform="rotate(0.00,259.13,440.87)" xml:id="annotation.HD48AINFEL75598LT2MSBJSVS" visible="1"/><polyline fill="none" points="286.501892,429.844574 282.233337,429.117584 279.808289,429.215332 278.050140,429.939087 275.425323,431.981689 273.683716,434.525909 273.423157,436.585541 273.496521,437.706268 273.953674,438.555511 275.550171,439.771240 276.547394,439.932098 278.743988,439.566620 281.788055,437.725769 284.826172,434.890045 286.458984,432.473480 286.575317,432.515625 286.550842,432.849884 284.782288,437.154694 283.463501,441.833984 283.503906,446.176208 284.533875,450.748322 285.930115,453.353149 287.420380,454.643311 " stroke-linecap="round" stroke-linejoin="round" stroke="#ff0000" stroke-width="1.00" fade-time="6" fade-enable="0" RotationPoint="(320.000000,240.000000)" transform="rotate(0.00,280.46,441.88)" xml:id="annotation.N1TD5O1L611SV7D6SUILSRMRC" visible="1"/><polyline fill="none" points="304.871338,429.844574 301.149658,434.110535 300.155701,436.230865 299.698151,439.821655 300.265625,443.765686 301.157501,445.590637 303.782257,447.765564 306.657745,449.215057 310.423889,449.803284 312.747925,449.124420 316.246887,446.681641 317.778107,444.358215 317.989441,442.078064 317.641174,439.465851 316.297546,435.904266 315.188354,434.204651 313.470734,433.041016 308.691132,431.229370 305.789795,430.763062 " stroke-linecap="round" stroke-linejoin="round" stroke="#ff0000" stroke-width="1.00" fade-time="6" fade-enable="0" RotationPoint="(320.000000,240.000000)" transform="rotate(0.00,308.84,439.82)" xml:id="annotation.Q6STE3HC691RL61USPHVAVHDJ" visible="1"/><polyline fill="none" points="339.773254,425.252228 335.779419,429.518188 332.849854,432.966431 328.277313,436.561371 326.343231,438.626892 326.023438,439.475342 325.940247,441.506714 326.515594,443.225952 330.442657,447.987793 334.471710,451.106171 339.407745,455.035492 341.610168,456.480255 " stroke-linecap="round" stroke-linejoin="round" stroke="#ff0000" stroke-width="1.00" fade-time="6" fade-enable="0" RotationPoint="(320.000000,240.000000)" transform="rotate(0.00,333.78,440.87)" xml:id="annotation.1K3F544T8L0BH1OP0HE7TCEFH" visible="1"/><polyline fill="none" points="343.447144,440.866241 338.527374,445.785980 333.534210,450.779175 329.686737,455.625702 326.914642,460.154144 " stroke-linecap="round" stroke-linejoin="round" stroke="#ff0000" stroke-width="1.00" fade-time="6" fade-enable="0" RotationPoint="(320.000000,240.000000)" transform="rotate(0.00,335.68,450.51)" xml:id="annotation.J2BCQFK6MH5LTFGTBF1BKBCP6" visible="1"/></g><g class="group" xml:id="annotation.AFKR257L491BN9T9GQN5E6BLB" xbk_transform="rotate(0.00,536.26,401.66)"><polyline fill="none" points="431.620361,384.839478 428.350922,384.112518 425.038757,384.249878 420.262482,385.698181 415.490173,388.682983 410.548492,392.640472 409.226410,394.225647 408.730988,395.076965 408.452637,396.839294 408.521271,397.737885 408.975250,398.541046 410.568207,399.977722 412.909058,400.752319 417.095642,401.188385 421.295685,401.317566 425.884369,401.848816 426.571747,402.404236 427.335510,404.109955 427.765442,407.852783 427.892822,411.705841 428.669128,416.562836 429.783447,420.659851 " stroke-linecap="round" stroke-linejoin="round" stroke="#ff0000" stroke-width="1.00" fade-time="6" fade-enable="0" RotationPoint="(320.000000,240.000000)" transform="rotate(0.00,420.54,402.39)" xml:id="annotation.594P6DDLI579P16LGQKNQMQ3S" visible="1"/><polyline fill="none" points="442.642029,391.268768 442.112885,394.303864 442.541901,398.268555 443.315399,402.470825 444.491028,406.192719 445.397461,407.801270 " stroke-linecap="round" stroke-linejoin="round" stroke="#ff0000" stroke-width="1.00" fade-time="6" fade-enable="0" RotationPoint="(320.000000,240.000000)" transform="rotate(0.00,443.76,399.54)" xml:id="annotation.EKF0QQQTV139NEMPVJHDUA8LV" visible="1"/><polyline fill="none" points="440.805115,383.921021 444.801453,384.193176 448.953583,385.199432 453.882324,387.847412 455.665802,389.544067 456.121033,390.425140 456.354645,392.220520 456.069977,393.025848 452.578278,396.910217 449.344482,399.318939 448.682434,401.207886 449.016205,402.079010 453.616089,405.589996 458.488525,408.093933 460.264313,409.326050 460.513367,409.940399 460.373199,410.554016 459.973633,411.167206 459.094971,411.473969 455.034821,411.418121 450.758911,410.755219 447.012146,409.616974 445.397461,408.719727 " stroke-linecap="round" stroke-linejoin="round" stroke="#ff0000" stroke-width="1.00" fade-time="6" fade-enable="0" RotationPoint="(320.000000,240.000000)" transform="rotate(0.00,450.66,397.70)" xml:id="annotation.4R136KKJ2H0E94FPTQFMA194G" visible="1"/><polyline fill="none" points="473.870056,388.513367 473.143127,391.782837 472.989441,396.268799 473.692383,400.983826 474.788513,405.045868 " stroke-linecap="round" stroke-linejoin="round" stroke="#ff0000" stroke-width="1.00" fade-time="6" fade-enable="0" RotationPoint="(320.000000,240.000000)" transform="rotate(0.00,473.93,396.78)" xml:id="annotation.RTDUU1PR5D2FJ98JVDBAPS5GM" visible="1"/><polyline fill="none" points="463.766846,394.942657 468.268524,395.044708 471.924774,395.430267 475.386719,395.941772 480.299377,396.779602 " stroke-linecap="round" stroke-linejoin="round" stroke="#ff0000" stroke-width="1.00" fade-time="6" fade-enable="0" RotationPoint="(320.000000,240.000000)" transform="rotate(0.00,472.03,395.86)" xml:id="annotation.M7RCL1O7NT5NH8VAF5KLNJOA4" visible="1"/><polyline fill="none" points="496.831848,390.350311 497.558807,394.618866 497.965698,398.520630 499.017517,403.008575 499.105377,403.075378 498.513123,398.510803 497.704224,393.890808 496.516602,389.586945 496.092133,386.234802 496.941528,382.656250 498.485809,379.985748 499.914185,378.838287 502.983765,377.618561 505.485107,377.139893 509.585449,377.664093 511.582764,378.384735 513.831177,379.725555 515.374756,381.614136 516.196838,383.712128 516.221985,385.665100 515.348755,387.553650 513.940125,389.209381 510.541229,391.103882 506.109711,392.981934 504.663269,394.377380 504.502014,395.280182 505.139313,397.371857 507.309845,400.574280 512.258362,405.035034 516.215942,408.003906 519.793640,409.638214 " stroke-linecap="round" stroke-linejoin="round" stroke="#ff0000" stroke-width="1.00" fade-time="6" fade-enable="0" RotationPoint="(320.000000,240.000000)" transform="rotate(0.00,507.94,393.39)" xml:id="annotation.6FV564II3T58BAO5UMK9R2D3T" visible="1"/><polyline fill="none" points="536.326111,395.861145 539.259216,394.598724 543.769470,394.137665 548.266235,394.024200 " stroke-linecap="round" stroke-linejoin="round" stroke="#ff0000" stroke-width="1.00" fade-time="6" fade-enable="0" RotationPoint="(320.000000,240.000000)" transform="rotate(0.00,542.30,395.44)" xml:id="annotation.R6CF94M0VH24L3VJSK8P05J0A" visible="1"/><polyline fill="none" points="537.244568,400.453491 541.644165,400.555542 546.440186,401.084717 550.732727,401.315277 551.940125,401.371979 " stroke-linecap="round" stroke-linejoin="round" stroke="#ff0000" stroke-width="1.00" fade-time="6" fade-enable="0" RotationPoint="(320.000000,240.000000)" transform="rotate(0.00,544.59,400.95)" xml:id="annotation.F7AIRMSPDP7SN6EQAS07026V1" visible="1"/><polyline fill="none" points="573.064941,389.431854 570.508179,393.754547 568.746948,397.674927 567.907532,402.068146 567.658875,406.113922 567.554138,410.556671 " stroke-linecap="round" stroke-linejoin="round" stroke="#ff0000" stroke-width="1.00" fade-time="6" fade-enable="0" RotationPoint="(320.000000,240.000000)" transform="rotate(0.00,570.81,399.99)" xml:id="annotation.CVN1S8KLBL2KJELDLPL2GP8RS" visible="1"/><polyline fill="none" points="590.515930,389.431854 589.540710,388.456696 587.973389,387.977936 585.916077,387.867218 582.564941,388.480652 580.552795,389.383270 578.186401,391.526550 576.680115,394.100586 576.474609,396.167236 576.825500,398.344391 577.661804,400.332550 578.986023,401.692383 579.767700,402.197906 582.818298,402.909363 584.577393,402.531494 587.369812,400.625854 589.784851,396.919495 592.172180,392.693237 592.436462,392.524597 592.510681,392.718292 591.742432,396.887360 591.525696,400.870941 591.461487,404.784058 591.544434,408.925629 592.272095,412.182495 594.189819,416.985992 " stroke-linecap="round" stroke-linejoin="round" stroke="#ff0000" stroke-width="1.00" fade-time="6" fade-enable="0" RotationPoint="(320.000000,240.000000)" transform="rotate(0.00,585.33,402.43)" xml:id="annotation.2K712H5ICH3AB4GDDDU0P11JK" visible="1"/><polyline fill="none" points="612.559204,390.350311 610.608826,390.837891 607.933228,392.603882 604.388428,396.676697 602.473022,400.207550 601.722351,405.057739 601.823792,407.500397 602.549194,409.946686 604.096252,412.122528 606.246582,414.008057 610.325928,416.012939 613.267517,416.553528 616.275696,415.977386 620.021667,414.203827 621.590759,412.891968 623.429626,409.555237 624.023926,407.458252 624.154358,403.039246 622.745483,398.057648 621.984985,396.122986 619.245789,392.568207 614.955444,390.168640 612.705750,389.249054 607.966858,388.513367 " stroke-linecap="round" stroke-linejoin="round" stroke="#ff0000" stroke-width="1.00" fade-time="6" fade-enable="0" RotationPoint="(320.000000,240.000000)" transform="rotate(0.00,612.94,402.53)" xml:id="annotation.2GKNBH5O0H65BC4C277ION7EP" visible="1"/><polyline fill="none" points="631.847107,390.350311 634.148987,388.985840 638.428772,387.627777 642.717346,386.376770 646.066833,385.941345 646.939880,386.186371 647.623840,386.655884 648.181946,387.275024 648.349854,388.096039 647.992188,390.096802 646.201599,394.605316 644.759277,399.094208 643.491699,403.858917 642.360657,408.481537 641.759155,412.509094 641.031860,414.230560 " stroke-linecap="round" stroke-linejoin="round" stroke="#ff0000" stroke-width="1.00" fade-time="6" fade-enable="0" RotationPoint="(320.000000,240.000000)" transform="rotate(0.00,640.10,400.09)" xml:id="annotation.525UUAJQ6T22RDETOO6H2S8D7" visible="1"/><polyline fill="none" points="635.520996,403.208923 636.496155,402.233795 638.335693,401.755005 642.512085,401.757629 645.873840,402.155701 649.408997,402.672791 653.379028,402.562469 657.890442,402.344147 660.319702,402.290436 " stroke-linecap="round" stroke-linejoin="round" stroke="#ff0000" stroke-width="1.00" fade-time="6" fade-enable="0" RotationPoint="(320.000000,240.000000)" transform="rotate(0.00,647.92,402.98)" xml:id="annotation.6KG9UJ6EM179D7MF0E3PI91GF" visible="1"/><polyline fill="none" points="663.075134,424.333740 663.993591,426.170685 " stroke-linecap="round" stroke-linejoin="round" stroke="#ff0000" stroke-width="1.00" fade-time="6" fade-enable="0" RotationPoint="(320.000000,240.000000)" transform="rotate(0.00,663.58,425.25)" xml:id="annotation.JR3QU1K6817MBFN5I99M8G5DM" visible="1"/></g><g class="group" xml:id="annotation.C1I5TIBN810LP2O2Q3JNHGC1H" xbk_transform="rotate(0.00,136.49,513.93)"><polyline fill="none" points="59.639481,501.485352 64.543457,499.287506 68.383598,498.294189 73.117851,497.634644 77.519028,497.039490 81.594337,496.936340 86.521088,496.905823 91.371254,496.896759 94.765282,496.894684 98.212730,496.893707 103.022331,496.893188 107.577003,496.892975 111.659264,496.892975 115.748962,496.892975 119.340118,496.892975 " stroke-linecap="round" stroke-linejoin="round" stroke="#000000" stroke-width="1.00" fade-time="6" fade-enable="0" RotationPoint="(320.000000,240.000000)" transform="rotate(0.00,89.49,499.69)" xml:id="annotation.G3CA4FDE1D41572KAEFVOKH4B" visible="1"/><polyline fill="none" points="113.829285,502.403809 109.994148,504.169769 108.791077,505.535919 108.327385,506.328857 108.084320,508.026245 108.162369,508.907501 108.622612,509.699127 110.222549,511.122986 112.566467,511.619751 117.253723,511.107086 117.949196,510.553192 118.721924,508.849182 118.723877,508.027435 118.181786,506.570038 116.729088,504.602081 116.170708,504.277527 115.594330,504.163239 113.829285,504.240753 " stroke-linecap="round" stroke-linejoin="round" stroke="#000000" stroke-width="1.00" fade-time="6" fade-enable="0" RotationPoint="(320.000000,240.000000)" transform="rotate(0.00,113.40,507.01)" xml:id="annotation.SJF5HJ37RP3F9CB1S103GDA3S" visible="1"/><polyline fill="none" points="126.687904,516.180908 125.223328,511.378967 125.016464,509.216156 125.468796,507.438599 125.875168,506.678833 126.452240,506.274353 127.143112,506.106720 127.909851,506.097046 132.198730,507.914642 " stroke-linecap="round" stroke-linejoin="round" stroke="#000000" stroke-width="1.00" fade-time="6" fade-enable="0" RotationPoint="(320.000000,240.000000)" transform="rotate(0.00,128.61,511.64)" xml:id="annotation.UL1OU3DON57EJ7JVR84ISIJ6T" visible="1"/><polyline fill="none" points="145.057312,512.507019 144.569748,513.969666 144.426117,513.890320 143.689087,509.732147 143.846848,506.990387 144.148300,506.584106 144.553360,506.517365 145.027512,506.676941 149.888855,510.944061 154.077606,513.419128 156.107941,514.443115 158.371017,514.898254 159.239853,514.713440 159.921112,514.284119 160.477356,513.691772 160.644073,513.092712 160.551102,512.489258 160.285034,511.882843 158.900833,510.664825 157.960220,510.054260 155.826538,509.648010 154.686050,509.682495 153.823669,510.011658 152.593353,511.193878 152.326492,511.937683 152.302124,513.580627 152.903625,515.059265 155.440399,518.159180 157.998856,519.839966 160.671326,520.773254 " stroke-linecap="round" stroke-linejoin="round" stroke="#000000" stroke-width="1.00" fade-time="6" fade-enable="0" RotationPoint="(320.000000,240.000000)" transform="rotate(0.00,152.18,513.65)" xml:id="annotation.5S8HDD08LL5O13QDQUCRRSS45" visible="1"/><polyline fill="none" points="172.611450,514.343933 171.042877,512.979431 169.567093,512.274719 166.527435,511.791840 165.697983,512.030212 165.042953,512.495300 164.504227,513.111450 164.247131,513.930481 164.233582,515.929077 164.576950,516.727356 165.774887,517.886475 167.599945,518.469727 168.658127,518.625244 170.378189,518.253784 171.122620,517.869019 172.221878,516.352844 172.846527,515.032715 172.870209,515.109253 172.783966,515.466492 173.150162,517.431946 174.177567,518.812012 179.040771,523.528625 " stroke-linecap="round" stroke-linejoin="round" stroke="#000000" stroke-width="1.00" fade-time="6" fade-enable="0" RotationPoint="(320.000000,240.000000)" transform="rotate(0.00,171.64,517.66)" xml:id="annotation.831L5RIL4H65NC7072P17FK2K" visible="1"/><polyline fill="none" points="187.306992,501.485352 186.028610,505.808075 185.051208,510.533661 185.402649,514.689026 186.435684,519.529907 187.320969,521.969666 188.225449,523.528625 " stroke-linecap="round" stroke-linejoin="round" stroke="#000000" stroke-width="1.00" fade-time="6" fade-enable="0" RotationPoint="(320.000000,240.000000)" transform="rotate(0.00,186.68,512.51)" xml:id="annotation.0PVBFEDMLL4KV6CFHC4IBRSBE" visible="1"/><polyline fill="none" points="199.247116,513.425476 198.271942,514.888245 197.665497,517.748230 198.067917,519.734985 199.247116,522.610168 " stroke-linecap="round" stroke-linejoin="round" stroke="#000000" stroke-width="1.00" fade-time="6" fade-enable="0" RotationPoint="(320.000000,240.000000)" transform="rotate(0.00,198.96,518.02)" xml:id="annotation.2IKFCS2FVH2VL4FV9FIED7A8V" visible="1"/><polyline fill="none" points="200.165588,510.670044 202.569489,510.038879 207.474182,509.808319 211.916565,509.275208 212.591919,508.719666 213.342316,507.013733 213.131561,504.894897 212.255493,502.694550 210.041016,499.836578 206.594910,496.892975 " stroke-linecap="round" stroke-linejoin="round" stroke="#000000" stroke-width="1.00" fade-time="6" fade-enable="0" RotationPoint="(320.000000,240.000000)" transform="rotate(0.00,206.75,504.28)" xml:id="annotation.UANER75UU13EB30EGIDTOEABH" visible="1"/><polyline fill="none" points="199.247131,529.957947 198.328644,529.957947 " stroke-linecap="round" stroke-linejoin="round" stroke="#000000" stroke-width="1.00" fade-time="6" fade-enable="0" RotationPoint="(320.000000,240.000000)" transform="rotate(0.00,199.29,530.46)" xml:id="annotation.48O20VHBC13JN1UP3OP9843MC" visible="1"/></g><polyline fill="none" points="288.338837,497.811462 289.907440,499.175934 294.825195,501.164551 298.725464,502.400940 302.472046,503.321442 306.813782,504.240509 311.331909,505.159119 315.357971,506.077698 319.306274,506.723999 323.537720,507.187653 327.710358,508.258636 331.527313,509.150452 335.889923,510.548645 339.926605,511.768005 344.845642,512.463074 348.327057,513.205139 349.876404,513.425476 " stroke-linecap="round" stroke-linejoin="round" stroke="#009300" stroke-width="1.00" fade-time="6" fade-enable="0" RotationPoint="(320.000000,240.000000)" transform="rotate(0.00,319.11,505.62)" xml:id="annotation.11CKUQBIVP6O931SNH881S86A" visible="1"/><g class="group" xml:id="annotation.V8IGTODK0L39L69CSQ3J7VB8A" xbk_transform="rotate(0.00,455.68,508.59)"><polyline fill="none" points="381.104431,511.588531 379.641724,511.100952 376.781769,511.285309 373.348999,512.473877 371.500397,513.818970 368.650604,517.177063 367.915466,519.242981 367.690796,521.419800 368.640198,526.248291 369.747772,527.832947 370.471741,528.541321 372.636902,529.328369 374.993866,529.473999 376.721802,528.858459 377.897949,527.360168 379.484589,522.584656 380.465698,518.225708 380.820557,514.674438 380.978271,510.816986 381.048370,507.061493 381.079529,503.351349 381.097046,498.364380 381.102234,494.301422 381.102966,493.022217 381.205536,492.577606 381.375977,492.689331 382.382751,495.314240 382.775848,499.838318 383.379913,504.240295 383.717651,509.105103 384.305298,512.961731 385.125732,516.531067 385.622253,517.434875 388.452209,519.854797 " stroke-linecap="round" stroke-linejoin="round" stroke="#009300" stroke-width="1.00" fade-time="6" fade-enable="0" RotationPoint="(320.000000,240.000000)" transform="rotate(0.00,378.07,511.03)" xml:id="annotation.9SDH6AD2ND00H0P3N9TACMSAV" visible="1"/><polyline fill="none" points="396.718445,518.936279 400.553650,517.170349 401.756714,515.532043 403.697784,510.705536 404.344696,508.848877 404.149811,508.333344 403.611694,508.091736 402.844727,508.032684 402.129303,508.299530 400.790161,509.412323 398.369415,513.354675 397.253021,516.862915 396.978912,520.385681 397.276428,522.437988 397.702789,523.209717 398.992889,524.339417 399.765533,524.579407 401.440430,524.573975 404.104675,523.509521 405.375977,522.465637 406.821655,520.773254 " stroke-linecap="round" stroke-linejoin="round" stroke="#009300" stroke-width="1.00" fade-time="6" fade-enable="0" RotationPoint="(320.000000,240.000000)" transform="rotate(0.00,401.77,516.31)" xml:id="annotation.F9JJPKAICT6NJ2IPUSVI6DI6I" visible="1"/><polyline fill="none" points="414.169434,487.708282 413.897278,491.432556 413.640228,493.649689 413.866180,497.016327 414.034668,500.621704 414.401611,505.277496 415.439911,510.081085 416.729797,514.227600 419.680237,518.936279 " stroke-linecap="round" stroke-linejoin="round" stroke="#009300" stroke-width="1.00" fade-time="6" fade-enable="0" RotationPoint="(320.000000,240.000000)" transform="rotate(0.00,416.66,503.32)" xml:id="annotation.01N66M5T6L3EL049NM51J2I8A" visible="1"/><polyline fill="none" points="427.946472,510.670044 428.218628,514.666443 428.945618,517.296936 429.783447,518.936279 " stroke-linecap="round" stroke-linejoin="round" stroke="#009300" stroke-width="1.00" fade-time="6" fade-enable="0" RotationPoint="(320.000000,240.000000)" transform="rotate(0.00,428.86,514.80)" xml:id="annotation.HR37N0H9BL235BKHUJ1KH5276" visible="1"/><polyline fill="none" points="424.272583,491.382172 423.354126,491.382172 " stroke-linecap="round" stroke-linejoin="round" stroke="#009300" stroke-width="1.00" fade-time="6" fade-enable="0" RotationPoint="(320.000000,240.000000)" transform="rotate(0.00,424.31,491.88)" xml:id="annotation.EDQ61DUIJP5BJ6QHGDL9HPH6U" visible="1"/><polyline fill="none" points="435.294250,487.708282 435.396301,491.476654 435.925446,496.172607 436.229645,500.738953 437.195007,505.718536 437.880859,510.168182 438.851654,514.773987 439.800842,516.440002 440.339691,516.557678 440.903015,516.228027 441.971161,514.875122 443.818634,510.619080 445.746063,507.899536 448.256134,506.129913 450.035736,505.862793 450.938873,505.934418 452.486694,506.830444 453.185181,507.498016 453.961273,509.600433 454.126038,513.652832 453.665070,516.383972 452.155975,519.642822 449.815186,522.343262 448.075226,523.444031 446.009308,523.729187 443.934509,523.413696 440.805115,521.691711 " stroke-linecap="round" stroke-linejoin="round" stroke="#009300" stroke-width="1.00" fade-time="6" fade-enable="0" RotationPoint="(320.000000,240.000000)" transform="rotate(0.00,444.71,505.72)" xml:id="annotation.GQ7C2I4A1P65BDI89CDU2QQQL" visible="1"/><polyline fill="none" points="459.174500,514.343933 462.534637,514.139832 464.807861,512.877441 466.134491,511.787140 467.541290,509.538269 468.116913,506.445374 467.891541,505.608459 467.435120,504.948456 466.824677,504.406403 466.213623,504.249176 465.602173,504.348358 464.990387,504.618622 463.766388,506.007538 462.644104,508.087585 461.092072,513.036255 460.639069,515.293518 460.957855,519.229004 461.429840,521.413574 462.004730,522.118652 463.732086,522.901978 464.560089,522.906799 466.024414,522.367798 470.196167,518.936279 " stroke-linecap="round" stroke-linejoin="round" stroke="#009300" stroke-width="1.00" fade-time="6" fade-enable="0" RotationPoint="(320.000000,240.000000)" transform="rotate(0.00,464.69,513.58)" xml:id="annotation.BJ8GSH2FMD6BB8EM4AOQQDM1M" visible="1"/><polyline fill="none" points="478.462402,517.099365 477.974823,519.049683 477.729126,519.318054 477.463318,519.190796 477.184021,518.799805 476.735779,514.403870 476.862213,509.803375 478.101715,506.467255 479.186554,504.856110 479.965668,504.446899 481.919983,504.264374 485.810181,505.159241 " stroke-linecap="round" stroke-linejoin="round" stroke="#009300" stroke-width="1.00" fade-time="6" fade-enable="0" RotationPoint="(320.000000,240.000000)" transform="rotate(0.00,481.27,511.79)" xml:id="annotation.LS84DN3MJL4E50K2VE42F10CJ" visible="1"/><polyline fill="none" points="496.831848,505.159241 492.835449,505.431366 491.718323,505.646820 489.932770,506.974731 489.170868,507.900330 488.324341,510.017365 488.050110,512.216919 488.268433,514.214966 489.249939,515.851379 489.940277,516.573547 490.706696,516.952881 492.374634,517.102295 493.146027,516.795166 495.206848,514.900146 498.350250,510.622345 499.068756,510.127991 500.683472,509.850830 501.440674,510.123901 505.241364,512.620239 506.010040,512.582520 506.726501,512.251160 507.408356,511.724091 508.437988,509.777771 509.930634,505.345856 510.895538,500.508759 511.246582,496.867126 511.716370,491.918793 512.121643,489.987854 512.229736,490.044434 512.403198,494.043396 512.433167,497.998993 512.442078,501.756378 512.932312,506.430115 514.211426,510.717773 515.883118,514.573547 517.613403,516.521118 519.743103,517.862915 522.050354,518.459229 525.156677,518.307373 528.503662,517.128418 530.059998,515.785583 532.378235,512.428894 532.571655,511.638489 532.496460,510.907501 532.242249,510.216034 531.664551,509.755127 529.934082,509.242889 529.207336,509.412415 528.620728,509.831665 527.696838,511.113800 526.945984,512.704224 526.924744,516.296021 527.589355,518.307129 528.052368,519.129211 529.383240,520.314697 533.219849,521.907349 535.251709,522.025635 537.175232,521.636108 539.050720,520.782532 541.340210,518.666931 543.673889,514.343933 " stroke-linecap="round" stroke-linejoin="round" stroke="#009300" stroke-width="1.00" fade-time="6" fade-enable="0" RotationPoint="(320.000000,240.000000)" transform="rotate(0.00,515.86,506.01)" xml:id="annotation.OS334VA40H04JCLBM6DBOPAH6" visible="1"/><polyline fill="none" points="512.445862,500.566864 516.763916,496.248840 521.199524,492.603973 524.385986,490.463684 " stroke-linecap="round" stroke-linejoin="round" stroke="#009300" stroke-width="1.00" fade-time="6" fade-enable="0" RotationPoint="(320.000000,240.000000)" transform="rotate(0.00,518.42,496.02)" xml:id="annotation.6LST33L2JH02T56GBVDDAFP0G" visible="1"/></g><polyline fill="none" points="120.258606,523.528625 125.060524,524.993225 129.273026,525.564209 133.571152,526.141907 137.628601,526.241943 142.062469,525.783997 146.120285,525.489563 149.907928,525.402344 154.844879,525.372864 159.750992,525.367065 164.651001,525.365906 169.549805,525.365662 174.448380,525.093506 179.040771,524.447144 " stroke-linecap="round" stroke-linejoin="round" stroke="#009300" stroke-width="1.00" fade-time="6" fade-enable="0" RotationPoint="(320.000000,240.000000)" transform="rotate(0.00,149.65,524.89)" xml:id="annotation.MR4DBAAM0P56L9G0GSMK49NNI" visible="1"/><g class="group" xml:id="annotation.LQK6FKPEM93PV1SLG9U6BQQD5" xbk_transform="rotate(0.00,513.82,540.60)"><polyline fill="none" points="253.436951,508.833099 257.759644,511.389832 262.281158,513.650757 266.772552,515.458130 271.537720,517.750305 276.363373,519.779236 281.088440,522.006836 285.390991,523.742065 290.252502,525.885071 294.571655,527.184265 299.334625,529.362122 303.949432,531.144409 308.816895,532.980469 313.497406,534.727783 318.302734,536.098206 320.485352,536.387268 " stroke-linecap="round" stroke-linejoin="round" stroke="#009300" stroke-width="1.00" fade-time="6" fade-enable="0" RotationPoint="(320.000000,240.000000)" transform="rotate(0.00,286.96,522.61)" xml:id="annotation.B7RP4FLIHH26PBRCNIS9C9MQP" visible="1"/><polyline fill="none" points="345.284058,552.001282 344.308929,552.976440 343.830200,554.815918 343.035217,559.179321 342.628723,563.926819 342.558289,568.699524 342.639465,572.370178 342.806641,572.213928 343.162476,570.781677 343.362793,567.374146 343.409698,563.902283 343.436066,559.394165 343.443878,555.473083 344.421326,551.238342 345.516022,547.727112 346.051025,547.212891 346.713867,547.074158 347.461884,547.185791 349.109436,548.670471 351.213989,552.102905 352.839325,556.432251 354.314819,559.301270 354.978455,559.725403 355.727051,559.804016 356.532257,559.652405 357.171112,559.245117 358.153107,557.976135 359.279663,554.077759 359.772217,550.019897 360.671875,545.520813 361.239777,542.827820 361.738190,542.109741 362.376587,541.835022 363.108398,541.856018 363.698303,542.176208 364.625854,543.348389 365.421692,547.430786 366.173126,551.780945 366.746338,555.509216 367.642822,560.161682 369.164307,564.859863 " stroke-linecap="round" stroke-linejoin="round" stroke="#009300" stroke-width="1.00" fade-time="6" fade-enable="0" RotationPoint="(320.000000,240.000000)" transform="rotate(0.00,355.86,557.10)" xml:id="annotation.QD1QS8R1FL35JD59MVVDMNDUQ" visible="1"/><polyline fill="none" points="376.512085,562.104431 377.347412,564.833435 378.278076,566.242859 379.016113,566.700317 380.924683,567.208618 381.801025,567.038025 383.319000,566.032043 385.321106,563.256836 386.719391,559.849243 386.804901,555.766724 385.696289,552.300476 384.982086,551.588379 383.099976,550.797180 381.174957,550.989929 377.444519,552.289062 377.031647,552.295166 376.960541,552.095154 377.117188,551.757690 377.527802,551.634766 378.800446,551.770386 382.845337,553.524231 387.810822,557.104126 391.790497,561.661743 394.365448,564.749695 395.978882,565.763367 396.531555,565.666321 396.900024,565.193420 397.418579,562.577515 398.081421,558.036438 399.195038,553.310547 399.792175,551.256531 400.400452,550.484253 402.164825,549.354004 406.821655,548.327393 " stroke-linecap="round" stroke-linejoin="round" stroke="#009300" stroke-width="1.00" fade-time="6" fade-enable="0" RotationPoint="(320.000000,240.000000)" transform="rotate(0.00,391.67,557.77)" xml:id="annotation.VC3HTGUOEP0C7BAH3GUK7C4S3" visible="1"/><polyline fill="none" points="414.169434,559.349060 413.681824,560.811829 413.844391,561.344788 414.258881,561.802063 414.841370,562.209045 415.535828,562.174194 417.123901,561.319031 419.251617,559.116333 420.687134,556.524658 421.271271,553.330200 420.956757,550.285889 420.429169,549.531006 418.754425,548.420166 417.838409,548.287109 416.004181,548.683716 413.737885,550.054443 410.519348,554.671631 409.485596,556.453735 408.658569,559.349060 " stroke-linecap="round" stroke-linejoin="round" stroke="#009300" stroke-width="1.00" fade-time="6" fade-enable="0" RotationPoint="(320.000000,240.000000)" transform="rotate(0.00,414.96,555.25)" xml:id="annotation.7PA075QAUL5PBBG2DF7PFQ4AF" visible="1"/><polyline fill="none" points="432.538818,545.571960 431.076111,546.059509 429.813660,547.115356 426.725830,551.898376 425.192230,555.327148 425.123566,557.357422 425.554291,558.123352 427.121368,559.246521 428.906433,559.541626 431.360535,559.134033 433.457336,558.430542 " stroke-linecap="round" stroke-linejoin="round" stroke="#009300" stroke-width="1.00" fade-time="6" fade-enable="0" RotationPoint="(320.000000,240.000000)" transform="rotate(0.00,429.33,552.56)" xml:id="annotation.63LH54GGC91I7FD1BJCA60OD3" visible="1"/><polyline fill="none" points="443.560486,543.735046 441.003723,546.779358 438.742828,550.954651 437.915497,553.305054 437.851196,556.923279 438.223511,557.833923 439.453644,559.117920 441.723572,560.267517 " stroke-linecap="round" stroke-linejoin="round" stroke="#009300" stroke-width="1.00" fade-time="6" fade-enable="0" RotationPoint="(320.000000,240.000000)" transform="rotate(0.00,441.21,552.00)" xml:id="annotation.PP190ID201007ES68FGRLK7AT" visible="1"/><polyline fill="none" points="452.745239,550.164307 453.017365,554.615540 453.232788,555.581116 454.288574,557.198181 456.973389,559.899353 457.707092,560.226196 459.338745,560.317200 460.812347,559.745300 462.147614,558.708740 463.944794,556.403931 464.798431,554.672363 464.973755,552.882263 464.609436,551.066101 463.767151,549.238464 462.950623,548.628601 460.682739,547.951050 458.518127,548.194153 456.535553,549.084656 453.800262,551.307129 451.539978,554.256653 450.908264,555.675171 " stroke-linecap="round" stroke-linejoin="round" stroke="#009300" stroke-width="1.00" fade-time="6" fade-enable="0" RotationPoint="(320.000000,240.000000)" transform="rotate(0.00,457.94,554.13)" xml:id="annotation.LUILQKHF151D16QS9NQ37OSJ8" visible="1"/><polyline fill="none" points="486.728638,538.224182 485.753479,539.686951 484.959869,544.186462 484.310944,547.678711 484.123322,551.134705 484.505280,556.121399 484.720001,558.730957 484.891724,562.104431 " stroke-linecap="round" stroke-linejoin="round" stroke="#009300" stroke-width="1.00" fade-time="6" fade-enable="0" RotationPoint="(320.000000,240.000000)" transform="rotate(0.00,485.93,550.16)" xml:id="annotation.UN7LSGSTFP539C74SQR110JS6" visible="1"/><polyline fill="none" points="500.505737,541.898071 499.530518,540.922913 498.937103,540.941772 497.461365,541.779175 495.396851,544.459473 494.467621,548.326599 494.745422,549.245300 495.338867,549.857727 496.142700,550.266113 496.780609,550.232178 497.307953,549.903442 501.274536,545.013611 501.936707,544.281250 502.378174,544.201172 502.672485,544.556030 502.868713,545.200806 502.657288,550.009033 502.435913,554.653992 501.882660,558.615540 501.560028,562.374695 501.718903,563.101013 502.028870,563.483215 503.261108,563.941406 " stroke-linecap="round" stroke-linejoin="round" stroke="#009300" stroke-width="1.00" fade-time="6" fade-enable="0" RotationPoint="(320.000000,240.000000)" transform="rotate(0.00,498.86,552.43)" xml:id="annotation.LRKHNO029D49731P2O47OSPKE" visible="1"/><polyline fill="none" points="510.608887,551.082764 510.881012,555.079163 511.880157,558.253967 512.374878,559.231323 514.013123,560.589355 515.021484,561.094421 515.999878,561.226929 517.903381,560.830017 519.497803,559.156860 521.542908,555.346069 522.897278,551.257446 523.026428,547.188538 522.155701,542.217346 520.810974,539.724854 519.157227,538.619019 518.144775,538.181274 515.931213,538.239136 514.769409,538.540283 512.934326,539.691345 508.360016,543.974670 505.606171,548.450439 505.098083,549.245850 " stroke-linecap="round" stroke-linejoin="round" stroke="#009300" stroke-width="1.00" fade-time="6" fade-enable="0" RotationPoint="(320.000000,240.000000)" transform="rotate(0.00,514.06,549.70)" xml:id="annotation.HFMH281UOT4CVE6E8T9KTILPK" visible="1"/><polyline fill="none" points="534.489136,531.794922 532.763062,536.063477 531.449524,540.734192 531.003174,544.637512 530.870972,548.538086 530.840027,551.856689 531.030396,555.406799 532.285034,559.496338 533.373474,561.319458 534.153625,561.785278 536.108948,562.030579 536.895691,561.749023 538.042053,560.619812 537.980286,559.992126 537.531006,559.369568 536.823181,558.750427 534.676086,558.334656 530.870667,558.674255 527.974243,559.421265 526.222900,560.267517 " stroke-linecap="round" stroke-linejoin="round" stroke="#009300" stroke-width="1.00" fade-time="6" fade-enable="0" RotationPoint="(320.000000,240.000000)" transform="rotate(0.00,532.13,546.91)" xml:id="annotation.B0N62GQ45L3U9DRVM7NBA0L8H" visible="1"/><polyline fill="none" points="604.292969,515.262390 602.527039,520.072754 600.855591,524.296204 599.067688,528.779358 597.582397,532.087463 595.901794,535.700928 594.134277,539.688049 592.600342,543.569153 591.238220,547.335205 589.952454,551.050049 588.700684,554.469971 587.120605,558.991943 586.278259,563.189270 586.028687,566.848145 585.923584,569.452209 " stroke-linecap="round" stroke-linejoin="round" stroke="#009300" stroke-width="1.00" fade-time="6" fade-enable="0" RotationPoint="(320.000000,240.000000)" transform="rotate(0.00,595.61,542.36)" xml:id="annotation.74RISDKKTT6SHCI5QONIU1RPA" visible="1"/><polyline fill="none" points="617.151550,520.773254 615.688782,521.260864 611.922546,524.437622 609.773926,527.301819 608.081909,531.874939 606.764893,536.221619 606.318054,539.581177 606.561523,540.251404 607.029968,540.596191 607.648438,540.723999 608.264832,540.400940 611.946106,535.533447 613.681580,533.231445 616.054565,528.696960 618.289307,526.182556 619.032593,525.808167 619.732300,525.762756 620.402832,525.936523 620.747864,526.664734 620.745728,530.410950 620.200928,534.197021 619.692932,539.133301 619.197205,543.358032 619.322510,547.943542 619.851318,550.401978 620.766724,552.174927 621.581787,553.098938 622.662415,553.838196 " stroke-linecap="round" stroke-linejoin="round" stroke="#009300" stroke-width="1.00" fade-time="6" fade-enable="0" RotationPoint="(320.000000,240.000000)" transform="rotate(0.00,614.49,537.31)" xml:id="annotation.O8Q8JL52MT30NFF1V9RUH1SM5" visible="1"/><polyline fill="none" points="600.619080,530.876404 599.356689,533.809387 598.623535,538.319702 598.088867,542.742798 598.065857,546.457581 598.395752,550.149719 599.337036,555.105347 599.700623,557.512085 " stroke-linecap="round" stroke-linejoin="round" stroke="#009300" stroke-width="1.00" fade-time="6" fade-enable="0" RotationPoint="(320.000000,240.000000)" transform="rotate(0.00,599.84,544.19)" xml:id="annotation.1SPNKSH7794RD888IIK65EUL2" visible="1"/><polyline fill="none" points="637.357971,519.854797 636.358765,523.851196 635.198914,528.490906 634.291687,532.607483 633.376526,537.058899 632.459045,541.121887 631.540771,544.911072 631.110046,549.106750 630.928650,553.838196 " stroke-linecap="round" stroke-linejoin="round" stroke="#009300" stroke-width="1.00" fade-time="6" fade-enable="0" RotationPoint="(320.000000,240.000000)" transform="rotate(0.00,634.64,536.85)" xml:id="annotation.SSN9S30JL54I7CJGOMKNUR1O6" visible="1"/><polyline fill="none" points="652.971985,519.854797 651.607483,522.156616 650.249390,526.436401 648.998352,531.212646 647.870544,536.087036 647.269775,540.708679 646.967896,542.798157 647.605591,546.921509 648.379578,549.245850 " stroke-linecap="round" stroke-linejoin="round" stroke="#009300" stroke-width="1.00" fade-time="6" fade-enable="0" RotationPoint="(320.000000,240.000000)" transform="rotate(0.00,650.47,534.55)" xml:id="annotation.ESQ55OHOKL0DJ9S2C9AB2J0IP" visible="1"/><polyline fill="none" points="679.607605,534.550293 677.050781,538.873047 674.354736,543.699463 672.923157,547.401855 672.826782,549.242737 672.943909,550.162231 673.328247,550.673218 673.890564,550.911804 674.571594,550.968811 676.144775,550.487854 678.689148,549.245850 " stroke-linecap="round" stroke-linejoin="round" stroke="#009300" stroke-width="1.00" fade-time="6" fade-enable="0" RotationPoint="(320.000000,240.000000)" transform="rotate(0.00,676.72,542.76)" xml:id="annotation.QJCO5B3H3P36H58P5C33L8T2P" visible="1"/><polyline fill="none" points="688.792358,538.224182 687.513916,543.034485 687.120850,547.257996 687.492065,550.765930 687.925415,551.585876 689.223450,552.769165 690.100281,552.921448 692.163025,552.546326 693.896301,551.427063 695.244934,549.909119 696.184448,548.213989 696.397949,546.167908 696.191101,541.528137 695.618469,539.658630 694.581604,538.147400 693.100281,536.795349 692.684814,536.761353 692.509949,537.146912 692.495361,537.812134 693.450073,540.211182 696.785034,545.097534 698.599060,547.052856 699.208130,547.069519 699.818298,546.672363 700.429199,545.999451 702.142822,541.457092 703.350098,538.365723 706.776978,534.138123 707.415527,533.969299 708.045227,534.162964 708.669189,534.598206 709.634644,536.442627 710.479797,540.621826 710.881592,543.678040 712.672607,548.327393 " stroke-linecap="round" stroke-linejoin="round" stroke="#009300" stroke-width="1.00" fade-time="6" fade-enable="0" RotationPoint="(320.000000,240.000000)" transform="rotate(0.00,699.90,543.45)" xml:id="annotation.DG3EECAUHT2BNDRQLMP930D9C" visible="1"/><polyline fill="none" points="723.694275,531.794922 723.796387,528.026550 724.223450,523.534668 723.997498,521.184143 723.590210,520.638977 723.012573,520.479675 722.321350,520.577576 721.758423,521.255127 720.121826,526.197815 719.131958,530.204468 718.464478,534.623291 718.266724,539.164307 718.208069,543.741394 718.462830,548.329285 718.912537,552.648193 719.552063,557.277039 720.685730,562.256165 720.938843,563.941406 " stroke-linecap="round" stroke-linejoin="round" stroke="#009300" stroke-width="1.00" fade-time="6" fade-enable="0" RotationPoint="(320.000000,240.000000)" transform="rotate(0.00,721.45,542.21)" xml:id="annotation.9R3A4QMRD14DL6DL1GORPT2JP" visible="1"/><polyline fill="none" points="716.346497,550.164307 715.858948,548.213989 716.163818,546.440002 718.022644,542.319031 721.088562,538.409363 722.842285,536.911804 724.914490,536.110107 726.038574,535.896362 728.103882,536.203064 729.083252,536.570618 730.715759,538.067627 731.436829,539.038269 732.238037,541.477478 732.689026,545.447327 732.794495,547.149414 732.878967,545.571960 " stroke-linecap="round" stroke-linejoin="round" stroke="#009300" stroke-width="1.00" fade-time="6" fade-enable="0" RotationPoint="(320.000000,240.000000)" transform="rotate(0.00,724.37,543.53)" xml:id="annotation.D88VNEUCU50HPB8TFN0Q0BKRA" visible="1"/><polyline fill="none" points="732.878967,524.447144 731.960510,524.447144 " stroke-linecap="round" stroke-linejoin="round" stroke="#009300" stroke-width="1.00" fade-time="6" fade-enable="0" RotationPoint="(320.000000,240.000000)" transform="rotate(0.00,732.92,524.95)" xml:id="annotation.H3F07JIDV94137OABENEPROS9" visible="1"/><polyline fill="none" points="741.145203,550.164307 740.616028,547.231262 741.010437,542.448853 741.606140,537.595947 742.808594,533.791199 744.132690,531.932861 744.361511,531.784790 744.819092,531.794922 " stroke-linecap="round" stroke-linejoin="round" stroke="#009300" stroke-width="1.00" fade-time="6" fade-enable="0" RotationPoint="(320.000000,240.000000)" transform="rotate(0.00,742.72,541.47)" xml:id="annotation.DADK5C6QFT47HCQKO4J9A9HHD" visible="1"/><polyline fill="none" points="754.003784,547.408936 753.516174,545.946167 753.549011,544.411560 754.005737,542.811096 754.889099,541.419434 755.410461,541.272827 755.962097,541.481201 756.533936,541.926331 759.343262,546.573547 760.012695,546.851990 760.765198,546.731506 761.572998,546.344971 762.742676,544.826965 764.812622,540.526306 766.583923,537.443604 767.289062,536.887329 768.065308,536.618530 768.888977,536.541443 769.540100,536.796265 770.535706,537.895691 772.006470,541.931396 772.967590,545.967468 773.934448,550.495605 774.210205,552.919739 " stroke-linecap="round" stroke-linejoin="round" stroke="#009300" stroke-width="1.00" fade-time="6" fade-enable="0" RotationPoint="(320.000000,240.000000)" transform="rotate(0.00,763.86,544.73)" xml:id="annotation.0COO0G6R512PL25SM0QR5RB1O" visible="1"/><polyline fill="none" points="670.422913,557.512085 672.826843,558.143311 677.731506,558.373840 682.661438,558.906921 686.828430,559.218079 691.782288,559.310242 695.325928,559.331848 698.839783,559.443481 702.102417,559.833252 705.797607,560.074524 709.719116,560.181702 713.503052,560.229370 717.225830,560.250610 720.921387,560.362061 724.604980,560.751770 728.011047,560.993042 731.327759,561.202332 734.842896,561.635498 738.446228,561.896057 742.088745,562.011841 745.748718,562.063293 749.144287,562.358276 753.924622,562.825989 758.572693,562.964600 762.909424,563.277771 766.235413,563.744812 768.699341,563.941406 " stroke-linecap="round" stroke-linejoin="round" stroke="#009300" stroke-width="1.00" fade-time="6" fade-enable="0" RotationPoint="(320.000000,240.000000)" transform="rotate(0.00,719.56,560.73)" xml:id="annotation.FMHUOSLBNP5ON6VH2OUOM7H50" visible="1"/></g><g class="group" xml:id="annotation.AAV76PSCDH1319SPHL362HRPB" xbk_transform="rotate(0.00,265.62,678.79)"><polyline fill="none" points="223.127380,688.853516 224.695984,687.489014 229.211395,685.813782 233.184952,684.879944 238.081543,683.956909 241.883896,683.615601 245.648895,683.464050 250.063507,683.378662 253.956833,683.353271 258.929504,683.616943 263.842651,684.133850 268.744080,684.867249 273.643188,685.117920 277.861450,685.161377 282.717163,685.174194 287.387543,684.905884 291.186584,684.452148 293.849670,684.261108 " stroke-linecap="round" stroke-linejoin="round" stroke="#009300" stroke-width="1.00" fade-time="6" fade-enable="0" RotationPoint="(320.000000,240.000000)" transform="rotate(0.00,258.49,686.60)" xml:id="annotation.M1JSBVJCL56TP69OAS7P5H24C" visible="1"/><polyline fill="none" points="279.154144,698.956665 280.616882,697.981567 284.689331,697.187866 288.935730,696.436951 293.924469,695.465942 298.577576,693.930969 302.484894,692.081482 306.327606,688.765381 307.066803,687.876282 307.888153,685.799927 308.107178,684.674683 307.534088,682.063721 305.646759,677.205017 302.382629,672.218994 299.355347,667.715210 295.686157,662.943542 292.556976,658.424988 292.012726,657.625488 " stroke-linecap="round" stroke-linejoin="round" stroke="#009300" stroke-width="1.00" fade-time="6" fade-enable="0" RotationPoint="(320.000000,240.000000)" transform="rotate(0.00,293.63,678.79)" xml:id="annotation.TL8P3DKIHT76NDKFQM22I90DM" visible="1"/></g></g></svg>