<?xml version="1.0" encoding="UTF-8" standalone="yes"?><svg width="800" height="1293" xml:id="page.B950G18KP152H3794M10GA405"><title>Aug 28-2:04 PM</title><g class="foreground"><text transform="translate(51,60) rotate(0.000,249.776,20.109) scale(1.000,1.000)" RotationPoint="(320.000000,240.000000)" xml:id="annotation.690580FNR12ABF01C7MDCBOGR" visible="1" smart-txt-ver="2.10" editwidth="499.55" editheight="40.22" forcewidth="0" forceheight="0" language_direction="1" textdirection="0" theme_anno_style="0"><tspan justification="left" bullet="0"><tspan><tspan fill="#0000FF" font-size="36.000" font-family="Arial" char-transform="0.00 1.00 0.00 0.00 0.00 1.00" textLength="499.55" y="32.59" x="0.00">Second Moroccan Crisis - 1911</tspan></tspan></tspan></text><text transform="translate(121,120) rotate(0.000,205.432,16.321) scale(1.000,1.000)" RotationPoint="(320.000000,240.000000)" xml:id="annotation.GB5UEDF1MT0U70CNP8BS0TMSS" visible="1" smart-txt-ver="2.10" editwidth="410.86" editheight="32.64" forcewidth="0" forceheight="0" language_direction="1" textdirection="0" theme_anno_style="0"><tspan justification="left" bullet="0"><tspan><tspan fill="#0000FF" font-size="29.218" font-family="Arial" char-transform="0.00 1.00 0.00 0.00 0.00 1.00" textLength="410.86" y="26.45" x="0.00">Also known as the Agadir crisis.</tspan></tspan></tspan></text><text transform="translate(14,179) rotate(0.000,66.521,16.723) scale(1.000,1.000)" RotationPoint="(302.000000,214.000000)" xml:id="annotation.IC5AMRGIDD19T0L5V3334UHFS" visible="1" smart-txt-ver="2.10" editwidth="133.04" editheight="33.45" forcewidth="0" forceheight="0" language_direction="1" textdirection="0" theme_anno_style="0"><tspan justification="left" bullet="0"><tspan><tspan fill="#000000" font-size="24.000" font-family="Comic Sans MS" char-transform="0.00 1.00 0.00 0.00 0.00 1.00" textLength="133.04" y="26.45" x="0.00">In May 1911</tspan></tspan></tspan></text><text transform="translate(376,504) rotate(0.000,204.780,54.135) scale(1.000,1.000)" RotationPoint="(322.000000,498.000000)" xml:id="annotation.AC8H0JFU4L3BJ5KNI9CRQEN9F" visible="1" smart-txt-ver="2.10" editwidth="409.56" editheight="108.27" forcewidth="1" forceheight="0" language_direction="1" textdirection="0" theme_anno_style="0"><tspan justification="left" bullet="0"><tspan><tspan fill="#000000" font-size="24.000" font-family="Comic Sans MS" char-transform="0.00 1.00 0.00 0.00 0.00 1.00" textLength="357.57" y="26.45" x="0.00">The French occupied Fez which </tspan></tspan><tspan><tspan fill="#000000" backgroundColor="#FFFFFF" background-opacity="0" font-size="24.000" font-family="Comic Sans MS" char-transform="0.00 1.00 0.00 0.00 0.00 1.00" textLength="412.48" y="63.86" x="0.00">suggested France was attempting to </tspan></tspan><tspan><tspan fill="#000000" backgroundColor="#FFFFFF" background-opacity="0" font-size="24.000" font-family="Comic Sans MS" char-transform="0.00 1.00 0.00 0.00 0.00 1.00" textLength="359.36" y="101.27" x="0.00">have more control over Morocco</tspan></tspan></tspan></text><text transform="translate(16,352) rotate(0.000,104.854,16.723) scale(1.000,1.000)" RotationPoint="(310.000000,157.000000)" xml:id="annotation.R2FLVLPFV55V31C3HEQPD42EK" visible="1" smart-txt-ver="2.10" editwidth="209.71" editheight="33.45" forcewidth="0" forceheight="0" language_direction="1" textdirection="0" theme_anno_style="0"><tspan justification="left" bullet="0"><tspan><tspan fill="#000000" font-size="24.000" font-family="Comic Sans MS" char-transform="0.00 1.00 0.00 0.00 0.00 1.00" textLength="209.71" y="26.45" x="0.00">The Germans sent </tspan></tspan></tspan></text><text transform="translate(407,845) rotate(0.000,213.990,35.429) scale(1.000,1.000)" RotationPoint="(371.000000,644.000000)" xml:id="annotation.ISCLQU8I0L61LCHMKGDP9B5KK" visible="1" smart-txt-ver="2.10" editwidth="427.98" editheight="70.86" forcewidth="1" forceheight="0" language_direction="1" textdirection="0" theme_anno_style="0"><tspan justification="left" bullet="0"><tspan><tspan fill="#000000" font-size="24.000" font-family="Comic Sans MS" char-transform="0.00 1.00 0.00 0.00 0.00 1.00" textLength="335.52" y="26.45" x="0.00">The gunboat &quot;Panther&quot; to put </tspan></tspan><tspan><tspan fill="#000000" backgroundColor="#FFFFFF" background-opacity="0" font-size="24.000" font-family="Comic Sans MS" char-transform="0.00 1.00 0.00 0.00 0.00 1.00" textLength="267.04" y="63.86" x="0.00">pressure on the French.</tspan></tspan></tspan></text><text transform="translate(20,511) rotate(0.000,135.609,16.723) scale(1.000,1.000)" RotationPoint="(320.000000,161.000000)" xml:id="annotation.G9ODEJQUDT6EVEVP171FOTV07" visible="1" smart-txt-ver="2.10" editwidth="271.22" editheight="33.45" forcewidth="0" forceheight="0" language_direction="1" textdirection="0" theme_anno_style="0"><tspan justification="left" bullet="0"><tspan><tspan fill="#000000" font-size="24.000" font-family="Comic Sans MS" char-transform="0.00 1.00 0.00 0.00 0.00 1.00" textLength="271.22" y="26.45" x="0.00">In reality this served to</tspan></tspan></tspan></text><text transform="translate(435,140) rotate(0.000,176.885,72.842) scale(1.000,1.000)" RotationPoint="(325.000000,-180.000000)" xml:id="annotation.7028302DQH6B33QEF0KU33UQA" visible="1" smart-txt-ver="2.10" editwidth="353.77" editheight="145.68" forcewidth="1" forceheight="0" language_direction="1" textdirection="0" theme_anno_style="0"><tspan justification="left" bullet="0"><tspan><tspan fill="#000000" font-size="24.000" font-family="Comic Sans MS" char-transform="0.00 1.00 0.00 0.00 0.00 1.00" textLength="286.88" y="26.45" x="0.00">Make British support for </tspan></tspan><tspan><tspan fill="#000000" backgroundColor="#FFFFFF" background-opacity="0" font-size="24.000" font-family="Comic Sans MS" char-transform="0.00 1.00 0.00 0.00 0.00 1.00" textLength="333.49" y="63.86" x="0.00">France even stronger. It also </tspan></tspan><tspan><tspan fill="#000000" backgroundColor="#FFFFFF" background-opacity="0" font-size="24.000" font-family="Comic Sans MS" char-transform="0.00 1.00 0.00 0.00 0.00 1.00" textLength="278.47" y="101.27" x="0.00">further strained GB and </tspan></tspan><tspan><tspan fill="#000000" backgroundColor="#FFFFFF" background-opacity="0" font-size="24.000" font-family="Comic Sans MS" char-transform="0.00 1.00 0.00 0.00 0.00 1.00" textLength="196.07" y="138.69" x="0.00">German relations.</tspan></tspan></tspan></text><text transform="translate(600,1115) rotate(0.000,38.168,16.723) scale(1.000,1.000)" RotationPoint="(863.000000,547.999939)" xml:id="annotation.NV35LPNCST1FH9L2KGANIIDGL" visible="1" smart-txt-ver="2.10" editwidth="76.34" editheight="33.45" forcewidth="0" forceheight="0" language_direction="1" textdirection="0" theme_anno_style="0"><tspan justification="left" bullet="0"><tspan><tspan fill="#000000" font-size="24.000" font-family="Comic Sans MS" char-transform="0.00 1.00 0.00 0.00 0.00 1.00" textLength="76.34" y="26.45" x="0.00">Clumsy</tspan></tspan></tspan></text><text transform="translate(422,1106) rotate(0.000,58.676,16.723) scale(1.000,1.000)" RotationPoint="(691.000000,468.000000)" xml:id="annotation.L8SU2MIJ8H7TR7BR3Q8SF51BG" visible="1" smart-txt-ver="2.10" editwidth="117.35" editheight="33.45" forcewidth="0" forceheight="0" language_direction="1" textdirection="0" theme_anno_style="0"><tspan justification="left" bullet="0"><tspan><tspan fill="#000000" font-size="24.000" font-family="Comic Sans MS" char-transform="0.00 1.00 0.00 0.00 0.00 1.00" textLength="117.35" y="26.45" x="0.00">aggressive</tspan></tspan></tspan></text><text transform="translate(132,1139) rotate(0.000,85.898,16.723) scale(1.000,1.000)" RotationPoint="(380.000000,445.000061)" xml:id="annotation.P7UNFTL0UH7HNCJGBG63NGU17" visible="1" smart-txt-ver="2.10" editwidth="171.80" editheight="33.45" forcewidth="0" forceheight="0" language_direction="1" textdirection="0" theme_anno_style="0"><tspan justification="left" bullet="0"><tspan><tspan fill="#000000" font-size="24.000" font-family="Comic Sans MS" char-transform="0.00 1.00 0.00 0.00 0.00 1.00" textLength="171.80" y="26.45" x="0.00">lacked subtlety</tspan></tspan></tspan></text><text transform="translate(12,719) rotate(0.000,125.350,16.723) scale(1.000,1.000)" RotationPoint="(320.000000,217.000000)" xml:id="annotation.FPUKL7EQBD5RT95297GPKD0T6" visible="1" smart-txt-ver="2.10" editwidth="250.70" editheight="33.45" forcewidth="0" forceheight="0" language_direction="1" textdirection="0" theme_anno_style="0"><tspan justification="left" bullet="0"><tspan><tspan fill="#000000" font-size="24.000" font-family="Comic Sans MS" char-transform="0.00 1.00 0.00 0.00 0.00 1.00" textLength="250.70" y="26.45" x="0.00">The crisis contributed</tspan></tspan></tspan></text><text transform="translate(463,981) rotate(0.000,163.315,35.429) scale(1.000,1.000)" RotationPoint="(326.000000,465.000000)" xml:id="annotation.G787M74MP56G3E02FJE4HV53S" visible="1" smart-txt-ver="2.10" editwidth="326.63" editheight="70.86" forcewidth="1" forceheight="0" language_direction="1" textdirection="0" theme_anno_style="0"><tspan justification="left" bullet="0"><tspan><tspan fill="#000000" font-size="24.000" font-family="Comic Sans MS" char-transform="0.00 1.00 0.00 0.00 0.00 1.00" textLength="326.45" y="26.45" x="0.00">To the likelihood of a future </tspan></tspan><tspan><tspan fill="#000000" backgroundColor="#FFFFFF" background-opacity="0" font-size="24.000" font-family="Comic Sans MS" char-transform="0.00 1.00 0.00 0.00 0.00 1.00" textLength="263.44" y="63.86" x="0.00">breakdown of relations.</tspan></tspan></tspan></text><text transform="translate(23,862) rotate(0.000,112.342,16.723) scale(1.000,1.000)" RotationPoint="(310.000000,205.000000)" xml:id="annotation.EK0EGGOLRT4NR8MMKRD79A9RD" visible="1" smart-txt-ver="2.10" editwidth="224.68" editheight="33.45" forcewidth="0" forceheight="0" language_direction="1" textdirection="0" theme_anno_style="0"><tspan justification="left" bullet="0"><tspan><tspan fill="#000000" font-size="24.000" font-family="Comic Sans MS" char-transform="0.00 1.00 0.00 0.00 0.00 1.00" textLength="224.68" y="26.45" x="0.00"> The next two years</tspan></tspan></tspan></text><text transform="translate(440,362) rotate(0.000,181.735,35.429) scale(1.000,1.000)" RotationPoint="(339.000000,-284.000000)" xml:id="annotation.8JPQ8NK41T10VEF7L5L3JADSC" visible="1" smart-txt-ver="2.10" editwidth="363.47" editheight="70.86" forcewidth="1" forceheight="0" language_direction="1" textdirection="0" theme_anno_style="0"><tspan justification="left" bullet="0"><tspan><tspan fill="#000000" font-size="24.000" font-family="Comic Sans MS" char-transform="0.00 1.00 0.00 0.00 0.00 1.00" textLength="311.89" y="26.45" x="0.00">was the height of the naval </tspan></tspan><tspan><tspan fill="#000000" backgroundColor="#FFFFFF" background-opacity="0" font-size="24.000" font-family="Comic Sans MS" char-transform="0.00 1.00 0.00 0.00 0.00 1.00" textLength="116.58" y="63.86" x="0.00">arms race.</tspan></tspan></tspan></text><text transform="translate(33,1010) rotate(0.000,115.248,16.723) scale(1.000,1.000)" RotationPoint="(306.000000,258.000000)" xml:id="annotation.VS4R5IQVKT7HTEE1JUNR3C0IJ" visible="1" smart-txt-ver="2.10" editwidth="230.50" editheight="33.45" forcewidth="0" forceheight="0" language_direction="1" textdirection="0" theme_anno_style="0"><tspan justification="left" bullet="0"><tspan><tspan fill="#000000" font-size="24.000" font-family="Comic Sans MS" char-transform="0.00 1.00 0.00 0.00 0.00 1.00" textLength="230.50" y="26.45" x="0.00">France became more</tspan></tspan></tspan></text><text transform="translate(430,691) rotate(0.000,191.385,35.429) scale(1.000,1.000)" RotationPoint="(349.000000,-80.000000)" xml:id="annotation.CJC5QC5P8P4KR8SSCIR6D4VB8" visible="1" smart-txt-ver="2.10" editwidth="382.77" editheight="70.86" forcewidth="1" forceheight="0" language_direction="1" textdirection="0" theme_anno_style="0"><tspan justification="left" bullet="0"><tspan><tspan fill="#000000" font-size="24.000" font-family="Comic Sans MS" char-transform="0.00 1.00 0.00 0.00 0.00 1.00" textLength="294.54" y="26.45" x="0.00">aggressively patriotic and </tspan></tspan><tspan><tspan fill="#000000" backgroundColor="#FFFFFF" background-opacity="0" font-size="24.000" font-family="Comic Sans MS" char-transform="0.00 1.00 0.00 0.00 0.00 1.00" textLength="310.46" y="63.86" x="0.00">increased military spending.</tspan></tspan></tspan></text><text transform="translate(594,64) rotate(0.000,49.137,16.723) scale(1.000,1.000)" RotationPoint="(320.000000,240.000000)" xml:id="annotation.3MTK5C3FRP26B43BDNQ9I4900" visible="1" smart-txt-ver="2.10" editwidth="98.27" editheight="33.45" forcewidth="0" forceheight="0" language_direction="1" textdirection="0" theme_anno_style="0"><tspan justification="left" bullet="0"><tspan><tspan fill="#000000" font-size="24.000" font-family="Comic Sans MS" char-transform="0.00 1.00 0.00 0.00 0.00 1.00" textLength="98.27" y="26.45" x="0.00">page 178</tspan></tspan></tspan></text><text transform="translate(393,1170) rotate(0.000,135.826,16.723) scale(1.000,1.000)" RotationPoint="(221.000000,188.000000)" xml:id="annotation.04KCGIV6DL0SP2LMBDV3HPTUT" visible="1" smart-txt-ver="2.10" editwidth="271.65" editheight="33.45" forcewidth="0" forceheight="0" language_direction="1" textdirection="0" theme_anno_style="0"><tspan justification="left" bullet="0"><tspan><tspan fill="#000000" font-size="24.000" font-family="Comic Sans MS" char-transform="0.00 1.00 0.00 0.00 0.00 1.00" textLength="271.65" y="26.45" x="0.00">poor understanding of ...</tspan></tspan></tspan></text><text transform="translate(181,1206) rotate(0.000,189.164,16.723) scale(1.000,1.000)" RotationPoint="(453.000000,185.000000)" xml:id="annotation.Q93AV3NKS143P0V5SBSMNNBR6" visible="1" smart-txt-ver="2.10" editwidth="378.33" editheight="33.45" forcewidth="0" forceheight="0" language_direction="1" textdirection="0" theme_anno_style="0"><tspan justification="left" bullet="0"><tspan><tspan fill="#000000" font-size="24.000" font-family="Comic Sans MS" char-transform="0.00 1.00 0.00 0.00 0.00 1.00" textLength="378.33" y="26.45" x="0.00">contributed to einkreisungspolitik</tspan></tspan></tspan></text><text transform="translate(581,1230) rotate(0.000,43.295,16.723) scale(1.000,1.000)" RotationPoint="(382.000000,203.000000)" xml:id="annotation.SVM1023HM10PF07EIEIU4VOPE" visible="1" smart-txt-ver="2.10" editwidth="86.59" editheight="33.45" forcewidth="0" forceheight="0" language_direction="1" textdirection="0" theme_anno_style="0"><tspan justification="left" bullet="0"><tspan><tspan fill="#000000" font-size="24.000" font-family="Comic Sans MS" char-transform="0.00 1.00 0.00 0.00 0.00 1.00" textLength="86.59" y="26.45" x="0.00">tension.</tspan></tspan></tspan></text><polyline fill="none" points="710.296875,1090.402588 706.799255,1090.402588 703.129883,1090.402588 699.058838,1090.219482 694.809326,1089.528198 690.480469,1089.099121 686.116333,1088.908203 681.736572,1088.823364 677.349792,1088.785645 672.776855,1088.585938 670.276306,1088.276489 667.694214,1087.887085 665.057800,1087.627563 662.385010,1087.454468 659.688171,1087.338989 656.975098,1087.262207 654.251404,1087.210938 651.520569,1087.176758 648.601807,1087.153931 645.557922,1087.138672 642.430542,1087.128540 639.430603,1086.938721 636.515564,1086.629272 633.657104,1086.239868 630.653381,1085.980225 627.552795,1085.807129 624.387634,1085.691895 621.179504,1085.614868 617.942627,1085.563721 614.686646,1085.529541 611.417847,1085.323730 608.140564,1085.003540 604.857666,1084.607056 601.387878,1084.342773 597.793701,1084.166504 594.116394,1084.049072 590.383789,1083.970825 586.614258,1083.918579 582.820190,1083.883789 579.009583,1083.860474 575.188171,1083.845093 571.359436,1083.834839 567.525818,1083.827881 563.688965,1083.823364 559.849976,1083.820312 556.192505,1083.818237 552.656189,1083.816895 549.200500,1083.815918 545.615601,1083.632324 541.944641,1083.326904 538.216248,1082.940308 534.449463,1082.682495 530.657227,1082.510620 526.848022,1082.395996 523.027344,1082.319580 519.199158,1082.268799 515.365906,1082.234863 511.346344,1082.212158 507.202484,1082.197144 502.975739,1082.187012 498.876801,1082.180420 494.863098,1082.175903 490.906250,1082.172852 486.987152,1082.170898 483.093384,1082.169556 479.216400,1082.168701 475.350769,1082.167969 471.492432,1082.167603 467.639130,1082.167358 463.606140,1082.167236 459.453339,1082.167236 455.220673,1082.167114 451.117859,1082.166992 447.101532,1082.167114 443.142853,1082.166992 439.222687,1082.166992 435.328064,1082.166870 431.450562,1082.166870 427.584503,1082.166870 423.725952,1082.166870 419.872467,1082.166870 415.839478,1082.166870 411.686646,1082.166870 407.453918,1082.166870 403.351013,1081.983887 399.334595,1081.678955 395.375946,1081.292480 391.272705,1081.218018 387.073120,1081.351318 382.809235,1081.623169 378.685608,1081.621460 374.655396,1081.437256 370.687469,1081.131470 366.761078,1081.110474 362.862396,1081.279663 358.982147,1081.575317 354.931244,1081.589600 350.766479,1081.416016 346.525848,1081.117310 342.417694,1080.918091 338.397766,1080.785278 334.436737,1080.696777 330.514954,1080.637817 326.619293,1080.598511 322.741089,1080.572266 318.874573,1080.554810 315.015747,1080.543091 311.162109,1080.535278 307.311920,1080.530151 303.464020,1080.526855 299.617645,1080.524414 295.772278,1080.522827 291.927612,1080.521851 288.083374,1080.521118 284.239502,1080.520752 280.395782,1080.520264 276.552185,1080.520142 272.708679,1080.336914 268.865234,1080.031860 265.021851,1079.645508 261.178467,1079.387817 257.335114,1079.216187 253.491806,1079.101685 249.648453,1079.025391 245.805161,1078.974487 241.961838,1078.940552 238.118500,1078.917969 234.275192,1078.902832 230.431885,1078.892822 226.771576,1078.703125 223.233322,1078.393677 219.776352,1078.004395 216.190628,1077.744751 212.519028,1077.571777 208.790176,1077.456299 205.206207,1077.379395 201.718811,1077.328247 198.295792,1077.293945 194.915649,1077.088135 191.564163,1076.768066 188.231735,1076.371460 184.729034,1076.107056 181.112778,1075.930786 177.420837,1075.813354 173.861465,1075.552002 170.390457,1075.194702 166.978378,1074.773560 163.605560,1074.492798 160.258911,1074.305664 156.929718,1074.180786 153.795197,1073.914673 150.790436,1073.554199 147.872192,1073.130981 144.828613,1072.848633 141.701477,1072.660522 138.518600,1072.535034 135.481613,1072.451416 132.541901,1072.395752 129.667023,1072.358521 126.835350,1072.150757 124.032509,1071.829102 121.248863,1071.431763 118.478035,1071.166870 115.715729,1070.990234 112.959129,1070.872437 110.206306,1070.793945 107.456024,1070.741699 104.707413,1070.706787 101.959938,1070.683472 99.213226,1070.667969 96.466995,1070.657593 93.721107,1070.650757 90.975441,1070.645996 88.229919,1070.643066 85.667511,1070.640991 80.868233,1070.638794 76.295021,1070.637695 74.050629,1070.637451 71.273254,1070.637329 68.140564,1070.637207 64.770996,1070.637207 61.426521,1070.820068 58.098789,1071.125122 54.782204,1071.511475 51.473072,1071.952026 48.168900,1072.428711 44.868027,1072.929565 42.118408,1073.446411 37.599152,1074.508789 33.272392,1075.591064 29.641247,1076.865112 28.672939,1077.717285 26.736328,1080.519775 " stroke-linecap="round" stroke-linejoin="round" stroke="#ff0000" stroke-width="1.00" fade-time="6" fade-enable="0" RotationPoint="(320.000000,240.000000)" transform="rotate(0.00,368.52,1080.52)" xml:id="annotation.9280UFHQ3L14JFHN8PG5F3RUJ" visible="1"/></g></svg>