<?xml version="1.0" encoding="UTF-8" standalone="yes"?><svg width="800" height="711" xml:id="page.T40MV402D933V2EPIPR4QI0VB"><title>Sep 2-9:10 AM</title><g class="foreground"><path fill-rule="evenodd" slscaler="0.033333" d="M215.0000 106.0000 L215.0000 154.0000 L167.0000 154.0000 L167.0000 106.0000 z" constrain="1" shapename="9" fill="none" st_id="38" stroke="#000000" stroke-width="3.00" fade-time="6" fade-enable="0" RotationPoint="(320.000000,240.000000)" transform="rotate(0.00,191.00,130.00)" xml:id="annotation.U8OORG44391LJETE21EDEE12R" visible="1"/><path fill-rule="evenodd" slscaler="0.033333" d="M239.0000 229.0000 L239.0000 317.0000 L151.0000 317.0000 L151.0000 229.0000 z" constrain="1" shapename="9" fill="none" st_id="38" stroke="#000000" stroke-width="3.00" fade-time="6" fade-enable="0" RotationPoint="(320.000000,240.000000)" transform="rotate(0.00,195.00,273.00)" xml:id="annotation.RPBP5S0DMP5KRCADFIEVJHEET" visible="1"/><path fill-rule="evenodd" slscaler="0.033333" d="M786.9100 76.0000 L786.9100 237.9100 L497.0000 237.9100 L497.0000 76.0000 z" constrain="1" shapename="9" fill="none" st_id="38" stroke="#000000" stroke-width="3.00" fade-time="6" fade-enable="0" RotationPoint="(320.000000,240.000000)" transform="rotate(0.00,641.95,156.96)" xml:id="annotation.6A45T11UBD6MDDQMV195FHIS0" visible="1"/><ellipse cx="361.70" cy="191.70" rx="75.70" ry="75.70" shapename="0" fill="none" st_id="16" stroke="#000000" stroke-width="3.00" fade-time="6" fade-enable="0" RotationPoint="(320.000000,240.000000)" transform="rotate(0.00,361.70,191.70)" xml:id="annotation.AJF269F8PP1OL8POIOOO8BBN2" visible="1"/><ellipse cx="420.00" cy="345.00" rx="75.80" ry="75.80" shapename="0" fill="none" st_id="16" stroke="#000000" stroke-width="3.00" fade-time="6" fade-enable="0" RotationPoint="(320.000000,240.000000)" transform="rotate(0.00,420.00,345.00)" xml:id="annotation.MEVU005K7P3RL8NA0627L4TJ3" visible="1"/><ellipse cx="311.00" cy="416.00" rx="29.61" ry="29.61" shapename="0" fill="none" st_id="16" stroke="#000000" stroke-width="3.00" fade-time="6" fade-enable="0" RotationPoint="(320.000000,240.000000)" transform="rotate(0.00,311.00,416.00)" xml:id="annotation.N3F655TFR9603FMIMRJKERF57" visible="1"/><path fill-rule="evenodd" slscaler="0.033333" d="M482.3476 427.0000 L494.6346 445.5274 L532.6952 445.5274 L502.2296 457.1678 L513.2096 475.6952 L482.3476 464.7156 L451.4856 475.6952 L462.4657 457.1678 L432.0000 445.5274 L470.0606 445.5274 z" shapename="3" fill="none" st_id="31" stroke="#000000" stroke-width="3.00" fade-time="6" fade-enable="0" RotationPoint="(312.022766,318.595276)" transform="rotate(0.00,482.35,451.35)" xml:id="annotation.US3N061K4D7T999PATNHIQHP5" visible="1"/><path fill-rule="evenodd" slscaler="0.033333" d="M513.8600 650.8500 L448.0000 567.7600 L517.1400 486.0000 L652.1700 487.3400 L718.0300 570.4300 L648.8900 652.1900 z" shapename="3" fill="none" st_id="28" stroke="#000000" stroke-width="3.00" fade-time="6" fade-enable="0" RotationPoint="(320.000000,240.000000)" transform="rotate(0.00,583.02,569.09)" xml:id="annotation.AVOKFB888D1BB9F696PJN6FC7" visible="1"/><text transform="translate(15,19) rotate(0.000,146.830,10.142) scale(1.000,1.000)" RotationPoint="(293.000000,226.000000)" xml:id="annotation.0NMDN1F6T568FCRGR2P5LIM69" visible="1" smart-txt-ver="2.10" editwidth="293.66" editheight="20.28" forcewidth="1" forceheight="0" language_direction="1" textdirection="0" theme_anno_style="0"><tspan justification="left" line-spacing="1.00" prepara-spacing="1.00" bullet="0"><tspan><tspan fill="#000000" font-size="17.979" font-family="Arial" char-transform="0.00 1.01 0.00 0.00 0.00 1.00" leading="1.011" textLength="290.68" y="16.47" x="0.00">Great Power interest in the Balkans.</tspan></tspan></tspan></text><text transform="translate(48,377) rotate(0.000,126.385,15.277) scale(1.000,1.000)" RotationPoint="(338.000000,156.000000)" xml:id="annotation.O29MD0EKLT1TP68P6DGR68N9A" visible="1" smart-txt-ver="2.10" editwidth="252.77" editheight="30.55" forcewidth="1" forceheight="0" language_direction="1" textdirection="0" theme_anno_style="0"><tspan justification="left" line-spacing="1.00" prepara-spacing="1.00" bullet="0"><tspan><tspan fill="#000000" font-size="27.083" font-family="Arial" char-transform="0.00 1.01 0.00 0.00 0.00 1.00" leading="1.011" textLength="246.29" y="24.82" x="0.00">strategic importance</tspan></tspan></tspan></text><text transform="translate(40,460) rotate(0.000,115.160,9.806) scale(1.000,1.000)" RotationPoint="(319.000000,172.000000)" xml:id="annotation.OV3H5N69754AN2HO03HVSJRM5" visible="1" smart-txt-ver="2.10" editwidth="230.32" editheight="19.61" forcewidth="1" forceheight="0" language_direction="1" textdirection="0" theme_anno_style="0"><tspan justification="left" line-spacing="1.00" prepara-spacing="1.00" bullet="0"><tspan><tspan fill="#000000" font-size="17.383" font-family="Arial" char-transform="0.00 1.02 0.00 0.00 0.00 1.00" leading="1.011" textLength="226.66" y="15.93" x="0.00">ethnic - religious importance.</tspan></tspan></tspan></text><text transform="translate(24,564) rotate(0.000,122.500,15.989) scale(1.000,1.000)" RotationPoint="(276.000000,269.000000)" xml:id="annotation.VK4JBNKSDD1692PL2MRBEAF3H" visible="1" smart-txt-ver="2.10" editwidth="245.00" editheight="31.98" forcewidth="0" forceheight="0" language_direction="1" textdirection="0" theme_anno_style="0"><tspan justification="left" bullet="0"><tspan><tspan fill="#000000" font-size="28.623" font-family="Arial" char-transform="0.00 1.00 0.00 0.00 0.00 1.00" textLength="245.00" y="25.91" x="0.00">political importance</tspan></tspan></tspan></text><g class="group" xml:id="annotation.41QIPFMIO96CFBBCRCTK98OJU" xbk_transform="rotate(0.00,739.14,677.82)"><polyline fill="none" points="763.000000,681.333313 759.460938,680.625488 754.957947,679.882996 752.305298,679.477600 747.382568,678.632019 742.577454,677.762329 740.051697,677.322998 737.478943,676.882019 734.874878,676.439880 732.250000,675.996887 729.611084,675.553528 726.963013,675.257935 724.308655,675.060791 721.650269,674.929382 718.840942,674.693665 715.930908,674.388428 715.283203,674.311951 " stroke-linecap="round" stroke-linejoin="round" stroke="#000000" stroke-width="1.00" fade-time="6" fade-enable="0" RotationPoint="(320.000000,240.000000)" transform="rotate(0.00,739.14,677.82)" xml:id="annotation.JLAB5AOPAL3952AJUQFLOQUAA" visible="1"/></g><polyline fill="none" points="383.836639,393.741028 " stroke-linecap="round" stroke-linejoin="round" stroke="#ff0000" stroke-width="3.00" fade-time="6" fade-enable="0" RotationPoint="(320.000000,240.000000)" transform="rotate(0.00,384.34,394.24)" xml:id="annotation.JI9D1NPKO950N37TFNKCP1SMO" visible="1"/><g class="group" xml:id="annotation.A4K4HTN3KH0M15I5DMGRKBK5K" xbk_transform="rotate(0.00,610.95,220.50)"><polyline fill="none" points="602.896362,219.059753 603.840576,218.115524 " stroke-linecap="round" stroke-linejoin="round" stroke="#ff0000" stroke-width="3.00" fade-time="6" fade-enable="0" RotationPoint="(320.000000,240.000000)" transform="rotate(0.00,603.40,218.62)" xml:id="annotation.81AED2CAID1C718EC7DO3A2L7" visible="1"/><polyline fill="none" points="610.450195,219.059753 611.394409,219.059753 " stroke-linecap="round" stroke-linejoin="round" stroke="#ff0000" stroke-width="3.00" fade-time="6" fade-enable="0" RotationPoint="(320.000000,240.000000)" transform="rotate(0.00,610.95,219.56)" xml:id="annotation.HHNII8FVGP78HA31QN4T45BO1" visible="1"/><polyline fill="none" points="618.003967,221.892426 618.003967,222.836639 " stroke-linecap="round" stroke-linejoin="round" stroke="#ff0000" stroke-width="3.00" fade-time="6" fade-enable="0" RotationPoint="(320.000000,240.000000)" transform="rotate(0.00,618.50,222.39)" xml:id="annotation.0E6NL5764903V361JU1LK2ORR" visible="1"/></g><g class="group" xml:id="annotation.QAPMFMB94L00V4Q8CS3NGS0GP" xbk_transform="rotate(0.00,432.94,537.29)"><polyline fill="none" points="433.880463,541.984009 435.768890,542.928284 " stroke-linecap="round" stroke-linejoin="round" stroke="#ff0000" stroke-width="3.00" fade-time="6" fade-enable="0" RotationPoint="(320.000000,240.000000)" transform="rotate(0.00,434.82,542.48)" xml:id="annotation.BUTHS3VFF53R93CTM1NCVH0TE" visible="1"/><polyline fill="none" points="431.047791,532.541809 430.103577,531.597595 " stroke-linecap="round" stroke-linejoin="round" stroke="#ff0000" stroke-width="3.00" fade-time="6" fade-enable="0" RotationPoint="(320.000000,240.000000)" transform="rotate(0.00,430.60,532.10)" xml:id="annotation.MTSK8NIP9T5F1EGLTE5P426JO" visible="1"/></g><g class="group" xml:id="annotation.81914SRMJ50MBF9DFCHELQCEI" xbk_transform="rotate(0.00,538.69,449.45)"><polyline fill="none" points="423.493988,505.159332 422.740173,502.563721 421.605560,501.382446 " stroke-linecap="round" stroke-linejoin="round" stroke="#ff0000" stroke-width="3.00" fade-time="6" fade-enable="0" RotationPoint="(320.000000,240.000000)" transform="rotate(0.00,422.55,503.27)" xml:id="annotation.QS73PF4RG91NV2JBC85EV9GGM" visible="1"/><polyline fill="none" points="416.884430,483.442200 415.940216,482.497986 " stroke-linecap="round" stroke-linejoin="round" stroke="#ff0000" stroke-width="3.00" fade-time="6" fade-enable="0" RotationPoint="(320.000000,240.000000)" transform="rotate(0.00,416.44,483.00)" xml:id="annotation.5A24PTGVFL13PDC69FG8GSQRQ" visible="1"/><polyline fill="none" points="415.940216,468.334625 415.940216,467.390411 " stroke-linecap="round" stroke-linejoin="round" stroke="#ff0000" stroke-width="3.00" fade-time="6" fade-enable="0" RotationPoint="(320.000000,240.000000)" transform="rotate(0.00,416.44,467.89)" xml:id="annotation.3M1H8RIFFD6GD98NPCI3LQK1N" visible="1"/><polyline fill="none" points="421.605560,451.338623 421.605560,449.450165 " stroke-linecap="round" stroke-linejoin="round" stroke="#ff0000" stroke-width="3.00" fade-time="6" fade-enable="0" RotationPoint="(320.000000,240.000000)" transform="rotate(0.00,422.11,450.39)" xml:id="annotation.V9APVRP2QD6VH2LJLNTVK3PKN" visible="1"/><polyline fill="none" points="431.992004,430.565704 431.992004,429.621490 " stroke-linecap="round" stroke-linejoin="round" stroke="#ff0000" stroke-width="3.00" fade-time="6" fade-enable="0" RotationPoint="(320.000000,240.000000)" transform="rotate(0.00,432.49,430.12)" xml:id="annotation.G5D0IRRJN14D14A63E8DL50V7" visible="1"/><polyline fill="none" points="447.099548,417.346588 449.932251,414.513916 " stroke-linecap="round" stroke-linejoin="round" stroke="#ff0000" stroke-width="3.00" fade-time="6" fade-enable="0" RotationPoint="(320.000000,240.000000)" transform="rotate(0.00,448.52,415.93)" xml:id="annotation.2PJFE8LCUT4CP1G7BP362R7FB" visible="1"/><polyline fill="none" points="466.928284,401.294800 469.760925,400.350586 " stroke-linecap="round" stroke-linejoin="round" stroke="#ff0000" stroke-width="3.00" fade-time="6" fade-enable="0" RotationPoint="(320.000000,240.000000)" transform="rotate(0.00,468.34,400.85)" xml:id="annotation.0SMJFSNDR9173ERTNGBI8PISU" visible="1"/><polyline fill="none" points="492.422302,395.629456 496.199158,395.629456 " stroke-linecap="round" stroke-linejoin="round" stroke="#ff0000" stroke-width="3.00" fade-time="6" fade-enable="0" RotationPoint="(320.000000,240.000000)" transform="rotate(0.00,494.31,396.13)" xml:id="annotation.AQRIDDV58T7T7BOAJV5AQNLOQ" visible="1"/><polyline fill="none" points="516.972107,393.741028 518.860535,394.685242 " stroke-linecap="round" stroke-linejoin="round" stroke="#ff0000" stroke-width="3.00" fade-time="6" fade-enable="0" RotationPoint="(320.000000,240.000000)" transform="rotate(0.00,517.92,394.24)" xml:id="annotation.7043R1DGBL6434CQN9G68GSOG" visible="1"/><polyline fill="none" points="537.744995,396.573700 540.266846,397.600830 541.521912,398.462128 " stroke-linecap="round" stroke-linejoin="round" stroke="#ff0000" stroke-width="3.00" fade-time="6" fade-enable="0" RotationPoint="(320.000000,240.000000)" transform="rotate(0.00,539.63,397.52)" xml:id="annotation.2VSJ7M3GF55VP2OUHRT48KH46" visible="1"/><polyline fill="none" points="565.127441,406.015930 566.739990,407.418640 571.737000,409.792816 " stroke-linecap="round" stroke-linejoin="round" stroke="#ff0000" stroke-width="3.00" fade-time="6" fade-enable="0" RotationPoint="(320.000000,240.000000)" transform="rotate(0.00,568.43,407.90)" xml:id="annotation.F622M6DJ6P6IJ7F7LOQV11J9K" visible="1"/><polyline fill="none" points="588.733032,420.179260 591.565735,422.067719 " stroke-linecap="round" stroke-linejoin="round" stroke="#ff0000" stroke-width="3.00" fade-time="6" fade-enable="0" RotationPoint="(320.000000,240.000000)" transform="rotate(0.00,590.15,421.12)" xml:id="annotation.KTGAQ8HRGD0NTBS55E99QAUKA" visible="1"/><polyline fill="none" points="609.505920,430.565704 613.282837,434.342621 " stroke-linecap="round" stroke-linejoin="round" stroke="#ff0000" stroke-width="3.00" fade-time="6" fade-enable="0" RotationPoint="(320.000000,240.000000)" transform="rotate(0.00,611.39,432.45)" xml:id="annotation.OSH57GLEP9537BJOVLERG9NNM" visible="1"/><polyline fill="none" points="632.167297,450.394409 636.181152,453.940643 636.888428,455.115509 " stroke-linecap="round" stroke-linejoin="round" stroke="#ff0000" stroke-width="3.00" fade-time="6" fade-enable="0" RotationPoint="(320.000000,240.000000)" transform="rotate(0.00,634.53,452.75)" xml:id="annotation.TTSO6F9ENL1978S862EJ83VS2" visible="1"/><polyline fill="none" points="649.163330,470.223083 650.937744,472.277344 651.995972,473.999969 " stroke-linecap="round" stroke-linejoin="round" stroke="#ff0000" stroke-width="3.00" fade-time="6" fade-enable="0" RotationPoint="(320.000000,240.000000)" transform="rotate(0.00,650.58,472.11)" xml:id="annotation.DIP9MQRVAH5MJD10BV766E7DM" visible="1"/><polyline fill="none" points="659.549744,482.497986 660.847595,483.900757 661.438232,485.330658 " stroke-linecap="round" stroke-linejoin="round" stroke="#ff0000" stroke-width="3.00" fade-time="6" fade-enable="0" RotationPoint="(320.000000,240.000000)" transform="rotate(0.00,660.49,483.91)" xml:id="annotation.HD8QG0MKNP4ML20Q8LI0F5NK4" visible="1"/></g><g class="group" xml:id="annotation.7IMSJ42V2551B96IIKMITD0UL" xbk_transform="rotate(0.00,640.67,363.05)"><polyline fill="none" points="518.860535,329.533844 521.194580,333.922058 524.112610,338.723816 526.060669,343.352051 528.077454,347.405914 530.018494,351.738800 532.762817,356.108856 534.170532,358.565521 536.526062,361.275391 539.388855,362.695892 541.413208,362.877228 542.393677,362.778717 544.042603,361.829926 546.150635,359.246490 548.241455,355.115173 549.559814,350.953461 549.883606,346.266846 549.874634,341.719147 549.264526,337.536224 549.075684,335.199188 " stroke-linecap="round" stroke-linejoin="round" stroke="#ff0000" stroke-width="3.00" fade-time="6" fade-enable="0" RotationPoint="(320.000000,240.000000)" transform="rotate(0.00,534.37,346.21)" xml:id="annotation.PGE8G05HT96TB3KACM44DJLTG" visible="1"/><polyline fill="none" points="584.956116,350.306763 581.013428,348.179535 577.294983,347.683136 572.870850,348.538544 568.739075,350.120880 566.977417,351.867798 565.949646,354.043030 565.492859,356.408661 565.849365,358.299377 567.229797,360.543457 567.787964,361.222870 571.079834,363.181580 575.377502,364.088318 579.973145,363.354462 582.251831,362.085815 585.925720,358.205597 586.960754,355.845673 587.420837,354.237305 587.543457,354.395874 588.794373,358.915070 589.494690,360.637329 592.968872,365.611053 596.790222,370.459259 599.268616,372.061554 603.840576,373.912323 " stroke-linecap="round" stroke-linejoin="round" stroke="#ff0000" stroke-width="3.00" fade-time="6" fade-enable="0" RotationPoint="(320.000000,240.000000)" transform="rotate(0.00,584.67,360.80)" xml:id="annotation.CPVUE2V20T6MJEBNBOI68FJ7P" visible="1"/><polyline fill="none" points="629.334656,354.083649 627.830872,353.081177 625.413940,352.868713 620.794006,353.338989 616.662415,354.142761 615.535889,354.437775 613.724670,355.604919 612.325195,357.277710 611.353455,359.419983 611.262207,360.473877 611.720337,362.484161 613.157898,364.884186 615.733337,367.574951 619.506042,369.847290 621.780823,371.079651 " stroke-linecap="round" stroke-linejoin="round" stroke="#ff0000" stroke-width="3.00" fade-time="6" fade-enable="0" RotationPoint="(320.000000,240.000000)" transform="rotate(0.00,620.30,361.97)" xml:id="annotation.O2NMQQ5RCD3G13KJPN5CLCBE2" visible="1"/><polyline fill="none" points="650.107544,356.916321 648.603760,356.415070 647.026123,356.728516 644.648254,358.084686 643.379700,359.324036 642.466248,360.923981 641.863342,364.095520 642.185974,367.191772 642.949890,368.862122 643.447327,369.601288 646.152466,371.644104 649.611816,372.575806 653.795837,372.350616 657.856628,371.118195 661.216309,368.922852 663.703857,366.279053 666.043213,361.626953 666.396606,360.686249 666.422424,360.373810 666.229797,360.480255 665.891541,360.865967 665.415527,363.413879 665.775635,366.826599 667.549377,370.495575 670.068359,373.238037 672.808044,374.878265 675.234314,375.110962 677.746460,374.759827 679.562378,373.904297 682.437866,370.242645 684.746643,366.099976 685.160461,364.927185 685.541260,364.460083 685.899963,364.463409 686.244080,364.780396 687.868713,369.159546 690.203003,373.908173 692.109497,376.638855 693.744568,378.131653 695.800110,378.934998 696.935791,379.149231 698.007690,378.977295 700.915100,377.336487 703.151978,375.264954 705.507996,371.191376 707.014709,367.324829 707.118408,365.424133 706.999268,364.476624 706.919800,364.369537 706.912903,366.515259 707.797302,370.446167 708.956482,373.724640 711.732361,378.398895 713.370483,380.521881 " stroke-linecap="round" stroke-linejoin="round" stroke="#ff0000" stroke-width="3.00" fade-time="6" fade-enable="0" RotationPoint="(320.000000,240.000000)" transform="rotate(0.00,677.62,368.47)" xml:id="annotation.062ITOBUGD235C7TISEOVTTDE" visible="1"/><polyline fill="none" points="727.533813,374.856567 728.848083,378.799225 729.144409,379.058716 729.446899,378.916992 729.753479,378.507751 730.999207,374.291626 731.626892,372.192444 732.255859,371.716614 733.094910,371.609253 734.073853,371.747467 734.936340,372.259247 737.152710,374.984589 739.781494,379.385376 742.408569,384.063629 743.901794,385.173462 744.530823,385.196655 745.055054,384.897369 745.509460,384.383087 746.014404,382.692596 746.839783,378.689209 747.364136,374.218658 747.817871,372.160034 748.505371,371.590088 750.668091,371.236542 751.769409,371.603912 756.262085,375.347839 758.860107,379.642365 761.108765,384.307312 762.020081,387.448761 762.336731,391.911591 762.470093,396.573700 " stroke-linecap="round" stroke-linejoin="round" stroke="#ff0000" stroke-width="3.00" fade-time="6" fade-enable="0" RotationPoint="(320.000000,240.000000)" transform="rotate(0.00,745.00,383.91)" xml:id="annotation.ELUAT0G6R17L7D2OSRE514ULN" visible="1"/></g><polyline fill="none" points="448.043823,418.290802 451.869843,423.143921 454.869659,427.750427 456.802124,432.456451 457.784607,436.290009 458.951630,440.882233 459.290894,445.721649 459.357971,450.718719 458.617371,454.993042 457.740570,459.147949 457.035004,463.477509 455.299927,468.316742 452.410980,472.948456 450.445160,475.028992 446.098572,477.075653 444.241669,477.185425 440.485016,476.401093 435.768219,473.901703 431.047699,470.085846 426.326691,465.483856 422.549774,461.072571 419.052643,456.781860 415.557373,451.977722 411.669952,447.223663 408.498779,443.069153 405.779694,438.149597 403.333069,433.804535 400.702118,429.529907 397.892578,424.967773 395.858215,420.747101 393.926544,416.792145 391.673767,412.255585 390.446198,409.792816 " stroke-linecap="round" stroke-linejoin="round" stroke="#ff0000" stroke-width="3.00" fade-time="6" fade-enable="0" RotationPoint="(320.000000,240.000000)" transform="rotate(0.00,424.90,443.49)" xml:id="annotation.JN8102R2T566H1K8QGM4AIABI" visible="1"/></g></svg>