<?xml version="1.0" encoding="UTF-8" standalone="yes"?><svg width="800" height="1551" xml:id="page.K7LJBQC7KP2F99HMIS7DAH7BG"><title>Aug 28-2:04 PM</title><g class="foreground"><text transform="translate(51,60) rotate(0.000,249.776,20.109) scale(1.000,1.000)" RotationPoint="(320.000000,240.000000)" xml:id="annotation.690580FNR12ABF01C7MDCBOGR" visible="1" smart-txt-ver="2.10" editwidth="499.55" editheight="40.22" forcewidth="0" forceheight="0" language_direction="1" textdirection="0" theme_anno_style="0"><tspan justification="left" bullet="0"><tspan><tspan fill="#0000FF" font-size="36.000" font-family="Arial" char-transform="0.00 1.00 0.00 0.00 0.00 1.00" textLength="499.55" y="32.59" x="0.00">Second Moroccan Crisis - 1911</tspan></tspan></tspan></text><text transform="translate(121,120) rotate(0.000,205.432,16.321) scale(1.000,1.000)" RotationPoint="(320.000000,240.000000)" xml:id="annotation.GB5UEDF1MT0U70CNP8BS0TMSS" visible="1" smart-txt-ver="2.10" editwidth="410.86" editheight="32.64" forcewidth="0" forceheight="0" language_direction="1" textdirection="0" theme_anno_style="0"><tspan justification="left" bullet="0"><tspan><tspan fill="#0000FF" font-size="29.218" font-family="Arial" char-transform="0.00 1.00 0.00 0.00 0.00 1.00" textLength="410.86" y="26.45" x="0.00">Also known as the Agadir crisis.</tspan></tspan></tspan></text><text transform="translate(14,179) rotate(0.000,66.521,16.723) scale(1.000,1.000)" RotationPoint="(302.000000,214.000000)" xml:id="annotation.IC5AMRGIDD19T0L5V3334UHFS" visible="1" smart-txt-ver="2.10" editwidth="133.04" editheight="33.45" forcewidth="0" forceheight="0" language_direction="1" textdirection="0" theme_anno_style="0"><tspan justification="left" bullet="0"><tspan><tspan fill="#000000" font-size="24.000" font-family="Comic Sans MS" char-transform="0.00 1.00 0.00 0.00 0.00 1.00" textLength="133.04" y="26.45" x="0.00">In May 1911</tspan></tspan></tspan></text><text transform="translate(337,175) rotate(0.000,204.780,54.135) scale(1.000,1.000)" RotationPoint="(283.000000,169.000000)" xml:id="annotation.AC8H0JFU4L3BJ5KNI9CRQEN9F" visible="1" smart-txt-ver="2.10" editwidth="409.56" editheight="108.27" forcewidth="1" forceheight="0" language_direction="1" textdirection="0" theme_anno_style="0"><tspan justification="left" bullet="0"><tspan><tspan fill="#000000" font-size="24.000" font-family="Comic Sans MS" char-transform="0.00 1.00 0.00 0.00 0.00 1.00" textLength="357.57" y="26.45" x="0.00">The French occupied Fez which </tspan></tspan><tspan><tspan fill="#000000" backgroundColor="#FFFFFF" background-opacity="0" font-size="24.000" font-family="Comic Sans MS" char-transform="0.00 1.00 0.00 0.00 0.00 1.00" textLength="412.48" y="63.86" x="0.00">suggested France was attempting to </tspan></tspan><tspan><tspan fill="#000000" backgroundColor="#FFFFFF" background-opacity="0" font-size="24.000" font-family="Comic Sans MS" char-transform="0.00 1.00 0.00 0.00 0.00 1.00" textLength="359.36" y="101.27" x="0.00">have more control over Morocco</tspan></tspan></tspan></text><text transform="translate(16,352) rotate(0.000,104.854,16.723) scale(1.000,1.000)" RotationPoint="(310.000000,157.000000)" xml:id="annotation.R2FLVLPFV55V31C3HEQPD42EK" visible="1" smart-txt-ver="2.10" editwidth="209.71" editheight="33.45" forcewidth="0" forceheight="0" language_direction="1" textdirection="0" theme_anno_style="0"><tspan justification="left" bullet="0"><tspan><tspan fill="#000000" font-size="24.000" font-family="Comic Sans MS" char-transform="0.00 1.00 0.00 0.00 0.00 1.00" textLength="209.71" y="26.45" x="0.00">The Germans sent </tspan></tspan></tspan></text><text transform="translate(387,345) rotate(0.000,213.990,35.429) scale(1.000,1.000)" RotationPoint="(351.000000,144.000000)" xml:id="annotation.ISCLQU8I0L61LCHMKGDP9B5KK" visible="1" smart-txt-ver="2.10" editwidth="427.98" editheight="70.86" forcewidth="1" forceheight="0" language_direction="1" textdirection="0" theme_anno_style="0"><tspan justification="left" bullet="0"><tspan><tspan fill="#000000" font-size="24.000" font-family="Comic Sans MS" char-transform="0.00 1.00 0.00 0.00 0.00 1.00" textLength="335.52" y="26.45" x="0.00">The gunboat &quot;Panther&quot; to put </tspan></tspan><tspan><tspan fill="#000000" backgroundColor="#FFFFFF" background-opacity="0" font-size="24.000" font-family="Comic Sans MS" char-transform="0.00 1.00 0.00 0.00 0.00 1.00" textLength="267.04" y="63.86" x="0.00">pressure on the French.</tspan></tspan></tspan></text><text transform="translate(20,511) rotate(0.000,135.609,16.723) scale(1.000,1.000)" RotationPoint="(320.000000,161.000000)" xml:id="annotation.G9ODEJQUDT6EVEVP171FOTV07" visible="1" smart-txt-ver="2.10" editwidth="271.22" editheight="33.45" forcewidth="0" forceheight="0" language_direction="1" textdirection="0" theme_anno_style="0"><tspan justification="left" bullet="0"><tspan><tspan fill="#000000" font-size="24.000" font-family="Comic Sans MS" char-transform="0.00 1.00 0.00 0.00 0.00 1.00" textLength="271.22" y="26.45" x="0.00">In reality this served to</tspan></tspan></tspan></text><text transform="translate(434,476) rotate(0.000,176.885,72.842) scale(1.000,1.000)" RotationPoint="(324.000000,156.000000)" xml:id="annotation.7028302DQH6B33QEF0KU33UQA" visible="1" smart-txt-ver="2.10" editwidth="353.77" editheight="145.68" forcewidth="1" forceheight="0" language_direction="1" textdirection="0" theme_anno_style="0"><tspan justification="left" bullet="0"><tspan><tspan fill="#000000" font-size="24.000" font-family="Comic Sans MS" char-transform="0.00 1.00 0.00 0.00 0.00 1.00" textLength="286.88" y="26.45" x="0.00">Make British support for </tspan></tspan><tspan><tspan fill="#000000" backgroundColor="#FFFFFF" background-opacity="0" font-size="24.000" font-family="Comic Sans MS" char-transform="0.00 1.00 0.00 0.00 0.00 1.00" textLength="333.49" y="63.86" x="0.00">France even stronger. It also </tspan></tspan><tspan><tspan fill="#000000" backgroundColor="#FFFFFF" background-opacity="0" font-size="24.000" font-family="Comic Sans MS" char-transform="0.00 1.00 0.00 0.00 0.00 1.00" textLength="278.47" y="101.27" x="0.00">further strained GB and </tspan></tspan><tspan><tspan fill="#000000" backgroundColor="#FFFFFF" background-opacity="0" font-size="24.000" font-family="Comic Sans MS" char-transform="0.00 1.00 0.00 0.00 0.00 1.00" textLength="196.07" y="138.69" x="0.00">German relations.</tspan></tspan></tspan></text><text transform="translate(67,1172) rotate(0.000,86.791,38.026) scale(1.000,1.000)" RotationPoint="(330.000000,604.999939)" xml:id="annotation.NV35LPNCST1FH9L2KGANIIDGL" visible="1" smart-txt-ver="2.10" editwidth="173.58" editheight="76.05" forcewidth="0" forceheight="0" language_direction="1" textdirection="0" theme_anno_style="0"><tspan justification="left" bullet="0"><tspan><tspan fill="#000000" font-size="54.574" font-family="Comic Sans MS" char-transform="0.00 1.00 0.00 0.00 0.00 1.00" textLength="173.58" y="60.14" x="0.00">Clumsy</tspan></tspan></tspan></text><text transform="translate(69,1255) rotate(0.000,135.407,38.591) scale(1.000,1.000)" RotationPoint="(338.000000,617.000000)" xml:id="annotation.L8SU2MIJ8H7TR7BR3Q8SF51BG" visible="1" smart-txt-ver="2.10" editwidth="270.81" editheight="77.18" forcewidth="0" forceheight="0" language_direction="1" textdirection="0" theme_anno_style="0"><tspan justification="left" bullet="0"><tspan><tspan fill="#000000" font-size="55.385" font-family="Comic Sans MS" char-transform="0.00 1.00 0.00 0.00 0.00 1.00" textLength="270.81" y="61.04" x="0.00">aggressive</tspan></tspan></tspan></text><text transform="translate(57,1057) rotate(0.000,222.953,43.404) scale(1.000,1.000)" RotationPoint="(305.000000,363.000061)" xml:id="annotation.P7UNFTL0UH7HNCJGBG63NGU17" visible="1" smart-txt-ver="2.10" editwidth="445.91" editheight="86.81" forcewidth="0" forceheight="0" language_direction="1" textdirection="0" theme_anno_style="0"><tspan justification="left" bullet="0"><tspan><tspan fill="#000000" font-size="62.293" font-family="Comic Sans MS" char-transform="0.00 1.00 0.00 0.00 0.00 1.00" textLength="445.91" y="68.65" x="0.00">lacked subtlety</tspan></tspan></tspan></text><text transform="translate(12,719) rotate(0.000,125.350,16.723) scale(1.000,1.000)" RotationPoint="(320.000000,217.000000)" xml:id="annotation.FPUKL7EQBD5RT95297GPKD0T6" visible="1" smart-txt-ver="2.10" editwidth="250.70" editheight="33.45" forcewidth="0" forceheight="0" language_direction="1" textdirection="0" theme_anno_style="0"><tspan justification="left" bullet="0"><tspan><tspan fill="#000000" font-size="24.000" font-family="Comic Sans MS" char-transform="0.00 1.00 0.00 0.00 0.00 1.00" textLength="250.70" y="26.45" x="0.00">The crisis contributed</tspan></tspan></tspan></text><text transform="translate(408,707) rotate(0.000,163.315,35.429) scale(1.000,1.000)" RotationPoint="(271.000000,191.000000)" xml:id="annotation.G787M74MP56G3E02FJE4HV53S" visible="1" smart-txt-ver="2.10" editwidth="326.63" editheight="70.86" forcewidth="1" forceheight="0" language_direction="1" textdirection="0" theme_anno_style="0"><tspan justification="left" bullet="0"><tspan><tspan fill="#000000" font-size="24.000" font-family="Comic Sans MS" char-transform="0.00 1.00 0.00 0.00 0.00 1.00" textLength="326.45" y="26.45" x="0.00">To the likelihood of a future </tspan></tspan><tspan><tspan fill="#000000" backgroundColor="#FFFFFF" background-opacity="0" font-size="24.000" font-family="Comic Sans MS" char-transform="0.00 1.00 0.00 0.00 0.00 1.00" textLength="263.44" y="63.86" x="0.00">breakdown of relations.</tspan></tspan></tspan></text><text transform="translate(23,862) rotate(0.000,112.342,16.723) scale(1.000,1.000)" RotationPoint="(310.000000,205.000000)" xml:id="annotation.EK0EGGOLRT4NR8MMKRD79A9RD" visible="1" smart-txt-ver="2.10" editwidth="224.68" editheight="33.45" forcewidth="0" forceheight="0" language_direction="1" textdirection="0" theme_anno_style="0"><tspan justification="left" bullet="0"><tspan><tspan fill="#000000" font-size="24.000" font-family="Comic Sans MS" char-transform="0.00 1.00 0.00 0.00 0.00 1.00" textLength="224.68" y="26.45" x="0.00"> The next two years</tspan></tspan></tspan></text><text transform="translate(379,841) rotate(0.000,181.735,35.429) scale(1.000,1.000)" RotationPoint="(278.000000,195.000000)" xml:id="annotation.8JPQ8NK41T10VEF7L5L3JADSC" visible="1" smart-txt-ver="2.10" editwidth="363.47" editheight="70.86" forcewidth="1" forceheight="0" language_direction="1" textdirection="0" theme_anno_style="0"><tspan justification="left" bullet="0"><tspan><tspan fill="#000000" font-size="24.000" font-family="Comic Sans MS" char-transform="0.00 1.00 0.00 0.00 0.00 1.00" textLength="311.89" y="26.45" x="0.00">was the height of the naval </tspan></tspan><tspan><tspan fill="#000000" backgroundColor="#FFFFFF" background-opacity="0" font-size="24.000" font-family="Comic Sans MS" char-transform="0.00 1.00 0.00 0.00 0.00 1.00" textLength="116.58" y="63.86" x="0.00">arms race.</tspan></tspan></tspan></text><text transform="translate(33,1010) rotate(0.000,115.248,16.723) scale(1.000,1.000)" RotationPoint="(306.000000,258.000000)" xml:id="annotation.VS4R5IQVKT7HTEE1JUNR3C0IJ" visible="1" smart-txt-ver="2.10" editwidth="230.50" editheight="33.45" forcewidth="0" forceheight="0" language_direction="1" textdirection="0" theme_anno_style="0"><tspan justification="left" bullet="0"><tspan><tspan fill="#000000" font-size="24.000" font-family="Comic Sans MS" char-transform="0.00 1.00 0.00 0.00 0.00 1.00" textLength="230.50" y="26.45" x="0.00">France became more</tspan></tspan></tspan></text><text transform="translate(411,993) rotate(0.000,191.385,35.429) scale(1.000,1.000)" RotationPoint="(330.000000,222.000000)" xml:id="annotation.CJC5QC5P8P4KR8SSCIR6D4VB8" visible="1" smart-txt-ver="2.10" editwidth="382.77" editheight="70.86" forcewidth="1" forceheight="0" language_direction="1" textdirection="0" theme_anno_style="0"><tspan justification="left" bullet="0"><tspan><tspan fill="#000000" font-size="24.000" font-family="Comic Sans MS" char-transform="0.00 1.00 0.00 0.00 0.00 1.00" textLength="294.54" y="26.45" x="0.00">aggressively patriotic and </tspan></tspan><tspan><tspan fill="#000000" backgroundColor="#FFFFFF" background-opacity="0" font-size="24.000" font-family="Comic Sans MS" char-transform="0.00 1.00 0.00 0.00 0.00 1.00" textLength="310.46" y="63.86" x="0.00">increased military spending.</tspan></tspan></tspan></text><text transform="translate(594,64) rotate(0.000,49.137,16.723) scale(1.000,1.000)" RotationPoint="(320.000000,240.000000)" xml:id="annotation.3MTK5C3FRP26B43BDNQ9I4900" visible="1" smart-txt-ver="2.10" editwidth="98.27" editheight="33.45" forcewidth="0" forceheight="0" language_direction="1" textdirection="0" theme_anno_style="0"><tspan justification="left" bullet="0"><tspan><tspan fill="#000000" font-size="24.000" font-family="Comic Sans MS" char-transform="0.00 1.00 0.00 0.00 0.00 1.00" textLength="98.27" y="26.45" x="0.00">page 178</tspan></tspan></tspan></text><text transform="translate(77,1336) rotate(0.000,263.022,32.383) scale(1.000,1.000)" RotationPoint="(-95.000000,354.000000)" xml:id="annotation.04KCGIV6DL0SP2LMBDV3HPTUT" visible="1" smart-txt-ver="2.10" editwidth="526.04" editheight="64.77" forcewidth="0" forceheight="0" language_direction="1" textdirection="0" theme_anno_style="0"><tspan justification="left" bullet="0"><tspan><tspan fill="#000000" font-size="46.475" font-family="Comic Sans MS" char-transform="0.00 1.00 0.00 0.00 0.00 1.00" textLength="526.04" y="51.22" x="0.00">poor understanding of ...</tspan></tspan></tspan></text><text transform="translate(34,1461) rotate(0.000,340.763,30.124) scale(1.000,1.000)" RotationPoint="(306.000000,440.000000)" xml:id="annotation.Q93AV3NKS143P0V5SBSMNNBR6" visible="1" smart-txt-ver="2.10" editwidth="681.53" editheight="60.25" forcewidth="0" forceheight="0" language_direction="1" textdirection="0" theme_anno_style="0"><tspan justification="left" bullet="0"><tspan><tspan fill="#000000" font-size="43.234" font-family="Comic Sans MS" char-transform="0.00 1.00 0.00 0.00 0.00 1.00" textLength="681.53" y="47.65" x="0.00">contributed to einkreisungspolitik</tspan></tspan></tspan></text><text transform="translate(68,1395) rotate(0.000,107.076,41.358) scale(1.000,1.000)" RotationPoint="(-131.000000,368.000000)" xml:id="annotation.SVM1023HM10PF07EIEIU4VOPE" visible="1" smart-txt-ver="2.10" editwidth="214.15" editheight="82.72" forcewidth="0" forceheight="0" language_direction="1" textdirection="0" theme_anno_style="0"><tspan justification="left" bullet="0"><tspan><tspan fill="#000000" font-size="59.356" font-family="Comic Sans MS" char-transform="0.00 1.00 0.00 0.00 0.00 1.00" textLength="214.15" y="65.41" x="0.00">tension.</tspan></tspan></tspan></text><g class="group" xml:id="annotation.NGN94U9IJ95O5EQEI15C1U889" xbk_transform="rotate(0.00,429.62,942.71)"><polyline fill="none" points="232.480225,958.985962 235.759094,954.067688 238.196609,950.411377 240.192596,946.504639 242.068436,942.714905 244.423248,939.509338 246.146439,938.700256 250.494812,938.409607 252.019455,939.336060 253.035889,940.866333 254.393417,944.772278 255.757339,948.789917 256.668640,949.678833 257.732544,949.815002 258.898102,949.449524 261.410095,947.218018 264.047638,943.944641 266.740997,940.208069 270.822876,935.346191 274.163452,932.431641 276.012573,931.015564 277.701630,930.527771 279.284027,930.658936 280.795258,931.202759 282.030945,932.477905 284.012421,936.328674 284.436646,941.082336 284.230347,943.627747 284.092834,946.465454 284.001160,949.498169 283.940033,952.660706 284.127441,955.453674 284.944153,960.382263 285.481384,961.742188 286.067719,962.420593 287.924805,963.092957 " stroke-linecap="round" stroke-linejoin="round" stroke="#ff0000" stroke-width="1.00" fade-time="6" fade-enable="0" RotationPoint="(320.000000,240.000000)" transform="rotate(0.00,260.20,946.81)" xml:id="annotation.B70RAOC6513RD9EDLDVDA0LAQ" visible="1"/><polyline fill="none" points="306.406372,938.450928 306.406403,942.811401 306.406372,947.386047 306.406403,949.883667 306.406342,952.461487 306.406372,955.092773 306.406342,959.765503 306.406372,961.330933 306.406372,965.146484 " stroke-linecap="round" stroke-linejoin="round" stroke="#ff0000" stroke-width="1.00" fade-time="6" fade-enable="0" RotationPoint="(320.000000,240.000000)" transform="rotate(0.00,306.91,951.80)" xml:id="annotation.MMUR7A4BOT2JL1CLUB83BO3CD" visible="1"/><polyline fill="none" points="304.352783,919.969421 302.299316,919.969421 " stroke-linecap="round" stroke-linejoin="round" stroke="#ff0000" stroke-width="1.00" fade-time="6" fade-enable="0" RotationPoint="(320.000000,240.000000)" transform="rotate(0.00,303.33,920.47)" xml:id="annotation.1IKNA9E9DH0D13ONR7DTF7G63" visible="1"/><polyline fill="none" points="333.101929,899.434387 332.011749,902.704773 330.868073,907.352661 330.243683,910.189209 329.599243,913.221191 328.941467,916.383240 328.274780,919.632080 327.830322,923.167053 327.534027,926.892700 327.336487,930.745422 327.204803,934.226685 327.117004,937.460083 327.058441,940.528381 327.019440,943.486572 326.993439,946.371338 326.976105,949.207153 327.565277,953.575073 328.994873,958.985962 " stroke-linecap="round" stroke-linejoin="round" stroke="#ff0000" stroke-width="1.00" fade-time="6" fade-enable="0" RotationPoint="(320.000000,240.000000)" transform="rotate(0.00,330.04,929.21)" xml:id="annotation.6KALLARUV92L374J7BJM6PPCG" visible="1"/><polyline fill="none" points="349.529907,940.504456 349.529877,944.864990 349.529907,949.439575 349.529877,951.937195 349.758057,954.514954 350.138336,957.146057 350.941132,962.047058 351.155212,963.992859 351.583374,969.253479 " stroke-linecap="round" stroke-linejoin="round" stroke="#ff0000" stroke-width="1.00" fade-time="6" fade-enable="0" RotationPoint="(320.000000,240.000000)" transform="rotate(0.00,350.56,954.88)" xml:id="annotation.5385KVJP0P6KV1AFR9IQU6SCI" visible="1"/><polyline fill="none" points="343.369385,922.022888 345.422852,922.022888 " stroke-linecap="round" stroke-linejoin="round" stroke="#ff0000" stroke-width="1.00" fade-time="6" fade-enable="0" RotationPoint="(320.000000,240.000000)" transform="rotate(0.00,344.40,922.52)" xml:id="annotation.R0V1BSI39P7UT9QJ25RGI90FB" visible="1"/><polyline fill="none" points="378.278931,901.487854 376.098663,905.848389 375.456451,908.273743 375.028290,911.031494 374.742828,914.010803 374.324402,917.365906 373.817261,920.971802 373.250977,924.744629 372.645264,928.400757 372.013306,931.978943 371.363861,935.505310 370.930878,938.997009 370.642212,942.465576 370.449799,945.918823 370.549683,949.133667 370.844421,952.189697 371.269104,955.139587 371.740936,959.025696 372.118408,963.092957 " stroke-linecap="round" stroke-linejoin="round" stroke="#ff0000" stroke-width="1.00" fade-time="6" fade-enable="0" RotationPoint="(320.000000,240.000000)" transform="rotate(0.00,374.36,932.29)" xml:id="annotation.3M5IVRCNPT71RDO0KOVRFRQMS" visible="1"/><polyline fill="none" points="361.850952,936.397400 365.121368,935.307312 369.769196,934.772156 372.605743,934.629395 376.093994,934.534241 380.016663,934.470825 384.228912,934.428528 388.177917,934.628479 391.951447,934.989990 395.607971,935.459106 398.958313,935.771912 402.104553,935.980347 406.208801,936.211975 406.025513,936.273743 402.015503,936.969299 398.411591,938.248718 394.528137,940.338562 389.583588,945.170715 388.781525,947.037781 388.498840,950.937622 389.199219,952.707764 391.802734,955.891479 393.455292,956.694824 397.116821,956.978882 401.025818,955.736206 404.816681,953.434631 408.022644,950.130005 410.360199,946.379639 411.302948,944.421326 412.387787,943.571960 413.567383,943.462158 414.810120,943.845215 415.866760,945.013306 417.649231,948.744934 419.810425,952.837219 421.025635,954.886841 422.292114,955.568787 423.592712,955.338867 424.916168,954.501038 426.995087,950.527893 427.868927,947.871216 430.056732,943.094055 432.778351,939.145447 436.269592,936.630066 437.930756,936.096252 439.494537,935.968506 443.991089,936.397400 " stroke-linecap="round" stroke-linejoin="round" stroke="#ff0000" stroke-width="1.00" fade-time="6" fade-enable="0" RotationPoint="(320.000000,240.000000)" transform="rotate(0.00,402.92,945.70)" xml:id="annotation.189JF356SD68RAK74GRUOO0V5" visible="1"/><polyline fill="none" points="460.419067,942.557922 458.238800,944.738220 457.168335,948.242432 456.920776,952.614014 457.571320,956.838440 458.012573,959.780823 458.365601,963.092957 " stroke-linecap="round" stroke-linejoin="round" stroke="#ff0000" stroke-width="1.00" fade-time="6" fade-enable="0" RotationPoint="(320.000000,240.000000)" transform="rotate(0.00,458.67,952.83)" xml:id="annotation.EDLQJ8LUFT0QF4GPKIHCETEJI" visible="1"/><polyline fill="none" points="458.365601,917.915894 " stroke-linecap="round" stroke-linejoin="round" stroke="#ff0000" stroke-width="1.00" fade-time="6" fade-enable="0" RotationPoint="(320.000000,240.000000)" transform="rotate(0.00,458.87,918.42)" xml:id="annotation.O6N1O19VVD6HNFO6HT5A1KB0U" visible="1"/><polyline fill="none" points="495.328613,938.450928 490.968109,938.450928 487.001953,937.842468 482.957520,937.267761 478.878326,937.773010 477.288574,938.911621 474.913788,942.610596 474.645538,944.418335 475.564392,947.643982 478.647278,952.025452 481.754181,955.436096 483.541016,957.303894 483.819550,958.549194 483.092499,959.379211 481.695190,959.932678 478.317322,959.939148 474.762543,959.181396 473.175720,958.659912 468.633057,956.932434 " stroke-linecap="round" stroke-linejoin="round" stroke="#ff0000" stroke-width="1.00" fade-time="6" fade-enable="0" RotationPoint="(320.000000,240.000000)" transform="rotate(0.00,481.98,948.60)" xml:id="annotation.VDJARRI1HP6GJF0U5IP3KCIRG" visible="1"/><polyline fill="none" points="505.596191,952.825439 504.506012,956.095947 504.413086,956.146484 505.372406,952.085571 506.485413,948.389587 507.329803,947.814697 508.349060,948.115967 509.484924,949.001282 512.173706,953.517639 515.505493,958.101013 519.382874,962.349121 520.947815,962.825256 524.511963,962.137390 527.769226,959.702148 532.168518,955.091125 536.362183,950.226440 537.743408,948.354736 538.892334,947.791504 539.886475,948.100464 541.599487,950.269104 543.121399,953.514587 545.166748,957.238831 547.368835,961.175659 549.108032,965.206970 550.033081,968.063477 550.773193,971.307007 " stroke-linecap="round" stroke-linejoin="round" stroke="#ff0000" stroke-width="1.00" fade-time="6" fade-enable="0" RotationPoint="(320.000000,240.000000)" transform="rotate(0.00,527.59,959.55)" xml:id="annotation.5NEL6DVSHT6I14KSFRACK1OO4" visible="1"/><polyline fill="none" points="567.201172,938.450928 571.561768,938.450928 576.136414,937.234070 580.983582,934.943970 585.419617,931.644470 589.064331,927.287842 591.977112,922.309387 593.073364,919.704102 594.032349,917.054565 594.443481,914.375549 594.489380,911.676880 594.291809,908.965088 593.931946,906.244507 593.463867,903.518127 592.923706,900.787842 591.715027,895.928894 590.417236,892.172180 587.736206,889.166870 " stroke-linecap="round" stroke-linejoin="round" stroke="#ff0000" stroke-width="1.00" fade-time="6" fade-enable="0" RotationPoint="(320.000000,240.000000)" transform="rotate(0.00,580.85,913.81)" xml:id="annotation.JSIIVDS9S90VRFGUCKKTLARCR" visible="1"/><polyline fill="none" points="567.201172,915.862366 569.068848,911.172241 572.343262,906.993896 576.203674,902.637634 578.883911,899.032715 581.596252,895.148865 584.322876,891.369202 588.423523,886.447632 591.159912,882.710510 592.756714,881.668335 596.356201,881.118713 598.046204,881.747986 601.140930,884.272339 604.037415,887.676025 606.845947,891.470398 609.615234,895.438538 611.758728,897.658447 614.431763,899.434387 " stroke-linecap="round" stroke-linejoin="round" stroke="#ff0000" stroke-width="1.00" fade-time="6" fade-enable="0" RotationPoint="(320.000000,240.000000)" transform="rotate(0.00,590.82,898.49)" xml:id="annotation.R0DQ8ARQOP5OF3IFM444QL0GI" visible="1"/><polyline fill="none" points="554.880249,969.253479 558.530884,969.253479 561.420959,969.253479 564.488525,969.481689 567.674377,969.861877 570.939148,970.343628 574.484741,970.664734 578.217407,970.878784 582.074890,971.021545 585.330994,971.344788 588.186279,971.788513 590.774292,972.312500 593.412231,972.889954 596.083618,973.503174 598.777161,974.140076 603.595398,975.456177 605.838562,976.126587 607.562134,977.258118 610.085632,980.340637 611.967773,983.992310 613.336670,987.896912 613.701660,989.896484 614.431763,995.949036 " stroke-linecap="round" stroke-linejoin="round" stroke="#ff0000" stroke-width="1.00" fade-time="6" fade-enable="0" RotationPoint="(320.000000,240.000000)" transform="rotate(0.00,584.66,982.60)" xml:id="annotation.FVJ5N5ITLT2JP7S90KCSU3MEP" visible="1"/><polyline fill="none" points="595.950317,981.574463 597.589722,986.492859 598.808472,990.148987 601.327515,993.447266 605.985718,997.869690 610.256042,1002.070190 611.647949,1003.452332 613.260376,1004.145630 616.877319,1004.307312 618.343811,1003.574768 620.581726,1000.935303 622.336853,997.480713 623.877502,993.891785 624.607727,992.295898 626.752808,987.734985 " stroke-linecap="round" stroke-linejoin="round" stroke="#ff0000" stroke-width="1.00" fade-time="6" fade-enable="0" RotationPoint="(320.000000,240.000000)" transform="rotate(0.00,611.35,992.94)" xml:id="annotation.TTVO39GU7P5FJ342ASCMFKFB5" visible="1"/></g><polyline fill="none" points="76.414001,1400.489136 80.774513,1400.489136 85.349098,1400.489136 90.196312,1400.717285 94.632309,1401.579102 99.493988,1402.722900 102.068176,1403.347168 104.696960,1403.763550 107.362152,1404.041138 110.051613,1404.226074 112.757256,1404.349487 115.473686,1404.431519 118.197304,1404.486450 120.925713,1404.751099 123.657303,1405.155762 126.391045,1405.653809 129.354385,1405.985718 132.470764,1406.207031 135.689224,1406.354614 138.975677,1406.452881 142.307465,1406.518555 145.669495,1406.562256 148.595337,1406.363281 151.230408,1406.002319 156.211777,1405.221191 158.817871,1405.012939 161.467941,1404.874023 164.147324,1404.781372 166.846252,1404.719604 169.558228,1404.678589 172.507050,1404.651001 175.613739,1404.632690 178.825714,1404.620483 181.879684,1404.612305 184.828308,1404.606934 187.706741,1404.603271 190.538391,1404.600952 193.338821,1404.599243 196.118454,1404.598267 198.884216,1404.597534 201.640717,1404.597046 204.391052,1404.596680 207.137268,1404.824707 209.880753,1405.204712 212.622391,1405.686401 215.362854,1406.007446 218.102463,1406.221436 220.841537,1406.364136 223.580246,1406.459351 226.318741,1406.522827 229.057053,1406.565063 231.795258,1406.821411 234.533386,1407.220337 237.271484,1407.714722 240.009552,1408.044189 242.747635,1408.263916 245.485718,1408.410278 248.223724,1408.507935 250.961746,1408.572998 253.699768,1408.616333 256.437805,1408.873413 259.175751,1409.272949 261.913757,1409.767456 264.879944,1410.097168 267.998230,1410.316895 271.217926,1410.463501 274.277069,1410.561279 277.229156,1410.626343 280.109924,1410.669678 282.943024,1410.926758 285.744476,1411.326538 288.524750,1411.821045 291.290955,1412.150757 294.047729,1412.370605 296.798279,1412.517212 299.544617,1412.386719 302.288208,1412.071533 305.029877,1411.633301 307.770355,1411.569214 310.510040,1411.754639 313.249146,1412.106445 315.987854,1412.341064 318.726379,1412.497437 321.464691,1412.601685 326.332672,1412.109009 331.006042,1411.357788 333.530029,1411.157471 336.125336,1411.023926 338.768188,1410.934814 341.442749,1410.875488 344.138458,1410.835815 347.076447,1410.581177 350.175903,1410.183350 353.383057,1409.689941 356.433868,1409.360962 359.380371,1409.141724 362.257416,1408.995483 365.088074,1408.898071 367.887878,1408.833130 370.667114,1408.789795 373.432556,1408.760864 376.188843,1408.741699 378.939056,1408.728882 383.820190,1408.106079 388.499390,1407.296875 391.024933,1407.081177 393.621277,1406.937378 396.493011,1406.841431 399.548370,1406.777588 402.726105,1406.734985 405.757263,1406.478271 408.690613,1406.079102 411.558929,1405.584839 414.611969,1405.255249 417.788147,1405.035522 421.046448,1404.889038 424.359467,1404.791382 427.708984,1404.726318 431.082794,1404.682861 434.244751,1404.654053 437.265381,1404.634766 440.191772,1404.621826 443.283508,1404.613281 446.485535,1404.607544 449.761017,1404.603760 452.857391,1404.601196 455.834320,1404.599487 458.731598,1404.598389 461.347595,1404.369507 466.079559,1403.506714 471.072784,1402.971069 473.682068,1402.828247 476.334259,1402.733032 479.015045,1402.669434 481.714874,1402.627197 486.540039,1401.971680 491.194458,1401.148193 493.713318,1400.928467 498.033264,1400.684448 501.489136,1400.489136 " stroke-linecap="round" stroke-linejoin="round" stroke="#009300" stroke-width="1.00" fade-time="6" fade-enable="0" RotationPoint="(320.000000,240.000000)" transform="rotate(0.00,288.95,1406.55)" xml:id="annotation.LUEMM2G4VT7C73VFHL2OTL84L" visible="1"/><g class="group" xml:id="annotation.SKI6CNDQQP34B1B9UO5HV7MKI" xbk_transform="rotate(0.00,623.67,1380.45)"><polyline fill="none" points="577.468750,1373.793579 577.468750,1373.793701 575.415283,1377.900635 " stroke-linecap="round" stroke-linejoin="round" stroke="#009300" stroke-width="1.00" fade-time="6" fade-enable="0" RotationPoint="(320.000000,240.000000)" transform="rotate(0.00,576.44,1375.85)" xml:id="annotation.KUQ0DOKNH549325M1GE8DJ36Q" visible="1"/><polyline fill="none" points="608.271240,1386.114624 " stroke-linecap="round" stroke-linejoin="round" stroke="#009300" stroke-width="1.00" fade-time="6" fade-enable="0" RotationPoint="(320.000000,240.000000)" transform="rotate(0.00,608.77,1386.61)" xml:id="annotation.I7S664FT0P76T8AVMI2VOJVTN" visible="1"/><polyline fill="none" points="637.020386,1386.114624 " stroke-linecap="round" stroke-linejoin="round" stroke="#009300" stroke-width="1.00" fade-time="6" fade-enable="0" RotationPoint="(320.000000,240.000000)" transform="rotate(0.00,637.52,1386.61)" xml:id="annotation.NNV0OSRQRT4TPCCP8NSUB86P9" visible="1"/><polyline fill="none" points="669.876343,1386.114624 671.929932,1386.114624 " stroke-linecap="round" stroke-linejoin="round" stroke="#009300" stroke-width="1.00" fade-time="6" fade-enable="0" RotationPoint="(320.000000,240.000000)" transform="rotate(0.00,670.90,1386.61)" xml:id="annotation.7E74DBMAV17GN4OC82HRJ7MJN" visible="1"/></g></g></svg>