<?xml version="1.0" encoding="UTF-8" standalone="yes"?><svg width="800" height="673" xml:id="page.ERP8CAD1HD0LV9VVLMKRT2V5V"><title>Sep 2-10:12 AM</title><g class="foreground"><g class="group" xml:id="annotation.8VTUU94SQT24F4PIA3SCJL9G2" xbk_transform="rotate(0.00,94.41,193.37)"><polyline fill="none" points="75.000000,164.000000 74.208504,168.943756 74.061775,173.687042 74.018303,177.907288 74.005424,182.268829 74.001610,186.783356 74.296776,190.935822 74.791634,194.980988 74.938263,198.994370 75.278000,202.998337 75.786072,207.592102 76.232910,212.582840 76.772713,216.876404 77.010094,219.167297 78.000000,221.000000 " stroke-linecap="round" stroke-linejoin="round" stroke="#000000" stroke-width="1.00" fade-time="6" fade-enable="0" RotationPoint="(320.000000,240.000000)" transform="rotate(0.00,76.00,192.50)" xml:id="annotation.67764RBD816ED54A9LF13RO64" visible="1"/><polyline fill="none" points="113.000000,198.000000 109.008232,198.000000 104.582680,198.000000 100.407211,198.111115 96.466339,198.798340 92.092117,200.026016 88.018196,201.338470 87.678795,202.003418 87.785858,202.891174 88.190575,203.927444 89.529144,205.375168 94.180794,208.271622 97.930107,209.660736 102.399040,211.430344 106.587372,213.250961 111.391747,215.214172 113.062996,216.539642 114.546516,218.239838 114.808784,219.048782 114.761406,219.810303 114.507607,220.540207 113.782845,221.026810 108.924179,222.104065 104.977531,222.734543 100.993347,222.625061 96.998032,222.185211 92.197136,221.505722 90.000000,221.000000 " stroke-linecap="round" stroke-linejoin="round" stroke="#000000" stroke-width="1.00" fade-time="6" fade-enable="0" RotationPoint="(320.000000,240.000000)" transform="rotate(0.00,101.24,210.37)" xml:id="annotation.S67QF7N9790JF5NDLQDANQS7R" visible="1"/></g><g class="group" xml:id="annotation.U3H3BMH4GP7A5D38SREQ86324" xbk_transform="rotate(0.00,423.00,203.00)"><polyline fill="none" points="180.000000,179.000000 178.912216,183.647461 178.270294,187.895554 177.487488,192.265350 176.144455,197.078629 175.339081,201.726990 175.100464,205.919113 175.029770,209.976028 175.536743,214.797745 176.393585,219.001816 177.000000,223.000000 " stroke-linecap="round" stroke-linejoin="round" stroke="#000000" stroke-width="1.00" fade-time="6" fade-enable="0" RotationPoint="(320.000000,240.000000)" transform="rotate(0.00,177.51,201.00)" xml:id="annotation.78US4B1CHH0C97PI31IDM24TP" visible="1"/><polyline fill="none" points="163.000000,210.000000 165.839508,208.403290 169.299042,207.216278 172.836609,206.244278 176.260712,205.330780 179.634384,204.184052 182.985657,202.933655 187.403152,200.980347 191.882111,198.329468 194.965057,195.801331 196.927917,192.941132 198.213211,189.982559 198.766891,185.402237 198.400070,181.415466 197.933380,180.943649 197.288910,180.962433 196.525940,181.308289 195.381897,182.581482 193.742111,186.645721 193.219894,190.956757 193.065155,195.752609 192.488449,200.692123 192.217087,204.307617 192.096481,207.914490 192.139694,212.443787 192.695724,216.711731 193.020950,221.223236 193.490799,223.654770 193.882751,224.103180 194.366287,224.068787 194.910858,223.712524 196.739029,220.556778 198.157227,216.634109 201.117477,212.014160 203.957367,207.529541 206.658234,204.437927 209.725906,202.895187 210.817276,202.819016 212.918808,203.326965 214.667618,204.886047 216.074509,207.060471 217.491226,210.894455 218.614685,215.499588 219.651260,220.271484 220.996964,225.033051 222.000000,227.000000 " stroke-linecap="round" stroke-linejoin="round" stroke="#000000" stroke-width="1.00" fade-time="6" fade-enable="0" RotationPoint="(320.000000,240.000000)" transform="rotate(0.00,192.50,203.97)" xml:id="annotation.OCBR3T56BP5JD4J8MC3LL0KL9" visible="1"/><polyline fill="none" points="236.000000,207.000000 236.000000,211.351151 236.000000,215.104050 236.296310,218.438248 237.000000,221.000000 " stroke-linecap="round" stroke-linejoin="round" stroke="#000000" stroke-width="1.00" fade-time="6" fade-enable="0" RotationPoint="(320.000000,240.000000)" transform="rotate(0.00,236.50,214.00)" xml:id="annotation.R3M8I71E2T6HD9H5A476ONB22" visible="1"/><polyline fill="none" points="232.000000,186.000000 230.000000,184.000000 " stroke-linecap="round" stroke-linejoin="round" stroke="#000000" stroke-width="1.00" fade-time="6" fade-enable="0" RotationPoint="(320.000000,240.000000)" transform="rotate(0.00,231.00,185.00)" xml:id="annotation.4QKJJ1E8A57T7CQV2VADBPB5M" visible="1"/><polyline fill="none" points="273.000000,198.000000 269.440308,197.208511 264.556122,197.041199 260.633911,197.543076 256.656952,198.395477 255.660202,198.930313 254.256378,200.413483 254.170914,201.164551 254.447266,201.887482 256.428833,203.966660 260.615570,206.660080 264.947815,208.664719 269.749969,210.666092 274.160492,212.666489 279.097961,215.999969 280.821320,217.444443 281.957642,219.197525 282.082855,220.020569 281.944122,220.791489 281.629425,221.527664 280.864044,222.018448 275.940247,222.806107 271.685974,222.942551 267.203247,222.686691 262.763916,221.907166 258.226349,220.972488 253.770782,219.991852 249.820969,218.997589 247.000000,218.000000 " stroke-linecap="round" stroke-linejoin="round" stroke="#000000" stroke-width="1.00" fade-time="6" fade-enable="0" RotationPoint="(320.000000,240.000000)" transform="rotate(0.00,264.54,209.99)" xml:id="annotation.KT5EJ3K8NL7SH3RVGUHSBN00F" visible="1"/><polyline fill="none" points="358.000000,201.000000 354.806580,201.222229 350.192261,203.175598 345.823700,206.356461 342.354034,210.200577 340.870331,213.590302 340.683136,215.817902 341.081390,217.807968 341.999146,219.433167 342.777191,219.955444 344.826904,220.535751 348.479614,220.331573 352.376678,218.505661 356.830109,215.022690 358.146698,213.565628 360.193573,209.617889 362.174042,205.122055 362.449371,204.970245 362.632935,205.424606 363.458344,209.614731 365.267517,213.812790 366.000000,217.000000 " stroke-linecap="round" stroke-linejoin="round" stroke="#000000" stroke-width="1.00" fade-time="6" fade-enable="0" RotationPoint="(320.000000,240.000000)" transform="rotate(0.00,353.34,210.77)" xml:id="annotation.7UBFDOFVML0G51CHDD3MG8JJP" visible="1"/><polyline fill="none" points="375.000000,217.000000 375.296295,212.648849 376.020599,210.066162 378.413513,205.710968 380.665253,203.315979 383.443787,202.029327 386.308350,201.679703 388.692596,202.265045 390.567047,203.562241 392.029816,205.249878 393.477966,208.296249 394.721863,212.507523 396.337341,216.508392 397.638641,220.310303 398.000000,222.000000 " stroke-linecap="round" stroke-linejoin="round" stroke="#000000" stroke-width="1.00" fade-time="6" fade-enable="0" RotationPoint="(320.000000,240.000000)" transform="rotate(0.00,386.50,211.84)" xml:id="annotation.NV3ERVJ8VD0HB360SVNA93MT7" visible="1"/><polyline fill="none" points="461.000000,206.000000 459.938263,204.407410 458.231812,203.329224 456.102997,202.701874 453.030518,202.973373 449.786835,203.979767 445.739288,206.179199 442.984467,208.509888 441.474579,210.708099 440.951630,213.166565 441.200714,215.629578 442.052155,217.835358 443.763916,219.334229 446.006165,220.259644 448.484222,220.670959 451.363373,219.964859 456.145874,217.326385 458.512329,214.800415 460.615601,210.849472 461.792114,208.451599 462.194733,208.078842 462.463165,208.274796 463.424805,212.313553 464.795807,216.753281 468.789307,221.652023 472.271118,225.021805 476.000000,227.000000 " stroke-linecap="round" stroke-linejoin="round" stroke="#000000" stroke-width="1.00" fade-time="6" fade-enable="0" RotationPoint="(320.000000,240.000000)" transform="rotate(0.00,458.48,214.85)" xml:id="annotation.4BTOFV75M55OHFTRBTJCPCD86" visible="1"/><polyline fill="none" points="502.000000,197.000000 500.407410,195.938263 497.293549,195.278000 493.945251,195.419861 490.197906,195.853271 485.700623,196.833069 482.318665,198.481415 480.623108,199.732483 478.950043,202.217026 477.750641,205.595154 477.753296,209.941772 478.779236,212.529678 480.346344,214.568741 482.153931,215.845383 486.717651,217.570282 491.536835,218.980972 496.000000,220.000000 " stroke-linecap="round" stroke-linejoin="round" stroke="#000000" stroke-width="1.00" fade-time="6" fade-enable="0" RotationPoint="(320.000000,240.000000)" transform="rotate(0.00,489.88,207.64)" xml:id="annotation.F19Q4R668P2SV0G3DGIGDM53L" visible="1"/><polyline fill="none" points="526.000000,202.000000 524.407410,201.469147 521.293518,201.669861 519.426758,202.445862 515.886780,205.285583 513.497314,208.615494 511.912750,212.416931 511.830719,213.500198 512.332153,215.296371 513.592041,216.835419 514.394714,217.556946 517.064270,218.358627 521.722717,218.513657 526.000000,218.000000 " stroke-linecap="round" stroke-linejoin="round" stroke="#000000" stroke-width="1.00" fade-time="6" fade-enable="0" RotationPoint="(320.000000,240.000000)" transform="rotate(0.00,518.92,209.99)" xml:id="annotation.7FK2I211ID3ST5GFD6J96R75G" visible="1"/><polyline fill="none" points="550.000000,203.000000 548.514343,205.506180 547.035767,210.165833 546.690491,211.443878 546.899536,213.752838 547.844238,215.890137 549.375244,217.951172 551.759399,219.089417 553.172913,219.392944 555.928711,218.841309 559.978882,216.656677 563.697510,213.601990 566.614075,209.882065 569.590454,205.705093 570.171387,205.470047 570.669800,205.646698 571.519897,206.731873 573.313965,211.627243 575.461243,215.926361 576.723511,217.967270 577.260132,218.311508 577.728943,218.207672 578.152649,217.805115 579.742065,213.167267 581.343384,208.740936 582.682007,204.997299 584.547729,200.801666 586.243469,198.837784 589.603027,197.013672 591.823547,196.746811 595.000000,197.000000 " stroke-linecap="round" stroke-linejoin="round" stroke="#000000" stroke-width="1.00" fade-time="6" fade-enable="0" RotationPoint="(320.000000,240.000000)" transform="rotate(0.00,570.85,208.07)" xml:id="annotation.GV4V99OU055KJ4T54N2RPC67M" visible="1"/><polyline fill="none" points="619.000000,204.000000 615.695496,202.625504 611.601135,202.296448 607.118713,203.124405 605.163879,203.833069 600.867981,206.732483 599.533936,208.325546 599.022644,209.217026 598.903992,210.033569 599.047119,210.800156 599.364746,211.533432 600.606567,212.644470 602.380676,213.397552 604.650696,213.732239 608.427368,212.858948 611.299500,211.192780 614.088684,208.229965 616.495361,204.006409 618.615906,200.829071 619.188354,200.774933 619.681152,201.294388 621.270386,206.119858 622.845581,210.270081 625.250488,213.783722 628.074219,216.405060 629.160583,216.825592 631.552795,216.996567 634.867493,215.937241 638.894775,212.947830 640.286560,211.421249 642.990723,207.116135 645.664795,202.492081 647.135254,198.614944 648.805542,194.651337 650.176941,190.662109 651.635803,185.908569 652.319580,182.996399 652.104980,180.739136 651.736694,179.826096 651.380005,179.550735 651.031128,179.700500 650.236084,180.977997 648.211182,185.732285 647.358887,189.216980 647.106323,193.953186 647.158386,197.645859 647.812378,201.932098 648.398071,205.414276 649.883362,209.530167 651.730896,212.329941 656.533264,216.637115 659.157959,218.127045 663.639404,218.741333 667.596924,218.392487 670.880554,217.585434 672.946899,216.075012 676.458618,212.545685 677.314941,210.205490 677.473267,207.535782 676.802979,205.238144 675.468018,203.698425 674.645325,203.132294 672.546082,202.799545 670.131531,203.133133 667.576965,204.022141 665.848999,205.454285 665.232666,206.302841 664.365234,210.151459 664.687927,211.434311 666.231628,213.748596 670.734131,217.879089 672.437378,219.168503 676.855957,220.901581 681.647644,223.229843 683.000000,224.000000 " stroke-linecap="round" stroke-linejoin="round" stroke="#000000" stroke-width="1.00" fade-time="6" fade-enable="0" RotationPoint="(320.000000,240.000000)" transform="rotate(0.00,640.95,201.78)" xml:id="annotation.3DID0ARPQ93IP3VMA2IG6KOJV" visible="1"/><polyline fill="none" points="644.000000,190.000000 648.351135,189.208511 652.400330,189.358078 656.822327,190.106094 660.354736,191.031433 663.000000,192.000000 " stroke-linecap="round" stroke-linejoin="round" stroke="#000000" stroke-width="1.00" fade-time="6" fade-enable="0" RotationPoint="(320.000000,240.000000)" transform="rotate(0.00,653.50,190.60)" xml:id="annotation.MBHPSA73Q523T5QKPQS87FQOR" visible="1"/></g><g class="group" xml:id="annotation.FE05GGO1AH3H98F4CACMO4MGI" xbk_transform="rotate(0.00,189.87,299.80)"><polyline fill="none" points="98.000000,268.000000 97.423866,271.304535 97.779915,275.621094 97.934784,280.307495 97.980675,284.671356 98.105385,289.322388 98.796661,293.564667 99.927406,297.636444 102.886894,302.401428 103.591263,303.267609 104.394173,303.622864 105.262779,303.637482 106.175186,303.424988 108.077858,301.707397 110.953651,297.139740 113.390022,292.916504 115.714897,288.213959 117.277016,284.042267 119.342789,279.543304 121.000000,277.000000 " stroke-linecap="round" stroke-linejoin="round" stroke="#000000" stroke-width="1.00" fade-time="6" fade-enable="0" RotationPoint="(320.000000,240.000000)" transform="rotate(0.00,109.21,285.82)" xml:id="annotation.LHS52UH2DT3TDBC0SH9POV0LK" visible="1"/><polyline fill="none" points="133.000000,286.000000 133.000000,290.647461 133.000000,294.599243 133.000000,298.000000 " stroke-linecap="round" stroke-linejoin="round" stroke="#000000" stroke-width="1.00" fade-time="6" fade-enable="0" RotationPoint="(320.000000,240.000000)" transform="rotate(0.00,133.50,292.00)" xml:id="annotation.M6CF66VSVP6HTD8CLD05DTKLR" visible="1"/><polyline fill="none" points="130.000000,266.000000 127.498093,261.216278 127.000000,260.000000 " stroke-linecap="round" stroke-linejoin="round" stroke="#000000" stroke-width="1.00" fade-time="6" fade-enable="0" RotationPoint="(320.000000,240.000000)" transform="rotate(0.00,128.50,263.00)" xml:id="annotation.AV3IUP4MCL7F9FVFCLG4QAJPS" visible="1"/><polyline fill="none" points="150.000000,296.000000 154.843521,291.355377 157.104889,287.070190 157.305878,284.734894 157.203918,283.489929 156.691498,282.659973 155.905457,282.106628 154.936951,281.737762 153.846863,281.825195 150.411407,283.429688 148.664337,284.709503 146.431412,288.271942 144.893265,291.784302 144.693298,294.200409 145.085907,296.755737 146.001144,299.372925 147.444962,301.424988 148.296646,302.283325 150.428146,303.237030 152.745834,303.549805 156.035812,302.990051 159.442703,301.466187 162.000000,299.000000 " stroke-linecap="round" stroke-linejoin="round" stroke="#000000" stroke-width="1.00" fade-time="6" fade-enable="0" RotationPoint="(320.000000,240.000000)" transform="rotate(0.00,153.35,292.64)" xml:id="annotation.5AP5Q8DHOP69V89O6AOCIEK8J" visible="1"/><polyline fill="none" points="173.000000,285.000000 170.216278,288.314575 168.829514,291.093201 168.245773,294.558472 168.603699,298.400024 169.416458,300.437042 169.944305,301.291351 170.740646,301.860931 172.810654,302.493744 175.943909,302.319122 179.988922,300.910797 181.995087,301.367737 183.701508,302.607880 185.311783,304.047943 187.138565,305.058350 189.654175,305.285187 191.102798,305.190094 193.601242,304.195618 194.734161,303.463745 196.585556,301.169067 197.926910,298.186249 198.523071,294.638336 198.491745,291.135559 197.996338,287.949127 197.035416,285.421844 195.571289,283.780090 193.000000,282.000000 " stroke-linecap="round" stroke-linejoin="round" stroke="#000000" stroke-width="1.00" fade-time="6" fade-enable="0" RotationPoint="(320.000000,240.000000)" transform="rotate(0.00,183.38,293.64)" xml:id="annotation.FE3MFE813P3G79KUMSALHKKLJ" visible="1"/><polyline fill="none" points="255.000000,289.000000 252.876541,289.530884 249.963409,291.453583 247.520020,293.603516 245.919525,296.709686 245.704971,298.870972 245.803314,299.914001 246.801453,301.665466 247.534302,302.443634 249.533752,303.308289 250.689163,303.538849 253.158142,303.202454 255.625839,302.201111 257.833710,300.644928 259.037201,298.545898 259.460999,296.020386 259.074860,291.697388 257.948944,287.137787 257.199524,285.172363 254.271835,281.399933 253.403458,281.044403 251.253387,280.945648 250.391159,281.297089 249.136810,282.576477 248.801544,284.552490 248.867691,285.701660 249.356247,286.690002 251.084259,288.380737 253.926346,289.280365 258.681885,289.786774 262.609436,289.640503 267.453735,288.064789 271.892059,285.613617 274.856903,283.539825 278.603943,278.939392 280.648071,275.451172 281.695435,272.015320 282.309082,268.117920 282.211456,264.533905 280.470062,259.923615 279.646698,259.060181 278.764465,258.595673 277.842987,258.397125 277.006409,258.486969 275.484344,259.179413 274.363403,261.709351 273.403961,266.617584 273.119690,271.479309 273.053192,275.213013 273.023651,279.094666 272.714233,283.042084 272.317413,287.018707 272.141083,291.008331 272.062683,295.003693 271.916748,299.001648 271.481506,303.000732 270.621399,307.000336 269.609528,311.111267 268.789429,315.530914 267.758270,319.495239 266.559235,322.997864 264.634827,327.468506 262.546143,331.607941 259.754425,335.427032 255.181946,338.820984 251.035950,341.100433 246.418060,341.202576 242.420151,340.529144 239.655350,339.095062 237.428741,336.201019 235.892471,332.528717 235.264435,328.094910 235.609207,323.793549 236.415070,319.173401 237.357544,314.816803 239.000000,310.000000 " stroke-linecap="round" stroke-linejoin="round" stroke="#000000" stroke-width="1.00" fade-time="6" fade-enable="0" RotationPoint="(320.000000,240.000000)" transform="rotate(0.00,258.79,299.80)" xml:id="annotation.O59RMITQOD5JRD5BKBKN6TVCD" visible="1"/></g><g class="group" xml:id="annotation.NH3DRQBEKD2SJ1C94FSEP3IAP" xbk_transform="rotate(0.00,460.24,284.50)"><polyline fill="none" points="331.000000,259.000000 330.888885,263.102875 330.469116,266.490173 329.608154,271.083496 328.973999,274.777832 328.432861,278.679047 328.017151,283.262939 327.233856,288.150726 326.515350,292.832245 326.229034,294.925446 326.000000,298.000000 " stroke-linecap="round" stroke-linejoin="round" stroke="#000000" stroke-width="1.00" fade-time="6" fade-enable="0" RotationPoint="(320.000000,240.000000)" transform="rotate(0.00,328.50,278.50)" xml:id="annotation.M7FP9D388D19P8VB3EV11NGNA" visible="1"/><polyline fill="none" points="317.000000,288.000000 321.846344,287.703705 325.969666,286.608124 330.792328,285.210663 335.728516,282.909912 339.946411,280.315552 343.905151,275.909851 347.209717,271.675385 348.909729,267.639557 349.273163,266.426392 349.293213,265.839783 349.084351,265.670990 348.722900,265.780640 347.683350,269.120209 347.202484,273.270172 346.529144,277.314606 346.156799,281.327789 346.046448,285.331696 346.013733,289.863708 346.534943,293.663330 347.023285,294.220001 347.682190,294.368896 348.454803,294.245941 350.202118,292.924133 351.978729,290.744080 354.339355,286.726624 356.150818,284.804443 356.878326,284.647400 357.474457,284.987152 360.284698,289.817230 362.517151,294.260193 365.571289,298.322998 368.700165,300.564819 373.503754,301.574768 378.087524,300.812286 381.198792,299.178955 383.528046,297.287598 385.094757,294.788910 385.731781,291.406586 385.288208,289.180725 384.858795,288.120483 384.128082,287.413666 382.131012,286.628296 380.058228,286.871857 378.136993,287.831940 376.542358,289.369751 376.250458,290.357605 376.518738,292.640411 377.234711,293.649170 380.674469,296.019501 385.528290,297.872192 390.000000,299.000000 " stroke-linecap="round" stroke-linejoin="round" stroke="#000000" stroke-width="1.00" fade-time="6" fade-enable="0" RotationPoint="(320.000000,240.000000)" transform="rotate(0.00,353.50,283.62)" xml:id="annotation.CPR24NKFP94ANAKLI2FC2L7EU" visible="1"/><polyline fill="none" points="431.000000,293.000000 435.846344,291.912201 440.500519,290.118469 443.851990,287.738800 444.345764,286.825867 444.452759,285.883911 444.301819,284.922607 443.756744,284.281738 441.965973,283.569672 439.392303,283.845795 435.412537,284.954315 433.294464,285.757477 430.852661,287.570129 428.832886,290.280029 427.888672,292.605927 427.987549,294.824829 428.772217,296.811066 429.861725,298.434540 433.317047,300.597900 436.881653,301.080536 440.614044,300.924683 444.589355,300.212250 448.918884,298.976074 451.383362,297.992920 453.000000,297.000000 " stroke-linecap="round" stroke-linejoin="round" stroke="#000000" stroke-width="1.00" fade-time="6" fade-enable="0" RotationPoint="(320.000000,240.000000)" transform="rotate(0.00,440.44,292.33)" xml:id="annotation.4420DCMBV53TREEUUFPCGHIAL" visible="1"/><polyline fill="none" points="460.000000,286.000000 458.938263,287.061737 458.416992,289.064453 458.123535,293.019104 458.277100,295.564056 459.612946,298.759705 460.790955,300.411743 462.647827,301.590424 463.765228,302.060272 466.191956,302.286041 467.461304,302.190704 469.760590,300.899536 473.952728,296.449280 476.393951,291.977631 477.474731,288.227936 477.896210,284.164368 478.000000,283.000000 " stroke-linecap="round" stroke-linejoin="round" stroke="#000000" stroke-width="1.00" fade-time="6" fade-enable="0" RotationPoint="(320.000000,240.000000)" transform="rotate(0.00,468.06,292.64)" xml:id="annotation.8EIGD7A5V51J71EUF23N3DF37" visible="1"/><polyline fill="none" points="484.000000,292.000000 488.175598,293.391876 491.582886,293.819794 492.499725,293.546539 493.222015,293.031036 493.814667,292.354034 493.876434,291.680450 493.584320,291.009186 493.056213,290.339478 491.284241,289.595337 488.904114,289.375702 484.774078,289.987854 482.825531,290.957550 480.479156,293.283722 480.208344,294.300262 480.500000,296.614929 481.666656,298.532593 483.185181,299.903351 486.000000,301.000000 " stroke-linecap="round" stroke-linejoin="round" stroke="#000000" stroke-width="1.00" fade-time="6" fade-enable="0" RotationPoint="(320.000000,240.000000)" transform="rotate(0.00,487.04,295.19)" xml:id="annotation.HOSBJ1KIUH42F6H5IIQB76VG0" visible="1"/><polyline fill="none" points="501.000000,305.000000 500.312775,302.382721 500.203796,298.508453 500.572052,296.226013 502.465790,292.536102 505.138031,289.158844 508.040894,287.108795 510.018188,286.789093 511.012115,286.859406 513.005432,287.826385 514.780212,289.367279 516.404053,292.219940 517.588806,295.941681 518.643616,300.291382 519.770935,303.678925 522.000000,307.000000 " stroke-linecap="round" stroke-linejoin="round" stroke="#000000" stroke-width="1.00" fade-time="6" fade-enable="0" RotationPoint="(320.000000,240.000000)" transform="rotate(0.00,511.10,296.89)" xml:id="annotation.O8D3E0H79L3CH549A5ALUK2J2" visible="1"/><polyline fill="none" points="535.000000,268.000000 534.312805,270.617279 533.981567,274.602661 533.340210,278.647705 532.989685,282.661011 532.231506,286.553864 530.979858,290.911865 530.290283,294.566498 530.086060,298.871552 530.000000,303.000000 " stroke-linecap="round" stroke-linejoin="round" stroke="#000000" stroke-width="1.00" fade-time="6" fade-enable="0" RotationPoint="(320.000000,240.000000)" transform="rotate(0.00,532.50,285.50)" xml:id="annotation.0LEDSIHQD17T1C0CNEU81TR6D" visible="1"/><polyline fill="none" points="524.000000,289.000000 528.054871,287.120728 531.312561,286.332062 535.388916,285.802094 540.000000,285.000000 " stroke-linecap="round" stroke-linejoin="round" stroke="#000000" stroke-width="1.00" fade-time="6" fade-enable="0" RotationPoint="(320.000000,240.000000)" transform="rotate(0.00,532.00,287.00)" xml:id="annotation.PRKE4AD41970HA7H7HNNCCNBM" visible="1"/><polyline fill="none" points="560.000000,285.000000 555.648865,283.912201 553.177246,283.516541 550.597290,283.711060 548.561768,284.760468 547.707825,285.506989 547.360779,286.226868 547.351624,286.929016 547.934021,288.301788 549.622375,290.323975 554.081970,294.196289 558.085999,297.589020 561.729187,300.347382 562.041687,301.009369 561.805542,301.561798 561.203674,302.041199 558.757202,302.277588 554.520630,301.785950 550.102844,300.624390 545.555237,299.324982 543.000000,298.000000 " stroke-linecap="round" stroke-linejoin="round" stroke="#000000" stroke-width="1.00" fade-time="6" fade-enable="0" RotationPoint="(320.000000,240.000000)" transform="rotate(0.00,552.52,292.90)" xml:id="annotation.31HOLNK0GP5AV4ID9HKO58TA2" visible="1"/><polyline fill="none" points="585.000000,289.000000 583.608154,293.706451 582.210632,297.830933 579.804138,302.662231 578.000000,307.000000 " stroke-linecap="round" stroke-linejoin="round" stroke="#000000" stroke-width="1.00" fade-time="6" fade-enable="0" RotationPoint="(320.000000,240.000000)" transform="rotate(0.00,581.50,298.00)" xml:id="annotation.HJ0TB1NOKD5VV1LTARECAFP37" visible="1"/><polyline fill="none" points="586.000000,290.000000 587.592590,288.938263 591.768188,287.747131 595.635010,286.690491 599.422729,284.612030 602.298096,281.354156 603.243530,278.564819 603.479553,274.463654 602.990906,272.317169 602.033020,270.622437 600.570190,269.424805 595.851135,267.333588 595.000000,267.000000 " stroke-linecap="round" stroke-linejoin="round" stroke="#000000" stroke-width="1.00" fade-time="6" fade-enable="0" RotationPoint="(320.000000,240.000000)" transform="rotate(0.00,594.74,278.50)" xml:id="annotation.EEFV2DMDAT77LETS3E9DRT022" visible="1"/><polyline fill="none" points="580.000000,309.000000 580.000000,310.000000 " stroke-linecap="round" stroke-linejoin="round" stroke="#000000" stroke-width="1.00" fade-time="6" fade-enable="0" RotationPoint="(320.000000,240.000000)" transform="rotate(0.00,580.50,309.50)" xml:id="annotation.NS0DC9ONL11D7B8LDKMB91FQU" visible="1"/></g><g class="group" xml:id="annotation.QIE77GK81L2SV2KFF9FVDRJV6" xbk_transform="rotate(0.00,331.27,395.92)"><polyline fill="none" points="32.000000,363.000000 30.608141,367.175568 28.634531,371.833038 27.422577,375.715942 26.470886,379.681274 26.028410,383.559906 25.531145,385.804413 25.828657,388.209351 26.701624,390.537506 27.830351,392.312958 28.664677,392.764191 30.776894,392.969269 34.464756,391.929169 39.138020,389.243042 43.558128,387.183807 44.594307,387.011444 46.338207,387.412476 47.854019,388.627777 50.637833,392.654877 54.664139,397.577850 57.727646,399.640350 60.175247,400.099426 61.450165,400.066254 63.755630,399.140564 64.837090,398.427032 66.631302,395.856476 68.298164,391.253784 68.792053,387.075195 68.642090,383.022278 67.893951,379.006592 66.672279,375.298248 64.268600,371.589783 61.000000,368.000000 " stroke-linecap="round" stroke-linejoin="round" stroke="#000000" stroke-width="1.00" fade-time="6" fade-enable="0" RotationPoint="(320.000000,240.000000)" transform="rotate(0.00,47.16,381.55)" xml:id="annotation.HSTSAULVVP2K3EURB9HQ76RCC" visible="1"/><polyline fill="none" points="88.000000,379.000000 86.407410,377.938293 84.144035,377.713318 81.619576,378.094818 79.756851,379.005096 76.927948,381.297821 74.509514,384.619110 73.447258,388.417969 73.631508,389.500854 74.725113,391.296661 76.618568,392.539246 77.745712,393.026184 78.941589,393.017456 81.455521,392.118866 85.840500,388.971771 86.560333,388.314514 88.104294,385.266052 89.510315,380.941467 89.743805,377.994995 89.606979,377.996674 88.589027,380.394379 88.705383,384.709442 89.443573,388.617615 91.509720,393.060760 92.000000,394.000000 " stroke-linecap="round" stroke-linejoin="round" stroke="#000000" stroke-width="1.00" fade-time="6" fade-enable="0" RotationPoint="(320.000000,240.000000)" transform="rotate(0.00,82.72,385.86)" xml:id="annotation.A5EFKVEDL14KT9UEI4EBFEPTG" visible="1"/><polyline fill="none" points="105.000000,379.000000 103.514404,380.707794 102.747139,382.314606 102.221375,386.154938 102.596466,389.749634 103.709541,391.888733 104.473030,392.925812 106.802826,394.374420 110.941574,395.518372 113.418472,395.563721 115.260063,394.843140 118.077049,391.595490 119.961098,387.645569 120.538261,384.398041 120.683662,380.843567 120.029732,375.941315 119.050247,373.418365 118.589050,372.945587 118.170479,372.963745 117.780319,373.309174 117.346802,374.878143 117.102753,379.445374 117.156784,383.531281 117.551163,386.828705 118.096817,390.368286 118.709694,394.052551 119.352455,397.541870 119.712212,401.240845 119.872093,405.107056 119.943153,409.047607 119.974731,413.021149 119.988762,416.898285 119.995010,420.473297 119.467659,425.078491 118.607704,429.257812 117.118340,432.780090 115.269630,435.403961 112.783600,437.057953 108.158905,437.813904 104.281647,437.833710 100.206909,437.074158 95.641556,435.380005 91.535774,432.816315 87.105827,428.963745 83.000000,424.000000 " stroke-linecap="round" stroke-linejoin="round" stroke="#000000" stroke-width="1.00" fade-time="6" fade-enable="0" RotationPoint="(320.000000,240.000000)" transform="rotate(0.00,101.84,405.39)" xml:id="annotation.I5LSTT58N507P1S6DV71E7G8B" visible="1"/><polyline fill="none" points="145.000000,374.000000 140.293564,372.608154 136.025253,372.180206 133.455658,372.968964 132.303772,373.645966 131.646973,374.541748 131.213470,376.722260 131.687469,378.876556 132.749985,380.945129 136.148148,384.989166 140.908401,389.200226 144.610703,392.649170 144.629364,392.988342 144.197357,393.103333 140.873291,392.438019 136.258743,391.129791 132.076660,390.038452 127.726410,389.011383 124.104111,388.003357 122.000000,387.000000 " stroke-linecap="round" stroke-linejoin="round" stroke="#000000" stroke-width="1.00" fade-time="6" fade-enable="0" RotationPoint="(320.000000,240.000000)" transform="rotate(0.00,133.50,382.64)" xml:id="annotation.PBS54OCVEL26D9TBIOO6KS1V6" visible="1"/><polyline fill="none" points="175.000000,380.000000 175.000000,384.351196 175.000000,389.000000 " stroke-linecap="round" stroke-linejoin="round" stroke="#000000" stroke-width="1.00" fade-time="6" fade-enable="0" RotationPoint="(320.000000,240.000000)" transform="rotate(0.00,175.50,384.50)" xml:id="annotation.O3H70QG0AT3OR2F78O3CTLU1M" visible="1"/><polyline fill="none" points="170.000000,364.000000 171.061737,362.938293 171.485611,362.736633 171.879288,362.713318 173.000000,363.000000 " stroke-linecap="round" stroke-linejoin="round" stroke="#000000" stroke-width="1.00" fade-time="6" fade-enable="0" RotationPoint="(320.000000,240.000000)" transform="rotate(0.00,171.50,363.36)" xml:id="annotation.R1B4MFLM0H2EBBF69A75CV4B8" visible="1"/><polyline fill="none" points="186.000000,390.000000 187.087784,385.153656 188.322311,381.452942 189.587692,378.756836 191.261215,376.817841 192.285248,376.322998 194.608261,376.069489 195.516617,376.379639 196.822189,377.613159 198.565704,382.495605 199.980057,387.196655 201.000000,391.000000 " stroke-linecap="round" stroke-linejoin="round" stroke="#000000" stroke-width="1.00" fade-time="6" fade-enable="0" RotationPoint="(320.000000,240.000000)" transform="rotate(0.00,193.50,383.53)" xml:id="annotation.NF7PKNQB392M1E1JB13PC7GBV" visible="1"/><polyline fill="none" points="230.000000,382.000000 228.407410,382.530884 225.824417,384.984436 224.009705,387.995361 224.006470,388.885803 224.337646,389.701630 224.891769,390.467743 226.988953,391.318970 231.293030,391.501923 235.790527,391.148743 239.937927,391.340393 243.981613,392.100861 246.658493,392.489258 249.329697,392.291534 250.330917,391.749908 251.739670,389.962921 252.439865,386.798370 252.751068,383.132629 252.926239,378.459045 252.978149,374.160706 253.000000,372.000000 " stroke-linecap="round" stroke-linejoin="round" stroke="#000000" stroke-width="1.00" fade-time="6" fade-enable="0" RotationPoint="(320.000000,240.000000)" transform="rotate(0.00,238.50,382.24)" xml:id="annotation.BD2NT3A5G961J4SR0KF8QR62B" visible="1"/><polyline fill="none" points="257.000000,355.000000 258.922729,359.706451 259.680817,363.443878 260.436279,367.896942 260.832977,372.204071 261.481384,376.295044 262.377197,380.321991 263.346313,384.860809 264.868042,388.662476 265.356476,389.108307 265.793213,389.072205 266.195465,388.714813 267.292480,385.026611 268.769714,380.202789 269.860596,378.090118 270.573730,377.726746 271.382477,377.817841 272.255005,378.211884 273.817017,380.131226 275.945801,384.038879 277.687622,388.011505 280.000000,393.000000 " stroke-linecap="round" stroke-linejoin="round" stroke="#000000" stroke-width="1.00" fade-time="6" fade-enable="0" RotationPoint="(320.000000,240.000000)" transform="rotate(0.00,268.50,374.00)" xml:id="annotation.7SN4ML46692QH689N80FSSGRQ" visible="1"/><polyline fill="none" points="288.000000,381.000000 288.791504,385.253784 289.000000,387.000000 " stroke-linecap="round" stroke-linejoin="round" stroke="#000000" stroke-width="1.00" fade-time="6" fade-enable="0" RotationPoint="(320.000000,240.000000)" transform="rotate(0.00,288.50,384.00)" xml:id="annotation.UTBRH40S155G5CTIJF0M37LBK" visible="1"/><polyline fill="none" points="286.000000,365.000000 285.000000,365.000000 " stroke-linecap="round" stroke-linejoin="round" stroke="#000000" stroke-width="1.00" fade-time="6" fade-enable="0" RotationPoint="(320.000000,240.000000)" transform="rotate(0.00,285.50,365.50)" xml:id="annotation.MU0VQL121D091837FKJR056RF" visible="1"/><polyline fill="none" points="301.000000,379.000000 298.028778,380.707794 294.381012,385.093201 294.253998,386.062134 295.001770,388.027618 296.741516,389.419678 297.827667,389.946472 300.219727,390.235474 304.000000,390.000000 " stroke-linecap="round" stroke-linejoin="round" stroke="#000000" stroke-width="1.00" fade-time="6" fade-enable="0" RotationPoint="(320.000000,240.000000)" transform="rotate(0.00,299.13,384.62)" xml:id="annotation.3C57USG35T625EQFJRKNGGV62" visible="1"/><polyline fill="none" points="316.000000,360.000000 314.938293,361.592590 314.277985,366.299042 314.082397,371.026886 313.493561,375.242554 313.895844,380.183716 314.734558,385.017395 315.363495,387.563293 315.908997,388.042206 316.606018,388.028137 317.404022,387.685394 318.586975,386.415741 320.251740,382.353729 322.448914,377.493744 323.718018,375.700928 324.478699,375.356171 325.319122,375.348572 326.212738,375.565704 326.919617,376.266022 328.852417,380.789185 330.835083,385.489227 332.568237,389.787994 334.000000,393.000000 " stroke-linecap="round" stroke-linejoin="round" stroke="#000000" stroke-width="1.00" fade-time="6" fade-enable="0" RotationPoint="(320.000000,240.000000)" transform="rotate(0.00,323.75,376.50)" xml:id="annotation.D1NKJMGK3L58N23BG8B8IEB9V" visible="1"/><polyline fill="none" points="359.000000,379.000000 359.000000,383.647461 359.296295,387.599243 360.000000,391.000000 " stroke-linecap="round" stroke-linejoin="round" stroke="#000000" stroke-width="1.00" fade-time="6" fade-enable="0" RotationPoint="(320.000000,240.000000)" transform="rotate(0.00,359.50,385.00)" xml:id="annotation.D0DQ42FVBT5GF3SKA4S991OMV" visible="1"/><polyline fill="none" points="354.000000,366.000000 351.329224,364.417023 350.000000,364.000000 " stroke-linecap="round" stroke-linejoin="round" stroke="#000000" stroke-width="1.00" fade-time="6" fade-enable="0" RotationPoint="(320.000000,240.000000)" transform="rotate(0.00,352.00,365.00)" xml:id="annotation.BOK7UAGSND1TJ0S4C6I0M92D8" visible="1"/><polyline fill="none" points="377.000000,354.000000 375.912201,358.054871 374.649292,362.541718 373.661530,366.395050 373.196045,370.882477 373.058075,375.199768 373.698700,380.195831 374.000000,382.000000 " stroke-linecap="round" stroke-linejoin="round" stroke="#000000" stroke-width="1.00" fade-time="6" fade-enable="0" RotationPoint="(320.000000,240.000000)" transform="rotate(0.00,375.03,368.00)" xml:id="annotation.0UCLIVAPQL5NHFCP22BEAHL8N" visible="1"/><polyline fill="none" points="366.000000,369.000000 369.559692,368.208496 373.000000,368.000000 " stroke-linecap="round" stroke-linejoin="round" stroke="#000000" stroke-width="1.00" fade-time="6" fade-enable="0" RotationPoint="(320.000000,240.000000)" transform="rotate(0.00,369.50,368.50)" xml:id="annotation.QNB3C046F11CH16NFC7QJHM64" visible="1"/><polyline fill="none" points="400.000000,367.000000 395.352539,366.208496 391.400757,366.358093 390.267151,366.572052 389.733643,367.159149 389.600220,367.994995 390.474152,371.294800 392.760345,375.860687 396.507507,380.190155 398.236053,384.037537 398.046234,384.691681 397.475281,385.127808 396.650177,385.418549 393.365479,385.296875 389.046539,384.557068 384.540070,383.422791 383.000000,383.000000 " stroke-linecap="round" stroke-linejoin="round" stroke="#000000" stroke-width="1.00" fade-time="6" fade-enable="0" RotationPoint="(320.000000,240.000000)" transform="rotate(0.00,391.50,375.81)" xml:id="annotation.T4A6ROP3HD56D73H5PETBGHVK" visible="1"/><polyline fill="none" points="443.000000,377.000000 443.000000,374.876526 441.814819,372.945129 440.876526,371.963409 438.056244,370.872620 434.691650,370.498932 429.896301,371.024384 426.376678,372.538086 423.877014,374.505127 422.426819,376.224487 422.173431,377.260773 422.484497,379.597382 423.100800,380.509369 424.970703,381.818970 429.583923,382.650116 432.370636,382.251892 435.517212,380.778351 439.957642,376.980560 440.638428,376.320374 442.127472,373.267792 442.196075,372.734100 442.019623,372.600494 441.679749,372.733643 440.670563,375.575378 440.594330,377.811279 441.450745,381.962738 443.429840,385.519806 446.127350,388.326874 450.919373,390.571167 452.000000,391.000000 " stroke-linecap="round" stroke-linejoin="round" stroke="#000000" stroke-width="1.00" fade-time="6" fade-enable="0" RotationPoint="(320.000000,240.000000)" transform="rotate(0.00,437.09,380.75)" xml:id="annotation.6F8G6DK2Q10J15OT5K6R9UHTU" visible="1"/><polyline fill="none" points="474.000000,369.000000 471.382721,368.312744 467.508484,368.203766 464.150665,368.936920 460.029785,371.119232 455.090424,375.010468 454.393585,375.673645 453.619385,377.595673 453.412903,378.730469 454.072388,381.176514 454.714905,382.451019 456.910309,384.459717 460.380859,386.247345 463.000000,387.000000 " stroke-linecap="round" stroke-linejoin="round" stroke="#000000" stroke-width="1.00" fade-time="6" fade-enable="0" RotationPoint="(320.000000,240.000000)" transform="rotate(0.00,463.71,377.60)" xml:id="annotation.QUV8N7P19D40T1LAPPTHFKPBT" visible="1"/><polyline fill="none" points="483.000000,371.000000 480.716064,372.707794 479.355286,374.314606 478.602386,376.436127 478.401581,377.624054 478.601074,378.638275 479.711578,380.357758 482.210815,382.044281 484.389984,382.278931 488.879486,381.524231 493.552338,379.506836 495.319550,378.262299 496.101959,378.174866 496.845764,378.449890 497.563843,378.966583 498.657990,380.429565 500.796631,383.553955 503.236053,385.102417 504.046234,384.957184 505.539062,383.610596 506.350708,381.530640 506.807617,377.268341 507.239319,372.375824 507.492889,370.917206 507.995270,369.833710 509.442352,368.333466 510.072662,368.000092 510.604004,367.888947 512.000000,368.000000 " stroke-linecap="round" stroke-linejoin="round" stroke="#000000" stroke-width="1.00" fade-time="6" fade-enable="0" RotationPoint="(320.000000,240.000000)" transform="rotate(0.00,495.20,376.50)" xml:id="annotation.1ICFP8BLB16DR5IFOBDJITGAG" visible="1"/><polyline fill="none" points="529.000000,375.000000 524.352539,375.296295 521.712219,375.909485 519.798035,376.922729 519.309814,377.726288 519.063599,379.804260 519.486877,380.758392 521.142334,382.411133 523.655884,382.997559 526.291504,382.776703 528.203613,381.937775 529.497864,380.527924 529.998596,379.685272 530.443481,379.456848 530.851196,379.637878 533.667603,383.104584 535.778198,384.564972 538.494019,385.065918 541.219543,384.807068 543.171631,383.951324 546.050842,381.158417 547.953369,377.516052 549.220764,373.622040 550.299988,369.653442 551.323486,365.662750 551.799561,361.134613 551.409729,357.336182 551.162048,357.001892 550.885803,357.223511 549.644104,360.241669 549.190857,365.195068 549.381104,369.679291 549.947144,374.079681 551.404114,378.542114 552.811096,382.629761 555.240356,386.544617 560.031677,391.409149 563.540283,393.590363 565.795654,394.077209 566.863770,394.051483 567.575806,393.589874 568.050537,392.837708 568.718689,389.359314 568.620361,385.402771 568.413574,384.268524 566.998657,382.415649 565.999084,381.610413 564.999451,381.184723 562.999756,381.008026 562.444275,381.338684 562.185059,381.892456 562.123352,382.594971 562.943726,384.560730 565.655579,388.913239 568.553345,392.295624 573.000000,396.000000 " stroke-linecap="round" stroke-linejoin="round" stroke="#000000" stroke-width="1.00" fade-time="6" fade-enable="0" RotationPoint="(320.000000,240.000000)" transform="rotate(0.00,546.03,376.50)" xml:id="annotation.P15GFF6HB11GJ4EMFBS9REEC8" visible="1"/><polyline fill="none" points="553.000000,369.000000 557.790100,369.798370 562.567444,370.594574 565.000000,371.000000 " stroke-linecap="round" stroke-linejoin="round" stroke="#000000" stroke-width="1.00" fade-time="6" fade-enable="0" RotationPoint="(320.000000,240.000000)" transform="rotate(0.00,559.00,370.00)" xml:id="annotation.TBNHRSAMQL7LLALR6VJ85LLU8" visible="1"/><polyline fill="none" points="597.000000,394.000000 597.000000,395.000000 " stroke-linecap="round" stroke-linejoin="round" stroke="#000000" stroke-width="1.00" fade-time="6" fade-enable="0" RotationPoint="(320.000000,240.000000)" transform="rotate(0.00,597.50,394.50)" xml:id="annotation.BP4FE51KDD6BV9B8JKIOUI9PF" visible="1"/><polyline fill="none" points="614.000000,397.000000 614.000000,396.000000 " stroke-linecap="round" stroke-linejoin="round" stroke="#000000" stroke-width="1.00" fade-time="6" fade-enable="0" RotationPoint="(320.000000,240.000000)" transform="rotate(0.00,614.50,396.50)" xml:id="annotation.C7QCE19AJ11L9B2CHLD1G2EUA" visible="1"/><polyline fill="none" points="636.000000,401.000000 637.000000,400.000000 " stroke-linecap="round" stroke-linejoin="round" stroke="#000000" stroke-width="1.00" fade-time="6" fade-enable="0" RotationPoint="(320.000000,240.000000)" transform="rotate(0.00,636.50,400.50)" xml:id="annotation.USEIRGVDDH3CN79ETL5CLBCMI" visible="1"/></g><polyline fill="none" points="18.000000,330.000000 19.061728,328.938293 21.064472,328.417023 25.019104,328.123566 30.000000,328.000000 " stroke-linecap="round" stroke-linejoin="round" stroke="#000000" stroke-width="1.00" fade-time="6" fade-enable="0" RotationPoint="(320.000000,240.000000)" transform="rotate(0.00,24.00,329.00)" xml:id="annotation.7I1GK2R2EH4BV4R978G0BA258" visible="1"/><polyline fill="none" points="7.000000,382.000000 11.456790,382.000000 16.000000,382.000000 " stroke-linecap="round" stroke-linejoin="round" stroke="#000000" stroke-width="1.00" fade-time="6" fade-enable="0" RotationPoint="(320.000000,240.000000)" transform="rotate(0.00,11.50,382.50)" xml:id="annotation.JPT98PIMUL5QV9O0TLHO1P5PA" visible="1"/><g class="group" xml:id="annotation.BNI155912H49VBULB40HHUPHM" xbk_transform="rotate(0.00,44.00,467.50)"><polyline fill="none" points="16.000000,470.000000 20.706448,471.391846 23.000000,472.000000 " stroke-linecap="round" stroke-linejoin="round" stroke="#000000" stroke-width="1.00" fade-time="6" fade-enable="0" RotationPoint="(320.000000,240.000000)" transform="rotate(0.00,19.50,471.00)" xml:id="annotation.J5KTLO7GIH6NRC55IL0C4A3H0" visible="1"/><polyline fill="none" points="60.000000,464.000000 58.120712,468.647461 57.332066,472.006683 57.000000,474.000000 " stroke-linecap="round" stroke-linejoin="round" stroke="#000000" stroke-width="1.00" fade-time="6" fade-enable="0" RotationPoint="(320.000000,240.000000)" transform="rotate(0.00,58.50,469.00)" xml:id="annotation.P5U76E28RP07D8DJL9JUI4B4U" visible="1"/><polyline fill="none" points="70.000000,461.000000 70.111115,464.991791 70.798355,469.306244 72.000000,474.000000 " stroke-linecap="round" stroke-linejoin="round" stroke="#000000" stroke-width="1.00" fade-time="6" fade-enable="0" RotationPoint="(320.000000,240.000000)" transform="rotate(0.00,71.00,467.50)" xml:id="annotation.KDRC05BN9D3V9AN8U524E0IC8" visible="1"/></g><g class="group" xml:id="annotation.POFC44PNCH0PPB9SVHA6556JJ" xbk_transform="rotate(0.00,180.23,460.00)"><polyline fill="none" points="174.000000,453.000000 173.469147,454.592590 173.853271,459.573242 174.000000,462.000000 " stroke-linecap="round" stroke-linejoin="round" stroke="#000000" stroke-width="1.00" fade-time="6" fade-enable="0" RotationPoint="(320.000000,240.000000)" transform="rotate(0.00,173.97,457.50)" xml:id="annotation.226BGLF4LL39D1AHGAE7T8CS4" visible="1"/><polyline fill="none" points="186.000000,460.000000 186.296295,464.054840 187.000000,467.000000 " stroke-linecap="round" stroke-linejoin="round" stroke="#000000" stroke-width="1.00" fade-time="6" fade-enable="0" RotationPoint="(320.000000,240.000000)" transform="rotate(0.00,186.50,463.50)" xml:id="annotation.568L4R13M16HP3VB50QG9ELVD" visible="1"/></g><g class="group" xml:id="annotation.QMNLJFE8HL4F574DSL1EPP32T" xbk_transform="rotate(0.00,269.00,455.50)"><polyline fill="none" points="262.000000,453.000000 260.912201,456.758575 260.000000,459.000000 " stroke-linecap="round" stroke-linejoin="round" stroke="#000000" stroke-width="1.00" fade-time="6" fade-enable="0" RotationPoint="(320.000000,240.000000)" transform="rotate(0.00,261.00,456.00)" xml:id="annotation.SF9KL98I8H64V7CV43DO052E1" visible="1"/><polyline fill="none" points="277.000000,450.000000 276.208496,453.559692 276.358093,456.869507 277.106079,459.368774 278.000000,461.000000 " stroke-linecap="round" stroke-linejoin="round" stroke="#000000" stroke-width="1.00" fade-time="6" fade-enable="0" RotationPoint="(320.000000,240.000000)" transform="rotate(0.00,277.10,455.50)" xml:id="annotation.3L6JG8QTLL6BPDEJBA6PJP2CF" visible="1"/></g><g class="group" xml:id="annotation.R5L1V4SPKD5RVDIGK3U0VM11A" xbk_transform="rotate(0.00,418.50,454.50)"><polyline fill="none" points="356.000000,459.000000 355.208496,463.351135 355.000000,467.000000 " stroke-linecap="round" stroke-linejoin="round" stroke="#000000" stroke-width="1.00" fade-time="6" fade-enable="0" RotationPoint="(320.000000,240.000000)" transform="rotate(0.00,355.50,463.00)" xml:id="annotation.CONNQ6S34L6LV8R7NAF0IF2AM" visible="1"/><polyline fill="none" points="356.000000,439.000000 358.000000,441.000000 " stroke-linecap="round" stroke-linejoin="round" stroke="#000000" stroke-width="1.00" fade-time="6" fade-enable="0" RotationPoint="(320.000000,240.000000)" transform="rotate(0.00,357.00,440.00)" xml:id="annotation.9OK82QM0DP7N1CLCKAOODQEPU" visible="1"/><polyline fill="none" points="375.000000,430.000000 374.312744,433.991760 374.092651,438.417297 374.027466,442.815002 374.012238,446.362244 374.003632,451.045624 373.705322,454.760986 373.313477,458.560425 373.208984,460.040314 373.000000,464.000000 " stroke-linecap="round" stroke-linejoin="round" stroke="#000000" stroke-width="1.00" fade-time="6" fade-enable="0" RotationPoint="(320.000000,240.000000)" transform="rotate(0.00,374.00,447.00)" xml:id="annotation.I24GF2IQU93F74SMPSSE48MNR" visible="1"/><polyline fill="none" points="363.000000,451.000000 364.707794,449.514404 366.314606,448.747131 370.685791,448.221344 375.629303,448.730957 379.000000,449.000000 " stroke-linecap="round" stroke-linejoin="round" stroke="#000000" stroke-width="1.00" fade-time="6" fade-enable="0" RotationPoint="(320.000000,240.000000)" transform="rotate(0.00,371.00,449.61)" xml:id="annotation.9VTS61IK8L6S54BAPQPDN9JLD" visible="1"/><polyline fill="none" points="395.000000,445.000000 393.407410,443.938293 391.144043,443.713318 389.762695,443.808868 388.841797,444.317047 388.227905,445.100220 387.818573,446.066833 387.956421,448.622284 388.869507,451.276581 392.583618,456.058380 395.989075,460.711365 397.217346,462.316162 398.133636,464.140503 398.089111,464.871429 397.726074,465.469849 397.150726,465.979889 396.322693,466.208801 391.800385,465.777893 387.158081,464.622803 385.000000,464.000000 " stroke-linecap="round" stroke-linejoin="round" stroke="#000000" stroke-width="1.00" fade-time="6" fade-enable="0" RotationPoint="(320.000000,240.000000)" transform="rotate(0.00,391.57,454.96)" xml:id="annotation.JV7VQ6T16L1J3A7Q0DG0PJUMS" visible="1"/><polyline fill="none" points="422.000000,457.000000 422.000000,459.123444 420.847748,462.246613 422.335205,458.260193 424.465363,453.364136 426.483551,450.218994 428.214905,448.578827 429.032166,448.274780 429.799225,448.294312 430.532837,448.529510 431.132996,449.019684 432.096130,450.453186 433.619781,454.887878 434.763885,458.732208 437.085052,463.716644 439.000000,467.000000 " stroke-linecap="round" stroke-linejoin="round" stroke="#000000" stroke-width="1.00" fade-time="6" fade-enable="0" RotationPoint="(320.000000,240.000000)" transform="rotate(0.00,429.92,457.64)" xml:id="annotation.E26BO1BHE909P8322HLSLH9LQ" visible="1"/><polyline fill="none" points="449.000000,454.000000 447.407410,455.061707 447.049377,455.818909 446.947876,457.845459 448.046295,460.954224 451.206696,464.879822 453.091858,466.465088 454.061249,466.865631 456.027191,467.014374 456.795898,466.676208 457.946320,465.411652 458.235413,463.442230 457.882416,461.196564 456.323212,458.058258 453.799469,455.239502 451.910889,454.069397 451.051697,453.935181 450.256714,454.067902 449.504486,454.378632 449.002991,455.030182 448.000000,459.000000 " stroke-linecap="round" stroke-linejoin="round" stroke="#000000" stroke-width="1.00" fade-time="6" fade-enable="0" RotationPoint="(320.000000,240.000000)" transform="rotate(0.00,452.59,460.47)" xml:id="annotation.R17C0F7M1T6814IDFKLQ07448" visible="1"/><polyline fill="none" points="470.000000,431.000000 468.407410,432.061707 466.355286,434.845459 464.870697,439.546814 464.386932,443.243042 464.171967,446.885803 464.050934,451.657501 464.022644,455.292236 464.006683,460.024841 464.000000,464.000000 " stroke-linecap="round" stroke-linejoin="round" stroke="#000000" stroke-width="1.00" fade-time="6" fade-enable="0" RotationPoint="(320.000000,240.000000)" transform="rotate(0.00,467.00,447.50)" xml:id="annotation.NE33EAKDOL5S10LFDD55C3UJF" visible="1"/><polyline fill="none" points="459.000000,456.000000 459.909424,453.716064 460.922699,452.355286 462.706390,451.306061 463.804260,450.870728 468.534576,450.788849 472.237579,451.202454 475.883392,451.645538 480.660095,451.929993 482.000000,452.000000 " stroke-linecap="round" stroke-linejoin="round" stroke="#000000" stroke-width="1.00" fade-time="6" fade-enable="0" RotationPoint="(320.000000,240.000000)" transform="rotate(0.00,470.50,453.39)" xml:id="annotation.VK3EK9QIPH50T6H2KR0JBBQ24" visible="1"/><polyline fill="none" points="405.000000,475.000000 409.351196,474.208557 413.104034,474.061798 417.327118,474.314606 420.589844,474.695404 424.262146,474.864624 428.116516,475.236115 432.162903,475.771606 436.553894,476.379944 440.801727,477.020721 444.578552,477.675873 448.830353,478.705505 450.000000,479.000000 " stroke-linecap="round" stroke-linejoin="round" stroke="#000000" stroke-width="1.00" fade-time="6" fade-enable="0" RotationPoint="(320.000000,240.000000)" transform="rotate(0.00,427.50,476.53)" xml:id="annotation.JLDUUCS85D1SV7RITJUE642R3" visible="1"/></g><g class="group" xml:id="annotation.0K00HANNST7VRESE0ODM44QSA" xbk_transform="rotate(0.00,563.50,487.41)"><polyline fill="none" points="416.000000,486.000000 414.912201,490.846405 413.677704,494.547089 412.200806,498.569489 410.763214,502.464996 409.226166,506.545197 407.711334,511.441010 407.140533,516.243469 407.000000,518.000000 " stroke-linecap="round" stroke-linejoin="round" stroke="#000000" stroke-width="1.00" fade-time="6" fade-enable="0" RotationPoint="(320.000000,240.000000)" transform="rotate(0.00,411.50,502.00)" xml:id="annotation.TFA7G80R4P3FFB1T7MQTH0PPJ" visible="1"/><polyline fill="none" points="418.000000,514.000000 422.846344,513.703735 427.500519,512.608154 428.444794,512.072083 429.790283,510.587616 429.971313,509.836182 429.869751,509.113007 429.579865,508.408661 428.072540,507.329803 425.921112,506.591064 423.483429,506.262695 419.612366,507.139587 417.568481,508.506500 416.712311,509.337677 415.761047,511.446411 415.449371,513.753967 415.681213,515.890686 416.967255,518.967590 418.726196,520.689270 420.878326,521.973022 425.000000,523.000000 " stroke-linecap="round" stroke-linejoin="round" stroke="#000000" stroke-width="1.00" fade-time="6" fade-enable="0" RotationPoint="(320.000000,240.000000)" transform="rotate(0.00,422.71,514.63)" xml:id="annotation.44CK7MQED53R7AHV2VCV1RQGO" visible="1"/><polyline fill="none" points="450.000000,500.000000 445.648804,499.208557 443.288391,499.314911 440.196564,500.624176 438.568878,501.795929 438.157013,502.530609 437.995728,504.235809 439.060486,507.600739 441.411133,511.122772 446.004547,515.987610 447.224243,517.438965 448.136719,519.195068 447.980042,519.796753 447.431122,520.197815 444.535126,520.762329 440.862274,520.633301 436.959198,519.891357 434.759644,519.285034 433.000000,518.000000 " stroke-linecap="round" stroke-linejoin="round" stroke="#000000" stroke-width="1.00" fade-time="6" fade-enable="0" RotationPoint="(320.000000,240.000000)" transform="rotate(0.00,441.50,509.99)" xml:id="annotation.2QOE3GEA0H78LBLDM4IQVU5EH" visible="1"/><polyline fill="none" points="473.000000,503.000000 468.824402,500.747131 464.743042,499.349243 461.922852,498.673767 459.410156,498.892029 458.273438,499.261353 457.626740,500.063141 457.204468,502.435486 457.683441,504.452789 460.534424,509.059601 464.539520,513.476990 467.197083,517.094238 468.124634,519.041870 467.971985,519.583496 467.425781,519.833435 466.617188,519.888977 462.824829,518.905396 458.162903,516.693237 453.735901,515.071106 449.000000,514.000000 " stroke-linecap="round" stroke-linejoin="round" stroke="#000000" stroke-width="1.00" fade-time="6" fade-enable="0" RotationPoint="(320.000000,240.000000)" transform="rotate(0.00,461.00,509.28)" xml:id="annotation.4PG1CDT1RP2UB0OCPHLGV427L" visible="1"/><polyline fill="none" points="531.000000,461.000000 526.945129,461.296265 524.864502,462.020538 521.416687,464.302368 519.666687,466.134399 518.740723,468.356018 518.493835,469.570679 518.812073,472.105469 519.805359,474.491333 521.357910,476.292419 522.460815,476.750488 525.167786,476.963165 527.926453,476.094727 530.411743,474.486542 532.257080,472.290314 534.014404,468.024292 534.265686,465.455231 534.177124,464.303497 533.895813,463.757904 533.486084,463.616364 532.990723,463.744263 532.771606,464.273926 532.824402,466.047668 534.540527,469.544983 537.160156,472.865204 539.367432,474.347504 543.875061,476.204437 546.000000,477.000000 " stroke-linecap="round" stroke-linejoin="round" stroke="#000000" stroke-width="1.00" fade-time="6" fade-enable="0" RotationPoint="(320.000000,240.000000)" transform="rotate(0.00,532.25,469.00)" xml:id="annotation.L1OK9R9PG52OH5SB8IIK1N2K1" visible="1"/><polyline fill="none" points="561.000000,461.000000 557.440308,458.032928 556.293518,457.355286 554.130493,456.898651 552.057983,457.177185 549.017151,458.694458 547.007629,460.308624 545.595947,462.433441 544.709290,464.970398 544.315247,467.949799 544.732666,470.533264 545.770081,472.792542 547.342285,474.907806 549.448425,476.366425 554.000000,478.000000 " stroke-linecap="round" stroke-linejoin="round" stroke="#000000" stroke-width="1.00" fade-time="6" fade-enable="0" RotationPoint="(320.000000,240.000000)" transform="rotate(0.00,552.66,467.45)" xml:id="annotation.NJHJ0OA4JL2ONCDBEOVNOT2OG" visible="1"/><polyline fill="none" points="570.000000,463.000000 567.876526,464.061737 566.537781,465.471893 565.159363,468.436157 564.343506,472.425568 564.374878,475.189148 565.129578,477.158142 566.798340,478.477692 567.865540,478.985138 570.236572,479.252655 572.771790,478.890045 575.380066,477.988159 577.428162,476.253967 580.553711,472.050171 582.290405,468.787720 582.591064,472.213470 584.515930,476.729401 585.747803,478.879730 587.332336,480.353943 588.221558,480.902618 589.036621,481.046204 589.802185,480.919708 590.534790,480.613129 591.645081,479.087280 592.894775,475.433258 593.672546,471.128357 593.903015,467.038025 593.935303,465.692017 594.290222,465.016876 594.860107,464.789001 595.573425,464.859344 597.254883,465.826385 599.482910,467.948578 601.000000,470.000000 " stroke-linecap="round" stroke-linejoin="round" stroke="#000000" stroke-width="1.00" fade-time="6" fade-enable="0" RotationPoint="(320.000000,240.000000)" transform="rotate(0.00,582.67,472.02)" xml:id="annotation.D7MJSU2P453IPD085VHQLD1ED" visible="1"/><polyline fill="none" points="612.000000,475.000000 610.938232,472.876556 609.528076,471.537750 608.685425,471.025177 606.563904,470.751953 604.361755,471.111969 602.642212,472.012726 602.205933,472.897369 602.017456,475.361786 602.600342,477.420074 603.711243,479.075623 605.316101,480.552124 607.733093,481.060181 609.155396,481.040100 610.325806,480.582275 612.218872,478.888428 614.003174,475.436096 614.914185,471.065582 615.164978,471.043732 616.345154,472.901855 619.378784,477.875977 621.457886,480.086700 623.203552,481.075562 626.591125,481.726105 628.818298,480.989380 630.919250,479.328613 633.753845,475.492432 636.115967,470.800995 637.738037,466.348480 638.626099,461.399567 638.889221,457.118378 638.670898,453.331390 638.447266,452.220917 638.187073,451.813934 637.902527,451.875977 636.116638,454.901398 634.799988,459.563354 634.355591,463.546661 634.269165,467.576294 634.845215,472.343567 635.719543,476.459839 637.010437,481.189606 638.299377,484.759918 640.725830,488.421722 644.671875,492.645142 647.729919,494.129425 649.879944,494.316772 650.919983,494.211182 652.964478,493.204956 656.462097,490.373810 657.612793,488.129120 658.272400,485.501831 657.790405,480.506561 657.017944,477.780670 655.563538,475.828461 653.509705,474.812622 652.339844,474.541748 651.559875,474.916718 651.039917,475.722290 650.693298,476.814850 650.900696,479.510315 651.844788,482.449036 654.250305,486.379974 656.851929,488.828613 659.000000,490.000000 " stroke-linecap="round" stroke-linejoin="round" stroke="#000000" stroke-width="1.00" fade-time="6" fade-enable="0" RotationPoint="(320.000000,240.000000)" transform="rotate(0.00,630.51,473.07)" xml:id="annotation.COQP3HV1G161VE6CJJS482O0P" visible="1"/><polyline fill="none" points="635.000000,458.000000 636.061768,456.938263 638.845459,455.747131 642.116516,455.332031 645.940674,455.258667 649.492188,455.596466 653.218750,455.820679 656.875000,456.031433 661.432129,456.774750 665.486084,457.587585 670.000000,458.000000 " stroke-linecap="round" stroke-linejoin="round" stroke="#000000" stroke-width="1.00" fade-time="6" fade-enable="0" RotationPoint="(320.000000,240.000000)" transform="rotate(0.00,652.50,456.63)" xml:id="annotation.VIJA9ICMRT4MT4GRTE83J1PK8" visible="1"/><polyline fill="none" points="674.000000,488.000000 675.000000,487.000000 " stroke-linecap="round" stroke-linejoin="round" stroke="#000000" stroke-width="1.00" fade-time="6" fade-enable="0" RotationPoint="(320.000000,240.000000)" transform="rotate(0.00,674.50,487.50)" xml:id="annotation.0V4N1PCUAT669C6PQCTBGMEL1" visible="1"/><polyline fill="none" points="692.000000,488.000000 693.000000,488.000000 " stroke-linecap="round" stroke-linejoin="round" stroke="#000000" stroke-width="1.00" fade-time="6" fade-enable="0" RotationPoint="(320.000000,240.000000)" transform="rotate(0.00,692.50,488.50)" xml:id="annotation.O3RICVEK3P5SD6VJG59OGHA8Q" visible="1"/><polyline fill="none" points="718.000000,491.000000 720.000000,492.000000 " stroke-linecap="round" stroke-linejoin="round" stroke="#000000" stroke-width="1.00" fade-time="6" fade-enable="0" RotationPoint="(320.000000,240.000000)" transform="rotate(0.00,719.00,491.50)" xml:id="annotation.2IPVRHKC5518BB84CR4R8S8G9" visible="1"/></g><g class="group" xml:id="annotation.MC9D2G7G315J31KK7RCQD38BL" xbk_transform="rotate(0.00,166.00,337.50)"><polyline fill="none" points="58.000000,325.000000 53.352539,325.000000 49.104454,325.296295 46.601978,325.909485 44.749027,326.922729 44.388241,327.504059 44.369938,328.113831 44.579960,328.742554 47.529865,331.220001 51.796024,333.557861 56.126774,337.227112 56.640072,338.262512 56.914108,340.598175 56.387184,341.398773 55.480343,341.932495 51.549732,342.683716 47.459183,342.609985 44.000000,342.000000 " stroke-linecap="round" stroke-linejoin="round" stroke="#000000" stroke-width="1.00" fade-time="6" fade-enable="0" RotationPoint="(320.000000,240.000000)" transform="rotate(0.00,51.00,333.84)" xml:id="annotation.95K317VI5P0FVF6OFDE21JOOR" visible="1"/><polyline fill="none" points="68.000000,337.000000 65.216278,340.314606 64.921967,340.431946 64.836868,340.065765 65.776871,335.078613 66.382317,332.553467 66.699318,332.035645 67.021767,332.023773 67.347847,332.349182 69.594505,337.265472 72.586571,341.324036 73.502159,341.771576 75.704659,341.972595 76.580887,341.648376 77.850769,340.399292 80.258583,336.194092 81.919395,332.038330 82.279594,331.025543 82.630844,330.683685 82.976112,330.789124 83.317413,331.192749 84.087387,335.721222 85.667870,339.682831 88.835632,344.410583 91.000000,347.000000 " stroke-linecap="round" stroke-linejoin="round" stroke="#000000" stroke-width="1.00" fade-time="6" fade-enable="0" RotationPoint="(320.000000,240.000000)" transform="rotate(0.00,77.92,338.84)" xml:id="annotation.MD1HG2PL4L29DC4QE2T2MIJQ4" visible="1"/><polyline fill="none" points="104.000000,336.000000 103.469131,334.407410 102.319611,333.329224 98.334747,331.731689 96.148773,331.621490 95.099182,331.747681 94.288345,332.165131 93.091110,333.517822 92.484940,335.526428 92.326645,337.789520 92.973328,340.937653 93.951111,342.972290 95.422707,344.395111 96.281807,344.930054 98.717842,345.228149 100.145226,345.152130 102.323799,344.178711 105.533096,340.837738 107.096230,337.951935 107.064148,337.523499 106.709435,337.460114 106.139618,337.640076 105.759743,338.315613 105.337662,340.547668 105.742668,342.798950 106.923752,345.644135 108.000000,348.000000 " stroke-linecap="round" stroke-linejoin="round" stroke="#000000" stroke-width="1.00" fade-time="6" fade-enable="0" RotationPoint="(320.000000,240.000000)" transform="rotate(0.00,100.16,339.81)" xml:id="annotation.AGSM14M6TH0PNA7SFPGD127UV" visible="1"/><polyline fill="none" points="124.000000,335.000000 122.938271,333.938293 122.292175,333.736633 120.685410,333.808868 119.901382,334.428131 118.437653,336.597687 117.425972,340.411682 117.781914,343.034821 118.791954,345.571045 120.351982,347.809357 122.452728,349.026367 124.534554,349.456177 127.000000,349.000000 " stroke-linecap="round" stroke-linejoin="round" stroke="#000000" stroke-width="1.00" fade-time="6" fade-enable="0" RotationPoint="(320.000000,240.000000)" transform="rotate(0.00,122.21,341.60)" xml:id="annotation.T1OAPCTFNP2OBA5UBVPCVDNKU" visible="1"/><polyline fill="none" points="134.000000,317.000000 132.912216,321.943756 132.270294,326.687042 131.783783,330.610962 131.232239,334.773621 131.068802,339.636627 131.045868,341.091064 131.586136,341.949615 132.501862,342.410828 133.667908,342.607208 134.667480,342.404816 137.136047,340.638458 141.171555,336.267914 144.000000,332.000000 " stroke-linecap="round" stroke-linejoin="round" stroke="#000000" stroke-width="1.00" fade-time="6" fade-enable="0" RotationPoint="(320.000000,240.000000)" transform="rotate(0.00,137.52,329.80)" xml:id="annotation.FE7K424RD50CN01O90VAPQ8H1" visible="1"/><polyline fill="none" points="140.000000,336.000000 140.296295,340.054871 140.530869,341.036591 142.453583,344.010864 146.000000,348.000000 " stroke-linecap="round" stroke-linejoin="round" stroke="#000000" stroke-width="1.00" fade-time="6" fade-enable="0" RotationPoint="(320.000000,240.000000)" transform="rotate(0.00,143.00,342.00)" xml:id="annotation.LSH6MCJAG919T4FUUR7509JLH" visible="1"/><polyline fill="none" points="174.000000,329.000000 170.440338,328.208496 169.293549,328.139008 167.130463,328.950684 166.086990,329.633789 165.502441,330.644745 165.149231,333.249542 166.105942,337.308533 167.265945,341.325958 167.081161,343.700409 166.720779,344.800262 166.147186,345.422394 165.431458,345.726044 162.831528,345.918823 160.000000,346.000000 " stroke-linecap="round" stroke-linejoin="round" stroke="#000000" stroke-width="1.00" fade-time="6" fade-enable="0" RotationPoint="(320.000000,240.000000)" transform="rotate(0.00,167.00,337.07)" xml:id="annotation.CLK19LFD995232I19FAHI0LJ5" visible="1"/><polyline fill="none" points="172.000000,341.000000 176.175583,339.608154 180.113754,338.649292 184.713837,336.531525 186.391327,335.273285 186.705338,334.626648 186.692444,333.973297 186.461624,333.315552 185.863312,332.765900 184.013306,331.858948 179.942200,331.254486 177.122467,332.001984 174.721085,333.445312 173.283463,335.197906 172.866730,337.087982 173.256821,339.729797 174.000000,342.000000 " stroke-linecap="round" stroke-linejoin="round" stroke="#000000" stroke-width="1.00" fade-time="6" fade-enable="0" RotationPoint="(320.000000,240.000000)" transform="rotate(0.00,179.35,336.63)" xml:id="annotation.LUNMNAL1IH48P79C2QSSMGG2S" visible="1"/><polyline fill="none" points="186.000000,346.000000 190.701355,341.298645 195.092361,337.995453 196.061584,337.330292 196.818832,337.220184 197.434769,337.480133 197.956528,337.986755 198.536224,340.031128 199.016113,342.458282 201.225708,347.082306 201.817139,347.610443 202.544754,347.851410 204.019897,347.822845 206.000000,347.000000 " stroke-linecap="round" stroke-linejoin="round" stroke="#000000" stroke-width="1.00" fade-time="6" fade-enable="0" RotationPoint="(320.000000,240.000000)" transform="rotate(0.00,196.00,342.54)" xml:id="annotation.HQS53H2B7D5RBBT47I3T6AR7I" visible="1"/><polyline fill="none" points="211.999985,316.000000 210.120697,320.943756 209.498077,324.641693 209.221359,329.248169 209.098358,333.073242 209.325424,337.429108 210.096405,341.719757 211.028549,346.324341 211.999985,350.000000 " stroke-linecap="round" stroke-linejoin="round" stroke="#000000" stroke-width="1.00" fade-time="6" fade-enable="0" RotationPoint="(320.000000,240.000000)" transform="rotate(0.00,210.55,333.00)" xml:id="annotation.QU9ST784DT45B4LCS8020BF1M" visible="1"/><polyline fill="none" points="203.000000,338.000000 207.943756,338.296295 211.798157,338.791504 214.000000,339.000000 " stroke-linecap="round" stroke-linejoin="round" stroke="#000000" stroke-width="1.00" fade-time="6" fade-enable="0" RotationPoint="(320.000000,240.000000)" transform="rotate(0.00,208.50,338.50)" xml:id="annotation.SA055NFSU15P50RE5EKNAILK8" visible="1"/><polyline fill="none" points="222.999985,342.000000 227.846359,340.912201 228.897568,340.608154 229.709473,340.072083 230.907898,338.587616 230.938599,337.947296 230.625717,337.409302 230.083801,336.939514 229.389206,336.737457 227.728531,336.809235 225.879333,337.804108 224.919540,338.536102 223.556824,340.534546 222.803040,342.793152 222.838379,344.908051 223.224457,346.366547 223.999985,348.000000 " stroke-linecap="round" stroke-linejoin="round" stroke="#000000" stroke-width="1.00" fade-time="6" fade-enable="0" RotationPoint="(320.000000,240.000000)" transform="rotate(0.00,226.87,342.37)" xml:id="annotation.0NBGJOM9CT2693277ICHJQQ0Q" visible="1"/><polyline fill="none" points="235.000000,349.000000 234.312744,346.382721 234.203781,342.397339 234.936920,338.574524 235.934937,336.736847 236.734406,336.269012 238.807892,336.045502 239.760803,336.363678 241.412201,337.606049 242.590607,339.565643 243.706940,341.806946 247.562225,346.443726 250.000000,349.000000 " stroke-linecap="round" stroke-linejoin="round" stroke="#000000" stroke-width="1.00" fade-time="6" fade-enable="0" RotationPoint="(320.000000,240.000000)" transform="rotate(0.00,242.10,342.52)" xml:id="annotation.DTMOV70IDH4L52S28UJT9DLPL" visible="1"/><polyline fill="none" points="266.000000,330.000000 263.876526,330.530884 260.963409,332.453583 258.520020,335.665253 257.971863,338.443787 257.981232,339.962524 258.880554,342.538910 260.502472,344.683960 262.704803,346.378052 265.757690,347.279144 269.114532,347.457397 273.391968,346.308350 275.729767,345.174072 277.287292,343.336609 277.858185,342.224396 278.196228,339.803436 278.130829,338.535614 277.753876,337.579315 276.446167,336.220428 274.161255,335.838715 272.774170,335.892456 271.738342,336.261658 270.291107,337.560760 270.082947,338.484955 270.444275,340.697021 271.897095,343.379364 274.489960,346.276581 279.064514,349.659180 284.008484,353.494232 288.000000,356.000000 " stroke-linecap="round" stroke-linejoin="round" stroke="#000000" stroke-width="1.00" fade-time="6" fade-enable="0" RotationPoint="(320.000000,240.000000)" transform="rotate(0.00,272.99,343.00)" xml:id="annotation.BBJ86R7OL515TEOHLDQQ397VH" visible="1"/><polyline fill="none" points="55.000000,355.000000 59.351162,355.791504 63.104046,355.938202 67.919716,355.981659 71.853210,355.991852 75.453278,355.996368 78.905159,355.998413 82.291183,355.999268 85.647934,355.999664 89.287971,355.999878 93.127991,356.111053 97.056885,356.530823 101.321579,356.791473 105.698486,356.907318 109.865997,356.958801 114.236732,356.981659 118.771881,356.991852 123.380096,356.996368 128.020782,357.294678 132.675903,357.686523 137.337433,357.860687 142.001831,357.938080 146.778595,357.972473 149.296844,357.981628 151.864563,357.987762 154.465271,357.991852 157.087952,357.994568 159.725296,357.996368 162.372421,358.108704 165.026062,358.294678 167.684021,358.529816 170.456024,358.686523 173.304016,358.791016 176.202667,358.860687 179.024002,358.907104 181.793777,358.938080 184.529190,358.958710 187.241684,358.972473 189.938904,358.981628 192.625946,358.987762 195.417297,358.991852 198.278198,358.994568 201.185471,358.996368 204.123657,358.997589 207.082443,358.998413 210.054962,358.998901 213.036652,358.999268 216.024429,358.999512 219.016281,358.999664 222.010849,358.888672 225.007233,358.703583 228.004807,358.469025 231.114319,358.312683 234.298416,358.208466 237.532288,358.138947 240.465958,358.092651 243.199524,358.061768 248.088684,358.027435 252.113495,358.012177 256.000000,358.000000 " stroke-linecap="round" stroke-linejoin="round" stroke="#000000" stroke-width="1.00" fade-time="6" fade-enable="0" RotationPoint="(320.000000,240.000000)" transform="rotate(0.00,155.50,357.00)" xml:id="annotation.V0932BDMD543VBGG9GLM0UV62" visible="1"/></g><polyline fill="none" points="39.000000,404.000000 43.054867,404.296295 46.608849,405.087799 51.476696,405.729706 55.100754,405.879883 60.042198,406.075531 64.049538,406.676697 67.466461,406.856323 71.503616,406.639862 75.557159,406.395508 78.840225,406.657257 82.669731,406.847687 86.630989,406.932281 91.248688,407.091064 96.147888,407.787537 100.043823,407.937042 104.309288,407.981354 108.795349,407.994476 113.235664,408.294647 117.773529,408.791016 121.932899,409.234375 126.276405,409.773132 131.081909,409.932770 136.024277,409.980072 141.007202,410.290405 146.002136,410.789734 150.704346,411.234009 155.208679,411.773041 160.061829,411.932739 165.018311,411.980072 170.005432,411.994080 175.001617,411.998260 180.000488,411.999481 184.703842,412.296143 189.208542,412.495148 193.765503,412.146698 198.226822,412.043457 203.067200,412.012848 207.723618,411.707489 212.214417,411.209595 217.063538,410.765808 222.018829,410.226929 225.452805,409.989716 229.201248,409.513947 232.793152,409.228424 236.241409,409.101501 239.625809,409.045135 242.981827,408.723755 246.325256,408.321655 249.663071,408.142944 253.294678,407.767212 257.130981,407.341003 261.058228,407.151550 265.025879,406.771057 269.011505,406.231567 273.005096,405.621460 277.002258,405.276215 281.112122,405.122772 285.531311,405.054535 289.791687,405.024261 293.907410,405.010803 297.958832,405.004761 301.685425,405.002106 306.314209,405.000641 310.000000,405.000000 " stroke-linecap="round" stroke-linejoin="round" stroke="#000000" stroke-width="1.00" fade-time="6" fade-enable="0" RotationPoint="(320.000000,240.000000)" transform="rotate(0.00,174.50,408.25)" xml:id="annotation.EAJQ59CV1P4RLFPCVNGOF135M" visible="1"/><polyline fill="none" points="52.000000,495.000000 56.351166,495.000000 60.871834,494.469147 65.773041,493.981567 69.809296,493.340240 74.474358,492.989685 79.375122,492.231476 82.685242,491.621368 86.304550,491.276154 91.201347,490.785522 95.948540,489.936462 100.088242,489.305084 104.520699,488.654114 108.194382,488.290680 112.761299,488.086151 117.755318,487.486145 122.750023,486.984894 126.691360,486.341248 130.673981,485.989960 134.668839,485.342682 138.667313,485.101562 142.666855,484.918976 146.666718,484.321655 150.666672,484.095306 154.777771,483.917145 159.353897,483.321136 163.685120,483.095154 168.326462,482.917053 172.676971,482.321075 177.435150,482.095093 182.252380,482.028168 186.655014,481.897217 191.428650,481.315186 196.361572,481.093353 201.341705,481.027679 206.335815,481.008209 211.334061,481.002411 214.666992,481.001099 218.296448,481.000488 222.020645,481.000183 225.527710,481.000061 229.234543,481.000061 232.993134,481.000000 236.515457,481.000000 240.229111,481.000000 244.101822,481.000000 248.045273,481.000000 252.020126,481.000000 256.120056,481.000000 260.534851,481.000000 265.089569,481.000000 269.595367,480.888885 273.820160,480.469147 278.216370,480.208557 282.651703,480.092682 286.845215,480.041199 291.227478,479.722015 295.767761,479.320892 300.378265,479.142609 305.316284,479.063416 307.877502,479.042267 312.797424,479.018768 317.687744,479.008331 320.236267,479.005585 322.824188,479.003723 325.438354,478.891388 328.070007,478.705353 330.713318,478.470245 335.428131,478.208984 339.523621,478.092896 343.883545,478.027496 346.000000,478.000000 " stroke-linecap="round" stroke-linejoin="round" stroke="#000000" stroke-width="1.00" fade-time="6" fade-enable="0" RotationPoint="(320.000000,240.000000)" transform="rotate(0.00,199.00,486.50)" xml:id="annotation.MQOEH62Q9L48FCIJJ5GHUE78N" visible="1"/><g class="group" xml:id="annotation.0MV3M9BO8H1KPFJBA35EQRF1B" xbk_transform="rotate(0.00,140.50,566.50)"><polyline fill="none" points="30.000000,568.000000 31.061729,569.061768 32.768177,569.583008 37.000000,570.000000 " stroke-linecap="round" stroke-linejoin="round" stroke="#000000" stroke-width="1.00" fade-time="6" fade-enable="0" RotationPoint="(320.000000,240.000000)" transform="rotate(0.00,33.50,569.00)" xml:id="annotation.95G12389LP3IFDC4GKI7L3VRG" visible="1"/><polyline fill="none" points="80.000000,556.000000 75.945129,557.384033 74.086723,558.615173 71.791122,561.293396 69.814659,564.963440 68.475945,569.408936 67.486702,573.590271 67.255318,577.532898 67.594955,579.792419 68.063309,580.639343 69.472580,581.876770 72.140022,583.198059 72.982239,583.243164 77.000000,582.000000 " stroke-linecap="round" stroke-linejoin="round" stroke="#000000" stroke-width="1.00" fade-time="6" fade-enable="0" RotationPoint="(320.000000,240.000000)" transform="rotate(0.00,73.63,569.62)" xml:id="annotation.P8OQF0JMRD5C747C3AP3GTIF6" visible="1"/><polyline fill="none" points="87.999992,558.000000 86.912193,561.855957 86.516525,564.491516 87.167870,569.195862 87.852379,571.531494 90.102516,574.841553 90.735008,575.561035 91.490005,575.818481 93.217781,575.511902 93.922966,575.007935 95.002792,573.559082 95.704529,569.807617 95.912445,565.177551 95.443192,560.818054 94.604378,558.659851 94.069580,557.773193 92.586479,556.491760 91.724312,555.994507 91.038429,555.996338 90.470055,556.330872 89.542244,557.591553 87.999992,561.000000 " stroke-linecap="round" stroke-linejoin="round" stroke="#000000" stroke-width="1.00" fade-time="6" fade-enable="0" RotationPoint="(320.000000,240.000000)" transform="rotate(0.00,91.21,565.91)" xml:id="annotation.1JUOT930C90FBC1BV1ELFKIAF" visible="1"/><polyline fill="none" points="101.000000,561.000000 102.391861,565.175598 103.678230,569.721924 104.338470,571.876404 104.670090,572.139832 105.002289,571.871033 105.334854,571.247375 105.802917,567.184448 106.472473,562.289185 107.374565,557.851135 107.916374,556.789612 109.407280,555.313904 110.160408,555.320435 110.884720,555.769165 111.589806,556.512756 113.643898,561.275391 115.129059,565.489014 116.626312,569.899048 117.992027,573.683777 119.000000,576.000000 " stroke-linecap="round" stroke-linejoin="round" stroke="#000000" stroke-width="1.00" fade-time="6" fade-enable="0" RotationPoint="(320.000000,240.000000)" transform="rotate(0.00,110.00,565.66)" xml:id="annotation.5CNNBE3C8H2UTA2804IKC8VIK" visible="1"/><polyline fill="none" points="131.000000,557.000000 129.120712,561.647461 128.332062,565.895569 128.394684,569.672791 128.953201,571.743469 129.942169,573.404480 130.628113,573.825256 132.279160,573.996399 133.827774,573.405823 135.256790,572.291504 138.000000,569.000000 " stroke-linecap="round" stroke-linejoin="round" stroke="#000000" stroke-width="1.00" fade-time="6" fade-enable="0" RotationPoint="(320.000000,240.000000)" transform="rotate(0.00,133.17,565.50)" xml:id="annotation.PH9EUFDDPT7B5EKVHQF6KURJG" visible="1"/><polyline fill="none" points="141.000000,529.000000 140.703705,533.351135 140.208511,537.104065 140.061783,541.327148 140.314606,546.096924 140.796936,550.732422 140.939835,555.217041 141.278473,559.768005 142.082520,563.931274 143.349640,568.788879 145.246017,573.423340 146.000000,576.000000 " stroke-linecap="round" stroke-linejoin="round" stroke="#000000" stroke-width="1.00" fade-time="6" fade-enable="0" RotationPoint="(320.000000,240.000000)" transform="rotate(0.00,143.03,552.50)" xml:id="annotation.AEN8NKPE0T5CTEV90PSJUPRFD" visible="1"/><polyline fill="none" points="152.999985,555.000000 152.208496,558.559692 152.358063,562.758423 153.106079,567.632141 153.824921,570.280945 154.885147,572.198914 155.590088,572.577087 156.393387,572.606934 157.262253,572.404602 158.820236,571.290955 159.546829,570.527283 161.100281,566.798218 161.896408,563.465881 162.509506,559.984863 162.854660,556.415283 162.903107,556.499084 163.511703,561.419617 163.855316,566.062561 165.018845,570.783936 166.770996,574.108826 167.750061,575.159424 168.999985,576.000000 " stroke-linecap="round" stroke-linejoin="round" stroke="#000000" stroke-width="1.00" fade-time="6" fade-enable="0" RotationPoint="(320.000000,240.000000)" transform="rotate(0.00,160.60,565.50)" xml:id="annotation.4HSG1QF07H5FRAN2DVN40MG1M" visible="1"/><polyline fill="none" points="180.000000,546.000000 176.588623,550.209717 173.853912,555.027588 173.791504,555.907288 174.314743,557.477295 175.584320,558.619507 178.584564,560.789062 181.989197,565.400208 183.106308,567.844543 183.624084,571.608215 183.351456,573.825867 182.042404,576.948364 181.250488,577.632263 179.185410,578.392090 177.082397,578.137207 176.054947,577.758118 175.369965,577.172058 174.000000,574.000000 " stroke-linecap="round" stroke-linejoin="round" stroke="#000000" stroke-width="1.00" fade-time="6" fade-enable="0" RotationPoint="(320.000000,240.000000)" transform="rotate(0.00,178.71,562.20)" xml:id="annotation.399L5IIUG52VL7I87LFPBSJE9" visible="1"/><polyline fill="none" points="197.000000,562.000000 198.391861,566.706482 199.456009,570.497559 199.415115,570.776123 199.000000,571.000000 " stroke-linecap="round" stroke-linejoin="round" stroke="#000000" stroke-width="1.00" fade-time="6" fade-enable="0" RotationPoint="(320.000000,240.000000)" transform="rotate(0.00,198.23,566.50)" xml:id="annotation.DONGDC1LUP6MN43PD3BJLIP6K" visible="1"/><polyline fill="none" points="193.000000,548.000000 190.000000,548.000000 " stroke-linecap="round" stroke-linejoin="round" stroke="#000000" stroke-width="1.00" fade-time="6" fade-enable="0" RotationPoint="(320.000000,240.000000)" transform="rotate(0.00,191.50,548.50)" xml:id="annotation.20766IVMMD4LN7SUP979KSOCP" visible="1"/><polyline fill="none" points="211.000000,559.000000 211.111115,562.991821 211.798340,567.417358 212.927902,571.592773 215.274933,575.422546 217.122177,577.261841 219.350601,578.227478 220.567062,578.484985 221.711365,578.323303 223.871704,577.254822 225.350388,575.668762 225.900253,574.779175 226.214920,572.309326 225.873306,569.581909 223.843292,565.114990 222.485916,563.273315 219.847687,561.611877 216.000000,560.000000 " stroke-linecap="round" stroke-linejoin="round" stroke="#000000" stroke-width="1.00" fade-time="6" fade-enable="0" RotationPoint="(320.000000,240.000000)" transform="rotate(0.00,218.61,568.74)" xml:id="annotation.5VOS9QOIR159V89Q71JQ09V3D" visible="1"/><polyline fill="none" points="230.000000,570.000000 234.175583,573.644714 235.005936,573.763123 235.781738,573.508728 236.521164,573.005798 237.639023,571.558105 238.092682,570.705383 238.731155,566.320129 238.920334,561.860291 239.507263,558.254883 240.004852,557.614380 240.669891,557.298523 241.446594,557.198975 242.075516,557.688232 244.786346,562.384216 246.927979,567.050598 249.344421,572.006653 251.000000,576.000000 " stroke-linecap="round" stroke-linejoin="round" stroke="#000000" stroke-width="1.00" fade-time="6" fade-enable="0" RotationPoint="(320.000000,240.000000)" transform="rotate(0.00,240.50,566.60)" xml:id="annotation.AQE2J7UVCD08DELHGMQ7E0RGJ" visible="1"/><polyline fill="none" points="72.000000,595.000000 76.351166,595.000000 80.696648,595.000000 84.309616,595.000000 88.137604,595.000000 92.061157,595.000000 95.804962,595.000000 100.744675,595.000000 104.812447,595.000000 108.324051,595.000000 112.799721,595.000000 116.940659,595.000000 120.982407,595.000000 125.291084,595.000000 129.789948,595.000000 133.937759,595.296265 138.277863,595.791443 143.082336,595.938232 148.024399,595.981689 152.710938,596.290894 157.210648,596.789856 162.062424,597.234070 167.018494,598.069336 172.005478,598.724304 177.001633,599.214600 181.704178,599.767334 186.208664,600.227356 191.061829,600.771118 196.018311,601.228455 200.709137,602.067688 205.210129,602.723755 210.062256,603.214478 214.722153,603.767273 219.213974,603.931030 223.767105,603.979553 227.338394,603.993958 230.000000,604.000000 " stroke-linecap="round" stroke-linejoin="round" stroke="#000000" stroke-width="1.00" fade-time="6" fade-enable="0" RotationPoint="(320.000000,240.000000)" transform="rotate(0.00,151.00,599.50)" xml:id="annotation.QKNHSV3A2L4F14TM9UOJKCRD1" visible="1"/></g></g></svg>