<?xml version="1.0" encoding="UTF-8" standalone="yes"?><svg width="800" height="673" xml:id="page.427OS6AMJT0M96DUJPM3RD2T1"><title>Sep 9-10:17 AM</title><g class="foreground"><g class="group" xml:id="annotation.BBUQOEJS9D53H5DR34UTC5SLE" xbk_transform="rotate(0.00,410.07,234.59)"><polyline fill="none" points="138.000000,197.000000 137.469131,200.185181 137.208511,204.119339 137.092667,208.497498 137.041183,212.295181 136.722015,215.834900 136.320892,219.482178 136.142609,223.695786 136.063385,227.568497 136.028168,231.252655 136.012512,235.112289 136.005554,238.753601 136.113586,242.446030 136.531952,246.679718 136.791992,250.265060 136.861328,251.843369 136.796448,252.117813 136.190247,247.562363 136.056366,242.870331 136.025055,239.386810 136.011124,235.245987 136.004944,231.109314 136.002197,227.048584 136.000977,223.021591 136.000427,219.009598 136.000198,215.004272 136.000076,211.001892 136.592621,207.297134 137.485611,203.798737 138.724121,198.816910 140.560226,194.476608 143.165985,190.598007 148.021866,186.455978 151.006470,184.900528 154.188049,184.696533 157.639130,185.087341 160.831360,186.556732 163.184601,188.510635 165.178162,191.262421 166.903503,195.821365 167.512665,198.253937 167.633377,203.038193 166.092194,207.809998 165.728119,208.873337 164.434723,210.647400 162.748764,212.065521 158.654083,214.177551 154.601212,215.756302 150.178146,216.631500 145.756500,216.890808 141.520447,216.671356 138.154205,215.606323 134.030457,213.786438 132.309830,212.460648 130.000000,210.000000 " stroke-linecap="round" stroke-linejoin="round" stroke="#000000" stroke-width="1.00" fade-time="6" fade-enable="0" RotationPoint="(320.000000,240.000000)" transform="rotate(0.00,148.82,218.41)" xml:id="annotation.I5QQ4C3H252MDALVTDLCVRTEU" visible="1"/><polyline fill="none" points="185.000000,196.000000 185.000000,200.943756 184.703705,205.390732 184.000000,209.000000 " stroke-linecap="round" stroke-linejoin="round" stroke="#000000" stroke-width="1.00" fade-time="6" fade-enable="0" RotationPoint="(320.000000,240.000000)" transform="rotate(0.00,185.00,202.50)" xml:id="annotation.T3JNA1DL5T0BT5ATN6G8BBP26" visible="1"/><polyline fill="none" points="186.000000,173.000000 184.000000,172.000000 " stroke-linecap="round" stroke-linejoin="round" stroke="#000000" stroke-width="1.00" fade-time="6" fade-enable="0" RotationPoint="(320.000000,240.000000)" transform="rotate(0.00,185.50,173.00)" xml:id="annotation.80FEEQ72350V5BG3B5TEUU70O" visible="1"/><polyline fill="none" points="207.000000,211.000000 211.679016,209.979431 216.213547,207.808716 219.655869,205.597656 222.132599,202.658569 223.577438,199.885284 223.829407,198.590195 223.516785,196.262299 222.900070,195.397095 221.029663,194.139450 219.013184,193.802719 217.005859,194.134552 214.001740,195.681839 209.704041,199.134674 205.669922,203.026596 203.963943,206.007889 203.724716,208.596100 203.816483,210.064056 204.807312,212.584030 206.358795,214.592911 208.159470,215.856125 212.718750,216.885147 216.648148,217.746872 219.000000,218.000000 " stroke-linecap="round" stroke-linejoin="round" stroke="#000000" stroke-width="1.00" fade-time="6" fade-enable="0" RotationPoint="(320.000000,240.000000)" transform="rotate(0.00,213.78,205.90)" xml:id="annotation.IM0T0GU1251OVF2B43OR530G6" visible="1"/><polyline fill="none" points="256.000000,197.000000 254.407410,196.469147 251.293549,196.669861 246.946854,198.420380 243.441040,199.815918 239.435318,203.576569 237.363556,206.701691 236.902313,209.163712 236.934875,210.442474 238.156250,212.752228 239.104172,213.834824 241.342590,215.037689 242.561722,215.358475 245.397781,215.122284 248.510132,214.054352 253.052368,210.954376 255.953796,207.109955 258.220886,202.501709 260.300018,197.506683 261.651855,193.780746 262.697113,190.198853 263.532043,186.755035 264.515686,181.803970 264.856476,177.472778 264.846344,173.263535 264.189056,168.769440 263.602539,166.341980 263.068359,165.783539 262.378906,165.633484 261.585938,165.755646 260.946167,166.392654 259.121033,170.814178 258.332153,174.241241 258.098419,178.367767 258.325470,182.812683 258.800140,186.944504 259.237091,191.279846 260.070251,195.786621 261.347198,200.760315 262.780518,204.952637 265.725555,209.462891 269.007751,212.676880 271.000000,214.000000 " stroke-linecap="round" stroke-linejoin="round" stroke="#000000" stroke-width="1.00" fade-time="6" fade-enable="0" RotationPoint="(320.000000,240.000000)" transform="rotate(0.00,253.95,190.50)" xml:id="annotation.3AEGI7RL09643BSH7IVQEJCTE" visible="1"/><polyline fill="none" points="288.000000,199.000000 287.208496,202.559662 287.061798,206.462128 287.314606,210.544342 287.584259,212.130814 287.500641,212.087219 287.333771,211.724808 287.098877,207.498718 287.029297,202.913193 287.539551,199.270584 288.394440,194.487579 289.882294,190.971619 291.392151,189.579987 292.261444,189.053314 293.174286,188.924438 295.077454,189.373825 296.738159,191.203186 299.614960,195.311737 301.120483,199.684967 302.801147,204.141220 304.706512,207.214676 305.471008,207.476471 306.314026,207.317642 307.209351,206.878433 308.796753,204.908936 311.095642,200.179550 313.264984,195.319946 315.718994,191.865662 316.701569,191.466003 319.274780,191.614517 320.294281,192.298569 321.723389,194.540115 323.546204,198.909149 324.976196,202.982056 325.992950,206.587265 326.997925,211.173996 327.776855,214.077332 331.000000,219.000000 " stroke-linecap="round" stroke-linejoin="round" stroke="#000000" stroke-width="1.00" fade-time="6" fade-enable="0" RotationPoint="(320.000000,240.000000)" transform="rotate(0.00,309.01,203.96)" xml:id="annotation.J29GPVPFP96TH0TRQI3L3H0KI" visible="1"/><polyline fill="none" points="348.000000,193.000000 344.736633,196.855972 343.216278,199.602646 342.360382,203.647690 342.217896,207.549942 342.578339,209.799988 343.405182,211.614807 345.746674,214.590561 348.221222,216.113251 351.065552,217.268127 355.612030,217.252274 359.588745,216.543869 362.878143,215.099426 366.864838,211.822098 369.083405,208.836182 370.074097,206.445709 370.194794,201.539459 369.526825,197.456131 368.094360,194.666016 366.597473,193.444153 361.946991,191.391830 358.762054,190.461777 354.731964,190.136810 351.000000,190.000000 " stroke-linecap="round" stroke-linejoin="round" stroke="#000000" stroke-width="1.00" fade-time="6" fade-enable="0" RotationPoint="(320.000000,240.000000)" transform="rotate(0.00,356.21,203.63)" xml:id="annotation.R11B2JDH750KN2S75RDVTTNBF" visible="1"/><polyline fill="none" points="381.000000,211.000000 381.000000,213.304520 381.222229,211.213684 382.485596,206.692947 383.724121,202.439880 385.338013,198.364899 386.680420,194.453796 389.068542,190.385925 389.712372,189.590622 393.272797,187.409576 397.315399,186.417648 398.432495,186.722870 400.266266,188.247208 402.017151,191.073242 403.604218,195.812820 404.537048,199.709976 404.862854,203.679489 405.070465,207.559372 405.783478,212.505554 406.125977,215.224686 407.457092,217.893738 409.000000,220.000000 " stroke-linecap="round" stroke-linejoin="round" stroke="#000000" stroke-width="1.00" fade-time="6" fade-enable="0" RotationPoint="(320.000000,240.000000)" transform="rotate(0.00,395.00,203.21)" xml:id="annotation.MR63HL4KKL6GNAHQPVTALT4MJ" visible="1"/><polyline fill="none" points="433.000000,152.000000 431.608154,156.175583 431.009033,160.944138 430.237274,165.403214 429.304871,169.810837 428.654022,173.360367 428.193787,178.045059 428.057434,182.778793 428.016998,187.169022 428.005066,191.815506 428.002258,195.658752 428.001007,199.737213 428.000427,203.401733 428.531006,208.057297 429.000000,213.000000 " stroke-linecap="round" stroke-linejoin="round" stroke="#000000" stroke-width="1.00" fade-time="6" fade-enable="0" RotationPoint="(320.000000,240.000000)" transform="rotate(0.00,431.00,182.50)" xml:id="annotation.UJLBQS13EL4EJBL3DO1RK1EL8" visible="1"/><polyline fill="none" points="417.000000,191.000000 420.193420,189.625504 425.104034,188.827255 429.327118,187.948807 434.096924,186.984818 439.028687,185.995499 442.457184,185.442444 446.203186,185.196655 450.000000,185.000000 " stroke-linecap="round" stroke-linejoin="round" stroke="#000000" stroke-width="1.00" fade-time="6" fade-enable="0" RotationPoint="(320.000000,240.000000)" transform="rotate(0.00,433.50,188.50)" xml:id="annotation.H6FGNSF6C939JAO5GIP5ACHJ2" visible="1"/><polyline fill="none" points="501.000000,207.000000 499.514374,211.567902 498.747131,214.289429 498.924652,216.980484 499.744324,219.435760 500.849335,221.267761 502.377502,222.526413 506.605438,224.239807 510.413940,224.774765 514.357178,224.402374 518.340393,223.057510 522.335449,221.782486 526.868713,219.446762 530.677795,215.890717 533.603027,211.978409 534.379150,209.694107 534.501831,206.975159 533.321594,202.029678 532.179932,199.457642 529.746643,197.203400 526.665161,195.423737 523.814148,194.632782 519.710388,194.718353 515.679626,195.447403 511.023163,197.598663 506.235016,201.118240 503.958557,203.442444 503.000000,205.000000 " stroke-linecap="round" stroke-linejoin="round" stroke="#000000" stroke-width="1.00" fade-time="6" fade-enable="0" RotationPoint="(320.000000,240.000000)" transform="rotate(0.00,516.62,209.70)" xml:id="annotation.U9J2JKCCIT0DF1JJGVVTA1858" visible="1"/><polyline fill="none" points="563.000000,161.000000 561.912231,156.945129 561.608154,155.963440 561.072083,155.197845 559.587646,154.050888 557.520447,153.763367 556.346985,153.842224 554.450439,154.818771 551.422302,158.161743 549.359680,162.109665 547.872009,166.797928 547.091248,170.354630 546.484985,174.268723 546.215515,178.600906 546.095825,182.822632 546.153687,187.032288 546.549805,191.495834 546.799927,196.072220 547.022156,200.698761 547.491333,205.347580 547.773926,209.710037 548.010620,213.871140 548.486206,217.942734 548.771606,221.678238 548.898499,225.190323 548.969910,230.179855 548.879944,234.522430 548.199036,238.512833 547.182434,241.633438 545.000000,244.000000 " stroke-linecap="round" stroke-linejoin="round" stroke="#000000" stroke-width="1.00" fade-time="6" fade-enable="0" RotationPoint="(320.000000,240.000000)" transform="rotate(0.00,554.50,198.88)" xml:id="annotation.NV3DBCM9O96F90BOB5RKOQFD4" visible="1"/><polyline fill="none" points="528.000000,214.000000 528.530823,212.407410 530.453552,209.824417 534.887939,206.187546 538.954468,204.475311 542.424255,203.248276 545.892273,201.962189 549.285461,200.872086 553.985840,200.147278 558.000000,199.000000 " stroke-linecap="round" stroke-linejoin="round" stroke="#000000" stroke-width="1.00" fade-time="6" fade-enable="0" RotationPoint="(320.000000,240.000000)" transform="rotate(0.00,543.00,207.00)" xml:id="annotation.OUP7JCBA5D75B7ECH9EE73OFN" visible="1"/><polyline fill="none" points="610.000000,164.000000 608.615967,168.744858 607.607056,172.775482 606.788330,176.418732 606.054077,180.186096 605.357361,184.082703 604.677307,188.036743 604.301025,191.720032 604.133789,195.208908 604.150757,200.185349 604.698975,204.524063 605.021912,208.513306 606.070129,212.903870 606.808960,214.735046 609.000000,217.000000 " stroke-linecap="round" stroke-linejoin="round" stroke="#000000" stroke-width="1.00" fade-time="6" fade-enable="0" RotationPoint="(320.000000,240.000000)" transform="rotate(0.00,607.57,190.50)" xml:id="annotation.NV4B5SKOA14JR0TPM4RFL2RAQ" visible="1"/><polyline fill="none" points="625.000000,167.000000 625.791443,171.351151 625.938232,175.104050 625.981689,179.327133 625.698303,184.096939 625.206909,188.732437 625.061340,192.920715 625.314514,197.569107 625.806396,201.030716 626.819153,205.256027 627.882568,207.187866 628.699524,207.569687 630.792419,207.401337 632.907715,205.993179 636.981750,201.467773 640.197998,197.092407 643.648865,192.543045 645.661377,190.395477 646.218689,190.485870 646.701416,191.101685 647.422852,193.267410 647.940125,197.387878 648.858826,200.707520 651.205017,205.115128 653.357056,207.503250 658.046997,210.978470 663.006165,213.532135 665.002747,214.273544 669.798889,214.169266 673.840942,214.033432 675.000000,214.000000 " stroke-linecap="round" stroke-linejoin="round" stroke="#000000" stroke-width="1.00" fade-time="6" fade-enable="0" RotationPoint="(320.000000,240.000000)" transform="rotate(0.00,650.00,190.64)" xml:id="annotation.3NJ1RPH4191E57K3A84KMF4LF" visible="1"/><polyline fill="none" points="600.000000,194.000000 604.679016,194.111115 609.435791,194.576126 614.141479,194.220093 619.000000,194.000000 " stroke-linecap="round" stroke-linejoin="round" stroke="#000000" stroke-width="1.00" fade-time="6" fade-enable="0" RotationPoint="(320.000000,240.000000)" transform="rotate(0.00,609.50,194.50)" xml:id="annotation.OOFU301SK161L5V2CS7TQ96BA" visible="1"/><polyline fill="none" points="680.000000,206.000000 683.559692,205.208511 688.054749,204.765472 691.802063,204.229095 696.299377,203.302444 699.681335,202.213074 701.376892,201.131729 702.574951,199.317810 703.049927,198.211884 703.144409,197.252365 702.656738,195.593643 700.071167,192.879593 697.735352,191.835388 695.215698,191.482391 691.187378,192.019485 686.635742,193.536636 682.311829,195.393570 677.894897,197.462280 675.879211,199.205460 674.835205,201.387604 674.556763,202.591721 675.432617,205.411133 677.303406,208.293839 679.616333,210.686157 684.478882,213.376160 687.916565,215.167175 692.382690,217.456955 696.000000,219.000000 " stroke-linecap="round" stroke-linejoin="round" stroke="#000000" stroke-width="1.00" fade-time="6" fade-enable="0" RotationPoint="(320.000000,240.000000)" transform="rotate(0.00,688.85,205.24)" xml:id="annotation.GTG5T5HS914GT15BJ9HKHDV0C" visible="1"/><polyline fill="none" points="185.000000,260.000000 186.087784,264.351196 187.026016,268.104065 188.007721,272.623413 188.670090,276.165955 189.334854,279.592285 189.704376,282.966949 190.208694,287.693939 190.765549,291.909302 191.484558,296.784546 192.000000,299.000000 " stroke-linecap="round" stroke-linejoin="round" stroke="#000000" stroke-width="1.00" fade-time="6" fade-enable="0" RotationPoint="(320.000000,240.000000)" transform="rotate(0.00,188.50,279.50)" xml:id="annotation.GJ0R0PE26T60PBCKG9HT53CGB" visible="1"/><polyline fill="none" points="194.000000,252.000000 197.880661,252.000000 201.841187,252.222229 206.594910,253.485580 210.264389,254.252853 215.016602,256.371216 219.239471,259.109985 222.243790,261.501709 224.010483,264.148651 224.118103,265.210205 223.645081,267.574921 222.397812,269.514771 218.881042,272.570831 214.178146,275.314392 210.287354,277.216614 206.430817,278.644440 202.381409,281.061462 201.587601,281.707642 200.409302,283.610779 199.939529,284.740509 199.848572,285.715912 200.340103,287.392242 202.397064,290.116211 207.348587,294.223785 211.103287,296.769989 215.030609,299.228149 219.277649,302.514191 222.145370,305.414337 223.101639,307.184174 222.956650,307.900574 222.415543,308.489258 221.610352,308.992828 216.761108,309.701599 213.190125,309.571075 209.640045,309.142700 205.840027,308.581970 202.225189,307.962341 198.766754,307.205475 193.807434,305.641144 189.584930,304.424530 185.115540,303.018005 183.273575,302.230225 181.000000,300.000000 " stroke-linecap="round" stroke-linejoin="round" stroke="#000000" stroke-width="1.00" fade-time="6" fade-enable="0" RotationPoint="(320.000000,240.000000)" transform="rotate(0.00,202.56,280.85)" xml:id="annotation.PGLGI6LA851KD7PUTPBB6IMLH" visible="1"/><polyline fill="none" points="241.000000,294.000000 244.644714,291.216278 246.129303,288.767792 245.863983,288.289642 245.131531,288.081970 242.038956,288.320618 241.025970,288.547089 238.007690,290.458405 234.223740,294.090576 231.783920,299.011932 231.763153,303.065277 232.783630,305.584564 233.522430,306.723022 234.570511,307.482025 237.216522,308.325348 241.829590,308.269257 244.183517,307.527069 245.122345,307.018036 248.036240,303.647339 249.949005,299.660950 251.219452,295.134125 251.269669,291.223999 252.119110,295.834351 252.830734,298.926392 254.801941,303.018402 256.237640,305.709167 258.366699,307.913849 261.108643,309.678162 264.000000,311.000000 " stroke-linecap="round" stroke-linejoin="round" stroke="#000000" stroke-width="1.00" fade-time="6" fade-enable="0" RotationPoint="(320.000000,240.000000)" transform="rotate(0.00,247.88,299.54)" xml:id="annotation.54T3LKIQU51JTDPI2JG1V5IK5" visible="1"/><polyline fill="none" points="274.000000,255.000000 273.208496,259.943756 273.092651,263.308350 273.041199,266.655548 273.018341,269.995026 273.008148,273.331116 273.003632,276.665680 273.001587,279.999542 273.000488,284.703583 273.296417,289.208466 273.798431,292.537079 274.391876,296.238708 275.026031,299.809784 275.711426,303.758453 276.000000,306.000000 " stroke-linecap="round" stroke-linejoin="round" stroke="#000000" stroke-width="1.00" fade-time="6" fade-enable="0" RotationPoint="(320.000000,240.000000)" transform="rotate(0.00,274.50,280.50)" xml:id="annotation.KORCSOFKC957N8J3POTEVPCBI" visible="1"/><polyline fill="none" points="293.000000,257.000000 291.912201,261.448578 291.405426,264.977142 291.120117,269.684570 291.053375,273.304260 291.023743,277.135223 290.899445,280.948975 290.473846,284.495850 290.210571,288.220337 290.093597,291.875732 289.916626,296.432312 289.320984,300.597229 289.142670,303.302460 289.428436,304.090515 289.952271,304.504791 290.634857,304.669861 291.312103,304.557678 292.657257,303.840424 297.086548,299.847290 301.435272,294.979889 306.372833,289.997345 310.640839,285.391632 313.000000,283.000000 " stroke-linecap="round" stroke-linejoin="round" stroke="#000000" stroke-width="1.00" fade-time="6" fade-enable="0" RotationPoint="(320.000000,240.000000)" transform="rotate(0.00,301.07,280.83)" xml:id="annotation.BPPSJPIATL7VHFGPEFULGPBGF" visible="1"/><polyline fill="none" points="302.000000,294.000000 302.000000,296.654327 302.888885,298.846344 305.644714,302.969666 310.084869,306.908203 314.900085,309.634033 317.618103,311.466827 319.000000,312.000000 " stroke-linecap="round" stroke-linejoin="round" stroke="#000000" stroke-width="1.00" fade-time="6" fade-enable="0" RotationPoint="(320.000000,240.000000)" transform="rotate(0.00,310.50,303.00)" xml:id="annotation.1MM6F7DS0P2LD53Q383BIU7GP" visible="1"/><polyline fill="none" points="345.000000,287.000000 340.945129,285.120728 338.642273,284.498108 335.396545,284.221375 332.028107,284.987274 329.012482,286.438812 324.510559,290.526917 322.916718,293.156128 322.271637,296.577118 323.009613,298.812042 324.559814,300.805359 327.931305,303.065765 330.450958,304.066254 332.755981,304.288696 333.837311,304.192505 337.482635,302.464447 340.846710,299.310425 342.892853,296.092010 343.373016,295.839111 343.804230,296.114960 345.752014,300.257965 347.786407,304.820496 349.000000,308.000000 " stroke-linecap="round" stroke-linejoin="round" stroke="#000000" stroke-width="1.00" fade-time="6" fade-enable="0" RotationPoint="(320.000000,240.000000)" transform="rotate(0.00,335.64,296.11)" xml:id="annotation.3CQBEDDHD90N199DT2QGNCC2K" visible="1"/><polyline fill="none" points="354.000000,308.000000 354.000000,305.876526 355.061707,302.963409 357.314606,298.396545 359.562347,294.944672 361.249939,293.567993 364.666656,292.168304 366.111115,291.778870 368.901245,291.938751 371.400574,292.750549 373.252106,293.852112 374.519440,296.267609 375.230865,299.230042 375.078491,304.144196 375.023285,308.635315 375.006897,313.299347 375.000000,317.000000 " stroke-linecap="round" stroke-linejoin="round" stroke="#000000" stroke-width="1.00" fade-time="6" fade-enable="0" RotationPoint="(320.000000,240.000000)" transform="rotate(0.00,364.62,304.39)" xml:id="annotation.9IFVFNMLN165N4UMM24TK776A" visible="1"/><polyline fill="none" points="402.000000,292.000000 400.292206,290.514404 395.375946,288.690491 394.472839,288.793671 393.759674,289.195801 393.173096,289.797211 393.004303,290.420349 393.113953,291.057983 395.591156,295.139313 399.413055,299.027527 404.124359,304.003632 407.639130,309.000458 408.395172,311.296509 408.596802,312.531006 408.397858,313.576233 407.287933,315.330139 405.387207,316.554138 404.258148,317.036102 400.014771,317.183533 397.747284,316.488953 394.000000,314.000000 " stroke-linecap="round" stroke-linejoin="round" stroke="#000000" stroke-width="1.00" fade-time="6" fade-enable="0" RotationPoint="(320.000000,240.000000)" transform="rotate(0.00,400.80,302.94)" xml:id="annotation.8T5P5H1BM54V1BM9MIUOJ3USB" visible="1"/><polyline fill="none" points="422.000000,281.000000 423.391846,285.706451 424.026001,286.980652 425.000000,288.000000 " stroke-linecap="round" stroke-linejoin="round" stroke="#000000" stroke-width="1.00" fade-time="6" fade-enable="0" RotationPoint="(320.000000,240.000000)" transform="rotate(0.00,423.50,284.50)" xml:id="annotation.U9POQ3N6A56NPCK74GG647773" visible="1"/><polyline fill="none" points="432.000000,280.000000 434.283936,281.707794 437.000000,285.000000 " stroke-linecap="round" stroke-linejoin="round" stroke="#000000" stroke-width="1.00" fade-time="6" fade-enable="0" RotationPoint="(320.000000,240.000000)" transform="rotate(0.00,434.50,282.50)" xml:id="annotation.1Q3MJECNO125N9QI61NUBSSRB" visible="1"/><polyline fill="none" points="123.000000,167.000000 120.216270,171.505722 117.577179,175.474014 117.000000,177.000000 " stroke-linecap="round" stroke-linejoin="round" stroke="#000000" stroke-width="1.00" fade-time="6" fade-enable="0" RotationPoint="(320.000000,240.000000)" transform="rotate(0.00,120.50,172.00)" xml:id="annotation.SNHLQ18GIT1ERFE4PQH4AMDA1" visible="1"/><polyline fill="none" points="132.000000,167.000000 128.699738,170.522491 127.000000,174.000000 " stroke-linecap="round" stroke-linejoin="round" stroke="#000000" stroke-width="1.00" fade-time="6" fade-enable="0" RotationPoint="(320.000000,240.000000)" transform="rotate(0.00,130.00,170.50)" xml:id="annotation.D6PL1GA5K543PFJTMVFDM92MS" visible="1"/></g><polyline fill="none" points="175.000000,236.000000 178.559662,236.791504 183.054718,236.641922 186.913208,236.285294 190.479919,236.126816 195.080475,236.037582 199.789276,236.011139 203.350784,236.004959 207.044800,236.002213 210.538437,236.000992 214.239304,236.000458 218.217468,235.889084 222.578125,235.469223 226.812500,235.504822 230.916672,235.779922 234.962967,235.902176 239.279846,235.956543 243.791046,235.980682 248.388611,235.991409 253.320862,235.996170 255.880569,235.997452 260.798767,235.998886 265.688354,236.110626 268.236694,236.295975 270.824463,236.530655 275.773804,236.791428 280.677246,236.907318 283.229309,236.938202 285.819550,236.958801 290.771637,236.981689 295.676300,236.991852 298.228638,236.994568 300.819092,236.996384 305.771454,237.294678 310.676208,237.686539 313.228607,237.791016 315.819092,237.860672 320.771454,237.938065 325.676208,237.972458 328.228607,237.981628 330.819092,237.987762 335.771454,237.994568 340.565063,237.997589 345.288208,237.998932 349.683655,237.999512 353.970520,237.999786 358.468384,237.999908 362.763733,237.703674 366.672791,237.423859 371.261047,237.779907 376.000000,238.000000 " stroke-linecap="round" stroke-linejoin="round" stroke="#000000" stroke-width="1.00" fade-time="6" fade-enable="0" RotationPoint="(320.000000,240.000000)" transform="rotate(0.00,275.50,236.73)" xml:id="annotation.E7V3DHNJ7T2PN8TOC9FC5L53R" visible="1"/><polyline fill="none" points="235.994919,416.495300 236.044861,416.279663 237.342194,411.524384 238.866821,408.155396 239.166351,407.768494 " stroke-linecap="round" stroke-linejoin="round" stroke="#000000" stroke-width="1.00" fade-time="6" fade-enable="0" RotationPoint="(320.000000,240.000000)" transform="rotate(0.00,237.58,412.63)" xml:id="annotation.ME1VO75KUH5IF1BPP41C4SMQH" visible="1"/><polyline fill="none" points="267.611542,616.610046 267.683990,616.608704 268.789337,616.405823 270.906372,615.291443 272.847260,613.573975 275.078217,609.997192 275.978943,606.943237 " stroke-linecap="round" stroke-linejoin="round" stroke="#000000" stroke-width="1.00" fade-time="6" fade-enable="0" RotationPoint="(320.000000,240.000000)" transform="rotate(0.00,271.80,612.28)" xml:id="annotation.07VHON9F094DJD8L0HPGJ5HN3" visible="1"/><polyline fill="none" points="170.000000,229.000000 172.617279,228.312744 176.713760,228.092667 181.223831,227.916336 185.103363,227.320892 188.490372,227.142609 193.083572,227.042252 196.777878,227.018768 201.012390,227.008347 205.486984,227.003708 210.068298,227.001648 214.363693,227.000717 219.280594,227.000214 223.774506,227.000076 227.344223,227.000031 231.153000,227.000015 234.845779,227.000000 239.645660,227.000000 243.286972,227.000000 246.831238,226.703705 250.369461,226.312759 254.164200,226.138992 257.776703,226.061783 262.341248,225.722015 266.693726,225.213928 271.316650,224.767090 275.686401,224.227280 279.193970,223.989899 284.180939,223.342682 288.744995,223.101532 292.331116,223.045135 297.036377,223.013382 300.756927,222.709656 304.669739,222.426498 309.482391,222.780701 314.266388,222.935013 318.548096,222.980759 322.631531,222.994308 326.656250,222.998306 330.774689,222.999496 335.464111,222.999863 340.372070,222.999954 345.233704,223.111115 349.316162,223.687241 353.000000,224.000000 " stroke-linecap="round" stroke-linejoin="round" stroke="#000000" stroke-width="1.00" fade-time="6" fade-enable="0" RotationPoint="(320.000000,240.000000)" transform="rotate(0.00,261.50,226.21)" xml:id="annotation.R6O50OTCG55QF3USKC8AD1S2O" visible="1"/><g class="group" xml:id="annotation.U20ES1B3VL793253LMGMPE46E" xbk_transform="rotate(0.00,167.49,105.50)"><polyline fill="none" points="93.000000,70.000000 89.283943,71.061729 85.385460,72.175575 81.282425,73.411369 77.607002,74.701347 72.945282,76.676941 68.749214,79.200577 65.752861,81.528564 64.482758,83.531219 63.988503,84.687485 63.992332,85.791656 64.885483,87.907410 67.262367,90.441696 70.077744,92.069145 74.924820,93.725601 79.508583,95.338448 84.274147,96.680534 88.661476,98.436211 93.208336,100.363815 97.843620,103.006020 99.819382,104.558235 101.438240,106.729584 101.736603,107.930832 101.475533,110.450737 100.322456,112.459587 98.587761,113.982033 93.852730,116.161041 89.660065,118.047714 84.899277,119.717842 80.266449,121.212677 76.078949,122.470428 71.213127,123.426262 69.094719,123.744995 66.000000,124.000000 " stroke-linecap="round" stroke-linejoin="round" stroke="#000000" stroke-width="1.00" fade-time="6" fade-enable="0" RotationPoint="(320.000000,240.000000)" transform="rotate(0.00,82.86,97.00)" xml:id="annotation.AM0JR24ET15TF6N22VMPOEB1M" visible="1"/><polyline fill="none" points="116.000000,107.000000 119.991776,107.576134 124.528427,106.997864 129.168915,105.579620 132.642639,104.295197 134.359695,103.168243 135.567276,101.630333 136.044846,100.753555 135.918793,100.057922 135.390305,99.483063 134.593536,98.988708 132.523056,98.735725 127.572456,99.478661 123.107880,100.907265 118.797401,102.737953 114.705406,104.687790 110.250443,107.337502 107.839638,109.556786 106.410210,111.728943 105.923058,113.879532 105.948700,114.919685 106.410255,115.835350 108.108253,117.445343 111.032082,119.070229 114.199448,119.586777 117.866417,119.705238 122.318443,119.147232 126.569077,117.963226 129.000000,117.000000 " stroke-linecap="round" stroke-linejoin="round" stroke="#000000" stroke-width="1.00" fade-time="6" fade-enable="0" RotationPoint="(320.000000,240.000000)" transform="rotate(0.00,120.98,109.22)" xml:id="annotation.JG3UJJT2MT0RTACCHOT9DV62I" visible="1"/><polyline fill="none" points="149.000000,108.000000 147.938263,109.592590 147.278000,113.237305 147.082367,117.304878 147.629196,119.691055 148.086121,120.794037 148.501862,121.196022 148.890121,121.130684 149.260086,120.753792 149.671158,119.149834 149.935043,114.498734 150.511612,110.616905 151.812988,106.232964 152.879852,104.585014 153.808792,104.056679 156.322403,103.469635 161.318176,103.853340 163.000000,104.000000 " stroke-linecap="round" stroke-linejoin="round" stroke="#000000" stroke-width="1.00" fade-time="6" fade-enable="0" RotationPoint="(320.000000,240.000000)" transform="rotate(0.00,155.04,112.33)" xml:id="annotation.0JQREJ98N5787CAODASPNDNSJ" visible="1"/><polyline fill="none" points="182.000000,73.000000 180.403290,74.818924 178.244278,79.227608 177.072372,83.067436 176.021439,87.019981 175.006348,91.005913 174.298172,95.001747 174.088348,99.000519 174.026169,103.296448 174.007751,107.791534 174.005173,109.194351 174.336777,109.796234 174.891174,109.864159 175.594116,109.576103 180.374542,105.020996 184.876450,101.535011 187.241394,100.682228 188.494247,100.454826 190.478928,100.794739 192.101746,101.797661 193.563736,103.354507 195.105301,106.635902 195.306076,109.134476 195.204041,110.422981 194.201813,112.743546 190.842346,116.949356 187.953293,118.923264 183.081314,120.474548 178.365860,120.896194 177.000000,121.000000 " stroke-linecap="round" stroke-linejoin="round" stroke="#000000" stroke-width="1.00" fade-time="6" fade-enable="0" RotationPoint="(320.000000,240.000000)" transform="rotate(0.00,184.66,97.00)" xml:id="annotation.81G4TN8CBL1897DQGIF9JMS83" visible="1"/><polyline fill="none" points="213.000000,98.000000 211.608139,102.175583 210.210648,106.256905 208.502502,110.997253 208.000000,113.000000 " stroke-linecap="round" stroke-linejoin="round" stroke="#000000" stroke-width="1.00" fade-time="6" fade-enable="0" RotationPoint="(320.000000,240.000000)" transform="rotate(0.00,211.00,105.50)" xml:id="annotation.FB1E0I7JTD4C7CIEFT2UU598K" visible="1"/><polyline fill="none" points="214.000000,90.000000 212.514389,88.292183 211.386978,86.234726 211.035767,86.045372 210.000000,86.000000 " stroke-linecap="round" stroke-linejoin="round" stroke="#000000" stroke-width="1.00" fade-time="6" fade-enable="0" RotationPoint="(320.000000,240.000000)" transform="rotate(0.00,212.50,88.50)" xml:id="annotation.3GGI3K660T18T0C7NOJTM6HK2" visible="1"/><polyline fill="none" points="241.000000,103.000000 236.648819,104.384087 233.488525,106.113800 229.043747,110.035568 224.810883,114.418304 223.878906,116.185921 223.808167,117.012825 224.322159,118.524223 225.883926,119.640396 226.922623,120.093597 229.261902,120.004570 231.783081,119.113136 236.430389,116.121109 240.258316,112.460381 242.688889,108.123863 243.306183,106.721718 243.315247,106.814484 243.210159,107.209656 243.685974,108.537628 246.423660,113.181908 249.017853,117.509186 251.000000,120.000000 " stroke-linecap="round" stroke-linejoin="round" stroke="#000000" stroke-width="1.00" fade-time="6" fade-enable="0" RotationPoint="(320.000000,240.000000)" transform="rotate(0.00,237.40,111.55)" xml:id="annotation.9HD0P95UU556P5SC9HJKBR4MP" visible="1"/><polyline fill="none" points="75.000000,140.000000 77.839508,139.312759 81.299042,139.139008 84.836617,138.765472 88.371826,138.340210 92.165253,138.151199 96.073448,137.770905 100.032646,137.342621 104.014503,137.152267 108.599037,136.771378 111.066025,136.514252 113.599571,136.342834 116.177490,136.228561 118.784996,136.152374 121.412216,136.101593 124.052582,136.067719 126.701721,136.045151 129.467804,136.030090 132.311874,136.020065 135.207916,136.013367 138.138611,136.008926 141.092392,136.005951 144.061600,136.003967 147.152176,136.002655 150.323669,136.001770 153.549118,136.001175 156.810516,136.000778 160.095901,136.000519 163.397278,136.000351 166.598206,136.000229 169.732117,136.000168 172.821411,136.000107 175.880951,136.000076 178.920624,136.000061 181.947083,136.000031 185.075836,136.000031 188.272766,136.000015 191.515198,136.000015 194.676788,136.000000 197.784531,136.000000 200.856354,136.000000 204.015335,135.888885 207.232452,135.703705 210.488297,135.469131 213.658859,135.423874 216.772568,135.504807 219.848373,135.669861 222.898926,135.779907 225.932617,135.853271 228.955078,135.902176 231.858948,135.934784 234.683731,135.956528 237.455826,135.971024 240.192749,135.980682 242.906296,135.987122 245.604187,135.991425 248.180557,136.105392 253.117294,136.528320 257.607666,136.790359 261.714508,137.017944 265.391663,137.489456 267.988892,137.773087 271.000000,138.000000 " stroke-linecap="round" stroke-linejoin="round" stroke="#000000" stroke-width="1.00" fade-time="6" fade-enable="0" RotationPoint="(320.000000,240.000000)" transform="rotate(0.00,173.00,138.21)" xml:id="annotation.BBMRNC89RP46N2MP6DTMFGL8P" visible="1"/></g></g></svg>