<?xml version="1.0" encoding="UTF-8" standalone="yes"?><svg width="800" height="1061" xml:id="page.FV5UITG9ND7VJ41CJRCD54TQV"><title>Sep 2-8:56 AM</title><g class="foreground"><text transform="translate(14,14) rotate(0.000,90.000,8.698) scale(1.000,1.000)" RotationPoint="(320.000000,240.000000)" xml:id="annotation.3QD0H2HLCT0AVBGGCM98U69MK" visible="1" smart-txt-ver="2.10" editwidth="180.00" editheight="17.40" forcewidth="1" forceheight="0" language_direction="1" textdirection="0" theme_anno_style="0"><tspan justification="left" line-spacing="1.00" prepara-spacing="1.00" bullet="0"><tspan><tspan fill="#000000" font-size="16.000" font-family="Arial" char-transform="0.00 1.01 0.00 0.00 0.00 1.00" leading="0.970" textLength="174.30" y="14.00" x="0.00">Reading Pages 172-179</tspan></tspan></tspan></text><text transform="translate(206,45) rotate(0.000,179.000,8.722) scale(1.000,1.000)" RotationPoint="(320.000000,240.000000)" xml:id="annotation.173P8K3LEL0JH6OI6DSS12G9D" visible="1" smart-txt-ver="2.10" editwidth="358.00" editheight="17.44" forcewidth="1" forceheight="0" language_direction="1" textdirection="0" theme_anno_style="0"><tspan justification="left" line-spacing="1.00" prepara-spacing="1.00" bullet="0"><tspan><tspan fill="#000000" font-size="16.045" font-family="Arial" char-transform="0.00 1.00 0.00 0.00 0.00 1.00" leading="0.970" textLength="352.21" y="14.04" x="0.00">The First Moroccan Crisis and the Bosnian Crisis.</tspan></tspan></tspan></text><text transform="translate(29,99) rotate(0.000,195.000,26.701) scale(1.000,1.000)" RotationPoint="(320.000000,240.000000)" xml:id="annotation.8UGJ4VHOE12C3412P98QTT71E" visible="1" smart-txt-ver="2.10" editwidth="390.00" editheight="53.40" forcewidth="1" forceheight="0" language_direction="1" textdirection="0" theme_anno_style="0"><tspan justification="left" line-spacing="1.00" prepara-spacing="1.00" bullet="0"><tspan><tspan fill="#000000" font-size="16.000" font-family="Arial" char-transform="0.00 0.98 0.00 0.00 0.00 1.00" leading="0.970" append-soft-return="1" textLength="387.87" y="14.00" x="0.00">1. P173 How did the Great Powers end the first decade </tspan></tspan><tspan><tspan fill="#000000" backgroundColor="#FFFFFF" background-opacity="0" font-size="16.000" font-family="Arial" char-transform="0.00 0.99 0.00 0.00 0.00 1.00" leading="1.008" append-soft-return="1" textLength="390.93" y="32.01" x="0.00">of the 20th Century ?  Explain why two of these powers </tspan></tspan><tspan><tspan fill="#000000" backgroundColor="#FFFFFF" background-opacity="0" font-size="16.000" font-family="Arial" char-transform="0.00 0.95 0.00 0.00 0.00 1.00" leading="1.008" textLength="24.50" y="50.01" x="0.00">felt </tspan><tspan fill="#000000" backgroundColor="#FFFFFF" background-opacity="0" font-style="italic" font-size="16.000" font-family="Arial" char-transform="0.00 1.00 0.00 0.00 0.00 1.00" textLength="73.82" y="50.01" x="24.50">insecure ?</tspan></tspan></tspan></text><text transform="translate(27,200) rotate(0.000,148.000,8.698) scale(1.000,1.000)" RotationPoint="(320.000000,240.000000)" xml:id="annotation.P4DK5G4F0L5BNFDHO9KG4VUS3" visible="1" smart-txt-ver="2.10" editwidth="296.00" editheight="17.40" forcewidth="1" forceheight="0" language_direction="1" textdirection="0" theme_anno_style="0"><tspan justification="left" line-spacing="1.00" prepara-spacing="1.00" bullet="0"><tspan><tspan fill="#000000" font-size="16.000" font-family="Arial" char-transform="0.00 0.98 0.00 0.00 0.00 1.00" leading="0.970" textLength="288.48" y="14.00" x="0.00">2. What did Germany pursue from 1896 ?</tspan></tspan></tspan></text><text transform="translate(25,286) rotate(0.000,195.000,17.699) scale(1.000,1.000)" RotationPoint="(320.000000,240.000000)" xml:id="annotation.304TDI1AN17B5BII4KKUK5265" visible="1" smart-txt-ver="2.10" editwidth="390.00" editheight="35.40" forcewidth="1" forceheight="0" language_direction="1" textdirection="0" theme_anno_style="0"><tspan justification="left" line-spacing="1.00" prepara-spacing="1.00" bullet="0"><tspan><tspan fill="#000000" font-size="16.000" font-family="Arial" char-transform="0.00 0.99 0.00 0.00 0.00 1.00" leading="0.970" append-soft-return="1" textLength="350.44" y="14.00" x="0.00">3. How does the book describe the Triple Entente </tspan></tspan><tspan><tspan fill="#000000" backgroundColor="#FFFFFF" background-opacity="0" font-size="16.000" font-family="Arial" char-transform="0.00 0.99 0.00 0.00 0.00 1.00" leading="1.008" textLength="308.16" y="32.01" x="0.00">between Russia, France and Great Britain ?</tspan></tspan></tspan></text><text transform="translate(26,396) rotate(0.000,195.000,8.720) scale(1.000,1.000)" RotationPoint="(320.000000,240.000000)" xml:id="annotation.1JOCBNIPS11GJDLL20468SK4F" visible="1" smart-txt-ver="2.10" editwidth="390.00" editheight="17.44" forcewidth="1" forceheight="0" language_direction="1" textdirection="0" theme_anno_style="0"><tspan justification="left" line-spacing="1.00" prepara-spacing="1.00" bullet="0"><tspan><tspan fill="#000000" font-size="16.041" font-family="Arial" char-transform="0.00 0.99 0.00 0.00 0.00 1.00" leading="0.970" textLength="383.96" y="14.04" x="0.00">4. What did Kaiser Wilhelm II do on 31st March 1905 ?</tspan></tspan></tspan></text><text transform="translate(28,491) rotate(0.000,141.000,8.698) scale(1.000,1.000)" RotationPoint="(320.000000,240.000000)" xml:id="annotation.HUNPOLRH7L0J7AD9T97FNMJKU" visible="1" smart-txt-ver="2.10" editwidth="282.00" editheight="17.40" forcewidth="1" forceheight="0" language_direction="1" textdirection="0" theme_anno_style="0"><tspan justification="left" line-spacing="1.00" prepara-spacing="1.00" bullet="0"><tspan><tspan fill="#000000" font-size="16.000" font-family="Arial" char-transform="0.00 0.99 0.00 0.00 0.00 1.00" leading="0.970" textLength="276.47" y="14.00" x="0.00">5. What was he (probably) keen to do ?</tspan></tspan></tspan></text><text transform="translate(29,578) rotate(0.000,195.000,17.699) scale(1.000,1.000)" RotationPoint="(320.000000,240.000000)" xml:id="annotation.NFJ862D7V57G522VH2NH0URH3" visible="1" smart-txt-ver="2.10" editwidth="390.00" editheight="35.40" forcewidth="1" forceheight="0" language_direction="1" textdirection="0" theme_anno_style="0"><tspan justification="left" line-spacing="1.00" prepara-spacing="1.00" bullet="0"><tspan><tspan fill="#000000" font-size="16.000" font-family="Arial" char-transform="0.00 0.99 0.00 0.00 0.00 1.00" leading="0.970" append-soft-return="1" textLength="349.55" y="14.00" x="0.00">6. How was the issue decided ? Be sure to say in </tspan></tspan><tspan><tspan fill="#000000" backgroundColor="#FFFFFF" background-opacity="0" font-size="16.000" font-family="Arial" char-transform="0.00 0.99 0.00 0.00 0.00 1.00" leading="1.008" textLength="207.79" y="32.01" x="0.00">whose favour it was decided .</tspan></tspan></tspan></text><text transform="translate(28,685) rotate(0.000,277.000,17.699) scale(1.000,1.000)" RotationPoint="(320.000000,240.000000)" xml:id="annotation.6IPS4U5F417794OGPODNU1CK8" visible="1" smart-txt-ver="2.10" editwidth="554.00" editheight="35.40" forcewidth="1" forceheight="0" language_direction="1" textdirection="0" theme_anno_style="0"><tspan justification="left" line-spacing="1.00" prepara-spacing="1.00" bullet="0"><tspan><tspan fill="#000000" font-size="16.000" font-family="Arial" char-transform="0.00 0.99 0.00 0.00 0.00 1.00" leading="0.970" textLength="197.22" y="14.48" x="0.00">7. Explain what is meant by </tspan><tspan fill="#000000" backgroundColor="#FFFFFF" background-opacity="0" font-style="italic" font-size="16.000" font-family="Arial" char-transform="0.00 1.01 0.00 0.00 0.00 1.00" textLength="133.83" y="14.48" x="197.22">Einkreisungspolitik</tspan><tspan fill="#000000" backgroundColor="#FFFFFF" background-opacity="0" font-size="16.000" font-family="Arial" char-transform="0.00 0.99 0.00 0.00 0.00 1.00" textLength="198.09" y="14.48" x="331.05"> (not just a literal translation </tspan></tspan><tspan><tspan fill="#000000" backgroundColor="#FFFFFF" background-opacity="0" font-size="16.000" font-family="Arial" char-transform="0.00 1.00 0.00 0.00 0.00 1.00" leading="0.978" textLength="52.48" y="32.01" x="0.00">please)</tspan></tspan></tspan></text><text transform="translate(32,796) rotate(0.000,283.000,17.686) scale(1.000,1.000)" RotationPoint="(320.000000,240.000000)" xml:id="annotation.BGK2LN9GRD6D3CID2HB6SI9GO" visible="1" smart-txt-ver="2.10" editwidth="566.00" editheight="35.37" forcewidth="1" forceheight="0" language_direction="1" textdirection="0" theme_anno_style="0"><tspan justification="left" line-spacing="1.00" prepara-spacing="1.00" bullet="0"><tspan><tspan fill="#000000" font-size="15.988" font-family="Arial" char-transform="0.00 0.93 0.00 0.00 0.00 1.00" leading="0.970" textLength="16.53" y="14.47" x="0.00">8. </tspan><tspan fill="#000000" backgroundColor="#FFFFFF" background-opacity="0" text-decoration="underline" font-size="15.988" font-family="Arial" char-transform="0.00 1.01 0.00 0.00 0.00 1.00" textLength="89.78" y="14.47" x="16.53">Bosnia 1908</tspan><tspan fill="#000000" backgroundColor="#FFFFFF" background-opacity="0" font-size="15.988" font-family="Arial" char-transform="0.00 0.99 0.00 0.00 0.00 1.00" append-soft-return="1" textLength="392.40" y="14.47" x="106.31"> Which power was behind the annexation of the Turkish </tspan></tspan><tspan><tspan fill="#000000" backgroundColor="#FFFFFF" background-opacity="0" font-size="15.988" font-family="Arial" char-transform="0.00 1.00 0.00 0.00 0.00 1.00" leading="0.978" textLength="278.18" y="31.98" x="0.00">provinces of Bosnia and Herzegovina ?</tspan></tspan></tspan></text><text transform="translate(23,900) rotate(0.000,253.000,8.680) scale(1.000,1.000)" RotationPoint="(320.000000,240.000000)" xml:id="annotation.2P4QM94JAT455FRQLRRU4JPN0" visible="1" smart-txt-ver="2.10" editwidth="506.00" editheight="17.36" forcewidth="1" forceheight="0" language_direction="1" textdirection="0" theme_anno_style="0"><tspan justification="left" line-spacing="1.00" prepara-spacing="1.00" bullet="0"><tspan><tspan fill="#000000" font-size="15.968" font-family="Arial" char-transform="0.00 0.99 0.00 0.00 0.00 1.00" leading="0.970" textLength="497.32" y="13.98" x="0.00">9. Which growing state was Austria Looking to counter with this move ?</tspan></tspan></tspan></text><text transform="translate(29,996) rotate(0.000,260.000,17.667) scale(1.000,1.000)" RotationPoint="(320.000000,240.000000)" xml:id="annotation.V1TB29S6ET6E7CV12APEMJ56K" visible="1" smart-txt-ver="2.10" editwidth="520.00" editheight="35.33" forcewidth="1" forceheight="0" language_direction="1" textdirection="0" theme_anno_style="0"><tspan justification="left" line-spacing="1.00" prepara-spacing="1.00" bullet="0"><tspan><tspan fill="#000000" font-size="15.971" font-family="Arial" char-transform="0.00 0.99 0.00 0.00 0.00 1.00" leading="0.970" append-soft-return="1" textLength="512.43" y="13.98" x="0.00">10 . Which great power accepted the Austrian annexation but in doing so </tspan></tspan><tspan><tspan fill="#000000" backgroundColor="#FFFFFF" background-opacity="0" font-size="15.971" font-family="Arial" char-transform="0.00 0.98 0.00 0.00 0.00 1.00" leading="1.008" textLength="56.55" y="31.95" x="0.00">made a </tspan><tspan fill="#000000" backgroundColor="#FFFFFF" background-opacity="0" font-style="italic" font-size="15.971" font-family="Arial" char-transform="0.00 1.01 0.00 0.00 0.00 1.00" textLength="139.88" y="31.95" x="56.55">diplomatic blunder?</tspan></tspan></tspan></text><polyline fill="none" points="185.654785,68.931213 190.065521,70.401459 193.869797,71.669548 198.250809,72.996399 201.765411,73.741501 205.830383,74.072655 209.339050,74.620308 212.700592,75.214119 216.697556,75.478035 220.976944,75.595322 225.231644,75.647461 229.124985,75.670631 233.258194,75.680931 237.447937,75.685501 241.312393,75.687538 245.032303,75.688446 248.687927,75.688850 252.315033,75.689026 255.929443,75.689110 259.538208,75.538963 263.144470,74.971642 266.749603,74.619385 270.504425,74.462822 274.676208,74.393250 278.632782,74.362320 282.393646,74.348572 286.067505,74.342468 289.702667,74.339752 293.320679,74.338539 296.931030,74.338005 300.938477,74.337769 305.072296,74.187485 308.911926,73.620102 312.620789,73.267807 316.271545,73.111244 319.896423,73.041656 323.509888,73.010719 327.118195,72.846802 330.724243,72.273354 334.729828,71.918373 338.862793,71.760605 342.702026,71.690483 346.410706,71.659325 350.061371,71.495300 353.686279,70.921814 357.700165,70.566803 361.987061,70.409027 366.395325,70.338905 370.857452,69.907272 375.193390,69.365021 379.122833,69.124016 383.272095,69.016899 387.619202,68.969292 392.054138,68.948135 396.528198,68.938728 400.869446,68.934555 404.801239,68.932701 408.951538,68.931870 413.148926,68.931511 417.016754,68.931343 420.738159,69.331741 424.544617,69.860115 428.739319,70.094940 432.706116,70.199310 436.471497,70.245705 440.147339,70.266319 444.183899,70.275482 448.480865,70.279556 452.893585,70.281364 456.957245,70.282166 460.915894,70.282524 465.178253,70.282677 469.175140,70.282753 473.104065,70.432961 477.353088,71.000305 481.744568,71.352570 486.199280,71.358963 490.682159,70.861221 495.177460,70.539886 499.678284,70.397072 504.181641,70.333588 508.686035,70.705849 513.341125,71.221710 515.843994,71.359276 518.413635,71.450981 521.027771,71.512115 523.671631,71.552872 526.335205,71.580040 529.012024,71.598160 531.697571,71.610237 534.389038,71.618294 538.981384,71.627228 543.325195,71.631210 548.259338,71.632973 550.986816,71.633446 553.856262,71.633759 556.820557,71.633972 559.847900,71.634109 562.917419,71.634201 566.015015,71.634270 568.981140,71.784485 571.859619,72.034805 574.679688,72.351860 579.414917,72.303680 583.371582,72.082031 586.631958,72.484100 590.784241,72.762924 595.332825,72.886848 599.356873,72.941925 603.147644,73.366875 606.834778,73.906151 611.687134,74.209747 614.109619,74.337578 " stroke-linecap="round" stroke-linejoin="round" stroke="#ff0000" stroke-width="1.00" fade-time="6" fade-enable="0" RotationPoint="(320.000000,240.000000)" transform="rotate(0.00,399.88,72.31)" xml:id="annotation.95Q9QO56I125BDCKPCAL69O6V" visible="1"/><polyline fill="none" points="566.803833,1001.529968 565.368774,1002.964966 565.246460,1003.688049 565.465210,1004.470398 565.911438,1005.292419 566.809631,1005.840393 569.409424,1006.449219 572.967773,1006.319336 576.751892,1005.761108 581.415100,1004.602417 585.650208,1003.308044 589.908569,1001.823120 594.908081,999.848206 598.417114,999.280762 603.052368,999.678833 604.335266,1000.446106 607.575867,1004.395935 610.438293,1009.370728 612.277649,1012.873962 615.719299,1017.505981 620.309875,1021.014343 623.723389,1021.803406 628.621826,1021.403198 632.926636,1020.333557 635.538147,1019.348267 640.462830,1015.867920 644.594666,1012.586243 648.681641,1008.069031 652.531372,1003.917419 657.474548,1000.204956 658.788147,999.294983 660.114319,999.138916 662.789429,1000.166870 664.679138,1002.125549 667.115967,1007.054016 668.904724,1010.492859 671.201599,1014.373840 673.724121,1018.101196 676.747559,1020.558716 678.394836,1021.424255 680.093628,1021.700928 683.583130,1021.207397 688.207336,1019.240906 692.430847,1016.038513 696.535583,1012.953857 699.887756,1008.702698 704.790161,1003.892334 709.696594,999.159912 713.602600,995.288330 717.793030,993.256348 721.513428,993.798096 725.369385,995.390442 729.923035,997.975525 733.541626,1000.793884 737.984436,1004.415588 742.729187,1009.275085 747.242737,1013.171631 751.942444,1017.739563 753.610840,1019.246643 756.026733,1020.452209 " stroke-linecap="round" stroke-linejoin="round" stroke="#ff0000" stroke-width="1.00" fade-time="6" fade-enable="0" RotationPoint="(320.000000,240.000000)" transform="rotate(0.00,660.64,1007.53)" xml:id="annotation.4U8AGKI6D51S774CPQHME5A2E" visible="1"/><g class="group" xml:id="annotation.0CS1P2VD296DL5BB520M1O0I9" xbk_transform="rotate(0.00,84.50,157.28)"><polyline fill="none" points="84.285339,156.784714 83.996529,157.729828 " stroke-linecap="round" stroke-linejoin="round" stroke="#ff0000" stroke-width="1.00" fade-time="6" fade-enable="0" RotationPoint="(320.000000,240.000000)" transform="rotate(0.00,84.50,157.28)" xml:id="annotation.OI6NK7M2556935SADED0K7ACQ" visible="1"/></g></g></svg>