<?xml version="1.0" encoding="UTF-8" standalone="yes"?><svg width="800" height="1051" xml:id="page.RON5BV7D2H32H59LNKU919T2J"><title>Sep 2-9:04 AM</title><g class="foreground"><text transform="translate(57,54) rotate(0.000,59.019,20.109) scale(1.000,1.000)" RotationPoint="(244.000000,218.000000)" xml:id="annotation.KI1DC9KI7902P013OPLKVOP68" visible="1" smart-txt-ver="2.10" editwidth="118.04" editheight="40.22" forcewidth="0" forceheight="0" language_direction="1" textdirection="0" theme_anno_style="0"><tspan justification="left" bullet="0"><tspan><tspan fill="#0000FF" font-size="36.000" font-family="Arial" char-transform="0.00 1.00 0.00 0.00 0.00 1.00" textLength="118.04" y="32.59" x="0.00">Review</tspan></tspan></tspan></text><text transform="translate(57,224) rotate(0.000,292.562,20.109) scale(1.000,1.000)" RotationPoint="(244.000000,248.000000)" xml:id="annotation.00ELNEL7BD0TJBUQ1OQ15CJJV" visible="1" smart-txt-ver="2.10" editwidth="585.12" editheight="40.22" forcewidth="0" forceheight="0" language_direction="1" textdirection="0" theme_anno_style="0"><tspan justification="left" bullet="0"><tspan><tspan fill="#0000FF" font-size="36.000" font-family="Arial" char-transform="0.00 1.00 0.00 0.00 0.00 1.00" textLength="585.12" y="32.59" x="0.00">Understand Germany&apos;s new course -</tspan></tspan></tspan></text><text transform="translate(199,352) rotate(0.000,260.815,20.109) scale(1.000,1.000)" RotationPoint="(286.000000,240.000000)" xml:id="annotation.V4UMRDDDDD4HTE79O4BVRBDNS" visible="1" smart-txt-ver="2.10" editwidth="521.63" editheight="40.22" forcewidth="0" forceheight="0" language_direction="1" textdirection="0" theme_anno_style="0"><tspan justification="left" bullet="0"><tspan><tspan fill="#0000FF" font-size="36.000" font-family="Arial" char-transform="0.00 1.00 0.00 0.00 0.00 1.00" textLength="521.63" y="32.59" x="0.00">Weltpolitik and its consequences</tspan></tspan></tspan></text><text transform="translate(207,458) rotate(0.000,201.085,20.109) scale(1.000,1.000)" RotationPoint="(292.000000,230.000000)" xml:id="annotation.OB1MED7B910656GSJRO0RV0UP" visible="1" smart-txt-ver="2.10" editwidth="402.17" editheight="40.22" forcewidth="0" forceheight="0" language_direction="1" textdirection="0" theme_anno_style="0"><tspan justification="left" bullet="0"><tspan><tspan fill="#0000FF" font-size="36.000" font-family="Arial" char-transform="0.00 1.00 0.00 0.00 0.00 1.00" textLength="402.17" y="32.59" x="0.00">French- Russian reaction</tspan></tspan></tspan></text><text transform="translate(207,576) rotate(0.000,101.048,20.109) scale(1.000,1.000)" RotationPoint="(310.000000,220.000000)" xml:id="annotation.350PNNKFFH4CF4JJCN8PQMHTT" visible="1" smart-txt-ver="2.10" editwidth="202.10" editheight="40.22" forcewidth="0" forceheight="0" language_direction="1" textdirection="0" theme_anno_style="0"><tspan justification="left" bullet="0"><tspan><tspan fill="#0000FF" font-size="36.000" font-family="Arial" char-transform="0.00 1.00 0.00 0.00 0.00 1.00" textLength="202.10" y="32.59" x="0.00">Flottenpolitik</tspan></tspan></tspan></text><text transform="translate(219,690) rotate(0.000,114.064,20.109) scale(1.000,1.000)" RotationPoint="(280.000000,210.000000)" xml:id="annotation.GOQQ8U74KH6FR18A899N96D6R" visible="1" smart-txt-ver="2.10" editwidth="228.13" editheight="40.22" forcewidth="0" forceheight="0" language_direction="1" textdirection="0" theme_anno_style="0"><tspan justification="left" bullet="0"><tspan><tspan fill="#0000FF" font-size="36.000" font-family="Arial" char-transform="0.00 1.00 0.00 0.00 0.00 1.00" textLength="228.13" y="32.59" x="0.00">Morocco 1905</tspan></tspan></tspan></text><text transform="translate(221,826) rotate(0.000,127.099,20.109) scale(1.000,1.000)" RotationPoint="(304.000000,182.000000)" xml:id="annotation.K2BV10M9EL53N6BF3G3VRDRQP" visible="1" smart-txt-ver="2.10" editwidth="254.20" editheight="40.22" forcewidth="0" forceheight="0" language_direction="1" textdirection="0" theme_anno_style="0"><tspan justification="left" bullet="0"><tspan><tspan fill="#0000FF" font-size="36.000" font-family="Arial" char-transform="0.00 1.00 0.00 0.00 0.00 1.00" textLength="254.20" y="32.59" x="0.00">Europe by 1907</tspan></tspan></tspan></text><text transform="translate(223,956) rotate(0.000,100.081,20.109) scale(1.000,1.000)" RotationPoint="(306.000000,214.000000)" xml:id="annotation.2VCL0F7PJT6674TU93E2RCOBN" visible="1" smart-txt-ver="2.10" editwidth="200.16" editheight="40.22" forcewidth="0" forceheight="0" language_direction="1" textdirection="0" theme_anno_style="0"><tspan justification="left" bullet="0"><tspan><tspan fill="#0000FF" font-size="36.000" font-family="Arial" char-transform="0.00 1.00 0.00 0.00 0.00 1.00" textLength="200.16" y="32.59" x="0.00">Bosnia 1908</tspan></tspan></tspan></text><g class="group" xml:id="annotation.ORHPT83A0T4QN63P159O67RMI" xbk_transform="rotate(0.00,185.68,681.15)"><polyline fill="none" points="163.459900,375.110840 162.038147,379.763306 161.199158,384.476593 161.002899,387.986755 160.915649,391.967224 160.876892,396.156708 160.859680,400.439056 160.852036,404.762726 160.848618,408.717468 160.992325,412.266266 161.744461,416.858704 162.031876,421.833801 162.099106,425.260040 162.516251,428.719116 162.895279,432.047546 162.582642,436.516022 163.135422,441.454437 163.315689,444.872040 163.783066,448.327271 164.329651,451.944489 164.572556,455.972473 164.680527,459.795837 164.873734,463.431366 165.443680,466.983521 165.793823,470.885803 166.094635,474.895294 166.712418,478.613556 167.083817,482.589783 167.394089,486.632141 168.016037,490.365021 168.002014,494.347656 167.802170,498.392883 168.197403,502.127014 168.469894,506.110229 168.736221,510.155762 169.338654,513.890076 169.703217,517.486084 169.865250,521.020569 169.937241,524.527771 169.969269,528.022827 170.128708,531.512512 170.683670,534.999756 171.027115,538.486023 171.179764,542.116943 171.247620,546.151062 171.665024,549.977112 172.189407,553.759094 172.422455,557.860413 172.526016,561.716309 172.572052,565.511597 172.592514,569.618774 172.601593,573.864563 172.605637,578.171997 172.607437,582.506714 172.995499,586.853699 173.652054,591.060791 174.427933,594.866882 175.256851,598.882080 175.964111,603.086975 176.278442,607.376221 176.805405,611.702881 177.378464,616.046326 177.633163,620.397034 178.133606,624.363892 178.840118,628.063171 179.638199,631.643677 180.089737,635.171265 180.290405,638.675415 180.379593,642.169128 180.419220,645.658203 180.436844,649.145142 180.444656,652.631226 180.835403,656.116943 181.202698,659.602417 180.881866,663.087830 180.642456,666.960449 180.681274,670.956848 181.182602,674.669250 181.502243,678.255615 181.644287,681.785767 181.707428,685.291016 182.122742,688.785217 182.646194,692.274475 182.878830,695.761658 182.982224,699.247803 183.028168,702.878784 183.048615,706.912903 183.057678,711.126160 183.061707,715.273926 183.063507,719.053589 183.064301,723.057068 183.209869,727.111572 183.758667,730.849915 184.099380,734.834839 184.250809,739.026428 184.318100,743.309753 184.735275,747.246521 185.259537,751.077759 185.492554,755.200867 185.983383,759.453796 186.540375,763.764282 186.787918,768.100403 186.897934,772.060791 187.092056,775.757263 187.662415,779.336365 188.012741,783.250732 188.168427,787.265503 188.237625,790.986267 188.268372,794.576111 188.282043,798.107971 188.288116,801.614014 188.290817,805.108582 188.437225,808.743225 188.986389,812.778992 189.327271,816.605835 189.333557,820.242981 188.852264,823.795715 188.928802,827.311096 189.301666,830.809692 189.467392,834.301025 189.541061,837.788940 189.573792,841.275452 189.588348,844.761353 189.594803,848.246887 189.742905,851.732361 190.292786,855.217773 190.634003,858.703247 190.785660,862.188477 190.853058,865.673889 190.882996,869.159180 190.896332,872.789734 190.902252,876.823853 191.292160,880.649780 191.804276,884.431824 192.031906,888.533081 192.133072,892.388916 192.178024,896.038940 192.198013,899.597595 192.206879,903.502686 192.065613,907.368225 191.314819,912.138977 191.088257,915.466492 190.987564,918.881714 190.942795,922.335815 190.922882,925.807312 191.301315,929.286560 191.808350,932.769104 192.033707,936.253174 192.521118,939.737976 193.076599,943.368347 193.323502,947.402222 193.820480,951.228210 194.380219,954.864868 194.628998,958.417542 194.739563,962.320068 194.788696,966.329651 194.816360,971.271912 194.828003,973.719727 " stroke-linecap="round" stroke-linejoin="round" stroke="#ff0000" stroke-width="1.00" fade-time="6" fade-enable="0" RotationPoint="(320.000000,240.000000)" transform="rotate(0.00,177.84,674.42)" xml:id="annotation.AMOCRGT9VH17ND663UC1HRDVT" visible="1"/><polyline fill="none" points="210.512085,944.965576 209.090347,949.618042 208.251328,954.331360 207.909866,957.696289 207.274017,961.128052 206.507324,964.976990 205.682510,968.962769 204.831848,972.670471 203.536484,977.329956 202.232925,981.469666 200.926941,986.149353 200.346191,986.943787 199.668579,987.182922 198.926392,987.051941 198.286377,986.528809 196.691772,983.711243 194.464661,978.856018 192.106339,974.612305 189.568069,969.675903 186.976501,964.921570 183.498749,960.105774 180.450928,956.728638 " stroke-linecap="round" stroke-linejoin="round" stroke="#ff0000" stroke-width="1.00" fade-time="6" fade-enable="0" RotationPoint="(320.000000,240.000000)" transform="rotate(0.00,195.48,966.07)" xml:id="annotation.2I3011986H21R0783IEFF3996" visible="1"/></g><polyline fill="none" points="213.126099,403.864960 217.590378,404.010162 221.790466,404.558807 226.174377,404.899445 230.543182,405.050842 234.905212,405.118134 239.651581,405.535278 242.137146,405.849854 244.665527,406.059570 247.222443,406.199341 249.798401,406.292572 252.677475,406.499908 255.758652,406.783356 258.974548,407.117554 262.135040,407.340363 265.258636,407.488892 268.357574,407.587921 271.730530,407.799133 275.286163,408.085236 278.963593,408.421143 282.722229,408.645111 286.534973,408.794403 290.383820,408.893951 294.256744,409.105530 298.145660,409.391785 302.045319,409.727875 306.097321,410.097137 310.250854,410.488525 314.472137,410.894684 318.448090,411.310669 322.260529,411.733215 325.963898,412.160156 329.158936,412.444733 332.015106,412.634521 336.398773,412.845337 339.905701,413.014008 " stroke-linecap="round" stroke-linejoin="round" stroke="#ff0000" stroke-width="1.00" fade-time="6" fade-enable="0" RotationPoint="(320.000000,240.000000)" transform="rotate(0.00,276.52,408.44)" xml:id="annotation.C5CVNR3NLT12D4CVN1KHR7PHG" visible="1"/><polyline fill="none" points="220.968140,629.977051 224.388962,630.875305 227.813354,631.102417 232.142929,631.203369 236.681229,631.393433 240.634506,631.961975 243.082870,632.171631 245.876892,632.311401 248.901367,632.404663 251.643814,632.466797 256.627258,632.535828 261.262543,632.566467 265.888245,632.725342 270.848572,633.280029 273.391174,633.486023 275.957642,633.623291 278.539917,633.714905 281.132751,633.775940 283.732666,633.816650 286.337280,633.843750 288.945038,633.716614 291.554840,633.486572 294.166077,633.188049 296.923462,632.989075 299.778290,632.856384 302.698059,632.767944 305.806366,632.708984 309.040314,632.669678 312.358063,632.643494 315.731720,632.626038 319.142609,632.614319 322.578308,632.606567 326.030579,632.601379 329.493805,632.597900 332.964447,632.595642 336.585205,632.448853 340.306030,632.205811 344.093597,631.898560 347.925690,631.838989 351.787354,631.944458 355.668823,632.160034 359.853943,632.303650 364.241486,632.399414 368.763947,632.463257 373.231140,632.651062 377.661499,632.921570 382.067352,633.247009 386.166321,633.609253 390.060760,633.996033 393.818878,634.398987 397.050354,634.812988 399.930786,635.234131 404.341522,635.944092 407.870056,636.512085 " stroke-linecap="round" stroke-linejoin="round" stroke="#ff0000" stroke-width="1.00" fade-time="6" fade-enable="0" RotationPoint="(320.000000,240.000000)" transform="rotate(0.00,314.42,633.24)" xml:id="annotation.HQQH31MHHT5P11I882I7PBTJB" visible="1"/><polyline fill="none" points="218.354126,738.458618 221.774933,739.356812 225.199326,739.583923 229.528915,739.684814 231.903351,739.711792 234.648102,739.729736 237.639709,739.741699 240.795898,739.749695 243.480927,739.755005 248.013306,739.760925 252.351257,739.763489 256.554413,739.764648 260.358795,739.765198 264.373199,739.765381 268.432526,739.765503 272.172974,739.765625 276.158966,739.765625 280.350922,739.765625 284.634399,739.765625 288.958557,739.765625 293.300781,739.620422 297.651001,739.071777 302.392120,738.731140 307.258514,738.579712 311.841736,738.512451 315.911835,738.482544 319.511871,738.469299 321.081787,738.465637 325.528687,738.458618 " stroke-linecap="round" stroke-linejoin="round" stroke="#ff0000" stroke-width="1.00" fade-time="6" fade-enable="0" RotationPoint="(320.000000,240.000000)" transform="rotate(0.00,271.94,739.11)" xml:id="annotation.CRHG9N68HL2HN1TV5HGL9MSMQ" visible="1"/><polyline fill="none" points="234.038208,877.001282 236.119720,876.307434 238.303467,876.354065 242.369553,876.809509 247.253250,876.944458 250.803284,876.976074 254.801468,876.989990 259.773315,876.996277 262.522339,876.997986 265.371613,876.999023 268.287659,876.999756 271.248260,877.000305 276.086823,876.613525 280.173615,876.102844 283.926300,875.875854 287.530426,875.775024 291.213837,875.584961 295.271271,875.016357 299.107697,874.666870 302.894318,874.511597 306.997650,874.442505 311.241699,874.411804 315.548309,874.398132 319.882812,874.392090 323.842346,874.002197 327.683655,873.489990 331.811310,873.262390 336.066162,873.161133 340.377594,873.116150 344.714142,873.096191 349.061920,873.087280 353.559845,873.083313 358.463409,873.081604 363.159912,872.693604 367.812866,872.182312 372.785339,871.955078 375.576202,871.854065 377.808899,871.773254 " stroke-linecap="round" stroke-linejoin="round" stroke="#ff0000" stroke-width="1.00" fade-time="6" fade-enable="0" RotationPoint="(320.000000,240.000000)" transform="rotate(0.00,305.92,874.39)" xml:id="annotation.8O3LBD729P36FFFLKM1MAIGLP" visible="1"/><polyline fill="none" points="236.652222,1006.394897 240.073044,1005.496643 243.497437,1005.269531 247.439758,1005.168640 251.757523,1005.123718 256.580994,1005.103882 259.087128,1005.098450 261.629211,1005.094971 264.195282,1005.092590 266.922546,1005.090942 269.757294,1005.089966 272.663696,1005.089294 277.442047,1005.475830 281.502075,1005.986389 285.242828,1006.213257 288.841675,1006.314148 292.377502,1006.359009 295.885284,1006.378906 299.767853,1006.387817 303.913788,1006.536926 308.176880,1007.087402 312.491882,1007.816101 316.830109,1008.478760 321.178589,1008.773315 325.918884,1009.291443 330.639679,1010.005859 334.674103,1010.807434 338.016205,1011.260498 342.519714,1011.622925 " stroke-linecap="round" stroke-linejoin="round" stroke="#ff0000" stroke-width="1.00" fade-time="6" fade-enable="0" RotationPoint="(320.000000,240.000000)" transform="rotate(0.00,289.59,1008.36)" xml:id="annotation.A35BLKDLLT0OJ87PAHV92PFDG" visible="1"/><polyline fill="none" points="40.601288,392.101898 39.566799,396.754456 39.560627,400.123840 40.041958,404.525818 39.965435,408.224945 39.447346,411.611633 38.733009,415.537231 37.514389,420.441864 37.091129,421.015625 36.663731,420.962433 36.233574,420.491333 35.628170,415.665192 35.873814,410.755341 36.142632,408.022858 36.441319,403.437744 36.719288,399.318420 37.326908,395.067169 38.081039,391.144653 38.900288,387.319763 39.748470,383.199432 40.996773,378.947784 42.374493,374.928253 44.111797,370.070740 45.598442,366.723022 47.227325,363.298828 49.777279,358.879761 53.240986,354.090698 57.932781,350.939514 61.471031,350.233032 64.689461,350.548309 68.134262,352.358734 71.900330,355.959839 73.681389,358.757263 75.441124,362.904999 76.416855,367.652924 76.705299,372.377136 76.349411,376.413055 75.319916,379.368561 72.332855,383.439880 69.516937,386.218994 65.482246,388.600006 61.527542,390.225250 57.451324,391.481293 52.492447,391.979309 51.057312,392.101898 " stroke-linecap="round" stroke-linejoin="round" stroke="#ff0000" stroke-width="1.00" fade-time="6" fade-enable="0" RotationPoint="(320.000000,240.000000)" transform="rotate(0.00,56.17,385.62)" xml:id="annotation.VA4BN72BU956R4P88PH2M98NR" visible="1"/><polyline fill="none" points="36.680267,454.838226 36.680267,459.012054 36.680267,462.114899 36.293007,466.204742 35.927258,470.781738 36.248779,475.236328 36.488495,479.249237 36.552418,481.132599 36.449814,481.662079 36.236183,481.288910 35.948540,480.314026 36.016205,476.907288 36.530354,472.343506 36.870770,469.703339 37.242939,466.926636 38.043720,462.679626 39.311005,457.839294 40.993492,453.645874 44.164089,449.019684 47.732487,445.454193 52.482082,443.200867 55.466339,442.404907 59.697140,442.051147 63.707432,443.055725 67.280861,444.954437 70.321289,447.250519 71.963028,450.497742 72.400826,452.380249 72.257019,454.070953 70.935455,457.111176 68.508606,459.527466 65.348473,461.424225 61.523590,462.751312 57.015999,463.437927 52.398613,463.743103 48.410130,463.878693 43.592720,464.648956 42.886021,465.444916 42.705326,466.556488 42.875309,467.878387 44.225960,470.509003 47.949093,475.053833 52.743874,479.636993 54.856579,481.543976 58.170700,485.930817 62.240776,490.331085 64.127380,492.741394 " stroke-linecap="round" stroke-linejoin="round" stroke="#ff0000" stroke-width="1.00" fade-time="6" fade-enable="0" RotationPoint="(320.000000,240.000000)" transform="rotate(0.00,54.16,467.40)" xml:id="annotation.H6MBINAK853RVFOQUP9U65PV2" visible="1"/><g class="group" xml:id="annotation.GUAQ7LNQVD1BR5M36L59GGBI6" xbk_transform="rotate(0.00,50.59,547.12)"><polyline fill="none" points="41.908264,529.337585 46.082081,529.192322 49.184952,528.643738 53.274834,528.303101 57.561348,528.296997 62.423927,528.964722 63.863091,529.088989 68.048401,529.337585 " stroke-linecap="round" stroke-linejoin="round" stroke="#ff0000" stroke-width="1.00" fade-time="6" fade-enable="0" RotationPoint="(320.000000,240.000000)" transform="rotate(0.00,54.98,528.82)" xml:id="annotation.MOSQT2VTJL3Q12DNA5LC28936" visible="1"/><polyline fill="none" points="44.522278,530.644592 40.063614,535.248474 37.521381,538.834229 35.073860,543.365845 33.509602,547.677490 33.126797,552.424316 33.551903,555.282471 34.612175,557.617676 36.196785,559.623718 39.683506,562.240784 44.331032,564.000488 47.680592,564.977722 51.105595,565.508789 55.137863,565.807800 57.592346,565.933777 " stroke-linecap="round" stroke-linejoin="round" stroke="#ff0000" stroke-width="1.00" fade-time="6" fade-enable="0" RotationPoint="(320.000000,240.000000)" transform="rotate(0.00,45.36,548.29)" xml:id="annotation.FTSMULI7NT4S16PD8GHGL95H5" visible="1"/><polyline fill="none" points="35.373260,546.328674 39.692295,544.532288 43.343773,544.078064 46.999775,543.876160 50.774826,543.762512 52.364319,543.714661 " stroke-linecap="round" stroke-linejoin="round" stroke="#ff0000" stroke-width="1.00" fade-time="6" fade-enable="0" RotationPoint="(320.000000,240.000000)" transform="rotate(0.00,43.87,545.02)" xml:id="annotation.BE0KQGCNL133R27J1B3HTO204" visible="1"/></g><polyline fill="none" points="56.285339,590.766907 51.966301,590.013916 48.314804,590.335449 43.564476,591.332886 38.954479,594.014465 34.386395,597.340942 29.751720,601.663696 27.985628,603.403503 26.052269,607.403625 26.196201,610.989014 27.373547,614.712463 29.349039,617.819580 31.679270,619.878174 36.215042,622.240845 40.608643,624.005859 43.215271,624.749023 " stroke-linecap="round" stroke-linejoin="round" stroke="#ff0000" stroke-width="1.00" fade-time="6" fade-enable="0" RotationPoint="(320.000000,240.000000)" transform="rotate(0.00,41.17,607.38)" xml:id="annotation.P6JQ33T8CL3G36HCJKE5FC9O1" visible="1"/><polyline fill="none" points="44.522278,656.117188 43.134594,658.198669 42.271622,662.268494 41.682503,665.870239 41.081825,669.891357 40.814861,674.098938 40.696209,678.776611 40.788696,683.324341 41.511997,687.898376 41.908264,690.099365 " stroke-linecap="round" stroke-linejoin="round" stroke="#ff0000" stroke-width="1.00" fade-time="6" fade-enable="0" RotationPoint="(320.000000,240.000000)" transform="rotate(0.00,42.61,673.11)" xml:id="annotation.UJ9HU206N9137C0E1H1C37JBN" visible="1"/><polyline fill="none" points="32.759247,739.765625 31.861015,743.939453 31.633921,747.042419 31.532986,751.132202 31.633352,755.418762 32.162033,758.776062 32.506325,759.409973 32.881081,759.396851 33.684734,758.220520 34.808414,754.963684 35.351120,750.384277 36.367126,745.493652 37.442688,741.075562 37.971138,736.152039 38.982918,731.159485 40.347672,726.856445 42.526974,722.677002 45.302628,718.114624 48.112411,715.814331 49.529716,715.375122 52.266277,715.661743 54.547501,717.531738 57.464687,722.237610 58.987843,726.166504 59.664795,730.332947 59.578403,734.217957 59.055931,737.735657 58.339645,740.751282 57.509651,741.729736 55.038395,742.816895 51.616489,742.525635 47.965706,741.282715 43.461025,738.278809 39.197594,735.362610 37.987274,734.537598 " stroke-linecap="round" stroke-linejoin="round" stroke="#ff0000" stroke-width="1.00" fade-time="6" fade-enable="0" RotationPoint="(320.000000,240.000000)" transform="rotate(0.00,45.60,737.39)" xml:id="annotation.3D4H9TNT997PJ0STASP65FECG" visible="1"/><polyline fill="none" points="32.759247,793.352844 34.840775,794.740540 35.453938,795.875366 36.316910,800.796692 36.518776,804.261230 36.608494,807.737366 36.271744,812.572937 35.373260,816.878967 " stroke-linecap="round" stroke-linejoin="round" stroke="#ff0000" stroke-width="1.00" fade-time="6" fade-enable="0" RotationPoint="(320.000000,240.000000)" transform="rotate(0.00,34.68,805.12)" xml:id="annotation.G7RARA2TB51B74DN6PDJETUNU" visible="1"/><g class="group" xml:id="annotation.9VSH56B9M93R34M9ISFODQFIT" xbk_transform="rotate(0.00,36.68,860.14)"><polyline fill="none" points="39.294281,854.782166 38.250828,858.810791 37.210163,862.801331 36.982498,867.162415 37.987274,870.466248 " stroke-linecap="round" stroke-linejoin="round" stroke="#ff0000" stroke-width="1.00" fade-time="6" fade-enable="0" RotationPoint="(320.000000,240.000000)" transform="rotate(0.00,38.14,862.62)" xml:id="annotation.JU01JUMQCH0TJ83LABLP2MR7C" visible="1"/><polyline fill="none" points="24.917206,850.861145 29.091022,849.962891 33.689350,849.820496 38.020817,850.633484 42.773415,851.648926 44.227707,851.822021 48.443298,852.168152 " stroke-linecap="round" stroke-linejoin="round" stroke="#ff0000" stroke-width="1.00" fade-time="6" fade-enable="0" RotationPoint="(320.000000,240.000000)" transform="rotate(0.00,36.68,850.99)" xml:id="annotation.J17ALEE0QL49HBDL5V51IPMRJ" visible="1"/></g><g class="group" xml:id="annotation.5V369LC7GD623BAC2PF2EDF16" xbk_transform="rotate(0.00,41.25,958.26)"><polyline fill="none" points="27.531219,909.676453 31.863407,906.038147 36.188931,904.225647 40.455688,902.768799 44.479149,900.029785 49.451340,896.997559 51.291443,894.592407 51.358624,894.828064 50.422989,899.724365 50.049274,903.171814 50.028404,906.640259 50.503204,910.118103 50.811043,913.600159 50.984344,917.664490 51.057312,920.132507 " stroke-linecap="round" stroke-linejoin="round" stroke="#ff0000" stroke-width="1.00" fade-time="6" fade-enable="0" RotationPoint="(320.000000,240.000000)" transform="rotate(0.00,39.44,907.36)" xml:id="annotation.3M5V8JBJDT7RN9G7FBI679UQG" visible="1"/><polyline fill="none" points="34.066254,905.755432 37.487057,906.798889 42.405495,908.130005 47.136292,910.983459 " stroke-linecap="round" stroke-linejoin="round" stroke="#ff0000" stroke-width="1.00" fade-time="6" fade-enable="0" RotationPoint="(320.000000,240.000000)" transform="rotate(0.00,40.60,908.37)" xml:id="annotation.DR3KKIADCH4SN40D0JRVG9JA9" visible="1"/><polyline fill="none" points="36.680267,931.895569 35.636810,935.316345 34.861092,938.740723 34.995605,943.363220 34.567524,947.492065 33.520939,952.168457 32.291088,956.539307 31.452240,959.342651 " stroke-linecap="round" stroke-linejoin="round" stroke="#ff0000" stroke-width="1.00" fade-time="6" fade-enable="0" RotationPoint="(320.000000,240.000000)" transform="rotate(0.00,34.07,945.62)" xml:id="annotation.EHP68PRD7D1VPB27G0VQUA7DE" visible="1"/><polyline fill="none" points="35.373260,934.509521 36.416714,938.828491 37.192432,942.480042 38.445606,947.230408 39.304356,951.200073 40.170090,955.578491 41.038925,959.460693 42.344528,964.218384 42.925220,964.916687 43.602798,965.091797 44.344963,964.918091 47.471012,961.898315 49.511806,958.542236 51.241760,954.775452 52.494701,951.165100 53.148380,947.624146 53.293678,944.404541 52.364319,939.737549 " stroke-linecap="round" stroke-linejoin="round" stroke="#ff0000" stroke-width="1.00" fade-time="6" fade-enable="0" RotationPoint="(320.000000,240.000000)" transform="rotate(0.00,44.33,949.80)" xml:id="annotation.S22JL84MIH1T3A3315JODRI6I" visible="1"/><polyline fill="none" points="41.908264,982.868774 41.010056,987.187866 40.782963,990.839294 40.682030,994.882568 40.637173,998.809509 40.625214,1000.466675 40.601288,1005.087891 " stroke-linecap="round" stroke-linejoin="round" stroke="#ff0000" stroke-width="1.00" fade-time="6" fade-enable="0" RotationPoint="(320.000000,240.000000)" transform="rotate(0.00,41.25,993.98)" xml:id="annotation.HURO35EETT44T2VNV2BRJR91K" visible="1"/><polyline fill="none" points="26.224213,985.482788 30.543253,984.729736 34.194744,985.051208 38.625263,985.678284 43.208389,986.440979 47.181641,987.264099 50.883835,987.726685 54.684895,987.987061 56.285339,988.096802 " stroke-linecap="round" stroke-linejoin="round" stroke="#ff0000" stroke-width="1.00" fade-time="6" fade-enable="0" RotationPoint="(320.000000,240.000000)" transform="rotate(0.00,41.25,986.41)" xml:id="annotation.QBE8VB4QU56U56NLJDDJUN0PV" visible="1"/><polyline fill="none" points="56.285339,1011.622925 52.020088,1010.201172 47.068295,1008.550659 44.492065,1008.466492 43.195141,1008.647278 42.185299,1009.203430 40.675995,1010.983215 40.505867,1012.067688 41.091343,1014.434631 43.833805,1018.605835 45.474888,1020.970947 45.447796,1021.630676 44.848846,1021.925476 42.779522,1021.865479 39.019939,1021.160522 34.168041,1020.848755 32.759247,1020.771973 " stroke-linecap="round" stroke-linejoin="round" stroke="#ff0000" stroke-width="1.00" fade-time="6" fade-enable="0" RotationPoint="(320.000000,240.000000)" transform="rotate(0.00,44.52,1015.20)" xml:id="annotation.8I3S47SEG57ND32G8QPCS2O0H" visible="1"/></g><g class="group" xml:id="annotation.JJ5KK9MI9D4O539HFN2VTL0EB" xbk_transform="rotate(0.00,156.27,677.71)"><polyline fill="none" points="156.924866,389.487885 155.503113,394.140411 154.276840,398.466400 152.993759,402.894653 151.693848,407.498474 150.388962,412.009064 149.663330,415.471832 149.340820,419.431213 149.197479,423.224060 148.988556,426.846069 148.411636,430.392151 147.671127,434.291809 147.003159,438.445312 146.706284,442.711731 146.187088,447.028290 145.472275,451.367126 144.670486,455.715851 143.830063,460.456329 143.402649,462.940308 143.117691,465.467651 142.927719,468.023865 142.801086,470.599365 142.273117,475.397308 141.554367,480.095306 140.750854,485.087830 140.478500,487.638977 140.296936,490.211151 140.175888,492.797241 140.041382,497.606995 139.836365,502.310242 139.261185,507.305054 139.049713,509.856873 138.908737,512.429443 138.814743,515.015747 138.606857,517.611389 138.323059,520.213135 137.988632,522.818909 137.617035,527.650635 137.306671,532.218384 136.684631,536.668884 136.311356,541.454529 136.145477,546.340759 136.071732,550.932800 135.651703,555.781311 135.271408,560.695496 135.586441,565.299927 135.823273,570.153931 135.886429,572.668213 135.928528,575.215759 135.956604,577.785461 135.975311,580.369934 135.608856,585.177856 135.107132,589.880310 134.884155,594.874756 134.824677,597.426453 134.785049,599.998962 134.758621,602.585266 134.729248,607.395264 134.716187,612.098633 134.710403,617.093445 134.707825,621.830627 134.706665,626.501648 134.706161,631.482056 135.093201,636.212830 135.604065,640.735779 135.831116,645.166382 135.932022,649.943115 135.976883,654.825439 135.996796,659.415649 136.005661,663.876160 136.009598,668.279053 136.011353,672.656250 136.399384,677.409241 136.910706,682.280945 137.137970,686.866455 137.626221,691.324951 138.182068,695.872131 138.429123,700.797424 138.926208,705.503784 139.485962,710.161072 139.734756,715.135437 140.232590,719.863464 140.792694,724.385193 141.041626,728.815247 141.539520,733.204468 142.099686,737.575684 142.348633,741.938782 142.459290,746.298340 142.653687,750.656372 143.224152,755.013611 143.574509,759.370483 143.875443,763.727356 144.493286,768.083984 145.251938,772.440674 146.073212,776.797424 146.922302,781.154053 147.783737,785.898010 148.505432,790.620483 148.826202,794.655701 148.968765,798.772644 149.177368,803.022766 149.754135,807.332092 150.107300,811.667786 150.409485,816.015137 151.027863,820.367615 151.786789,824.722473 152.608154,829.078308 153.457291,833.434692 154.318741,837.791199 155.040466,842.147888 155.361252,846.504456 155.503815,850.861084 155.712402,855.217773 156.289169,859.574524 156.642334,863.931213 156.944519,868.287903 157.562897,872.644592 158.321808,876.614014 158.997955,880.459656 159.298462,884.589355 159.819275,888.845093 160.389618,893.011780 160.643127,896.799805 161.143021,900.419800 161.704056,903.964966 161.953415,907.476929 162.451492,910.974121 163.156952,914.464600 164.225327,919.114746 164.766907,921.439575 " stroke-linecap="round" stroke-linejoin="round" stroke="#ff0000" stroke-width="1.00" fade-time="6" fade-enable="0" RotationPoint="(320.000000,240.000000)" transform="rotate(0.00,149.74,655.46)" xml:id="annotation.H41T03T2F95254DS8F0OCF9QS" visible="1"/><polyline fill="none" points="145.161804,933.202637 146.350464,936.187744 149.231567,940.499329 152.597549,945.471130 155.161102,950.293579 158.313782,955.054199 161.257401,958.701355 164.888809,962.686340 168.724014,965.319397 170.018967,965.941162 171.172714,965.919983 172.232330,965.470215 173.229187,964.734741 174.336807,961.981201 174.683853,958.482239 174.354019,954.990845 174.497879,951.502747 174.900665,948.016174 175.079681,944.530457 175.874313,939.995850 176.625793,936.463806 177.478073,932.329407 177.836914,930.588623 " stroke-linecap="round" stroke-linejoin="round" stroke="#ff0000" stroke-width="1.00" fade-time="6" fade-enable="0" RotationPoint="(320.000000,240.000000)" transform="rotate(0.00,161.50,948.26)" xml:id="annotation.4P5236L7S93P155O8AK0VRQDQ" visible="1"/></g><g class="group" xml:id="annotation.FB380NVDET4ATEUCGSQL274UE" xbk_transform="rotate(0.00,738.72,376.22)"><polyline fill="none" points="695.041992,390.945221 693.585693,395.711090 692.329468,400.539215 691.456299,404.283661 690.572327,408.923096 690.080261,413.166901 690.010376,417.036560 690.475098,420.739868 691.573181,425.459412 692.364380,428.433105 " stroke-linecap="round" stroke-linejoin="round" stroke="#ff0000" stroke-width="1.00" fade-time="6" fade-enable="0" RotationPoint="(320.000000,240.000000)" transform="rotate(0.00,692.53,409.69)" xml:id="annotation.OC3S812OML7VD2TITOVD4OQMI" visible="1"/><polyline fill="none" points="697.719727,390.945221 700.006287,388.956238 703.802246,387.446777 708.009888,386.514313 712.061768,385.604004 716.292419,384.703522 718.878479,384.255157 721.643799,383.807465 726.303223,383.310059 730.506348,382.940186 734.853760,382.279938 738.471863,382.284027 743.017822,383.122681 744.430969,383.498779 745.373108,384.493317 746.419861,387.581848 746.885132,391.830566 747.091919,396.396606 747.183838,400.409424 748.414734,404.573120 750.449402,408.754181 752.841309,412.595947 755.986267,416.682739 758.802368,420.488647 760.810425,425.153564 760.904297,426.544281 760.215271,428.882935 759.168762,429.774292 756.022400,431.161469 752.541382,431.877106 749.010742,432.195221 745.458069,432.336578 741.498901,432.399445 737.111206,432.427368 732.185913,432.439728 727.418335,432.445282 722.820068,432.596497 718.296997,433.159576 714.204102,433.509003 710.104004,433.664307 705.306580,433.733337 701.389160,434.160706 697.864807,434.840942 696.380859,435.127380 " stroke-linecap="round" stroke-linejoin="round" stroke="#ff0000" stroke-width="1.00" fade-time="6" fade-enable="0" RotationPoint="(320.000000,240.000000)" transform="rotate(0.00,728.64,408.70)" xml:id="annotation.43CJDFRHH906P476RF0O19HFB" visible="1"/><polyline fill="none" points="725.835693,396.300629 725.984497,400.576111 726.904541,405.286560 728.119385,409.723511 729.570190,414.591980 731.016113,417.521088 733.047180,419.517181 734.213623,420.257751 735.288818,420.453888 736.303101,420.287170 737.276855,419.878479 739.152100,417.440948 740.977234,413.729462 742.780212,409.104675 744.176575,405.264069 745.293091,401.920776 746.285156,398.451385 747.221924,394.925903 748.282959,391.226807 749.746216,387.103363 751.388306,382.791412 752.961060,378.395599 754.155945,373.962616 755.579590,369.513000 757.352844,365.056000 759.628540,360.595764 762.127563,356.134094 764.725830,351.671783 767.368347,347.209137 770.030334,342.746399 772.701050,338.432373 775.375732,334.531525 778.448669,330.417633 781.500488,326.407410 784.742493,321.789459 787.422974,317.308289 " stroke-linecap="round" stroke-linejoin="round" stroke="#ff0000" stroke-width="1.00" fade-time="6" fade-enable="0" RotationPoint="(320.000000,240.000000)" transform="rotate(0.00,756.63,368.88)" xml:id="annotation.DCEHBF5RPP19F0HKSG1SOJGT4" visible="1"/></g><g class="group" xml:id="annotation.U0MICKBR2D741B6CV219AHN4B" xbk_transform="rotate(0.00,450.31,524.83)"><polyline fill="none" points="215.732483,504.747772 219.286240,504.747772 222.617767,504.747772 226.379456,504.747772 231.026550,504.747772 233.515366,504.747772 236.067169,504.747772 238.660919,504.747772 241.282654,504.747772 243.923035,504.747772 246.575882,504.747772 251.110245,504.747772 255.555298,504.598999 258.198486,504.351074 261.001953,504.037048 263.912292,503.827637 266.893799,503.688110 269.922821,503.595062 274.875214,503.491638 279.059753,503.296967 282.903046,502.714508 287.784760,502.356506 290.544403,502.261017 295.197449,502.154938 299.248993,501.959045 303.033142,501.376099 306.698486,501.017792 310.311005,500.858612 313.900024,500.787842 317.478638,500.359711 321.052673,499.822296 324.624573,499.583435 328.195557,499.477325 331.914917,499.281342 336.047333,498.698395 338.488190,498.483398 341.156769,498.340118 343.977142,498.244568 346.601166,498.180908 351.500214,498.110138 355.760284,497.681976 359.637146,497.144623 363.343689,496.905731 366.974487,496.799591 370.571686,496.752472 374.153931,496.731476 378.126221,496.722168 382.222260,496.718018 386.026215,496.716156 390.097046,496.715332 394.236908,496.714996 398.060333,496.714844 402.139771,496.714783 406.283508,496.714752 410.108643,496.714691 413.792175,496.714691 417.561523,496.714691 421.716187,496.714691 426.042114,496.714691 430.295288,496.714691 434.169128,496.714691 438.270966,497.111389 442.573395,497.634796 446.964905,497.867401 450.999359,497.970825 454.924683,498.016724 459.148621,498.037170 463.505310,498.442993 467.921021,498.970398 472.362854,499.204834 476.419647,499.309021 480.206177,499.355316 483.872528,499.375916 487.882263,499.385040 491.994934,499.537842 495.806274,500.101685 499.880432,500.451447 504.170471,500.606903 508.556488,500.675964 512.588562,500.706665 516.364075,500.720337 520.025513,500.726379 524.033081,500.729065 528.144775,500.730286 531.955627,500.730804 535.632874,500.731018 539.696960,500.731140 542.238586,500.731171 544.974365,500.731201 547.690796,500.731232 550.394287,500.731232 553.089172,500.731232 557.670349,500.731232 561.689880,500.731232 565.459839,500.731232 568.325439,500.334534 571.867493,499.392365 " stroke-linecap="round" stroke-linejoin="round" stroke="#ff0000" stroke-width="1.00" fade-time="6" fade-enable="0" RotationPoint="(320.000000,240.000000)" transform="rotate(0.00,393.80,500.73)" xml:id="annotation.3EPB226TNL05N39RMSN0HKM4O" visible="1"/><polyline fill="none" points="613.371948,506.086609 611.915588,510.852478 611.237061,514.155212 610.935486,518.102539 610.801453,521.939575 610.741882,525.628357 610.715393,529.251282 610.703552,532.844971 610.698425,536.425659 610.696045,540.000549 610.695068,543.176147 610.694214,547.591064 " stroke-linecap="round" stroke-linejoin="round" stroke="#ff0000" stroke-width="1.00" fade-time="6" fade-enable="0" RotationPoint="(320.000000,240.000000)" transform="rotate(0.00,612.03,526.84)" xml:id="annotation.N1AGJVK0UL2674DSS9E8KA1UE" visible="1"/><polyline fill="none" points="621.405029,500.731201 622.826538,499.309723 627.264343,497.714996 631.596069,497.159302 636.198975,496.912292 640.228149,496.802521 644.399170,496.753754 648.434753,496.880798 651.715942,497.433136 655.851990,497.777771 660.367920,498.079712 664.358521,498.709778 669.239746,499.900848 670.253540,500.921448 671.380188,504.038910 671.880920,507.903809 672.252197,511.803375 673.297668,516.656616 674.549500,521.648315 675.862671,526.168701 677.342651,530.913025 680.432800,535.729126 682.630615,539.613525 684.223938,543.591003 684.878540,546.259521 684.673584,548.933167 683.964417,549.973450 681.589722,551.525879 677.360596,552.315186 672.456238,552.665894 668.293030,552.821777 664.062500,552.890991 659.851685,552.921814 655.996765,552.935547 651.903198,552.544922 647.604492,552.024231 643.214600,551.792786 639.180908,551.689941 635.404663,551.644165 631.742859,551.623901 628.131897,551.614868 624.543518,551.759583 620.965271,552.319824 617.391357,552.667969 613.620789,552.863953 612.033081,552.946472 " stroke-linecap="round" stroke-linejoin="round" stroke="#ff0000" stroke-width="1.00" fade-time="6" fade-enable="0" RotationPoint="(320.000000,240.000000)" transform="rotate(0.00,648.46,524.85)" xml:id="annotation.V7112ADDA94BT7II0T3DK7SMQ" visible="1"/></g><g class="group" xml:id="annotation.UIALTI9IAD2ON71SEVJOIG0EK" xbk_transform="rotate(0.00,505.59,532.86)"><polyline fill="none" points="452.709534,519.475159 451.789398,522.979248 451.556793,526.487122 451.453369,530.525574 451.407410,534.651001 451.386993,538.468018 451.377930,541.354553 451.370667,544.913391 " stroke-linecap="round" stroke-linejoin="round" stroke="#ff0000" stroke-width="1.00" fade-time="6" fade-enable="0" RotationPoint="(320.000000,240.000000)" transform="rotate(0.00,452.04,532.19)" xml:id="annotation.3M3I523NT97O986OCTGJDSITL" visible="1"/><polyline fill="none" points="480.825500,512.780884 477.271759,513.491638 472.929474,516.065857 468.532898,520.013916 466.634766,522.392273 465.592834,525.333740 465.314972,526.951111 465.799591,529.541748 467.155518,531.684753 470.427948,534.415222 474.223999,536.381348 476.850189,537.947754 478.711578,540.032410 479.416229,541.213135 479.588440,542.446594 478.986450,545.007080 477.330444,546.839294 476.264038,547.536194 473.492401,547.913818 470.574554,547.436951 468.285980,546.233337 467.705475,545.049561 467.457092,541.750793 468.239319,537.805298 469.727417,533.721069 471.876434,529.922424 475.595428,525.149170 479.781403,520.904541 483.503174,519.475159 " stroke-linecap="round" stroke-linejoin="round" stroke="#ff0000" stroke-width="1.00" fade-time="6" fade-enable="0" RotationPoint="(320.000000,240.000000)" transform="rotate(0.00,474.41,530.35)" xml:id="annotation.8LR9KKOMI10S19H0CJP9CDUHG" visible="1"/><polyline fill="none" points="499.569397,511.442047 495.591431,513.728577 491.632050,518.323486 489.283630,522.208313 488.695679,523.528748 488.601227,524.706482 489.289642,526.808472 490.038544,527.190491 490.984039,527.147644 492.060699,526.821533 494.050354,525.269226 498.804047,520.425476 501.163208,518.608276 502.119537,518.599670 502.905884,519.189026 503.578857,520.177002 504.526031,524.410461 504.095917,528.722656 503.026337,532.826843 502.990173,535.525024 503.585999,539.557983 " stroke-linecap="round" stroke-linejoin="round" stroke="#ff0000" stroke-width="1.00" fade-time="6" fade-enable="0" RotationPoint="(320.000000,240.000000)" transform="rotate(0.00,496.56,525.50)" xml:id="annotation.TKNMBH58ID76P93SHQUGEMIM3" visible="1"/><polyline fill="none" points="516.974487,516.797424 521.343689,514.281372 522.565002,513.781189 525.112061,513.622131 526.416138,513.787964 527.136719,514.642334 527.540710,517.575256 527.224365,520.961304 526.439209,524.152222 525.098450,526.562134 524.919373,527.621277 525.097595,528.624939 525.513916,529.591553 527.166565,531.062317 531.399414,532.726685 534.988953,533.695374 538.071899,534.621765 538.923828,535.374634 539.343018,536.322693 539.473694,537.401123 538.825439,539.392761 538.236084,540.340393 537.248108,540.972168 534.563599,541.674133 530.417603,541.358521 526.346497,540.896790 " stroke-linecap="round" stroke-linejoin="round" stroke="#ff0000" stroke-width="1.00" fade-time="6" fade-enable="0" RotationPoint="(320.000000,240.000000)" transform="rotate(0.00,528.22,527.65)" xml:id="annotation.PLG227QLFD7N37PLK6F39RNI8" visible="1"/><polyline fill="none" points="454.048401,554.285339 457.552521,553.216431 461.060364,552.421814 465.495453,551.969482 467.927734,551.848877 470.590576,551.619690 473.407166,551.318115 476.326202,550.968323 479.313568,550.735168 482.346466,550.579773 485.409729,550.476074 490.400177,550.360901 494.601624,550.309692 498.452484,550.286987 503.337524,550.276855 506.098022,550.274170 510.752106,550.271179 514.655273,550.418579 519.510498,551.189209 522.911621,551.421692 527.596741,551.525024 530.303955,551.552551 533.001343,551.570862 535.692200,551.583130 538.378662,551.591309 543.347107,551.600342 547.885925,551.753174 551.886658,552.316895 555.251526,552.666687 559.817810,552.946472 " stroke-linecap="round" stroke-linejoin="round" stroke="#ff0000" stroke-width="1.00" fade-time="6" fade-enable="0" RotationPoint="(320.000000,240.000000)" transform="rotate(0.00,506.93,552.28)" xml:id="annotation.V0116VHQLT0V576KJN8O4DKCS" visible="1"/></g><polyline fill="none" points="637.471313,518.136292 638.688965,522.263062 640.675110,526.202087 642.271912,530.195679 643.224854,532.867981 643.984741,533.461609 644.937561,533.559814 647.037598,532.875549 648.962769,531.579651 652.622864,527.254639 655.613708,523.267822 659.987488,518.532715 664.027222,514.385986 668.133057,510.243866 671.809143,505.849976 675.400391,501.753326 679.371399,498.079102 683.698547,494.488281 687.928955,491.096252 692.551575,487.020752 697.239380,482.449951 701.362549,479.049957 705.642151,475.926788 709.736633,473.117126 714.049500,469.502319 717.369751,466.319885 719.141357,464.582153 " stroke-linecap="round" stroke-linejoin="round" stroke="#ff0000" stroke-width="1.00" fade-time="6" fade-enable="0" RotationPoint="(320.000000,240.000000)" transform="rotate(0.00,678.31,499.07)" xml:id="annotation.D8UIKTD6UD0I92KEM7U4PLOCU" visible="1"/><g class="group" xml:id="annotation.CR0170824151TDU3UIO59IOTO" xbk_transform="rotate(0.00,520.99,533.53)"><polyline fill="none" points="557.140137,508.764343 557.850891,513.028809 557.803101,517.105957 557.286011,521.397400 556.560303,525.784058 555.741943,529.419678 554.444824,533.975464 553.118408,538.548584 552.079956,541.935791 550.626648,545.424744 548.846497,550.023560 547.376892,554.212646 546.429321,556.963074 " stroke-linecap="round" stroke-linejoin="round" stroke="#ff0000" stroke-width="1.00" fade-time="6" fade-enable="0" RotationPoint="(320.000000,240.000000)" transform="rotate(0.00,552.14,532.86)" xml:id="annotation.K6V9VNS5JD57J4M88I3EJ5672" visible="1"/><polyline fill="none" points="574.545227,508.764343 574.545227,512.318054 573.123718,516.660278 571.528992,520.773376 568.692871,525.529236 565.736755,529.285583 565.251404,530.478271 565.108826,532.993591 565.576538,533.991638 567.286438,535.497253 572.020447,537.675964 576.078125,539.083008 580.834106,540.442017 585.324707,541.837219 586.594849,542.235657 " stroke-linecap="round" stroke-linejoin="round" stroke="#ff0000" stroke-width="1.00" fade-time="6" fade-enable="0" RotationPoint="(320.000000,240.000000)" transform="rotate(0.00,575.85,525.50)" xml:id="annotation.QQEM8LVLPH6THDRO37RJ12UNQ" visible="1"/><polyline fill="none" points="589.272583,524.830566 584.556519,529.695374 581.181030,533.991150 578.230347,538.007690 574.567993,542.105774 572.270935,544.874878 570.528687,547.591064 " stroke-linecap="round" stroke-linejoin="round" stroke="#ff0000" stroke-width="1.00" fade-time="6" fade-enable="0" RotationPoint="(320.000000,240.000000)" transform="rotate(0.00,579.90,536.21)" xml:id="annotation.KIEPG68J7H2KPEH5KSLV0DLEQ" visible="1"/><polyline fill="none" points="468.775818,550.268799 472.279938,551.188965 475.787811,551.421570 479.429474,551.524963 483.328979,551.570862 488.037384,551.591309 490.542572,551.596741 493.105194,551.600342 495.706238,551.602783 498.481567,551.604431 501.373169,551.605469 504.342194,551.606201 507.362885,551.457886 510.418030,551.210266 513.496094,550.896423 516.589478,550.687195 519.693115,550.547668 522.803467,550.454712 525.472107,550.392700 530.023987,550.323853 532.517273,550.305481 535.220703,550.293274 538.064331,550.285095 541.001404,550.279663 544.000732,550.276062 547.041687,550.273621 550.110352,550.271973 553.197449,550.270935 556.296814,550.270203 560.930603,549.872681 564.626465,549.348877 568.252625,549.116150 572.928711,549.695862 576.554077,550.014160 580.495911,550.006836 584.231323,549.507690 588.968994,549.811829 591.950317,550.268799 " stroke-linecap="round" stroke-linejoin="round" stroke="#ff0000" stroke-width="1.00" fade-time="6" fade-enable="0" RotationPoint="(320.000000,240.000000)" transform="rotate(0.00,530.36,550.36)" xml:id="annotation.1PLC9QM3RD6H94RP7N5UESJCG" visible="1"/><polyline fill="none" points="448.692993,551.607666 452.968475,551.607666 456.147003,551.607666 459.939819,551.607666 464.402435,551.607666 467.050293,551.607666 469.856873,551.607666 474.165375,551.210876 477.567902,550.836243 482.141266,551.312988 485.476410,551.476685 488.942230,551.549438 492.466064,551.581787 496.015625,551.596130 499.576782,551.602478 503.142975,551.605347 506.711456,551.606628 510.280914,551.607178 513.999634,551.607422 518.131714,551.607544 522.447571,551.210876 526.696350,550.687439 530.568115,550.454834 534.669128,550.351440 538.822327,550.454285 542.651672,550.995850 546.733887,551.335693 550.878784,551.486816 554.704407,551.553955 558.388184,551.583740 562.008911,551.597046 565.601624,551.602966 569.975281,551.208801 574.596741,550.686584 578.634277,550.454468 581.222107,550.747986 583.917236,551.607666 " stroke-linecap="round" stroke-linejoin="round" stroke="#ff0000" stroke-width="1.00" fade-time="6" fade-enable="0" RotationPoint="(320.000000,240.000000)" transform="rotate(0.00,516.31,550.98)" xml:id="annotation.EE4VPHLIM53HF459KGB4JUU60" visible="1"/><polyline fill="none" points="451.370667,556.963074 455.646210,556.042908 460.356567,555.599487 464.644867,554.889587 469.188171,555.340393 473.570709,555.498047 477.700317,555.568115 481.519135,555.748047 485.199860,556.323853 488.819214,556.679016 492.411377,556.836853 495.991394,556.906982 499.565979,556.938171 503.286926,556.952026 507.420074,556.958130 511.339630,556.960876 515.362732,556.962097 520.125916,556.962646 524.821533,556.962891 529.387756,556.963013 533.896545,556.963013 538.379822,556.963135 542.851746,556.963135 547.318604,556.963135 551.783325,556.963135 556.098206,556.963135 559.999451,556.963135 564.113525,556.963135 568.421326,557.111877 572.815186,557.673767 576.850708,558.022766 580.627747,558.177856 584.289917,558.246704 587.901062,558.277405 591.692688,558.294678 593.289185,558.301880 " stroke-linecap="round" stroke-linejoin="round" stroke="#ff0000" stroke-width="1.00" fade-time="6" fade-enable="0" RotationPoint="(320.000000,240.000000)" transform="rotate(0.00,522.33,556.60)" xml:id="annotation.JJC2TT0F950NB5ANGPKE3908C" visible="1"/></g><g class="group" xml:id="annotation.L2767HOCTD6J560UIE7L1G2H6" xbk_transform="rotate(0.00,525.01,611.76)"><polyline fill="none" points="448.692993,582.401245 447.236572,586.770447 445.980438,590.935547 445.256042,594.227417 444.934021,597.673889 444.790924,601.189209 444.727325,604.734985 444.699066,608.294434 444.686493,611.859863 444.680939,615.874329 444.679443,618.402710 444.678467,621.129639 444.826538,623.691345 445.387726,628.521240 446.133026,631.957092 447.354126,635.955383 " stroke-linecap="round" stroke-linejoin="round" stroke="#ff0000" stroke-width="1.00" fade-time="6" fade-enable="0" RotationPoint="(320.000000,240.000000)" transform="rotate(0.00,446.69,609.18)" xml:id="annotation.2716EILB8545P1OVO5I5IE4D9" visible="1"/><polyline fill="none" points="450.031860,578.384705 451.453339,576.252441 453.341309,574.808899 458.189728,572.670044 462.829254,571.980652 467.025452,571.819458 471.716919,571.747803 476.281372,571.715942 480.789337,572.098511 485.272217,572.764343 489.743988,573.556213 494.607544,574.404053 499.446747,575.276733 503.581085,576.160400 508.543243,578.205017 512.839966,579.984375 516.939575,582.875244 519.559265,586.558228 520.566833,591.186768 520.405823,594.983643 519.987183,599.299316 519.801086,604.192566 519.900269,606.895813 520.115051,609.739319 520.407104,612.676270 521.128235,617.526428 521.944641,621.665527 522.803284,625.488647 524.123108,630.275635 525.456299,634.520447 526.793518,638.604614 528.131836,642.641174 528.049072,647.374451 527.332764,648.774719 524.950134,651.124084 521.907654,652.366516 518.571960,652.918762 515.105957,653.164124 511.185333,652.876526 506.814728,652.401611 501.897003,652.190552 499.335999,651.985474 496.736115,651.699951 494.110229,651.360901 491.467102,650.986084 488.812500,650.587463 486.150177,650.172974 483.482727,649.896606 480.811859,649.712402 478.138672,649.589539 475.463989,649.358948 472.788300,649.056396 470.111938,648.705933 465.551422,648.316589 461.689819,647.994751 457.006744,647.126038 455.574341,646.972717 451.370667,646.666260 " stroke-linecap="round" stroke-linejoin="round" stroke="#ff0000" stroke-width="1.00" fade-time="6" fade-enable="0" RotationPoint="(320.000000,240.000000)" transform="rotate(0.00,489.08,612.44)" xml:id="annotation.NFD9G9PPU10IV2D9Q50DAU2PK" visible="1"/><polyline fill="none" points="486.180908,601.145203 486.329620,605.271973 486.891571,607.888428 489.465851,612.581299 492.344299,617.029663 495.792267,620.463440 499.640411,622.654358 503.072113,624.143005 507.225342,625.498779 512.046570,626.101440 516.371094,625.575806 520.127869,624.499207 524.751953,622.908020 529.097168,620.618347 533.938477,617.906860 538.414185,614.343140 541.726501,611.771362 545.182190,609.140686 548.850281,606.335144 552.959839,603.104736 556.869019,600.082275 560.738647,597.102539 564.937866,593.794678 568.886902,590.737793 572.774231,587.891479 576.981262,585.138916 580.933716,582.824585 584.673828,580.804321 588.319580,578.914612 593.006775,576.178101 597.222046,574.193726 601.297485,572.663513 605.338867,570.351562 " stroke-linecap="round" stroke-linejoin="round" stroke="#ff0000" stroke-width="1.00" fade-time="6" fade-enable="0" RotationPoint="(320.000000,240.000000)" transform="rotate(0.00,545.76,598.23)" xml:id="annotation.8BDEENI6LL0G9EJ9EM2HBKFK1" visible="1"/></g><polyline fill="none" points="227.782166,765.824219 232.057678,765.973022 236.916794,766.744324 240.370987,766.976929 244.286346,767.080322 248.505890,767.126282 252.860580,767.146729 255.360703,767.152161 258.068756,767.155762 260.915466,767.158203 263.854614,767.011047 266.855377,766.764221 269.897217,766.450867 272.966431,766.242004 276.053925,766.102783 279.153564,766.009888 282.410095,765.799255 285.771179,765.510010 289.202026,765.168457 292.828094,764.940796 296.584351,764.788940 300.427368,764.687805 304.328186,764.471558 308.267609,764.178589 312.232758,763.834534 316.066284,763.605225 319.812042,763.452332 323.499359,763.350403 327.296387,763.282410 331.166626,763.237061 335.085602,763.206909 338.888336,763.186707 342.613617,763.173340 346.287170,763.164368 349.926361,763.158447 353.542572,763.154480 357.143433,763.151794 360.734131,763.150085 364.318024,763.148865 367.897339,763.148071 371.622437,763.147583 375.444672,763.147217 379.331665,763.146973 383.113098,763.146790 386.824127,763.146667 390.488281,763.146545 394.269867,763.146606 398.129791,763.146545 402.041962,763.146545 405.840118,763.146484 409.562378,763.146484 413.233948,763.146484 417.020508,763.146484 420.883728,763.146484 424.798065,763.146484 428.597748,763.146484 432.320923,763.146484 435.993164,763.146484 439.333862,763.146484 442.453583,763.146484 445.425934,763.146484 450.315338,763.146484 454.826630,763.146484 456.726135,763.146484 " stroke-linecap="round" stroke-linejoin="round" stroke="#ff0000" stroke-width="1.00" fade-time="6" fade-enable="0" RotationPoint="(320.000000,240.000000)" transform="rotate(0.00,342.25,765.15)" xml:id="annotation.1S0OJ1R7ID4UB7MACP2JMD2T0" visible="1"/><polyline fill="none" points="234.476440,1016.189819 239.242294,1017.646240 242.247543,1018.176025 246.597275,1017.786560 249.880096,1017.643311 254.512695,1017.579651 257.205902,1017.562622 262.181854,1017.147156 266.872772,1016.615234 271.436951,1016.378906 275.944855,1016.273743 280.427704,1016.078308 284.899445,1015.495605 289.366272,1015.137451 293.979645,1014.978210 296.459442,1014.935852 299.005219,1014.907532 301.594971,1014.888672 304.214050,1014.876221 306.852692,1014.867737 309.504303,1014.862061 312.164673,1014.858398 314.830811,1014.855896 317.500763,1014.854187 320.173370,1014.853210 322.847656,1014.852417 325.523071,1014.851868 328.199249,1014.851562 330.875946,1014.851318 333.552948,1014.851196 336.230194,1014.851135 338.907593,1014.851074 341.733856,1014.851013 344.659363,1014.850891 347.651031,1014.850891 350.538055,1014.850891 353.355347,1014.850891 356.126099,1014.850891 359.014557,1014.850891 361.981567,1014.850891 365.000854,1014.850891 368.055084,1014.850891 371.132507,1014.850891 374.225464,1014.850891 377.328796,1014.850891 380.439026,1014.850891 383.553833,1014.850891 386.820465,1014.850891 390.188324,1014.850891 393.623627,1014.850891 397.103912,1014.702148 400.614197,1014.454224 404.144470,1014.140198 407.836914,1013.930725 411.637329,1013.791138 415.509827,1013.698059 418.984039,1013.636108 422.192749,1013.594727 425.224457,1013.567139 427.989441,1013.400085 430.576538,1013.139771 434.690796,1012.602844 437.982178,1012.173218 " stroke-linecap="round" stroke-linejoin="round" stroke="#ff0000" stroke-width="1.00" fade-time="6" fade-enable="0" RotationPoint="(320.000000,240.000000)" transform="rotate(0.00,336.23,1015.17)" xml:id="annotation.GFOKM9BVDP5FP3RMP5S7OTVEU" visible="1"/><g class="group" xml:id="annotation.0TB6P3IRCD7DL0PKJPUJ0EMK3" xbk_transform="rotate(0.00,497.70,717.41)"><polyline fill="none" points="465.034363,698.442017 464.140564,702.595520 463.709778,707.171448 462.875641,711.626282 462.629761,715.381226 462.520508,719.843994 462.471924,724.428772 462.450378,728.393311 462.440765,730.926025 462.433105,733.559204 " stroke-linecap="round" stroke-linejoin="round" stroke="#ff0000" stroke-width="1.00" fade-time="6" fade-enable="0" RotationPoint="(320.000000,240.000000)" transform="rotate(0.00,463.73,716.00)" xml:id="annotation.PQ56F040KH1C7C2GATD6QTAAI" visible="1"/><polyline fill="none" points="462.433105,685.435669 466.731110,684.397278 470.364807,683.625366 474.773712,682.800537 479.768036,681.952271 482.516052,681.523682 485.359741,681.093445 488.267120,680.662109 491.216949,680.230164 494.195160,679.797607 497.047699,679.509277 499.816467,679.317017 502.529449,679.188782 507.085327,679.817139 511.037048,681.059875 514.720215,682.575500 518.662842,685.744263 520.710754,688.944824 522.439941,692.486816 524.225769,697.351868 525.206360,701.714905 525.738525,705.773621 526.119568,709.359802 527.146606,714.249756 527.949707,718.618591 528.788391,723.065186 529.787354,727.305481 531.194763,731.117065 532.921570,735.822266 532.967590,740.652649 531.644775,743.263245 529.467163,745.386841 525.135742,748.062927 521.042419,749.835388 517.083740,751.275757 513.165039,752.617798 509.258148,753.930725 504.776703,755.090454 499.991333,755.412476 497.443481,755.498352 494.877777,755.555542 492.300232,755.593750 489.714783,755.619141 487.124084,755.636108 482.366791,755.510437 478.807343,754.972778 475.009430,754.252197 471.057434,753.450256 467.374146,752.612122 462.433105,750.467529 " stroke-linecap="round" stroke-linejoin="round" stroke="#ff0000" stroke-width="1.00" fade-time="6" fade-enable="0" RotationPoint="(320.000000,240.000000)" transform="rotate(0.00,497.70,717.41)" xml:id="annotation.56RQEMD31P26P64UEREHFIDFA" visible="1"/></g><polyline fill="none" points="487.145203,715.350281 488.328125,719.648254 489.645966,723.281982 491.322449,728.009216 492.734375,732.846130 494.068085,737.249878 496.068939,740.609924 499.182739,744.126526 500.661804,744.795044 504.232086,745.152466 507.071350,744.444153 509.296692,743.021484 513.465698,738.190186 515.895996,734.894836 518.421326,731.021729 520.988831,726.120911 522.280457,723.397888 523.575012,720.426270 524.871643,717.289185 526.169617,714.041565 527.612976,710.575928 529.153381,706.964905 530.758301,703.256897 532.550842,699.484192 534.468445,695.668396 536.469421,691.823914 538.525879,687.815796 540.619507,683.698547 542.737854,679.508606 545.017090,675.125610 547.403809,670.613953 549.862000,666.016479 552.223267,661.361877 554.520203,656.669128 556.773926,651.950928 558.999023,647.504944 561.204956,643.240234 563.398193,639.096497 565.293884,635.611328 566.991272,632.565369 569.599792,627.976685 571.686584,624.305725 " stroke-linecap="round" stroke-linejoin="round" stroke="#ff0000" stroke-width="1.00" fade-time="6" fade-enable="0" RotationPoint="(320.000000,240.000000)" transform="rotate(0.00,529.42,684.73)" xml:id="annotation.2VLR04TRSH2SHFHE92D4GNPF8" visible="1"/><g class="group" xml:id="annotation.DCSS4C0LLL20H8AFHHL22GHPO" xbk_transform="rotate(0.00,577.54,775.81)"><polyline fill="none" points="498.850952,798.591064 497.469971,799.971985 496.406677,802.962158 495.596893,806.892456 495.236969,810.566101 495.077026,814.511047 495.005920,818.817505 494.974335,823.621826 494.965912,826.116882 494.960297,828.647339 494.956512,831.201416 495.098511,833.915710 495.337738,836.736877 495.641724,839.629272 495.844330,842.280090 496.069519,847.152283 496.554962,851.726318 497.252472,856.167847 498.044128,860.550354 498.877777,864.136047 500.159515,868.592102 501.454529,871.887451 502.752869,874.028015 " stroke-linecap="round" stroke-linejoin="round" stroke="#ff0000" stroke-width="1.00" fade-time="6" fade-enable="0" RotationPoint="(320.000000,240.000000)" transform="rotate(0.00,498.85,836.31)" xml:id="annotation.V44PB8O57P2PN1NRIAUT8R7J3" visible="1"/><polyline fill="none" points="504.053467,795.989807 506.274780,793.019226 509.817810,790.228271 513.359497,787.937500 516.956787,786.245056 520.482422,785.011108 523.976196,783.980957 527.455872,782.656006 530.929321,781.392761 534.399902,780.831299 538.254639,780.196411 542.376404,779.577026 546.616943,779.301697 550.910156,778.794006 555.082336,778.231140 558.863525,777.980957 562.470947,778.255127 566.001099,778.714233 569.496887,778.918274 574.024475,779.723694 577.928162,780.860168 581.975403,782.328735 584.737671,783.944946 588.608154,787.860657 590.045959,791.798828 590.829468,796.005859 591.659424,799.320801 592.124634,803.010010 592.331299,806.913696 592.423218,810.575623 592.464111,814.129883 592.482239,817.636475 592.490356,821.121887 592.493958,824.597839 592.495483,828.069458 592.496155,831.539368 592.111084,836.164490 591.806152,838.814087 591.602844,841.592102 591.467285,844.455811 591.376892,847.376465 591.316650,850.190674 591.276489,852.933899 591.249695,855.629822 591.219971,860.552124 591.062256,865.003967 590.510376,868.909363 589.398010,872.572021 588.696777,874.357910 585.990723,877.113159 582.379456,879.301147 578.365906,881.237000 573.788086,882.675415 569.152222,883.651917 565.164978,884.085876 561.466064,884.278809 557.895142,884.364502 554.381226,884.402649 550.892639,884.034119 547.415283,883.533203 543.942932,883.310547 540.472717,882.826294 537.003601,882.129333 533.534851,881.337830 530.066345,880.889648 525.249084,880.252075 520.690613,879.533203 516.064270,878.934814 511.947693,877.842285 507.982208,876.603271 505.799561,875.750549 504.053467,874.028015 " stroke-linecap="round" stroke-linejoin="round" stroke="#ff0000" stroke-width="1.00" fade-time="6" fade-enable="0" RotationPoint="(320.000000,240.000000)" transform="rotate(0.00,548.27,831.19)" xml:id="annotation.V0B5V835FT0EB7NPA77BJ6U54" visible="1"/><polyline fill="none" points="532.667480,816.799988 533.561401,820.204163 533.787354,823.611816 534.605042,828.211792 536.453064,833.010986 537.625671,836.385010 539.483643,841.149048 542.700867,845.952454 546.408691,849.684509 550.789062,852.042419 554.065125,852.695435 557.062622,852.214905 560.802185,850.319397 563.740723,847.541748 566.827393,843.587708 570.102356,838.755127 572.138672,835.228699 574.488770,831.252869 576.978455,827.077332 579.530151,822.668396 582.109314,817.818481 583.404053,815.166748 584.700806,812.387268 585.998840,809.522705 587.297729,806.745972 588.597168,804.027649 589.897034,801.348389 591.341675,798.550598 592.882874,795.673706 594.488342,792.744202 595.992249,789.779663 597.428406,786.791687 598.819336,783.788025 600.180176,780.773987 601.520935,777.753113 602.848328,774.727478 604.311340,771.554321 605.864685,768.282776 607.478394,764.945618 609.132141,761.709229 610.812805,758.540039 612.511292,755.415649 614.077148,752.465637 615.554626,749.631897 616.973145,746.875549 618.496887,744.026550 620.090698,741.115479 621.731323,738.163208 623.258667,735.327942 624.710510,732.570557 626.111877,729.865295 627.479675,727.050232 628.825073,724.161804 630.155518,721.224609 631.620605,718.543945 634.789917,713.638550 637.739990,708.664307 640.351807,703.707825 642.476013,699.096375 645.154297,694.252808 647.982483,689.498962 650.202881,685.459229 652.538574,681.351501 654.732788,677.261841 656.189758,673.517273 659.051819,668.768982 660.129883,667.226746 " stroke-linecap="round" stroke-linejoin="round" stroke="#ff0000" stroke-width="1.00" fade-time="6" fade-enable="0" RotationPoint="(320.000000,240.000000)" transform="rotate(0.00,596.40,759.96)" xml:id="annotation.970VIEL84P45157OTRB52EEQB" visible="1"/></g><g class="group" xml:id="annotation.B1H4GLI9617BJECOIHC1AMHAJ" xbk_transform="rotate(0.00,591.94,929.27)"><polyline fill="none" points="494.949036,937.759216 493.910645,941.768250 492.875061,945.739197 492.503998,950.657227 492.417206,954.571167 491.993286,958.719299 491.467590,963.116028 491.234009,967.960388 491.515564,972.618408 491.977875,977.097107 492.183380,981.496216 492.660095,985.474731 493.353699,989.025146 494.556610,993.750549 495.400818,997.568787 496.688599,1002.399902 497.550293,1005.392334 " stroke-linecap="round" stroke-linejoin="round" stroke="#ff0000" stroke-width="1.00" fade-time="6" fade-enable="0" RotationPoint="(320.000000,240.000000)" transform="rotate(0.00,494.39,971.58)" xml:id="annotation.BRGCAGGTG16356OEL0JT6B581" visible="1"/><polyline fill="none" points="494.949036,939.059875 499.193512,936.230164 504.121155,933.635559 507.840973,932.650818 511.950897,931.731506 516.846680,930.401306 520.192627,929.527405 523.606567,928.657227 527.050781,927.788757 530.508362,926.921143 533.971924,926.053711 537.871704,925.330933 540.327881,925.138245 542.976990,925.009766 545.610168,924.924072 548.232666,924.867065 553.025269,924.948120 556.600464,925.465881 560.405334,926.948486 564.360413,929.052551 568.045166,931.432861 572.679016,935.900818 575.416931,940.195251 577.143433,944.903870 578.570190,949.269592 579.217712,953.999451 579.369202,957.742615 579.436523,961.670349 579.466431,965.342712 579.479736,969.672607 579.485657,974.342773 579.488281,978.827026 579.489502,982.843201 579.345459,986.699585 578.799744,990.822021 578.075439,994.677490 577.127380,998.317871 575.742554,1001.862793 573.337952,1005.727417 570.104431,1008.703125 565.710205,1010.724854 562.045532,1011.760620 558.297241,1012.702637 553.316040,1013.900879 548.925842,1014.231934 545.240479,1013.993713 540.342957,1013.432495 536.512329,1013.301208 534.074585,1013.266174 529.101929,1013.227234 524.965027,1013.210022 520.814148,1013.587646 516.560669,1014.092712 512.261658,1014.317139 507.942444,1014.416870 504.047729,1014.172241 499.963165,1012.430908 498.850952,1011.895508 " stroke-linecap="round" stroke-linejoin="round" stroke="#ff0000" stroke-width="1.00" fade-time="6" fade-enable="0" RotationPoint="(320.000000,240.000000)" transform="rotate(0.00,537.22,969.64)" xml:id="annotation.HD6MJSTU6111LAMPO9EF53ISL" visible="1"/><polyline fill="none" points="535.268799,963.771973 536.683594,968.401794 537.631775,971.610229 539.016663,975.444824 541.421204,979.594666 543.964294,982.654785 547.929199,985.392029 552.074524,987.343201 555.503479,987.591553 559.291504,986.931213 562.902039,985.192627 567.494080,981.776428 570.910034,978.018372 574.443115,974.159058 578.235840,969.579346 580.426147,966.256714 582.507629,962.708618 584.877869,958.723022 587.376404,954.928467 589.932068,951.026123 592.513062,946.401489 595.105286,941.841125 597.991577,937.405701 601.682983,933.025757 605.346802,928.285156 608.901978,923.432495 612.408997,918.867188 616.279907,914.044189 620.264404,909.154785 623.962097,904.573181 628.303223,900.128357 632.978394,895.744202 637.464722,891.387146 641.867310,887.042053 646.232605,882.702332 650.581299,878.364929 654.537292,874.414001 658.511353,870.731201 663.167969,867.167542 667.357056,863.656860 671.290344,860.169678 675.447021,856.692932 679.317627,853.606201 682.964844,850.789185 686.512573,848.091919 689.245544,846.218811 692.645874,844.113342 " stroke-linecap="round" stroke-linejoin="round" stroke="#ff0000" stroke-width="1.00" fade-time="6" fade-enable="0" RotationPoint="(320.000000,240.000000)" transform="rotate(0.00,613.96,915.85)" xml:id="annotation.UVF5FFQDCH5011KLFM0QALOSJ" visible="1"/></g></g></svg>