<?xml version="1.0" encoding="UTF-8" standalone="yes"?><svg width="800" height="688" xml:id="page.87A5QEJ7P15E3FT07CFMA5CKI"><title>Sep 5-11:45 AM</title><g class="foreground"><g class="group" xml:id="annotation.31VOS3B31P03R2P1H9O38BL4S" xbk_transform="rotate(0.00,224.07,122.71)"><polyline fill="none" points="140.629486,90.836655 139.998810,95.801163 139.645813,99.655998 139.216599,103.601776 138.853317,107.810585 138.184967,112.185883 137.426208,116.521942 136.640686,120.934921 136.083313,125.046089 135.682053,129.067810 135.176285,133.969620 134.528763,137.889023 134.545151,142.270218 135.051788,145.816727 " stroke-linecap="round" stroke-linejoin="round" stroke="#000000" stroke-width="3.00" fade-time="6" fade-enable="0" RotationPoint="(320.000000,240.000000)" transform="rotate(0.00,137.58,118.33)" xml:id="annotation.U7O6EN7E415O3E8ON6A727HSS" visible="1"/><polyline fill="none" points="123.099602,127.490044 126.586700,124.848930 130.808899,122.498978 135.525299,120.565765 139.972961,119.595108 144.655121,118.746788 148.934555,118.170807 152.209320,118.000122 154.972107,117.928284 " stroke-linecap="round" stroke-linejoin="round" stroke="#000000" stroke-width="3.00" fade-time="6" fade-enable="0" RotationPoint="(320.000000,240.000000)" transform="rotate(0.00,139.04,122.71)" xml:id="annotation.V8OQ967E490VH3AL1P2L1VP9I" visible="1"/><polyline fill="none" points="154.972107,136.254974 159.137970,134.895874 164.061584,133.171844 168.900101,131.724197 173.646439,130.061050 177.194153,128.430725 179.224014,126.922760 179.916290,125.408218 180.100891,124.508537 179.869827,123.908760 179.361649,123.508881 178.668732,123.242317 176.001480,123.290131 171.927536,125.283218 167.712585,127.946030 163.044052,132.862167 160.009583,137.063660 158.981689,139.270416 158.524841,141.726807 158.793991,143.585831 159.113647,144.329468 160.413193,145.627914 162.171249,146.618164 166.185440,147.253876 168.278061,147.163742 172.501999,145.816727 " stroke-linecap="round" stroke-linejoin="round" stroke="#000000" stroke-width="3.00" fade-time="6" fade-enable="0" RotationPoint="(320.000000,240.000000)" transform="rotate(0.00,167.54,135.25)" xml:id="annotation.O9QLVC56SL4871VOKCTJ6VD11" visible="1"/><polyline fill="none" points="188.438248,138.645416 188.261169,141.560501 187.431564,143.709641 187.489151,145.529495 187.716980,145.979385 188.045944,146.102234 188.442307,146.007065 189.354919,145.193054 190.262207,143.857391 192.274490,139.093475 194.393326,134.999069 197.277756,131.776917 201.359924,128.549530 204.408600,127.276321 206.219376,127.424561 207.198044,127.711983 208.757629,128.975723 209.421417,129.808517 210.158981,132.386490 210.338089,137.086029 210.066528,141.606720 209.986084,145.513702 210.144318,147.541275 211.545822,149.800797 " stroke-linecap="round" stroke-linejoin="round" stroke="#000000" stroke-width="3.00" fade-time="6" fade-enable="0" RotationPoint="(320.000000,240.000000)" transform="rotate(0.00,199.49,138.54)" xml:id="annotation.QGO5VTTBEL187DMTUE8SISVLC" visible="1"/><polyline fill="none" points="241.824707,125.099602 240.555740,124.676605 235.556961,125.012764 230.788345,126.185562 228.737167,127.388802 227.803787,128.596008 227.430954,129.289764 227.447983,130.106415 228.175201,131.958176 230.077896,134.145691 234.514297,137.018860 239.185959,140.236145 241.510056,142.363297 241.792007,143.071762 241.869202,144.803314 241.411697,145.583786 239.722916,146.923172 235.252121,148.904846 231.161392,149.623825 226.572601,149.677307 223.498016,149.003983 " stroke-linecap="round" stroke-linejoin="round" stroke="#000000" stroke-width="3.00" fade-time="6" fade-enable="0" RotationPoint="(320.000000,240.000000)" transform="rotate(0.00,232.68,137.18)" xml:id="annotation.RG53TVUHD5561DB84HR7U097T" visible="1"/><polyline fill="none" points="257.760956,131.474106 257.524872,136.202515 256.401825,140.835495 255.370514,143.426300 " stroke-linecap="round" stroke-linejoin="round" stroke="#000000" stroke-width="3.00" fade-time="6" fade-enable="0" RotationPoint="(320.000000,240.000000)" transform="rotate(0.00,256.57,137.45)" xml:id="annotation.C1KFRH0BOH1MJ6QJ1JKGL144P" visible="1"/><polyline fill="none" points="261.745026,113.944221 260.948212,112.350601 " stroke-linecap="round" stroke-linejoin="round" stroke="#000000" stroke-width="3.00" fade-time="6" fade-enable="0" RotationPoint="(320.000000,240.000000)" transform="rotate(0.00,261.45,113.15)" xml:id="annotation.J32QCT3F6T68F44F7KRRK3PJD" visible="1"/><polyline fill="none" points="276.884460,129.083664 274.520264,133.653595 272.908173,137.550003 272.018524,140.017807 271.623077,142.885300 272.155609,145.222137 273.366211,147.057556 275.084686,148.463547 276.792847,148.970367 279.247742,148.757919 281.657288,147.898178 284.428009,146.021301 287.760284,141.780670 288.517731,138.157822 287.896179,133.720047 286.590576,130.732849 284.887207,129.344437 282.743134,128.314209 278.953308,127.652847 276.884460,127.490044 " stroke-linecap="round" stroke-linejoin="round" stroke="#000000" stroke-width="3.00" fade-time="6" fade-enable="0" RotationPoint="(320.000000,240.000000)" transform="rotate(0.00,280.07,138.23)" xml:id="annotation.7JHES8DOR545V1ENJS9JQ350N" visible="1"/><polyline fill="none" points="296.804779,141.035858 296.804810,143.150864 297.070404,143.685349 297.513062,143.953140 298.073792,144.043137 298.624664,143.837524 300.245941,142.279160 302.912140,138.176270 306.436310,133.907700 309.567566,131.108826 314.170319,129.175461 315.855225,128.770309 319.101105,129.231628 320.614227,129.769165 321.876953,130.598312 322.792328,131.793152 324.387146,136.136322 325.035400,139.220154 324.787079,143.434891 324.288788,147.677658 323.081299,152.121521 322.302795,154.581680 " stroke-linecap="round" stroke-linejoin="round" stroke="#000000" stroke-width="3.00" fade-time="6" fade-enable="0" RotationPoint="(320.000000,240.000000)" transform="rotate(0.00,310.92,141.68)" xml:id="annotation.IF48PVAV1H3GB4P0GQ904PCP7" visible="1"/></g><g class="group" xml:id="annotation.96MBC6CVEP1N99BS04H76K30Q" xbk_transform="rotate(0.00,230.33,234.26)"><polyline fill="none" points="136.645416,207.171310 136.645416,211.076675 136.645416,215.696518 136.409317,220.564850 135.959366,224.936722 136.010971,225.300873 136.133926,225.189514 137.703384,220.550140 139.618652,216.011459 142.249680,211.488312 145.536285,206.540787 148.074890,203.944763 149.516235,203.140259 152.243958,202.612610 154.025208,202.961365 155.702209,203.795135 160.549805,207.968124 " stroke-linecap="round" stroke-linejoin="round" stroke="#000000" stroke-width="3.00" fade-time="6" fade-enable="0" RotationPoint="(320.000000,240.000000)" transform="rotate(0.00,148.25,213.96)" xml:id="annotation.7M82BBAJEH6AP3J6Q1J66HLQH" visible="1"/><polyline fill="none" points="178.876495,214.342636 178.453491,218.778839 177.517380,222.967346 176.479919,227.257385 175.689240,229.482071 " stroke-linecap="round" stroke-linejoin="round" stroke="#000000" stroke-width="3.00" fade-time="6" fade-enable="0" RotationPoint="(320.000000,240.000000)" transform="rotate(0.00,177.28,221.91)" xml:id="annotation.L9NSBMN27533PBU6RNC47SREU" visible="1"/><polyline fill="none" points="178.876495,195.219131 178.876495,192.828690 " stroke-linecap="round" stroke-linejoin="round" stroke="#000000" stroke-width="3.00" fade-time="6" fade-enable="0" RotationPoint="(320.000000,240.000000)" transform="rotate(0.00,179.38,194.02)" xml:id="annotation.O4IJIMATHH7NP1U7IMTQU5CP3" visible="1"/><polyline fill="none" points="193.219131,215.139450 193.219131,219.709366 193.455215,223.605789 194.085876,227.475342 195.092163,232.272934 195.707306,232.847748 196.560074,233.142395 197.571259,233.250305 198.510986,232.879562 200.263412,231.287186 202.860336,226.883392 205.358841,222.299713 206.933136,218.744247 210.361526,214.150848 211.545822,212.749008 " stroke-linecap="round" stroke-linejoin="round" stroke="#000000" stroke-width="3.00" fade-time="6" fade-enable="0" RotationPoint="(320.000000,240.000000)" transform="rotate(0.00,202.38,223.00)" xml:id="annotation.DKL2RBB09H7412LBV1ND0US8A" visible="1"/><polyline fill="none" points="237.840637,216.733063 236.148636,216.733047 233.827438,217.579071 229.632599,220.828552 226.421448,223.926392 223.769333,227.891357 223.413284,228.687210 223.353012,229.394821 223.758179,230.653259 224.291183,230.882599 225.827805,230.665253 228.975189,229.082916 233.043976,225.381363 236.487915,220.706894 237.564056,219.118942 237.833328,219.031921 237.924286,219.416595 237.217316,224.166214 237.078110,229.051758 237.899994,232.305740 239.254044,233.865265 241.824707,235.856567 " stroke-linecap="round" stroke-linejoin="round" stroke="#000000" stroke-width="3.00" fade-time="6" fade-enable="0" RotationPoint="(320.000000,240.000000)" transform="rotate(0.00,232.59,226.29)" xml:id="annotation.MMC5GEACIP0QL9LAQ4HQQBARP" visible="1"/><polyline fill="none" points="264.135468,196.812744 263.899353,200.910492 263.449432,205.491928 262.525452,209.772446 261.855804,213.078735 261.217163,217.952194 260.791809,222.199799 260.277893,227.177917 260.188873,231.337387 260.706390,235.875488 260.948212,237.450195 " stroke-linecap="round" stroke-linejoin="round" stroke="#000000" stroke-width="3.00" fade-time="6" fade-enable="0" RotationPoint="(320.000000,240.000000)" transform="rotate(0.00,262.16,217.13)" xml:id="annotation.DJ0RJ91N7H7VN75KB31IJVONB" visible="1"/><polyline fill="none" points="267.322723,232.669327 267.322723,234.361313 267.499786,234.682678 267.794891,234.719803 268.168701,234.567520 268.820129,233.453964 270.382721,229.430481 272.396515,225.186157 275.735931,220.678101 278.423096,218.492188 280.430908,217.573914 282.503723,217.342865 285.649414,217.529877 " stroke-linecap="round" stroke-linejoin="round" stroke="#000000" stroke-width="3.00" fade-time="6" fade-enable="0" RotationPoint="(320.000000,240.000000)" transform="rotate(0.00,276.49,226.03)" xml:id="annotation.U2QVO934P178J1BNGNUC1SO8U" visible="1"/><polyline fill="none" points="305.569733,222.310760 301.823608,226.479858 300.357117,229.695694 299.770660,231.937958 299.923157,234.173996 300.211700,235.266052 301.476715,236.951660 302.309845,237.649048 304.416016,238.423935 306.650604,238.679779 311.079865,237.898499 313.094849,236.737015 317.552948,232.606735 321.196472,227.882935 323.243988,225.073364 323.727081,224.772232 324.049164,224.925629 324.263855,225.382019 324.636688,229.641678 324.682068,234.186264 324.689972,238.460388 324.692261,242.668137 324.692993,246.718460 324.693146,250.722137 324.270233,254.712021 324.007172,258.697815 322.734558,263.285797 320.839264,267.668610 318.917969,270.101593 314.238678,273.234436 309.643005,274.994324 305.360107,275.488922 300.726746,275.635498 297.337891,275.669800 293.854462,275.685028 290.535614,275.691772 287.053772,275.458710 282.081421,274.829712 278.276733,274.318726 275.290833,274.103577 " stroke-linecap="round" stroke-linejoin="round" stroke="#000000" stroke-width="3.00" fade-time="6" fade-enable="0" RotationPoint="(320.000000,240.000000)" transform="rotate(0.00,299.99,249.00)" xml:id="annotation.TLD7GINP2T219F3KQ0VKH6TSP" visible="1"/></g><g class="group" xml:id="annotation.F4SUKALMM535R32B226IP1EU8" xbk_transform="rotate(0.00,269.31,342.63)"><polyline fill="none" points="96.804779,319.521912 98.419144,324.364960 99.817696,328.931183 101.420059,333.090057 102.615364,337.744781 103.858192,341.615021 104.924889,345.565308 106.714615,350.229889 108.537163,354.561462 110.056053,359.254974 111.832191,363.755463 112.400749,364.150391 113.045387,364.148071 113.740761,363.880920 114.292862,363.083069 115.492889,359.176300 116.497719,355.136383 117.789001,351.135803 118.771675,347.146820 119.712097,343.161285 120.984276,339.265350 122.252197,334.495239 123.320694,331.100281 125.148628,326.201355 126.087311,323.684845 127.880478,321.115540 " stroke-linecap="round" stroke-linejoin="round" stroke="#000000" stroke-width="3.00" fade-time="6" fade-enable="0" RotationPoint="(320.000000,240.000000)" transform="rotate(0.00,112.34,341.84)" xml:id="annotation.T73IQVI55P4JDD04FQ8L0S6HP" visible="1"/><polyline fill="none" points="154.972107,335.458160 150.798950,336.990204 148.403870,338.440247 146.572769,340.414337 143.980362,345.035309 143.304504,347.837921 143.164673,351.957611 144.136368,356.818939 145.318146,359.317139 147.939987,362.452332 152.226181,365.423645 156.558777,366.204926 161.344543,365.590424 164.857880,364.286896 167.158020,362.356201 169.433044,358.688171 170.431885,355.601654 170.814240,351.149963 170.689468,348.718262 169.166565,344.271606 168.009399,342.208344 163.369507,337.898071 159.830978,336.318817 155.978943,335.290161 152.033997,335.270660 147.459793,336.145782 144.748611,337.530975 140.146622,341.554688 139.035858,342.629486 " stroke-linecap="round" stroke-linejoin="round" stroke="#000000" stroke-width="3.00" fade-time="6" fade-enable="0" RotationPoint="(320.000000,240.000000)" transform="rotate(0.00,154.93,350.74)" xml:id="annotation.J143G7TI9117B58RT3JSS43UN" visible="1"/><polyline fill="none" points="209.155380,285.258972 208.288620,289.828888 207.541031,294.197510 206.758804,298.856232 206.202408,303.600891 205.801453,308.371033 204.885834,313.148743 204.159073,316.423798 203.836075,319.945160 203.456436,323.339966 202.992599,326.708008 202.491318,330.270691 202.209534,333.919952 201.995743,337.519104 201.605606,340.889404 200.888199,345.773376 200.537903,350.584747 200.434143,354.951691 199.980392,359.049194 199.758560,363.851959 200.239395,368.027283 200.390442,369.721130 " stroke-linecap="round" stroke-linejoin="round" stroke="#000000" stroke-width="3.00" fade-time="6" fade-enable="0" RotationPoint="(320.000000,240.000000)" transform="rotate(0.00,204.46,327.49)" xml:id="annotation.JHN0QUKOUL2UB7SRJIL102Q67" visible="1"/><polyline fill="none" points="244.215149,345.816742 242.767517,341.827942 241.919128,340.620575 239.599991,338.945374 237.914291,338.572144 234.667953,339.053955 232.690262,340.173187 229.355515,344.287292 228.174896,346.632599 227.618912,350.617767 227.611176,354.558136 228.218765,357.525848 230.465775,361.720978 232.861740,364.133972 234.801468,365.024536 235.814545,365.262054 236.666977,365.243317 238.086319,364.750336 241.534058,361.978577 243.590469,358.613556 244.941010,354.538666 246.330643,349.900055 247.164459,346.397064 247.296646,345.189301 247.388474,349.991425 248.035797,354.393066 249.252319,358.344849 251.575134,363.327240 254.155899,367.239594 256.964172,369.721130 " stroke-linecap="round" stroke-linejoin="round" stroke="#000000" stroke-width="3.00" fade-time="6" fade-enable="0" RotationPoint="(320.000000,240.000000)" transform="rotate(0.00,242.29,354.15)" xml:id="annotation.F1IB2KM8292F58K4FRNA0SAJE" visible="1"/><polyline fill="none" points="296.007965,304.382477 294.212860,309.241669 293.098969,313.730164 292.293243,317.491028 291.493805,321.497528 290.696198,326.009583 289.899170,330.710815 289.102295,335.468109 288.394012,340.241974 288.144775,345.020844 288.070953,349.712524 288.049072,353.857086 288.041656,358.711151 288.039856,362.549805 " stroke-linecap="round" stroke-linejoin="round" stroke="#000000" stroke-width="3.00" fade-time="6" fade-enable="0" RotationPoint="(320.000000,240.000000)" transform="rotate(0.00,292.02,333.47)" xml:id="annotation.AMCUC6MQMT2Q7CTQ84RU2UNS3" visible="1"/><polyline fill="none" points="276.884460,341.832672 279.525543,339.614594 282.688751,338.200745 287.392731,337.304993 291.507507,337.126801 295.618896,337.074005 299.195221,337.051788 " stroke-linecap="round" stroke-linejoin="round" stroke="#000000" stroke-width="3.00" fade-time="6" fade-enable="0" RotationPoint="(320.000000,240.000000)" transform="rotate(0.00,288.04,339.44)" xml:id="annotation.0NU48V1JJL3K98VJBHSFJQA5A" visible="1"/><polyline fill="none" points="301.585663,337.848602 " stroke-linecap="round" stroke-linejoin="round" stroke="#000000" stroke-width="3.00" fade-time="6" fade-enable="0" RotationPoint="(320.000000,240.000000)" transform="rotate(0.00,302.09,338.35)" xml:id="annotation.IC12NS2A5P15T7C2KF1C5AIQQ" visible="1"/><polyline fill="none" points="319.912354,342.629486 319.735291,345.262543 318.414917,350.189758 317.786499,354.460815 317.574188,359.446869 317.521912,361.752991 " stroke-linecap="round" stroke-linejoin="round" stroke="#000000" stroke-width="3.00" fade-time="6" fade-enable="0" RotationPoint="(320.000000,240.000000)" transform="rotate(0.00,318.72,352.19)" xml:id="annotation.51HS58OTV574BCN85F4836MKA" visible="1"/><polyline fill="none" points="321.505981,322.709167 321.928955,321.440186 322.230652,321.066376 323.896423,320.318726 " stroke-linecap="round" stroke-linejoin="round" stroke="#000000" stroke-width="3.00" fade-time="6" fade-enable="0" RotationPoint="(320.000000,240.000000)" transform="rotate(0.00,322.70,321.51)" xml:id="annotation.9BR2OGQMB13RP4JP9HSQN154V" visible="1"/><polyline fill="none" points="354.175323,311.553772 352.380188,316.412964 351.538269,320.155029 350.728088,324.067413 349.504333,328.453186 348.443329,333.117004 347.568176,337.863220 346.748199,342.210815 345.944550,346.725616 345.568665,351.004639 345.457275,355.076111 346.055817,359.781555 347.004028,364.143433 " stroke-linecap="round" stroke-linejoin="round" stroke="#000000" stroke-width="3.00" fade-time="6" fade-enable="0" RotationPoint="(320.000000,240.000000)" transform="rotate(0.00,349.82,337.85)" xml:id="annotation.H1M7N796JL7BDFVHI805R18Q4" visible="1"/><polyline fill="none" points="365.330688,355.378479 370.136658,355.142365 374.427643,354.511688 379.050262,353.505432 383.575348,351.953308 386.405457,350.019409 387.698212,348.035889 387.767822,347.296143 387.372986,345.765991 386.371216,344.672760 383.563873,343.249542 379.970245,343.236176 376.387115,344.215973 372.639801,346.769531 368.959106,350.618134 366.720764,355.380280 366.726288,358.192444 367.288635,360.845551 369.544098,364.669189 371.950195,367.250397 376.639404,370.265991 380.751678,371.800812 385.570496,373.052399 390.451172,374.308563 394.228699,375.005402 397.203186,375.298798 " stroke-linecap="round" stroke-linejoin="round" stroke="#000000" stroke-width="3.00" fade-time="6" fade-enable="0" RotationPoint="(320.000000,240.000000)" transform="rotate(0.00,381.27,359.27)" xml:id="annotation.HDTU9HTOCP0G90QFM8CRQ617C" visible="1"/><polyline fill="none" points="97.601593,387.251007 98.447594,388.097015 101.592102,389.333099 106.244965,390.698242 109.989944,391.075989 114.886894,391.187927 118.993881,391.221100 123.554298,390.684692 128.101471,390.486938 131.930023,390.216553 135.867996,389.811859 139.838425,389.455841 144.054520,389.025726 148.668076,388.662231 153.399368,388.229858 158.165558,387.865662 162.942078,387.433136 167.721664,387.304993 170.997147,387.186462 174.518738,386.838654 178.149689,386.388947 181.740723,385.982513 185.107422,385.801910 188.610535,385.485535 192.233276,385.138367 195.909180,384.984009 199.608749,384.915436 203.318787,384.796448 207.033508,384.448425 210.986435,384.234711 215.015671,384.139740 218.872238,384.097504 222.652084,384.078766 226.486374,383.981903 230.551392,383.643738 234.482910,383.434418 238.384598,383.252808 242.479614,382.876984 246.424484,382.651001 250.243530,382.550507 254.006729,382.505859 257.981140,382.485992 262.019958,382.388672 265.880798,382.050262 269.662506,381.840851 273.497650,381.747772 277.563080,381.706390 281.494751,381.688019 285.308014,381.591309 289.068573,381.253174 292.805756,381.043915 296.621063,380.950897 300.677704,380.909576 304.605438,380.655090 308.505432,380.335419 312.599731,380.193329 316.544250,379.894104 320.451691,379.554535 324.549286,379.403656 328.495270,379.100464 332.403381,378.759125 336.501251,378.607422 340.683472,378.539978 344.991669,378.510040 349.562500,378.496735 354.013885,378.490814 358.353241,378.488190 362.642761,378.486969 366.910126,378.486481 371.256195,378.574799 375.843872,378.909149 380.066681,379.116791 384.097809,379.209045 388.250366,379.250061 392.456848,379.504364 396.598816,379.823975 400.505493,379.966034 404.307617,380.265259 407.974670,380.693359 411.375214,381.178741 416.276154,381.949768 420.669586,382.315979 425.483856,382.528198 429.845093,383.094788 434.190674,383.791870 434.433472,383.882507 434.653381,384.063751 " stroke-linecap="round" stroke-linejoin="round" stroke="#000000" stroke-width="3.00" fade-time="6" fade-enable="0" RotationPoint="(320.000000,240.000000)" transform="rotate(0.00,266.13,384.85)" xml:id="annotation.RNHOFA5I791IJ6KNO5RLF5GBV" visible="1"/><polyline fill="none" points="91.227089,400.000000 95.324829,400.000000 99.906281,399.576965 103.763779,399.313934 108.662567,398.677429 113.293465,398.398132 118.165527,397.791565 122.538132,397.222504 126.900635,396.893677 130.639679,396.748199 134.551147,396.272217 138.513702,396.091858 142.491394,395.949890 146.562103,395.475006 151.004684,395.206390 155.252487,394.694000 159.747543,394.502808 164.010880,394.446167 168.599060,394.429382 173.322830,394.424408 178.175339,394.334381 181.693100,393.999573 185.086258,393.791718 189.983063,393.674713 194.798279,393.876160 199.589340,394.260468 202.867508,394.350372 206.390274,394.390350 209.785690,394.408112 213.153976,394.415985 216.716797,394.419495 220.130005,394.421021 223.506195,394.333191 227.072540,393.999054 230.723419,393.791504 234.411804,393.699280 238.116913,393.658264 241.829468,393.403961 245.545288,392.995819 249.262573,392.519318 253.216614,392.248505 257.246338,392.128174 261.103149,392.074646 265.119171,391.814789 269.176453,391.492706 273.045502,391.349579 277.067017,391.049835 281.126709,390.710083 284.996887,390.559052 289.018799,390.491974 293.078735,390.373596 296.948975,390.025848 300.970978,389.812317 305.030975,389.717407 308.901154,389.675201 312.923157,389.656433 316.983154,389.648102 320.853394,389.644379 324.639282,389.406708 328.387695,389.094452 332.119507,388.955658 336.079987,388.893951 340.112549,388.866547 343.970642,388.854370 347.751160,388.848969 351.497192,388.846558 355.227905,388.845520 358.715729,388.845032 362.125092,388.844818 365.706177,388.844727 369.363556,388.844727 373.054871,388.844666 376.761322,388.844666 380.474426,388.608521 384.101959,388.297028 387.484894,388.158569 390.995178,388.097046 394.621155,388.069672 398.298492,388.057556 401.762604,388.052124 406.699341,388.049103 410.011566,387.959839 413.549469,387.625061 416.951599,387.417236 421.853455,387.300232 426.434082,387.265564 430.830963,387.255341 435.262024,387.252289 439.378510,387.015289 443.401794,386.620453 447.402405,386.454193 " stroke-linecap="round" stroke-linejoin="round" stroke="#000000" stroke-width="3.00" fade-time="6" fade-enable="0" RotationPoint="(320.000000,240.000000)" transform="rotate(0.00,269.31,393.23)" xml:id="annotation.QFDDPMKAQD4U1A6PBDA2CTKGN" visible="1"/></g><g class="group" xml:id="annotation.HT11CE9DVL6VN3V8B1H57ITEI" xbk_transform="rotate(0.00,436.75,457.07)"><polyline fill="none" points="256.964142,448.605591 256.964142,450.720551 257.672424,452.703308 259.868317,456.015778 261.897247,457.392059 266.615906,458.931976 271.216339,460.020264 275.751678,459.903992 280.057831,459.553162 282.101837,458.960358 285.975800,456.094452 287.290558,454.041229 287.817810,450.058777 287.468994,447.893921 286.635193,446.252991 283.935699,443.271484 282.320251,442.162292 279.419739,441.128632 276.317474,440.871521 271.860413,441.532990 269.428009,442.186432 265.216980,444.770111 261.801239,448.261108 259.293549,452.449463 258.089935,457.447754 257.858459,461.377502 258.203217,466.248230 259.300964,470.531982 262.216705,474.849792 264.275208,476.852875 266.027283,477.538849 270.726288,478.015442 272.103577,478.087646 " stroke-linecap="round" stroke-linejoin="round" stroke="#000000" stroke-width="3.00" fade-time="6" fade-enable="0" RotationPoint="(320.000000,240.000000)" transform="rotate(0.00,272.39,459.48)" xml:id="annotation.KS1G79P5LT1AL5MCFDJAAM8V9" visible="1"/><polyline fill="none" points="323.896423,447.011963 321.926788,450.242920 317.488892,454.353271 312.985931,458.825867 309.366028,462.973358 304.853119,467.716003 301.222382,472.385773 297.522858,477.091827 296.804779,478.087646 " stroke-linecap="round" stroke-linejoin="round" stroke="#000000" stroke-width="3.00" fade-time="6" fade-enable="0" RotationPoint="(320.000000,240.000000)" transform="rotate(0.00,310.35,462.55)" xml:id="annotation.NRCSREQ12T7ER5N1PK4OTIU5U" visible="1"/><polyline fill="none" points="303.976105,447.808777 305.971344,452.522217 307.987030,456.612854 310.090271,461.254089 312.103180,465.121948 315.621948,469.670197 318.318726,473.306763 " stroke-linecap="round" stroke-linejoin="round" stroke="#000000" stroke-width="3.00" fade-time="6" fade-enable="0" RotationPoint="(320.000000,240.000000)" transform="rotate(0.00,311.15,460.56)" xml:id="annotation.8JSNFPQM9H2K1DNKLHGE5FIFK" visible="1"/><polyline fill="none" points="319.912354,475.697205 " stroke-linecap="round" stroke-linejoin="round" stroke="#000000" stroke-width="3.00" fade-time="6" fade-enable="0" RotationPoint="(320.000000,240.000000)" transform="rotate(0.00,320.41,476.20)" xml:id="annotation.EFG2MDSM751F981J8UEPJ3PPQ" visible="1"/><polyline fill="none" points="353.378479,458.167328 353.801514,456.898315 353.773071,455.567047 353.376801,454.178528 352.610413,452.971222 350.971313,452.316528 348.944336,452.114105 347.158081,452.319275 344.659210,453.355530 341.523834,455.928131 339.763214,458.300690 338.034210,463.266388 337.617615,467.685608 337.917206,471.228088 338.568207,472.855103 338.989685,473.536865 340.402405,474.530487 341.274933,474.919403 343.660950,474.879333 346.137939,474.182739 347.829071,472.987762 350.357483,469.967987 352.676788,465.018097 354.423645,460.635468 355.330933,456.537720 355.550629,453.798767 355.288269,454.602570 355.582153,459.184692 355.968140,463.919769 357.293701,468.668671 358.713074,473.564514 360.606720,478.033630 363.213348,482.667969 366.127502,486.055786 " stroke-linecap="round" stroke-linejoin="round" stroke="#000000" stroke-width="3.00" fade-time="6" fade-enable="0" RotationPoint="(320.000000,240.000000)" transform="rotate(0.00,351.87,469.08)" xml:id="annotation.9ECRQH0KAT5D7E7UM4ODES7SG" visible="1"/><polyline fill="none" points="389.235046,454.183258 389.658051,452.914276 389.629639,451.582947 389.498108,450.856110 389.144806,450.637146 388.643707,450.756744 384.045776,453.950256 380.746521,458.216797 379.145294,460.572418 377.972443,464.644592 377.910156,469.353149 378.875458,472.843597 380.282928,475.136963 381.537872,476.127014 385.922852,477.773712 389.011139,478.427460 393.227386,477.944946 397.470428,476.574066 401.630249,474.050507 404.865326,471.519043 408.331726,466.915253 410.055084,463.741669 410.543396,460.507599 410.185425,458.735229 409.842072,458.014709 409.259064,457.622925 407.666840,457.423676 406.835022,457.760071 405.202484,459.078278 404.063721,461.316742 403.160980,465.563538 403.129547,469.713928 403.912170,473.866028 405.083557,476.846619 408.794647,480.923645 410.878174,482.154510 414.446716,482.656982 417.599396,482.382843 420.215668,481.317902 422.250031,479.457947 425.606567,474.880798 428.276733,470.677673 428.808655,469.694794 429.428864,469.216614 430.107971,469.074982 430.826294,469.157562 431.305176,469.743835 432.559814,474.693542 433.049561,479.689575 433.438873,481.721283 433.578125,481.838104 433.732788,480.551331 433.209595,475.636871 433.089386,471.012634 432.645508,467.147705 432.427032,462.512054 433.144653,457.950043 434.138916,453.658264 434.664551,453.125000 435.369080,452.858032 436.192932,452.768555 438.052704,453.377441 442.544525,456.041290 447.018433,458.698395 449.792816,460.557770 " stroke-linecap="round" stroke-linejoin="round" stroke="#000000" stroke-width="3.00" fade-time="6" fade-enable="0" RotationPoint="(320.000000,240.000000)" transform="rotate(0.00,413.85,466.65)" xml:id="annotation.DJ6AO9LUNL1N320434VC91QJS" visible="1"/><polyline fill="none" points="459.354584,427.888458 459.902252,430.151001 460.166138,434.333252 460.588593,438.454773 460.320251,442.479553 460.201447,446.564240 460.166229,451.010895 460.155823,455.259949 460.152740,459.755341 460.151825,463.930267 460.151581,468.059448 460.151489,471.063141 460.328522,471.722473 460.623657,471.807892 461.884918,470.472229 462.781067,469.036804 464.362640,464.626587 466.354645,459.938263 467.158020,458.246155 468.400452,456.608673 470.074066,455.703888 471.016174,455.462616 472.771271,455.666718 474.348083,456.347717 476.231293,457.815063 479.529816,462.738037 481.772125,467.327606 482.257690,470.423553 481.697083,475.190002 480.912140,477.449066 480.277863,478.281647 478.628723,479.442841 476.479218,479.781891 472.338318,479.278137 469.782684,478.578125 468.386505,477.597382 464.135468,474.103577 " stroke-linecap="round" stroke-linejoin="round" stroke="#000000" stroke-width="3.00" fade-time="6" fade-enable="0" RotationPoint="(320.000000,240.000000)" transform="rotate(0.00,470.81,453.84)" xml:id="annotation.K570CFE2HL3U3F0ERRNUP9MKK" visible="1"/><polyline fill="none" points="503.179291,464.541840 502.454681,462.721985 501.647247,461.637665 500.225952,460.801636 499.351196,460.454742 498.413879,460.489105 496.427948,461.235535 494.164917,462.726013 493.182007,464.000427 492.795959,464.712097 492.252655,468.674683 492.937653,473.350830 494.262085,476.831665 496.198944,479.122253 497.020630,479.485687 498.877991,479.653351 499.603455,479.397034 500.645691,478.404022 502.959351,474.837128 505.025940,470.094757 506.018524,466.069092 506.784821,463.263031 506.911011,463.335114 508.007965,467.980591 509.007202,471.876190 510.508240,475.995056 512.796753,480.412384 513.916748,481.953979 515.299866,483.229340 516.799988,483.914215 519.115540,484.462158 " stroke-linecap="round" stroke-linejoin="round" stroke="#000000" stroke-width="3.00" fade-time="6" fade-enable="0" RotationPoint="(320.000000,240.000000)" transform="rotate(0.00,505.68,472.46)" xml:id="annotation.02GKJ16UO16GJ35US16B3SC8N" visible="1"/><polyline fill="none" points="530.270935,433.466125 530.901611,436.302490 531.034912,440.194305 531.061218,445.009460 531.065857,448.995941 531.067200,453.413574 531.067627,457.654022 531.067688,462.058350 531.067688,466.808960 530.831665,469.610779 530.270935,471.713135 " stroke-linecap="round" stroke-linejoin="round" stroke="#000000" stroke-width="3.00" fade-time="6" fade-enable="0" RotationPoint="(320.000000,240.000000)" transform="rotate(0.00,530.77,452.59)" xml:id="annotation.CB0R30CS5T7L7AAC59FKM1UB7" visible="1"/><polyline fill="none" points="523.099609,456.573700 527.272766,455.464630 531.849426,455.075775 536.513123,455.008453 540.963989,454.985657 542.223083,454.980072 " stroke-linecap="round" stroke-linejoin="round" stroke="#000000" stroke-width="3.00" fade-time="6" fade-enable="0" RotationPoint="(320.000000,240.000000)" transform="rotate(0.00,532.66,455.78)" xml:id="annotation.IO6LN162CL7T30RNJQOVBMISD" visible="1"/><polyline fill="none" points="550.191223,455.776886 553.027588,458.141052 557.404846,460.731445 559.358582,461.461304 561.171387,461.372498 562.026611,461.100922 562.508179,460.477234 562.807312,458.603699 561.936768,456.531586 561.208862,455.483215 558.983459,453.846130 556.312195,452.793945 553.649475,452.621368 551.698669,453.075928 550.930603,453.445038 549.604919,455.035614 549.003540,456.079498 548.571472,458.655975 548.825989,462.620819 549.698181,465.802368 552.372253,470.651001 553.378479,472.509949 " stroke-linecap="round" stroke-linejoin="round" stroke="#000000" stroke-width="3.00" fade-time="6" fade-enable="0" RotationPoint="(320.000000,240.000000)" transform="rotate(0.00,555.69,462.57)" xml:id="annotation.3MKBGHEFK51I101B9S2VJVIQN" visible="1"/><polyline fill="none" points="582.860535,459.760956 580.775085,458.577271 578.687439,457.965851 577.688049,458.032990 575.869385,458.815887 574.411804,460.757477 573.350830,463.479614 572.842041,468.230865 573.301208,471.910980 575.070984,476.415161 576.352051,478.438080 577.016418,478.852539 578.699097,479.312927 580.391235,479.045349 581.940125,478.247681 583.807617,476.216827 586.025024,472.166656 587.634644,468.188110 588.996887,463.644897 590.197449,458.934448 591.438477,453.938385 592.366943,449.005219 592.966614,444.739929 593.380432,440.672546 593.827698,436.663757 593.890442,435.332275 593.755188,434.710266 593.487976,434.561157 593.132751,434.727356 592.738037,436.564697 592.515869,440.611176 592.440796,445.521332 592.427795,449.246033 592.423950,453.576172 592.845764,457.800568 593.108521,462.278839 593.609436,466.547058 594.483215,471.318970 594.983765,475.199585 595.609558,477.290833 " stroke-linecap="round" stroke-linejoin="round" stroke="#000000" stroke-width="3.00" fade-time="6" fade-enable="0" RotationPoint="(320.000000,240.000000)" transform="rotate(0.00,584.23,456.94)" xml:id="annotation.B0ORFGI9FP0673U9TBSAB6FC5" visible="1"/><polyline fill="none" points="615.529907,485.258972 615.529907,486.055786 " stroke-linecap="round" stroke-linejoin="round" stroke="#000000" stroke-width="3.00" fade-time="6" fade-enable="0" RotationPoint="(320.000000,240.000000)" transform="rotate(0.00,616.03,485.76)" xml:id="annotation.7MF2OR1H4517J9AUPLVGPF332" visible="1"/></g></g></svg>