<?xml version="1.0" encoding="UTF-8" standalone="yes"?><svg width="800" height="688" xml:id="page.EOEII1RP957I7BPFIHF2CJPOP"><title>Sep 2-10:43 AM</title><g class="foreground"><g class="group" xml:id="annotation.PDIH995LF17VT5UQF7IR9615H" xbk_transform="rotate(0.00,409.73,286.36)"><polyline fill="none" points="208.210205,260.636963 205.489441,260.031982 201.600784,259.919830 197.884155,259.893585 194.250717,259.881958 190.654251,260.103241 187.159149,260.484680 182.326706,261.176880 177.837555,261.919830 173.417709,262.931732 171.770218,263.525208 170.471848,264.355133 170.227509,264.984131 170.408966,266.588837 171.282272,267.981445 173.432785,269.720337 178.281723,272.429962 181.913864,274.492096 186.179489,276.716675 190.585617,278.989410 194.618195,281.276428 199.558533,284.331726 203.019272,286.982880 204.388596,289.023499 204.388580,289.667450 204.133804,290.266663 203.709167,290.835968 202.331482,291.694946 198.273331,292.938416 194.225601,293.335876 189.799103,293.859344 185.666122,294.146576 181.752228,294.231689 177.150803,294.260437 172.920334,294.039673 170.757965,293.503204 " stroke-linecap="round" stroke-linejoin="round" stroke="#ff0000" stroke-width="1.00" fade-time="6" fade-enable="0" RotationPoint="(320.000000,240.000000)" transform="rotate(0.00,189.22,277.07)" xml:id="annotation.TJCQVH1KI93178S1PFJ9L7L61" visible="1"/><polyline fill="none" points="224.261169,288.917206 223.820801,292.053162 224.149017,297.038422 224.644760,301.750458 225.560471,306.160065 226.332703,310.755219 226.104630,315.302155 225.744919,315.764069 225.250336,315.902161 224.665833,315.824371 224.191238,315.517761 223.437424,314.497620 221.730545,309.877014 220.697678,305.340179 219.930939,301.530396 219.250839,297.297058 219.096497,293.315674 219.762161,288.392609 220.691742,285.393036 222.527542,282.096954 224.426895,280.168396 227.009003,278.521240 231.142807,277.768951 234.915405,277.951843 237.778915,278.949646 242.584015,282.461182 244.486099,284.456573 245.719635,287.472870 245.659561,289.379333 245.405746,290.244415 244.217850,291.658539 243.425491,292.273407 240.959824,292.956635 236.229416,293.114777 231.968643,292.397339 227.079834,290.483002 225.789825,289.681549 " stroke-linecap="round" stroke-linejoin="round" stroke="#ff0000" stroke-width="1.00" fade-time="6" fade-enable="0" RotationPoint="(320.000000,240.000000)" transform="rotate(0.00,232.41,296.84)" xml:id="annotation.BTLFRSVNKD0R193TS2F4F1T95" visible="1"/><polyline fill="none" points="257.891724,256.815308 257.891724,261.476440 257.891724,266.307251 257.891724,270.083008 257.806793,273.976013 257.366455,278.233978 257.198242,282.137726 257.141388,286.543213 257.130157,290.684631 257.959198,295.341187 258.656067,297.324860 " stroke-linecap="round" stroke-linejoin="round" stroke="#ff0000" stroke-width="1.00" fade-time="6" fade-enable="0" RotationPoint="(320.000000,240.000000)" transform="rotate(0.00,257.89,277.07)" xml:id="annotation.372TE80UBH49N3BGHNVOKIMI4" visible="1"/><polyline fill="none" points="267.063721,286.624207 271.599365,286.019257 275.716217,285.485596 279.997803,285.211121 283.408417,284.318298 283.989929,283.813019 284.292633,283.221466 284.409546,282.572266 284.062836,281.969604 282.545288,280.847107 280.002441,280.461426 275.908020,280.721771 273.542297,281.283264 269.992950,283.116730 268.110809,284.838867 267.104462,286.736633 266.836090,287.718292 267.217316,289.714874 268.320953,291.649658 270.767181,294.001434 273.942688,295.796204 " stroke-linecap="round" stroke-linejoin="round" stroke="#ff0000" stroke-width="1.00" fade-time="6" fade-enable="0" RotationPoint="(320.000000,240.000000)" transform="rotate(0.00,275.62,288.13)" xml:id="annotation.7RA11OCBG17H3ELFNPL7HJOR6" visible="1"/><polyline fill="none" points="294.579620,295.031860 293.768127,295.843353 293.613983,295.742706 293.976868,292.913910 295.195374,288.276581 297.923431,283.662659 298.924927,282.448822 299.514709,282.142090 300.849426,282.027802 301.477142,282.370972 302.627502,283.658142 304.716766,288.160919 306.263947,292.807037 308.536346,297.503693 309.866272,298.853516 " stroke-linecap="round" stroke-linejoin="round" stroke="#ff0000" stroke-width="1.00" fade-time="6" fade-enable="0" RotationPoint="(320.000000,240.000000)" transform="rotate(0.00,301.74,290.44)" xml:id="annotation.I4STM6AS5D38F7G1IMNM4RUGF" visible="1"/><polyline fill="none" points="329.738861,288.917206 326.268097,286.479645 324.601135,286.135345 322.158539,286.347260 319.821228,286.947906 319.220520,287.349579 316.940155,290.135681 316.407227,291.864960 316.333679,294.999359 316.470856,296.029297 316.902008,296.885773 318.286957,298.290375 320.261292,299.027832 321.382263,299.224487 323.533661,298.763641 327.277069,296.797577 328.446564,295.335388 330.704193,291.080292 331.744415,286.724365 332.380829,282.161835 332.714142,277.696838 332.686981,273.891754 332.178772,269.329559 331.405426,265.882996 330.592773,264.355652 330.308136,264.389984 329.991852,265.786926 329.813843,269.843933 329.838623,274.794983 330.573242,279.773926 331.536163,284.440674 332.544159,289.159027 333.787537,293.223816 336.637817,298.064636 337.815674,299.522003 341.203827,301.910828 " stroke-linecap="round" stroke-linejoin="round" stroke="#ff0000" stroke-width="1.00" fade-time="6" fade-enable="0" RotationPoint="(320.000000,240.000000)" transform="rotate(0.00,328.77,283.13)" xml:id="annotation.TN161K0V4H2IFFD02S9RIH21D" visible="1"/><polyline fill="none" points="352.668823,290.445862 352.143555,292.446320 352.060242,295.237701 352.668823,297.324860 " stroke-linecap="round" stroke-linejoin="round" stroke="#ff0000" stroke-width="1.00" fade-time="6" fade-enable="0" RotationPoint="(320.000000,240.000000)" transform="rotate(0.00,352.56,293.89)" xml:id="annotation.36S4RP4T750UHFPGJCAAMSHF0" visible="1"/><polyline fill="none" points="345.025482,274.394928 343.496826,274.394928 " stroke-linecap="round" stroke-linejoin="round" stroke="#ff0000" stroke-width="1.00" fade-time="6" fade-enable="0" RotationPoint="(320.000000,240.000000)" transform="rotate(0.00,344.26,274.89)" xml:id="annotation.HMKROHRDV9745BMDABP0I6M0U" visible="1"/><polyline fill="none" points="375.598755,286.624207 371.289551,287.682129 368.801758,289.230682 364.367432,293.530731 362.141724,296.565948 361.549896,298.318054 361.392059,299.260895 361.541626,300.144196 362.387238,301.805054 364.065277,302.939575 365.107208,303.360992 367.623718,303.376282 370.101013,302.816925 374.067505,300.588531 375.956573,298.282440 378.031616,294.289978 378.971130,290.310974 379.287292,286.320038 379.380951,281.948120 379.323792,277.510468 378.806732,273.468567 377.871216,268.751526 376.530212,264.520660 375.701324,262.957550 375.327423,262.863403 374.993256,263.225281 374.480377,264.674805 374.124084,269.361389 374.165680,273.998260 374.683441,277.740448 375.544586,281.538574 377.805542,286.399689 379.912903,291.062073 382.049713,295.461823 384.610657,299.602112 387.183044,303.285431 391.649689,306.496826 " stroke-linecap="round" stroke-linejoin="round" stroke="#ff0000" stroke-width="1.00" fade-time="6" fade-enable="0" RotationPoint="(320.000000,240.000000)" transform="rotate(0.00,376.52,284.68)" xml:id="annotation.KCCFTOG25D56N5KL6URHISPJV" visible="1"/><polyline fill="none" points="444.388519,287.388550 443.783569,291.772186 443.655640,296.624359 444.233307,301.206268 444.388519,302.675171 " stroke-linecap="round" stroke-linejoin="round" stroke="#ff0000" stroke-width="1.00" fade-time="6" fade-enable="0" RotationPoint="(320.000000,240.000000)" transform="rotate(0.00,444.16,295.03)" xml:id="annotation.010C53FTLP1O1EN5B625VBO9V" visible="1"/><polyline fill="none" points="438.273926,270.573273 435.024780,267.702637 434.452271,266.751617 " stroke-linecap="round" stroke-linejoin="round" stroke="#ff0000" stroke-width="1.00" fade-time="6" fade-enable="0" RotationPoint="(320.000000,240.000000)" transform="rotate(0.00,436.36,268.66)" xml:id="annotation.LNPKJVLLS14ML5SN63BV6V6J5" visible="1"/><polyline fill="none" points="468.847168,282.802551 465.966003,283.242920 461.585663,283.283081 456.730988,284.290863 455.082855,285.417328 454.660339,286.159332 454.417358,287.889648 455.045349,289.564575 457.057770,291.939880 461.856232,295.791656 466.406189,298.852631 470.992950,302.608002 471.551575,303.139923 471.669220,303.579498 471.492828,303.957458 471.120514,304.294373 469.574432,304.442230 465.527740,303.845154 461.457184,302.909424 457.155487,301.906769 454.172760,301.145325 452.031860,300.382172 " stroke-linecap="round" stroke-linejoin="round" stroke="#ff0000" stroke-width="1.00" fade-time="6" fade-enable="0" RotationPoint="(320.000000,240.000000)" transform="rotate(0.00,461.85,293.62)" xml:id="annotation.DESJ0ADVL15378Q07UJK4CIJJ" visible="1"/><polyline fill="none" points="486.426788,288.917206 481.990448,290.305847 479.677063,291.659424 477.963104,293.636292 476.295410,297.342377 476.658600,299.314240 478.069000,302.132263 478.561951,302.822784 480.015533,303.816528 484.872101,305.698486 486.415253,306.057068 489.481842,305.595306 490.926819,305.077026 492.135254,304.280518 493.012024,302.454468 493.514893,300.114258 493.455353,297.941803 492.538635,295.214691 490.537262,292.010620 486.481628,288.563416 483.744324,287.330902 480.376007,287.239380 476.490509,288.152893 " stroke-linecap="round" stroke-linejoin="round" stroke="#ff0000" stroke-width="1.00" fade-time="6" fade-enable="0" RotationPoint="(320.000000,240.000000)" transform="rotate(0.00,484.91,296.65)" xml:id="annotation.66TJGKTKH93MF12NI8KI00EHC" visible="1"/><polyline fill="none" points="505.535034,259.108276 504.471222,263.111328 504.013306,267.856873 503.423431,271.702820 502.795654,275.946869 502.571899,280.016357 502.590576,284.326660 503.011292,288.330811 503.258636,292.206573 504.059998,297.093903 505.287323,301.694855 506.299377,304.203827 " stroke-linecap="round" stroke-linejoin="round" stroke="#ff0000" stroke-width="1.00" fade-time="6" fade-enable="0" RotationPoint="(320.000000,240.000000)" transform="rotate(0.00,504.44,281.66)" xml:id="annotation.BO146GVR5H57J36O0N3D87I01" visible="1"/><polyline fill="none" points="531.522339,291.210205 529.691711,289.549438 528.330811,288.830200 525.320801,288.353546 523.415771,288.695007 521.137390,289.842163 518.845825,291.751495 517.679016,293.663544 516.795410,296.655212 516.807312,299.419464 517.754395,302.257782 519.110840,304.438721 520.542603,305.383911 521.399963,305.754883 524.635437,305.871246 527.877625,304.962097 530.178223,303.616974 532.341309,300.925446 534.219299,296.381592 535.155518,294.527710 535.473083,294.440979 535.684814,294.892700 536.222412,299.800842 537.312195,301.917908 540.105225,305.086517 542.680603,306.484741 545.280273,307.261169 " stroke-linecap="round" stroke-linejoin="round" stroke="#ff0000" stroke-width="1.00" fade-time="6" fade-enable="0" RotationPoint="(320.000000,240.000000)" transform="rotate(0.00,531.04,297.81)" xml:id="annotation.AL4I7M49851MP7UM8B5VCK12U" visible="1"/><polyline fill="none" points="558.273926,259.108276 558.799194,261.278595 559.052307,265.545197 559.412476,269.159515 559.687012,273.390991 559.768311,277.201965 559.792419,281.020447 559.799561,285.246918 559.801636,289.320648 559.802368,293.891144 559.802490,297.612183 559.802551,299.617859 " stroke-linecap="round" stroke-linejoin="round" stroke="#ff0000" stroke-width="1.00" fade-time="6" fade-enable="0" RotationPoint="(320.000000,240.000000)" transform="rotate(0.00,559.04,279.36)" xml:id="annotation.5L7V1PMPTL3UR87C9KLGUOU6K" visible="1"/><polyline fill="none" points="549.866272,285.095551 550.677795,283.878296 552.208618,283.054199 555.231201,282.339264 559.701721,282.503479 564.148438,283.353699 568.801331,284.339447 571.754089,285.324463 574.628540,287.178986 576.747131,289.265839 577.779053,291.568298 578.662109,296.555756 578.861694,301.249359 578.910828,304.203827 " stroke-linecap="round" stroke-linejoin="round" stroke="#ff0000" stroke-width="1.00" fade-time="6" fade-enable="0" RotationPoint="(320.000000,240.000000)" transform="rotate(0.00,564.39,293.27)" xml:id="annotation.S305OUKC4L3T3APOUII1BP40H" visible="1"/><polyline fill="none" points="578.910828,269.808929 579.675171,267.515930 " stroke-linecap="round" stroke-linejoin="round" stroke="#ff0000" stroke-width="1.00" fade-time="6" fade-enable="0" RotationPoint="(320.000000,240.000000)" transform="rotate(0.00,579.41,268.66)" xml:id="annotation.IESUDMJR2D1RBEREB93RUJ0GC" visible="1"/><polyline fill="none" points="597.254822,284.331207 594.647400,287.193420 592.656982,291.196838 591.814270,293.242462 591.273254,297.776611 591.369141,300.328186 592.378113,303.112091 593.275635,304.454651 594.467102,305.390991 596.100769,306.090271 599.630432,306.791534 602.657959,306.452026 607.437439,304.858673 610.504700,302.908356 611.805847,300.989136 611.917725,297.589630 611.109741,293.706451 608.920288,289.708282 604.015869,285.111206 599.547791,282.038239 " stroke-linecap="round" stroke-linejoin="round" stroke="#ff0000" stroke-width="1.00" fade-time="6" fade-enable="0" RotationPoint="(320.000000,240.000000)" transform="rotate(0.00,601.60,294.41)" xml:id="annotation.VRAJ86BDJD4IR4DMHR6SGPLRJ" visible="1"/><polyline fill="none" points="619.420410,302.675171 621.083313,299.197418 622.291016,297.200317 623.989990,292.727905 625.888306,288.915771 627.517578,286.708710 629.162109,285.501129 631.025330,285.077637 632.900879,285.257416 636.963562,287.222198 638.876465,289.094391 641.564697,293.593628 644.130981,298.085388 646.275391,302.963013 648.285706,306.971985 649.229309,308.789825 " stroke-linecap="round" stroke-linejoin="round" stroke="#ff0000" stroke-width="1.00" fade-time="6" fade-enable="0" RotationPoint="(320.000000,240.000000)" transform="rotate(0.00,634.32,296.93)" xml:id="annotation.1010U4H61D1NT74OPQG90TCA4" visible="1"/></g></g></svg>