<?xml version="1.0" encoding="UTF-8" standalone="yes"?><svg width="800" height="688" xml:id="page.673N80LD3L33V01DM8BDF4MMA"><title>Sep 5-11:49 AM</title><g class="foreground"><g class="group" xml:id="annotation.92U7JKB0D16C5FAU4QTODS7UB" xbk_transform="rotate(0.00,235.85,119.52)"><polyline fill="none" points="64.135460,79.681274 63.410782,83.127571 62.603409,86.495537 62.126526,89.881157 61.826046,93.245102 61.397381,96.806000 61.147842,100.454430 61.036934,104.053230 60.987648,107.423393 60.959896,112.307236 60.951668,116.695641 60.949238,121.645493 61.584553,126.237183 62.541832,129.083664 " stroke-linecap="round" stroke-linejoin="round" stroke="#000000" stroke-width="3.00" fade-time="6" fade-enable="0" RotationPoint="(320.000000,240.000000)" transform="rotate(0.00,62.54,104.38)" xml:id="annotation.2LSPKCGF0H1ULE2N118GGP5FG" visible="1"/><polyline fill="none" points="63.338646,77.290840 64.447701,81.886993 65.472687,86.586571 66.351555,90.384018 67.694054,94.312790 69.301804,98.280472 71.420982,102.348213 73.819580,106.789909 76.645279,110.860374 80.260559,115.453354 84.358688,119.770836 88.578430,123.309204 92.822174,125.569000 96.480583,126.360123 100.220604,126.358437 102.041374,125.924698 104.653069,124.203453 105.693527,123.107689 106.451065,121.735336 107.022644,117.965469 106.899445,113.285912 105.625793,108.502098 104.179619,104.186539 102.629677,99.966545 100.625992,95.912560 97.657959,91.301544 94.722351,86.913811 91.496422,83.186142 90.431938,82.567017 88.836655,82.071716 " stroke-linecap="round" stroke-linejoin="round" stroke="#000000" stroke-width="3.00" fade-time="6" fade-enable="0" RotationPoint="(320.000000,240.000000)" transform="rotate(0.00,85.18,101.83)" xml:id="annotation.FVBJCJ9PQP17DF3843R0SGI7T" visible="1"/><polyline fill="none" points="134.254974,105.976097 132.985992,105.553093 130.504822,105.713043 127.949783,106.321152 124.159317,108.592087 119.946983,112.380310 116.909004,116.091324 115.980522,117.820137 115.383057,121.132675 115.951576,123.159454 116.475021,124.071777 118.237099,125.557648 119.326721,126.201775 121.953972,126.681396 126.699966,126.267883 131.017197,124.211807 134.244995,121.736977 137.370972,117.274506 139.756470,112.363152 140.047485,111.562157 140.152954,111.559364 139.892334,115.909119 139.932983,120.339592 140.560852,124.889374 141.828979,128.421310 142.815247,129.999252 143.591766,130.490875 146.622528,131.182785 150.191254,131.474106 " stroke-linecap="round" stroke-linejoin="round" stroke="#000000" stroke-width="3.00" fade-time="6" fade-enable="0" RotationPoint="(320.000000,240.000000)" transform="rotate(0.00,132.79,118.51)" xml:id="annotation.B08PTUBADT2T3COE8B0SU9JD4" visible="1"/><polyline fill="none" points="170.908371,85.258965 170.222305,89.695175 169.497284,94.431290 168.758926,98.315582 168.067947,102.270088 167.912415,106.245392 168.387711,110.138321 169.341476,114.671295 170.646286,119.407791 172.394241,123.913956 173.298813,125.896416 " stroke-linecap="round" stroke-linejoin="round" stroke="#000000" stroke-width="3.00" fade-time="6" fade-enable="0" RotationPoint="(320.000000,240.000000)" transform="rotate(0.00,170.61,105.58)" xml:id="annotation.G8292BMLJD0ML4ULNTUOINJGD" visible="1"/><polyline fill="none" points="158.956177,111.553787 163.392395,107.540565 168.217026,105.012856 172.648926,103.526497 177.237869,103.007401 181.351990,102.853600 184.764664,102.985100 187.408813,104.066803 188.748016,105.009476 190.497482,108.227684 190.888046,110.577225 190.840424,114.971138 190.283401,118.878761 190.317657,123.782265 190.828690,126.693230 " stroke-linecap="round" stroke-linejoin="round" stroke="#000000" stroke-width="3.00" fade-time="6" fade-enable="0" RotationPoint="(320.000000,240.000000)" transform="rotate(0.00,174.92,114.77)" xml:id="annotation.KQAP8FJ06165NE3RPCA2G31RD" visible="1"/><polyline fill="none" points="194.015930,96.414345 194.812744,97.211159 " stroke-linecap="round" stroke-linejoin="round" stroke="#000000" stroke-width="3.00" fade-time="6" fade-enable="0" RotationPoint="(320.000000,240.000000)" transform="rotate(0.00,194.52,96.91)" xml:id="annotation.H53P1PFSSL5T7DMQ3DJM8JMMJ" visible="1"/><polyline fill="none" points="210.749008,115.537849 209.015472,120.502357 208.296387,123.056389 208.271896,125.667084 208.792252,127.594696 209.178894,128.356628 210.552887,129.675400 211.415070,130.274979 215.166504,131.118820 219.832397,130.767776 222.470917,130.005661 223.808853,129.168823 225.557541,127.279167 227.695312,122.690643 227.783417,121.107300 227.099182,118.486572 225.774979,115.939362 224.687073,114.742401 221.054291,112.951942 216.958008,112.429779 215.529877,112.350601 " stroke-linecap="round" stroke-linejoin="round" stroke="#000000" stroke-width="3.00" fade-time="6" fade-enable="0" RotationPoint="(320.000000,240.000000)" transform="rotate(0.00,218.03,121.73)" xml:id="annotation.502JF9T12L0UN37TU233D5BSO" visible="1"/><polyline fill="none" points="232.262955,126.693230 231.839966,127.962219 231.892441,128.070435 232.422882,127.482384 234.381607,122.573547 236.138000,118.032852 238.658096,113.563416 240.766373,111.104752 242.298721,110.468864 243.203125,110.299301 245.152405,110.819176 246.933594,111.935570 248.434097,114.057343 250.019424,118.366196 251.113144,122.107063 252.181747,126.977623 252.980087,129.880478 " stroke-linecap="round" stroke-linejoin="round" stroke="#000000" stroke-width="3.00" fade-time="6" fade-enable="0" RotationPoint="(320.000000,240.000000)" transform="rotate(0.00,242.41,120.09)" xml:id="annotation.RFOU4J30FL2I32ADE5PTOANJA" visible="1"/><polyline fill="none" points="278.478088,114.741035 277.209106,114.318047 274.727905,114.477989 270.304657,115.809258 267.497986,117.447983 264.593079,120.381248 263.287354,123.573692 263.109253,125.572372 263.185730,126.477196 263.590820,127.257477 264.985352,128.596664 267.257751,129.309891 270.815308,129.475327 272.593445,129.080658 274.589996,127.862953 276.850952,125.629059 280.068756,121.092072 281.914154,117.748131 281.834961,118.497475 281.057007,122.695587 281.328735,127.172562 281.795105,127.986664 283.966339,129.889908 286.446228,131.474106 " stroke-linecap="round" stroke-linejoin="round" stroke="#000000" stroke-width="3.00" fade-time="6" fade-enable="0" RotationPoint="(320.000000,240.000000)" transform="rotate(0.00,274.78,122.90)" xml:id="annotation.FS8NLHMK3951B6U630SFD43JF" visible="1"/><polyline fill="none" points="301.585663,88.446213 301.821747,92.385468 302.216339,96.401077 302.333282,100.394478 302.367920,104.617401 302.142059,109.232956 301.750519,113.728760 301.634521,117.864433 301.595306,122.804756 302.135162,127.190849 302.772919,132.109100 303.179291,133.864548 " stroke-linecap="round" stroke-linejoin="round" stroke="#000000" stroke-width="3.00" fade-time="6" fade-enable="0" RotationPoint="(320.000000,240.000000)" transform="rotate(0.00,302.38,111.16)" xml:id="annotation.VT1IRKFU397DP7OCFT4C4OSR2" visible="1"/><polyline fill="none" points="323.099609,115.537849 322.863525,119.635605 322.413544,123.794037 321.686676,127.983765 321.505981,129.880478 " stroke-linecap="round" stroke-linejoin="round" stroke="#000000" stroke-width="3.00" fade-time="6" fade-enable="0" RotationPoint="(320.000000,240.000000)" transform="rotate(0.00,322.30,122.71)" xml:id="annotation.82AQLL0BPH287285MERDFQL7F" visible="1"/><polyline fill="none" points="319.912354,100.398407 319.115540,100.398407 " stroke-linecap="round" stroke-linejoin="round" stroke="#000000" stroke-width="3.00" fade-time="6" fade-enable="0" RotationPoint="(320.000000,240.000000)" transform="rotate(0.00,319.62,100.90)" xml:id="annotation.6O1QKQO1MP64P0FS542LIL617" visible="1"/><polyline fill="none" points="350.988037,107.569725 346.974823,110.050880 343.252197,111.766846 340.940979,113.720703 340.748596,114.503494 341.007050,116.553703 342.148071,119.350723 344.030609,121.438629 348.459595,124.511475 352.180634,127.531258 352.668427,128.225784 352.816589,128.865891 352.738281,129.469696 352.243408,129.960754 347.473175,131.680328 343.273254,132.154266 339.033447,132.011780 334.448120,130.908752 331.864532,129.880478 " stroke-linecap="round" stroke-linejoin="round" stroke="#000000" stroke-width="3.00" fade-time="6" fade-enable="0" RotationPoint="(320.000000,240.000000)" transform="rotate(0.00,342.34,119.86)" xml:id="annotation.VKL40SU7KT27R1S7L0N4M3355" visible="1"/><polyline fill="none" points="364.533875,120.318726 363.903198,123.155121 363.346863,127.469925 362.561523,131.240601 364.029327,126.627113 365.570282,122.069786 367.908325,117.381401 369.882874,115.056015 370.401794,114.862495 370.924805,114.910538 371.450531,115.119644 372.270782,116.060265 373.518768,118.828285 374.347656,122.415108 375.154022,126.842186 376.376678,129.826248 377.860352,132.254852 379.133179,133.385223 379.844391,133.810608 380.495667,133.828598 381.106873,133.574966 383.360168,131.682510 385.890198,127.438385 387.821838,122.632408 390.232697,118.023109 391.527588,115.565933 393.116577,113.956726 393.947540,113.509888 395.579163,113.249474 397.189697,113.901054 399.964783,116.060539 402.611969,120.364616 404.601990,125.103630 406.593811,129.320282 408.070465,133.790771 409.841003,138.261887 410.748993,140.239044 " stroke-linecap="round" stroke-linejoin="round" stroke="#000000" stroke-width="3.00" fade-time="6" fade-enable="0" RotationPoint="(320.000000,240.000000)" transform="rotate(0.00,386.66,126.74)" xml:id="annotation.GCUUGMJBND4UN6F3OM8FKVMBS" visible="1"/><polyline fill="none" points="74.494026,161.752991 78.310860,161.664444 82.648697,161.205368 87.386833,160.941483 90.877846,160.565994 94.495224,160.340088 98.257286,160.151154 102.290237,159.772064 106.443581,159.308441 110.561913,158.895828 114.458099,158.712433 118.727715,158.394836 123.192856,158.047104 127.538269,157.892563 131.830490,157.823883 136.187607,157.704819 140.780151,157.356796 145.477325,157.143082 150.220993,156.959564 154.985336,156.582870 159.758865,156.356445 164.536469,156.255814 169.315903,156.211075 171.794495,156.199142 174.332214,156.191208 176.909393,156.185913 179.512863,156.182358 182.133850,156.180008 184.766510,156.178436 187.318451,156.088852 192.278748,155.753235 194.805588,155.628326 197.375488,155.545059 199.974106,155.489548 202.591827,155.452515 205.222351,155.427856 207.861389,155.411407 210.506073,155.400436 213.154572,155.393127 215.805573,155.388260 218.458252,155.385010 221.112061,155.382843 223.766602,155.381409 226.421661,155.380432 229.077026,155.379791 231.732635,155.379364 234.388367,155.379074 237.044220,155.378891 239.700104,155.378769 242.356079,155.378662 245.012024,155.378616 247.668060,155.378586 250.412598,155.467087 253.216187,155.614639 256.059143,155.801529 258.839783,155.926117 261.578888,156.009171 264.290283,156.064545 267.071777,156.101471 269.900024,156.126053 272.759369,156.142471 275.550964,156.153412 278.297363,156.160706 281.013641,156.165558 283.709839,156.168808 286.392700,156.170975 289.066559,156.172424 291.823029,156.173370 294.634583,156.174011 297.482819,156.174438 300.266968,156.263260 303.008453,156.411011 305.721436,156.598053 308.503967,156.722748 311.332886,156.805862 314.192719,156.861298 316.984589,156.898239 319.731201,156.922852 322.447632,156.939270 325.143890,156.950226 327.826813,156.957520 330.500732,156.962387 333.168701,156.965622 335.832672,156.967789 338.494019,156.969223 341.065094,156.970184 346.046631,156.971252 348.579102,156.971542 351.152771,156.971725 353.753906,156.971863 356.284821,156.971939 361.221802,156.972046 366.072021,157.208176 370.883698,157.519699 375.678284,157.658173 380.465271,157.719681 385.248840,157.747040 390.030884,157.759201 394.576233,158.000687 399.134369,158.403122 404.111359,158.877121 406.913574,159.146790 409.155365,159.362549 " stroke-linecap="round" stroke-linejoin="round" stroke="#000000" stroke-width="3.00" fade-time="6" fade-enable="0" RotationPoint="(320.000000,240.000000)" transform="rotate(0.00,241.82,158.57)" xml:id="annotation.OU09IL2ANT05HD03CNQ2TBDIC" visible="1"/></g><g class="group" xml:id="annotation.S4O0NL5IV57JP14AGTNJLQR0L" xbk_transform="rotate(0.00,203.64,241.40)"><polyline fill="none" points="68.916336,234.262955 68.368729,236.436951 67.932648,240.998016 67.443184,244.958359 67.894112,249.150848 68.311081,253.389221 68.796783,257.636658 69.440331,261.885895 69.895355,266.607666 70.811554,271.334198 70.976624,271.637573 71.086678,271.485718 71.523537,266.536316 71.989006,261.541962 72.069633,257.612946 72.093521,253.645187 72.100609,249.665939 72.102699,245.683319 72.739548,241.007858 73.953995,236.674072 76.387070,231.980179 78.045433,229.602478 80.179611,227.825760 81.713287,227.034256 84.492981,226.513901 87.136482,226.782730 90.868301,228.302872 95.084198,231.442902 97.406708,235.108109 98.104576,238.733505 97.795624,240.706116 95.731514,244.261246 94.291473,245.582825 92.589035,246.465302 88.125244,247.517151 83.384041,247.751160 78.478088,247.011948 " stroke-linecap="round" stroke-linejoin="round" stroke="#000000" stroke-width="3.00" fade-time="6" fade-enable="0" RotationPoint="(320.000000,240.000000)" transform="rotate(0.00,82.77,249.08)" xml:id="annotation.OCJEVJ0E0T0V3A51FCUBRCQOT" visible="1"/><polyline fill="none" points="126.286850,232.669327 123.450470,232.038651 121.573387,232.123413 118.702682,233.166641 114.375290,236.231049 113.142754,237.616623 111.876335,240.312958 111.707474,242.086853 112.016068,243.672073 112.743454,244.966827 114.129150,245.896408 116.014023,246.516129 120.831039,246.677917 123.242294,246.243759 126.004509,245.003815 127.983734,243.426437 129.603073,241.316269 130.357742,239.788208 130.927490,236.167587 130.974243,236.240967 131.472260,239.749329 133.017303,243.610748 135.157257,247.558456 138.972137,251.743469 139.832672,252.589645 " stroke-linecap="round" stroke-linejoin="round" stroke="#000000" stroke-width="3.00" fade-time="6" fade-enable="0" RotationPoint="(320.000000,240.000000)" transform="rotate(0.00,125.77,242.31)" xml:id="annotation.SERLD4ID6T41B4U56NDBOLG0B" visible="1"/><polyline fill="none" points="156.565735,211.155380 156.329636,214.386353 155.754227,219.057129 155.152832,223.760101 155.007812,228.548553 154.979156,233.121094 155.209579,237.434509 156.081436,242.119766 156.565735,247.011948 " stroke-linecap="round" stroke-linejoin="round" stroke="#000000" stroke-width="3.00" fade-time="6" fade-enable="0" RotationPoint="(320.000000,240.000000)" transform="rotate(0.00,155.77,229.08)" xml:id="annotation.29NTQFLNBT3QL9L4LSCM6T4JL" visible="1"/><polyline fill="none" points="142.223114,228.685257 144.767670,227.590042 149.715317,226.734268 153.920624,227.017776 158.161530,227.926331 160.196625,228.613541 162.747055,230.493729 166.900421,235.078613 169.021469,238.250732 170.882629,243.028244 171.965698,246.215210 172.321533,246.303726 172.735825,245.920059 173.579803,244.313324 174.843002,240.147003 176.368073,236.290909 178.280823,234.017807 181.375717,232.645889 185.879593,231.974365 186.844620,231.872513 " stroke-linecap="round" stroke-linejoin="round" stroke="#000000" stroke-width="3.00" fade-time="6" fade-enable="0" RotationPoint="(320.000000,240.000000)" transform="rotate(0.00,164.53,236.52)" xml:id="annotation.H3I7GLFG2L08FCL7MADBO6R5C" visible="1"/><polyline fill="none" points="199.593628,238.247009 200.224304,242.186249 200.577316,246.201843 201.489777,250.678604 202.780884,253.386459 " stroke-linecap="round" stroke-linejoin="round" stroke="#000000" stroke-width="3.00" fade-time="6" fade-enable="0" RotationPoint="(320.000000,240.000000)" transform="rotate(0.00,201.19,245.82)" xml:id="annotation.HBVV6TKK8T1TRAQJ6C7I1UEFD" visible="1"/><polyline fill="none" points="201.984070,223.107574 202.780884,223.107574 " stroke-linecap="round" stroke-linejoin="round" stroke="#000000" stroke-width="3.00" fade-time="6" fade-enable="0" RotationPoint="(320.000000,240.000000)" transform="rotate(0.00,202.48,223.61)" xml:id="annotation.FB27OMU3350O7DSHRB910NSEP" visible="1"/><polyline fill="none" points="219.513931,243.824707 218.404877,247.151855 218.371765,248.667755 218.486893,249.443832 219.323059,251.014435 221.287109,253.155823 223.551193,254.675674 227.118759,255.982346 228.914230,256.074799 233.077042,254.989746 234.867661,253.597336 235.593048,252.730209 236.399048,250.350235 236.580185,247.787354 236.070465,245.762955 235.017593,244.213943 230.631363,240.671631 227.474564,238.942368 225.649002,238.792160 223.834259,239.109039 221.107559,240.637451 " stroke-linecap="round" stroke-linejoin="round" stroke="#000000" stroke-width="3.00" fade-time="6" fade-enable="0" RotationPoint="(320.000000,240.000000)" transform="rotate(0.00,227.48,247.43)" xml:id="annotation.11GSO8G6C13JJ8UBU7573G3L7" visible="1"/><polyline fill="none" points="250.589645,219.920319 249.743637,220.766312 247.959976,225.005997 246.899338,229.437363 246.240616,234.145905 245.894073,238.702637 246.061707,243.012970 246.921158,247.274612 247.969666,251.486404 248.199203,253.386459 " stroke-linecap="round" stroke-linejoin="round" stroke="#000000" stroke-width="3.00" fade-time="6" fade-enable="0" RotationPoint="(320.000000,240.000000)" transform="rotate(0.00,248.24,236.65)" xml:id="annotation.UEU8GM8POT5F95RELRNE873L5" visible="1"/><polyline fill="none" points="238.637451,237.450195 239.998260,236.266418 243.915588,234.813156 248.615494,234.460159 252.493484,234.842758 256.446167,235.083984 260.243866,235.765381 263.041412,237.049377 264.416534,238.039368 265.381805,239.777863 266.186920,243.481476 266.425476,247.707062 266.929077,252.677765 267.322723,254.980087 " stroke-linecap="round" stroke-linejoin="round" stroke="#000000" stroke-width="3.00" fade-time="6" fade-enable="0" RotationPoint="(320.000000,240.000000)" transform="rotate(0.00,252.98,244.72)" xml:id="annotation.EJEJRJCKMH26DE028AMMMR8AP" visible="1"/><polyline fill="none" points="268.916321,231.075699 271.306763,230.278885 " stroke-linecap="round" stroke-linejoin="round" stroke="#000000" stroke-width="3.00" fade-time="6" fade-enable="0" RotationPoint="(320.000000,240.000000)" transform="rotate(0.00,270.11,230.78)" xml:id="annotation.DU9NOH6DFT18J5G863MLELTCF" visible="1"/><polyline fill="none" points="295.211151,237.450195 290.641235,237.450195 286.744812,237.686310 285.582855,237.873215 284.719727,238.263412 283.524536,239.405273 283.347473,240.258682 283.622925,242.387375 284.571686,244.100754 288.977600,248.995544 290.845856,251.111588 291.061462,251.781342 291.028137,252.404892 290.828857,252.997681 290.253296,253.304352 288.433380,253.408981 284.753265,252.666229 280.419373,251.142303 277.681274,250.199203 " stroke-linecap="round" stroke-linejoin="round" stroke="#000000" stroke-width="3.00" fade-time="6" fade-enable="0" RotationPoint="(320.000000,240.000000)" transform="rotate(0.00,286.45,245.43)" xml:id="annotation.NHDLP8UA1D0QHB9P4QSMK6KSP" visible="1"/><polyline fill="none" points="303.179291,246.215134 302.070251,251.074341 302.085785,251.490906 302.273224,251.414474 303.382996,249.378830 305.344360,245.148056 306.909637,242.387085 307.525452,242.069489 308.201569,242.123367 308.917908,242.424881 310.186005,243.940353 312.984955,248.427353 315.659821,251.468781 317.196014,252.091476 318.101440,252.257523 319.579712,251.969833 321.407410,250.812363 322.524597,249.674896 325.218689,245.471695 325.928894,244.922699 327.662354,244.312714 328.531891,244.504166 330.206268,245.661301 333.356842,249.748764 336.331451,254.123947 338.876770,258.958923 339.832672,261.354584 " stroke-linecap="round" stroke-linejoin="round" stroke="#000000" stroke-width="3.00" fade-time="6" fade-enable="0" RotationPoint="(320.000000,240.000000)" transform="rotate(0.00,320.95,251.71)" xml:id="annotation.SD1DM624AH6GDFCNE2BQ8RSE2" visible="1"/></g><g class="group" xml:id="annotation.HR3OP1H4653M5B04MH98RLMTQ" xbk_transform="rotate(0.00,550.35,248.21)"><polyline fill="none" points="415.529877,216.733063 411.356689,219.374161 407.045654,222.996414 402.547760,227.122131 399.199890,230.524002 396.289734,234.571671 393.656769,238.899200 391.755157,242.985031 390.070282,246.999237 388.921814,250.756165 388.817657,254.584396 389.583557,258.374695 391.980713,262.984985 392.422302,263.745026 " stroke-linecap="round" stroke-linejoin="round" stroke="#000000" stroke-width="3.00" fade-time="6" fade-enable="0" RotationPoint="(320.000000,240.000000)" transform="rotate(0.00,402.17,240.24)" xml:id="annotation.6NRTEQEPRD5I77NE30ENUB6AO" visible="1"/><polyline fill="none" points="421.107574,248.605576 420.240814,252.939423 419.234528,257.547821 418.870453,260.797241 418.996368,261.248596 419.257446,261.283966 419.608582,261.041901 420.525665,259.432190 422.165558,254.528244 424.364197,250.008514 426.433380,246.757874 427.048553,246.576965 427.724274,246.721985 428.440369,247.084244 429.472076,248.903320 430.855835,253.130478 431.857971,257.967468 432.258575,258.830902 432.791229,259.317993 433.411987,259.554169 434.091370,259.623108 434.809937,259.314911 438.811859,255.500198 442.629913,251.060226 445.509308,248.117783 445.963257,248.014755 446.354401,248.211700 446.703735,248.608597 447.352905,252.514832 447.997650,256.610535 448.837952,259.968567 450.589630,262.948212 " stroke-linecap="round" stroke-linejoin="round" stroke="#000000" stroke-width="3.00" fade-time="6" fade-enable="0" RotationPoint="(320.000000,240.000000)" transform="rotate(0.00,434.73,254.76)" xml:id="annotation.UEA59IN24P1MJC2KQA521VJUK" visible="1"/><polyline fill="none" points="471.306763,250.996017 468.402618,253.214127 466.352295,256.447876 464.713745,260.541199 464.729828,263.789307 465.550568,265.801025 466.141266,266.709320 467.978088,267.954651 470.270020,268.626129 473.960541,268.417908 476.234192,267.710602 477.953003,266.569946 480.499237,263.673462 481.742828,261.333374 482.248993,257.688873 481.553009,254.090683 480.228363,252.105850 479.379333,251.204697 477.019379,250.203430 472.900391,249.402390 " stroke-linecap="round" stroke-linejoin="round" stroke="#000000" stroke-width="3.00" fade-time="6" fade-enable="0" RotationPoint="(320.000000,240.000000)" transform="rotate(0.00,473.48,259.01)" xml:id="annotation.4ACIGHE29H3CVCQJ88EV64RA1" visible="1"/><polyline fill="none" points="488.836670,263.745026 489.072815,260.514038 490.368713,256.515869 491.395721,253.182404 491.870697,252.630661 492.453003,252.439911 493.106781,252.489838 497.473145,254.704651 501.609497,255.988098 505.812927,256.400177 509.576630,256.099274 511.364136,255.211914 512.088745,254.603424 512.483215,253.932175 512.685486,252.478043 512.438416,251.895493 511.455536,251.012115 509.897308,250.796570 506.434387,251.379623 504.419189,252.516403 501.609039,255.241516 501.070038,255.951172 500.471130,257.684052 500.311401,258.641968 500.842285,260.650696 502.924255,263.979797 504.216919,264.970825 509.014221,266.899994 511.944214,267.729095 " stroke-linecap="round" stroke-linejoin="round" stroke="#000000" stroke-width="3.00" fade-time="6" fade-enable="0" RotationPoint="(320.000000,240.000000)" transform="rotate(0.00,500.76,259.26)" xml:id="annotation.R6JNF0NQV91A97G94N7MQ9IDU" visible="1"/><polyline fill="none" points="550.988037,237.450195 550.751953,240.681183 549.081360,245.263412 548.079956,249.424255 547.432922,253.656387 547.131104,257.686584 546.940552,262.358124 546.207153,265.338654 " stroke-linecap="round" stroke-linejoin="round" stroke="#000000" stroke-width="3.00" fade-time="6" fade-enable="0" RotationPoint="(320.000000,240.000000)" transform="rotate(0.00,548.60,251.39)" xml:id="annotation.MTL14U34I97NH03BVLLJATJLI" visible="1"/><polyline fill="none" points="539.035889,256.573700 543.133545,255.943039 547.292053,255.386719 551.953918,253.930771 556.394531,251.493973 561.346619,247.011948 " stroke-linecap="round" stroke-linejoin="round" stroke="#000000" stroke-width="3.00" fade-time="6" fade-enable="0" RotationPoint="(320.000000,240.000000)" transform="rotate(0.00,550.19,251.79)" xml:id="annotation.TCRR54CCKH4T98T5CFBITR3EG" visible="1"/><polyline fill="none" points="564.533875,237.450195 563.036438,241.547928 561.896851,245.706375 561.366821,250.026566 560.501282,254.578751 559.900818,258.511047 560.219788,261.220337 560.683960,261.619202 561.347473,261.708099 562.144043,261.590240 563.737366,260.278870 567.632629,255.933640 571.231384,252.449646 572.645569,251.701096 573.305969,251.731674 573.923340,252.017654 574.512024,252.473923 575.402100,254.397430 576.164917,258.230774 576.520447,260.674500 577.955322,263.935303 578.876526,265.338654 " stroke-linecap="round" stroke-linejoin="round" stroke="#000000" stroke-width="3.00" fade-time="6" fade-enable="0" RotationPoint="(320.000000,240.000000)" transform="rotate(0.00,569.39,251.39)" xml:id="annotation.2LSGEMPRL94FT6EL91TDCB62C" visible="1"/><polyline fill="none" points="594.812744,254.980087 593.120728,254.134094 592.356689,254.061951 588.429626,255.247177 584.689148,258.071350 584.079590,258.634552 583.850281,259.187103 583.874512,259.732513 584.067688,260.273193 584.990723,261.110046 585.608704,261.457184 587.239685,261.606750 589.056458,261.289581 593.195618,259.151245 593.734680,259.177429 594.093994,259.548981 595.093750,262.266937 595.531311,262.582550 596.088623,262.615906 596.725708,262.461090 598.891479,260.974152 602.476990,256.277252 604.097534,254.518433 604.632507,254.406708 605.166260,254.597839 605.699158,254.990845 606.527405,256.135834 608.573853,260.983856 609.605225,262.163696 611.723267,263.642517 612.342651,264.541840 " stroke-linecap="round" stroke-linejoin="round" stroke="#000000" stroke-width="3.00" fade-time="6" fade-enable="0" RotationPoint="(320.000000,240.000000)" transform="rotate(0.00,598.10,259.30)" xml:id="annotation.394DL2KNO57UFAKR88MEQIJJG" visible="1"/><polyline fill="none" points="635.450195,240.637451 634.341125,244.650681 633.316162,249.545868 632.497192,254.342773 632.332275,258.214569 632.262939,262.151398 " stroke-linecap="round" stroke-linejoin="round" stroke="#000000" stroke-width="3.00" fade-time="6" fade-enable="0" RotationPoint="(320.000000,240.000000)" transform="rotate(0.00,633.86,251.39)" xml:id="annotation.9PS38K49K95KBEPE2LHJ49IAA" visible="1"/><polyline fill="none" points="625.888428,255.776886 629.827698,254.043381 634.329712,252.030823 638.594849,250.029404 643.178467,246.366379 647.122681,242.082535 647.393005,242.043518 647.484680,242.460205 646.777039,246.792923 645.107788,251.390152 643.843872,254.989075 643.632996,257.894562 643.897400,259.639709 644.357422,260.299896 645.812988,261.269470 646.519897,261.386383 647.168213,261.287231 648.360779,260.704926 649.480957,259.855865 652.183289,255.776886 " stroke-linecap="round" stroke-linejoin="round" stroke="#000000" stroke-width="3.00" fade-time="6" fade-enable="0" RotationPoint="(320.000000,240.000000)" transform="rotate(0.00,639.04,251.71)" xml:id="annotation.NVOPTJ8QFP39LEVPFEVF7T9DF" visible="1"/><polyline fill="none" points="656.964172,251.792831 657.650146,256.652039 658.375244,260.238800 659.354614,262.151398 " stroke-linecap="round" stroke-linejoin="round" stroke="#000000" stroke-width="3.00" fade-time="6" fade-enable="0" RotationPoint="(320.000000,240.000000)" transform="rotate(0.00,658.16,256.97)" xml:id="annotation.II2NAV2ELP6M7A27NP3BM1PFK" visible="1"/><polyline fill="none" points="670.509949,257.370514 668.916321,261.354584 " stroke-linecap="round" stroke-linejoin="round" stroke="#000000" stroke-width="3.00" fade-time="6" fade-enable="0" RotationPoint="(320.000000,240.000000)" transform="rotate(0.00,669.71,259.36)" xml:id="annotation.ET2GA8QSKL1BP7HFPAIIGVT4N" visible="1"/><polyline fill="none" points="672.103577,246.215134 673.697205,246.215134 " stroke-linecap="round" stroke-linejoin="round" stroke="#000000" stroke-width="3.00" fade-time="6" fade-enable="0" RotationPoint="(320.000000,240.000000)" transform="rotate(0.00,672.90,246.72)" xml:id="annotation.REIKJ341GH6I55G1S4100S4HI" visible="1"/><polyline fill="none" points="686.446228,250.199203 682.696045,249.090149 681.909790,249.105713 680.564026,249.595154 680.222839,250.062088 680.083984,250.639023 680.311462,252.719971 680.886597,254.329742 684.199402,259.144592 684.945862,260.637970 684.914856,261.053925 684.628479,261.242676 682.462158,261.354584 " stroke-linecap="round" stroke-linejoin="round" stroke="#000000" stroke-width="3.00" fade-time="6" fade-enable="0" RotationPoint="(320.000000,240.000000)" transform="rotate(0.00,683.27,255.22)" xml:id="annotation.AC6M6OVHJD2H3838A65C4A5A8" visible="1"/><polyline fill="none" points="703.976074,231.872513 706.694275,236.674500 708.533081,241.543381 709.487427,245.450653 710.330872,249.411972 710.986084,254.293365 711.663208,259.215424 711.888672,263.689728 711.510193,267.560791 710.070251,272.495178 709.074951,273.860931 704.634094,277.807831 701.585632,279.681274 " stroke-linecap="round" stroke-linejoin="round" stroke="#000000" stroke-width="3.00" fade-time="6" fade-enable="0" RotationPoint="(320.000000,240.000000)" transform="rotate(0.00,706.74,255.78)" xml:id="annotation.06HV9GC8A1279AORF5HLJI6B1" visible="1"/></g><g class="group" xml:id="annotation.GHGL7UR9M959JE1CL947A3CT6" xbk_transform="rotate(0.00,295.91,338.08)"><polyline fill="none" points="65.729080,316.334656 62.498108,316.570770 59.345947,317.443726 56.165623,319.740967 52.606037,323.534821 50.384468,328.289429 50.391129,331.524017 51.209694,333.532593 51.799824,334.440063 52.547382,335.045013 54.322372,335.717194 56.527809,335.543793 58.717979,334.876465 61.035030,333.416748 64.520699,329.821533 67.067390,325.888641 68.757690,322.284607 68.987640,321.983459 69.052399,322.136841 69.022789,326.876892 69.646317,329.698822 71.899132,334.263611 72.900398,336.254974 " stroke-linecap="round" stroke-linejoin="round" stroke="#000000" stroke-width="3.00" fade-time="6" fade-enable="0" RotationPoint="(320.000000,240.000000)" transform="rotate(0.00,61.64,326.29)" xml:id="annotation.RDPO40R63971J8G34UBPE8URS" visible="1"/><polyline fill="none" points="98.398407,322.709167 96.489990,320.977844 95.071251,320.227997 91.510269,320.154144 87.456360,321.010895 85.004326,322.392883 83.205559,324.445160 82.408905,325.959717 82.231903,327.990356 82.308647,329.151581 83.102203,331.150146 83.685677,332.054932 85.514420,333.532471 86.621834,334.174377 89.032753,334.651489 93.341484,334.236389 95.503181,333.128723 98.279022,329.436768 99.445129,326.709320 99.741455,323.786194 99.497017,322.036896 99.219337,321.729797 98.857155,321.790649 98.438637,322.096832 97.973602,324.089661 97.947914,328.223724 98.501022,332.252197 99.225616,336.249420 100.237144,340.237396 101.422180,344.222595 102.334023,348.207062 102.928833,352.191193 103.552803,357.080292 103.427681,360.378326 101.956078,365.035980 100.982979,366.635406 99.251991,367.700409 96.024788,368.561646 93.061798,368.580750 88.232262,367.462494 85.185043,366.061401 81.967094,363.253296 78.976768,358.635162 78.478088,357.768921 " stroke-linecap="round" stroke-linejoin="round" stroke="#000000" stroke-width="3.00" fade-time="6" fade-enable="0" RotationPoint="(320.000000,240.000000)" transform="rotate(0.00,91.02,344.37)" xml:id="annotation.C1PJ5FBB9H2RPD6VDGT7F432G" visible="1"/><polyline fill="none" points="126.286842,328.286865 125.440849,326.594879 124.748970,326.184998 122.799744,325.965637 120.930031,326.399353 115.947662,329.127808 114.520332,330.254242 113.590851,331.640198 112.992828,334.336731 113.174492,335.153198 114.084648,336.532623 116.090294,337.881683 119.212723,338.419159 122.095482,338.155396 126.259544,336.155487 129.045715,334.110504 130.330872,332.107697 131.469788,328.962921 131.689087,327.052734 131.747589,326.932892 132.272125,331.079346 133.309143,335.308075 134.545288,339.023926 135.801025,344.009338 136.478607,348.853546 136.595978,353.602570 135.784760,357.665741 134.422943,360.266479 132.942566,361.328461 132.052032,361.735565 129.409851,361.715729 125.382469,360.709045 122.507004,359.053253 119.070282,355.973877 117.521904,353.784851 " stroke-linecap="round" stroke-linejoin="round" stroke="#000000" stroke-width="3.00" fade-time="6" fade-enable="0" RotationPoint="(320.000000,240.000000)" transform="rotate(0.00,124.79,343.85)" xml:id="annotation.80TATIG1R97IT5AOEFUK2N6PE" visible="1"/><polyline fill="none" points="147.003983,334.661346 148.536026,337.988495 148.910690,338.207489 149.249008,338.087830 149.563095,337.742462 150.005127,334.718414 150.136093,330.035126 150.597916,325.568420 151.295471,322.287384 151.724197,321.808228 152.275620,321.665863 152.908859,321.748016 155.492050,323.132660 159.839447,325.995178 164.220642,327.704193 167.628311,328.674957 168.721664,328.811188 170.644775,328.254303 171.529465,327.733948 171.942169,327.121460 172.040253,326.447510 171.928574,325.732605 171.096176,324.466095 170.502365,323.880463 169.663818,323.578552 167.551620,323.479218 165.373383,324.202362 164.296738,324.767059 162.628265,326.574951 161.473557,328.854034 160.960358,331.342529 161.440552,333.924133 162.968079,337.157990 164.192093,338.604065 167.627380,340.739136 168.455444,341.103668 171.735855,341.193634 173.519012,340.633820 176.106552,338.831604 178.234253,336.134369 179.889328,331.832031 181.260422,327.537170 182.859985,322.713318 183.480042,321.205933 184.345871,319.945740 185.001709,319.804443 186.674805,320.355743 188.761734,321.736450 192.587234,326.182007 194.233292,330.341064 194.641052,333.391144 194.264236,335.011658 193.915878,335.691681 192.820496,336.683380 192.156570,337.071808 190.710587,337.267212 188.639343,336.879517 186.844620,336.254974 " stroke-linecap="round" stroke-linejoin="round" stroke="#000000" stroke-width="3.00" fade-time="6" fade-enable="0" RotationPoint="(320.000000,240.000000)" transform="rotate(0.00,170.82,330.50)" xml:id="annotation.N0S69DEGRD5658QH659JC5QF6" visible="1"/><polyline fill="none" points="213.139435,322.709167 212.293427,321.863159 210.075317,320.914062 207.175217,320.495148 206.418732,320.701935 205.825836,321.105408 205.342056,321.640015 205.285141,322.350525 205.930161,324.084381 210.245819,329.056213 213.551910,332.389679 213.768555,333.058380 213.735901,333.681274 213.537079,334.273590 213.050400,334.668427 211.565247,335.107178 207.267181,334.841248 203.577667,334.661346 " stroke-linecap="round" stroke-linejoin="round" stroke="#000000" stroke-width="3.00" fade-time="6" fade-enable="0" RotationPoint="(320.000000,240.000000)" transform="rotate(0.00,208.67,327.80)" xml:id="annotation.6TOG65EM3D1AJ8SEKH913EHGI" visible="1"/><polyline fill="none" points="225.888428,329.083679 225.888428,333.022888 225.888428,336.330200 225.888428,338.645416 " stroke-linecap="round" stroke-linejoin="round" stroke="#000000" stroke-width="3.00" fade-time="6" fade-enable="0" RotationPoint="(320.000000,240.000000)" transform="rotate(0.00,226.39,333.86)" xml:id="annotation.V3VCKB844913T94TENLE60BF1" visible="1"/><polyline fill="none" points="222.701202,317.928284 222.015152,313.492035 221.904388,311.553772 " stroke-linecap="round" stroke-linejoin="round" stroke="#000000" stroke-width="3.00" fade-time="6" fade-enable="0" RotationPoint="(320.000000,240.000000)" transform="rotate(0.00,222.40,314.74)" xml:id="annotation.HJCCFV04816HD075CGN6623JT" visible="1"/><polyline fill="none" points="332.661346,327.490051 330.969330,327.490051 328.225159,328.759033 326.015198,330.394165 325.044678,331.938507 324.661926,332.846130 324.472748,334.798950 324.539490,335.721985 " stroke-linecap="round" stroke-linejoin="round" stroke="#000000" stroke-width="3.00" fade-time="6" fade-enable="0" RotationPoint="(320.000000,240.000000)" transform="rotate(0.00,328.57,331.61)" xml:id="annotation.AQNUOJO6N910V3JRMOVF3O58D" visible="1"/><polyline fill="none" points="324.817383,336.446350 325.336182,337.653290 325.918701,338.515198 327.746338,339.708984 329.945679,340.357605 332.103638,340.350769 334.007111,339.344330 335.561401,337.716553 337.600037,333.172729 338.112854,329.973358 338.182953,330.571014 338.316467,335.024017 338.960419,338.674164 340.797699,342.650757 342.091309,343.996460 342.932068,344.603241 344.810608,345.041290 349.430298,344.391144 350.191223,344.223114 " stroke-linecap="round" stroke-linejoin="round" stroke="#000000" stroke-width="3.00" fade-time="6" fade-enable="0" RotationPoint="(320.000000,240.000000)" transform="rotate(0.00,337.50,337.51)" xml:id="annotation.689IF5DP3956TA6HAB57G8E9N" visible="1"/><polyline fill="none" points="354.175293,307.569733 353.627686,309.743744 353.363770,313.466949 352.852753,317.413055 352.661957,321.385864 352.694000,325.278076 353.453125,329.810822 354.032623,334.116364 354.787170,338.496033 354.972107,339.442230 " stroke-linecap="round" stroke-linejoin="round" stroke="#000000" stroke-width="3.00" fade-time="6" fade-enable="0" RotationPoint="(320.000000,240.000000)" transform="rotate(0.00,353.82,323.51)" xml:id="annotation.225ERMOQPH6G94DO1J0USPQGV" visible="1"/><polyline fill="none" points="345.410370,325.896423 345.833405,324.627411 346.985413,323.532227 348.677887,322.632294 350.610535,322.232300 355.394592,322.821228 359.944672,324.216736 364.848755,326.716888 366.781555,328.529968 367.834717,330.165619 368.836853,333.663757 369.084625,337.759583 368.517944,342.629486 " stroke-linecap="round" stroke-linejoin="round" stroke="#000000" stroke-width="3.00" fade-time="6" fade-enable="0" RotationPoint="(320.000000,240.000000)" transform="rotate(0.00,357.25,332.43)" xml:id="annotation.FJVDCO55SD2O71J27U3HA24IB" visible="1"/><polyline fill="none" points="371.705170,322.709167 372.501984,321.912354 " stroke-linecap="round" stroke-linejoin="round" stroke="#000000" stroke-width="3.00" fade-time="6" fade-enable="0" RotationPoint="(320.000000,240.000000)" transform="rotate(0.00,372.21,322.41)" xml:id="annotation.JJ5S2V8JO96KREA4G85KH1A8O" visible="1"/><polyline fill="none" points="382.860565,332.270905 381.678528,337.248291 381.833466,339.500061 382.669678,341.504242 384.015228,343.191803 385.793701,344.532043 387.764587,345.009674 388.785950,345.013092 389.643921,344.749786 391.069458,343.748901 391.821045,342.182617 392.021484,341.269165 391.977997,340.483093 391.457550,339.137543 389.323029,336.961517 384.881439,333.935272 380.974243,331.776611 378.876495,330.677307 " stroke-linecap="round" stroke-linejoin="round" stroke="#000000" stroke-width="3.00" fade-time="6" fade-enable="0" RotationPoint="(320.000000,240.000000)" transform="rotate(0.00,385.45,337.85)" xml:id="annotation.0MAEFMB72D5O56KMEHB12P6CU" visible="1"/><polyline fill="none" points="397.203186,338.645416 398.049194,339.914429 398.475464,339.934082 398.936737,339.593079 399.832886,338.269775 401.414429,333.514465 402.661285,330.809631 403.878662,329.614716 404.575165,329.172089 406.057312,328.916412 406.824402,328.972198 408.385010,329.742401 412.828766,333.590851 414.442169,336.535370 416.610229,340.723999 419.513947,345.019928 " stroke-linecap="round" stroke-linejoin="round" stroke="#000000" stroke-width="3.00" fade-time="6" fade-enable="0" RotationPoint="(320.000000,240.000000)" transform="rotate(0.00,408.36,336.97)" xml:id="annotation.FCCSVSTCDP62J1QHM44D7RJNI" visible="1"/><polyline fill="none" points="434.653381,331.474091 433.384369,331.897095 432.289185,332.813049 429.698883,335.867310 428.968994,337.617249 428.916046,338.491211 429.329346,340.170502 430.339386,341.566132 430.980591,342.186188 431.673615,342.511017 433.151978,342.635864 435.900513,341.362335 438.534760,338.879883 439.477142,336.683807 439.728455,335.478455 439.984528,335.117554 440.243774,335.319611 442.285431,339.827301 444.440186,342.418976 447.193665,344.170563 450.589630,345.019928 " stroke-linecap="round" stroke-linejoin="round" stroke="#000000" stroke-width="3.00" fade-time="6" fade-enable="0" RotationPoint="(320.000000,240.000000)" transform="rotate(0.00,439.75,338.25)" xml:id="annotation.HLJB94CLKT075B23SLACSBA31" visible="1"/><polyline fill="none" points="456.167328,313.147400 456.167328,317.875854 456.167328,322.167603 456.803467,326.514130 457.781677,331.307526 459.250519,335.690857 460.698120,339.878387 463.451874,344.722656 464.135468,345.816742 " stroke-linecap="round" stroke-linejoin="round" stroke="#000000" stroke-width="3.00" fade-time="6" fade-enable="0" RotationPoint="(320.000000,240.000000)" transform="rotate(0.00,460.15,329.48)" xml:id="annotation.B0IIQ2PTJD6895G5A5D8B2PQA" visible="1"/><polyline fill="none" points="476.884460,334.661346 477.307434,339.097595 478.498810,342.908722 479.274902,344.223114 " stroke-linecap="round" stroke-linejoin="round" stroke="#000000" stroke-width="3.00" fade-time="6" fade-enable="0" RotationPoint="(320.000000,240.000000)" transform="rotate(0.00,478.08,339.44)" xml:id="annotation.UO77H4OJKP3SD3I7D5L439ROF" visible="1"/><polyline fill="none" points="475.290833,322.709167 475.290833,323.505981 " stroke-linecap="round" stroke-linejoin="round" stroke="#000000" stroke-width="3.00" fade-time="6" fade-enable="0" RotationPoint="(320.000000,240.000000)" transform="rotate(0.00,475.79,323.21)" xml:id="annotation.PC06KH3VUL7R5C56F62AE3JD2" visible="1"/><polyline fill="none" points="497.601593,330.677307 495.486603,330.677307 494.775024,330.942902 493.748322,331.946289 493.527618,332.585693 493.518555,334.004456 495.417816,338.174652 498.548035,342.567505 500.410156,345.001556 500.359314,345.538879 499.882751,345.897095 499.122406,346.135925 498.261322,346.029510 493.298889,343.667450 488.836670,340.239044 " stroke-linecap="round" stroke-linejoin="round" stroke="#000000" stroke-width="3.00" fade-time="6" fade-enable="0" RotationPoint="(320.000000,240.000000)" transform="rotate(0.00,494.62,338.41)" xml:id="annotation.IE1HRCETM17I5EQORVDCV6JBV" visible="1"/><polyline fill="none" points="509.553772,339.442230 511.798828,344.285278 512.112915,345.061371 512.410828,345.224640 512.697998,344.979340 512.977966,344.461670 513.700256,340.095551 514.618835,337.245361 515.055298,336.384033 515.700439,335.809814 517.361633,335.171722 518.034790,335.267242 518.572083,335.596466 520.493591,338.033264 522.949158,342.908752 523.619080,343.258331 525.307739,343.410675 526.076782,343.150238 527.403442,342.152679 530.479248,337.951965 531.957153,336.477997 533.499268,335.527771 534.282410,335.504547 535.860840,336.187073 537.211609,337.611816 539.431702,341.801514 540.877258,346.235626 541.426270,348.207184 " stroke-linecap="round" stroke-linejoin="round" stroke="#000000" stroke-width="3.00" fade-time="6" fade-enable="0" RotationPoint="(320.000000,240.000000)" transform="rotate(0.00,525.49,341.69)" xml:id="annotation.2Q2H1FURVH6UDDJ9M9D7HVAJ9" visible="1"/><polyline fill="none" points="53.776894,356.972107 58.213104,356.972076 62.490143,356.424469 66.746674,356.160583 71.372185,355.649536 75.929962,355.370239 80.732452,354.763641 85.091316,354.617584 89.362549,354.041168 93.616486,353.835449 98.289993,353.794861 102.928329,353.786835 106.715179,353.785431 110.552261,353.785034 115.302460,353.784882 120.054337,353.784882 125.039337,353.696320 128.966751,353.237244 132.934021,353.061890 136.824585,353.009949 141.592850,352.992340 145.459717,352.989349 150.309189,352.988281 154.446320,352.988129 159.419586,352.899536 163.264435,352.440430 167.207275,352.265045 171.179138,352.213074 175.159561,352.197693 179.231079,352.193115 183.673889,352.103241 187.833221,351.643799 191.869232,351.468323 195.868683,351.416321 199.857300,351.400909 203.754150,351.396362 208.524597,351.394806 213.280457,351.394531 218.177704,351.394440 221.823242,351.394440 226.621857,351.394440 228.067932,351.394440 " stroke-linecap="round" stroke-linejoin="round" stroke="#000000" stroke-width="3.00" fade-time="6" fade-enable="0" RotationPoint="(320.000000,240.000000)" transform="rotate(0.00,140.92,354.18)" xml:id="annotation.SREI1JJM9159TAD8M009NQPRN" visible="1"/></g><g class="group" xml:id="annotation.G9CNIU5F6L48B1B16H0GKCF2T" xbk_transform="rotate(0.00,147.68,397.61)"><polyline fill="none" points="71.306770,372.908356 66.870560,374.440430 63.495255,376.490051 59.143196,381.065735 56.548576,384.101135 55.296566,386.888275 54.787888,390.802948 55.060165,395.327179 56.547562,399.609009 59.965374,404.388367 61.689899,406.022095 63.338646,407.171326 " stroke-linecap="round" stroke-linejoin="round" stroke="#000000" stroke-width="3.00" fade-time="6" fade-enable="0" RotationPoint="(320.000000,240.000000)" transform="rotate(0.00,63.05,390.04)" xml:id="annotation.650BUPO9OH2UL4HCPD4F2MCG0" visible="1"/><polyline fill="none" points="73.697212,396.812744 76.241768,397.271820 80.766403,396.467651 85.130814,395.380493 87.012543,394.523560 87.532043,393.870087 87.873184,392.199585 87.486061,391.523956 85.875458,390.537109 83.684059,390.275574 79.516266,390.829132 76.955986,391.960754 74.938217,393.417542 73.218910,395.393585 72.599274,397.126373 72.434044,398.084259 72.722641,400.092896 73.529671,402.077606 74.773697,403.845001 76.684143,405.043732 79.776268,405.980194 82.462151,406.374512 " stroke-linecap="round" stroke-linejoin="round" stroke="#000000" stroke-width="3.00" fade-time="6" fade-enable="0" RotationPoint="(320.000000,240.000000)" transform="rotate(0.00,80.15,398.33)" xml:id="annotation.P62SBH58ND66PAJ11972EOGSR" visible="1"/><polyline fill="none" points="108.756973,386.454193 106.115868,390.627350 102.133286,395.418060 97.336418,400.263855 95.831032,401.681641 94.414345,402.390442 " stroke-linecap="round" stroke-linejoin="round" stroke="#000000" stroke-width="3.00" fade-time="6" fade-enable="0" RotationPoint="(320.000000,240.000000)" transform="rotate(0.00,101.59,394.42)" xml:id="annotation.92LPNQ1DIH1NH2E8EAMSI2ERM" visible="1"/><polyline fill="none" points="96.804779,384.063751 97.913849,388.236908 99.437454,392.748657 101.883163,397.349823 104.511505,401.982422 106.721497,405.408569 111.256721,409.064087 111.944221,409.561768 " stroke-linecap="round" stroke-linejoin="round" stroke="#000000" stroke-width="3.00" fade-time="6" fade-enable="0" RotationPoint="(320.000000,240.000000)" transform="rotate(0.00,104.37,396.81)" xml:id="annotation.40MM172FLP0RB2SHJO12P3E5O" visible="1"/><polyline fill="none" points="123.896423,368.924316 123.348824,371.186859 123.173447,375.280548 123.350281,379.971130 123.788544,384.307892 124.511246,388.574738 125.506569,393.536133 126.291756,397.671631 127.083672,400.796814 " stroke-linecap="round" stroke-linejoin="round" stroke="#000000" stroke-width="3.00" fade-time="6" fade-enable="0" RotationPoint="(320.000000,240.000000)" transform="rotate(0.00,125.13,384.86)" xml:id="annotation.33VG0ENKP523H7ODE5NIDNC3V" visible="1"/><polyline fill="none" points="122.302788,381.673309 125.295410,386.633301 127.428566,391.557037 130.015762,396.376404 131.602051,399.073944 132.132217,399.471130 132.662735,399.558899 133.193481,399.440308 133.635834,399.007111 134.363449,397.581451 134.847839,393.941803 135.414368,389.499054 135.719940,385.241364 136.263611,383.229614 136.656479,382.445251 137.095459,382.099396 137.565201,382.045898 138.055420,382.187317 142.973892,387.182983 147.844742,390.965485 152.585541,394.156372 155.819260,395.327209 159.158005,395.388885 160.846100,394.586304 161.544144,394.000427 161.832443,393.167145 161.680588,391.060883 160.786789,389.121338 159.504166,387.551056 158.048767,386.558014 156.044388,386.293793 154.890152,386.347260 152.663284,387.351013 150.670181,389.066132 149.194122,391.303986 148.656143,393.774170 148.800690,396.170563 149.877594,398.924377 153.391235,403.786072 154.535095,404.869934 159.269760,407.325989 160.549805,407.968140 " stroke-linecap="round" stroke-linejoin="round" stroke="#000000" stroke-width="3.00" fade-time="6" fade-enable="0" RotationPoint="(320.000000,240.000000)" transform="rotate(0.00,142.07,394.82)" xml:id="annotation.KFJ2U6AJHD1R7DM6UPDJ671JD" visible="1"/><polyline fill="none" points="170.111557,394.422302 170.111557,398.858551 170.534546,401.491486 171.643616,403.953827 172.106812,404.318054 172.592651,404.383820 173.093643,404.250580 173.427628,403.807617 173.798721,402.371033 174.036957,397.838562 174.078232,393.634308 174.087891,391.209503 174.356079,390.509735 174.800461,390.131744 175.362320,389.968323 175.825439,390.302032 177.919449,395.215424 180.483994,399.500000 181.627243,401.282867 183.020691,402.665466 183.764130,402.927917 184.525345,402.925842 185.298431,402.747345 186.629608,401.604675 188.503998,398.408569 190.005554,393.950409 190.666107,389.440033 190.897369,388.975952 191.228622,388.932159 191.626526,389.168579 192.304718,390.375641 194.005585,395.213654 194.631073,396.721802 197.588013,400.781891 202.483658,405.301147 204.522537,406.479462 207.231796,406.966370 209.244812,406.371948 210.277420,405.841583 211.660858,404.307953 212.153717,403.403168 212.465256,400.981293 212.220047,398.311279 211.086517,394.994202 210.131714,393.466522 208.881027,392.433380 208.175659,392.033936 207.528336,391.944672 206.336914,392.317780 205.948380,392.842194 205.516678,394.369293 205.696640,396.797028 206.319641,398.163330 209.186249,402.439056 212.581436,407.175598 217.511292,411.640198 220.310760,413.545807 " stroke-linecap="round" stroke-linejoin="round" stroke="#000000" stroke-width="3.00" fade-time="6" fade-enable="0" RotationPoint="(320.000000,240.000000)" transform="rotate(0.00,195.21,401.24)" xml:id="annotation.TE0NJNDPDD7N11P4IKLNCO3LJ" visible="1"/><polyline fill="none" points="229.075714,368.924316 231.777298,373.064636 " stroke-linecap="round" stroke-linejoin="round" stroke="#000000" stroke-width="3.00" fade-time="6" fade-enable="0" RotationPoint="(320.000000,240.000000)" transform="rotate(0.00,230.43,370.99)" xml:id="annotation.Q8N0INQDUD2F105IFD74M0K78" visible="1"/><polyline fill="none" points="234.399582,378.474518 235.453842,380.972626 237.044907,385.361237 238.401703,390.350494 239.063889,393.675049 239.653305,397.218414 240.210388,400.859039 240.576050,404.454407 240.195541,409.376495 239.000732,413.677856 237.436768,417.667328 234.809692,421.996887 231.466156,426.294830 " stroke-linecap="round" stroke-linejoin="round" stroke="#000000" stroke-width="3.00" fade-time="6" fade-enable="0" RotationPoint="(320.000000,240.000000)" transform="rotate(0.00,236.02,402.38)" xml:id="annotation.UC6UO6BKM110126K3HH8PLP94" visible="1"/><polyline fill="none" points="115.928284,377.689240 120.364494,376.580200 125.100609,375.555206 129.073441,374.764832 133.575546,374.058472 138.362366,373.721344 141.864746,373.328705 145.251099,373.095184 149.907959,373.199829 153.619186,373.555420 156.565735,373.705170 " stroke-linecap="round" stroke-linejoin="round" stroke="#000000" stroke-width="3.00" fade-time="6" fade-enable="0" RotationPoint="(320.000000,240.000000)" transform="rotate(0.00,136.25,375.39)" xml:id="annotation.PBNU2TLE1L7KPC7VD6JJGJ412" visible="1"/></g><polyline fill="none" points="70.000000,427.000000 73.855965,425.912201 78.846214,425.270294 82.709427,425.009033 87.383041,424.348389 91.693748,423.992096 96.440125,423.343353 99.714127,423.152618 103.317390,423.067841 107.141060,422.919037 111.062698,422.482544 115.027870,422.510742 119.012390,422.782562 123.005508,422.903351 127.002441,422.957062 130.889969,423.092010 134.469620,423.522339 138.505020,423.787720 142.780014,423.905670 146.902222,423.958069 150.956512,424.277649 155.091797,424.678955 159.522278,424.857300 164.083954,425.232880 168.703995,425.659058 173.349915,425.848450 178.007385,425.932648 182.781052,426.081177 185.298492,426.276337 187.865662,426.517578 190.466003,426.678375 193.088440,426.785583 195.725616,426.857056 198.372635,426.904694 201.026199,426.936462 203.684143,426.957642 206.233871,427.082855 211.140991,427.518311 215.914505,427.785919 220.517548,427.904846 224.785583,427.957733 228.904709,427.981232 232.957657,427.991669 236.981171,427.996307 240.695358,427.998383 244.197922,427.999268 249.182098,427.999817 253.523087,427.999939 257.624146,428.000000 261.765198,428.000000 266.350159,428.000000 271.344910,427.703705 274.000000,427.000000 " stroke-linecap="round" stroke-linejoin="round" stroke="#000000" stroke-width="3.00" fade-time="6" fade-enable="0" RotationPoint="(320.000000,240.000000)" transform="rotate(0.00,172.00,425.24)" xml:id="annotation.IUK5F7VKH53A3A7OV4HE60HS8" visible="1"/><g class="group" xml:id="annotation.H1JCONPVMH77BD9HFQ0POA9H0" xbk_transform="rotate(0.00,321.00,486.00)"><polyline fill="none" points="55.000000,443.000000 54.312759,445.728394 54.203781,450.623230 54.572048,454.758453 54.809799,458.300079 54.943645,463.088928 55.279598,467.730103 55.786545,472.216309 56.233047,477.064117 56.772755,482.018982 57.228962,486.413025 57.771545,490.122345 57.932304,494.036255 58.081024,496.349426 59.000000,499.000000 " stroke-linecap="round" stroke-linejoin="round" stroke="#000000" stroke-width="3.00" fade-time="6" fade-enable="0" RotationPoint="(320.000000,240.000000)" transform="rotate(0.00,56.60,471.00)" xml:id="annotation.E8LA75697H5E9CFL13CNINO9M" visible="1"/><polyline fill="none" points="43.000000,482.000000 47.647461,483.087769 51.895546,483.729706 56.857941,483.919922 60.603527,483.853302 64.586227,483.079956 68.918266,480.884125 72.000000,479.000000 " stroke-linecap="round" stroke-linejoin="round" stroke="#000000" stroke-width="3.00" fade-time="6" fade-enable="0" RotationPoint="(320.000000,240.000000)" transform="rotate(0.00,57.50,481.46)" xml:id="annotation.RKAGSRPN8561V9466984CSM8D" visible="1"/><polyline fill="none" points="83.000000,441.000000 83.296295,445.054871 84.391861,449.010864 84.819809,453.064972 85.477470,457.784698 86.376038,462.170776 86.815125,466.816040 87.214134,470.362671 87.650726,473.938934 87.896507,478.451050 88.080444,482.602814 88.678154,486.647766 88.856949,489.324951 89.126854,489.661072 89.529022,489.329590 91.715759,484.911743 94.186165,479.988403 96.351456,476.996552 97.345413,476.442139 99.635002,476.122437 100.534447,476.414917 101.245186,476.943298 102.331184,478.419281 104.289154,483.055237 105.657936,488.031494 106.664085,492.972321 107.999481,497.796997 109.000000,501.000000 " stroke-linecap="round" stroke-linejoin="round" stroke="#000000" stroke-width="3.00" fade-time="6" fade-enable="0" RotationPoint="(320.000000,240.000000)" transform="rotate(0.00,96.00,471.00)" xml:id="annotation.BM346P8VTH38NESGQJDEKUNL6" visible="1"/><polyline fill="none" points="124.000000,481.000000 122.912216,485.351135 121.649323,489.871826 121.655106,490.803436 122.254120,492.431183 122.947197,492.954102 124.902451,493.535156 127.971100,493.331421 130.991440,492.567352 131.883179,492.600464 133.466599,493.229828 138.357727,496.569397 142.873138,498.248291 144.943604,498.073303 145.962402,497.715546 146.752716,496.921478 147.927124,494.557678 148.682114,489.572662 148.562424,486.106323 147.574036,481.624084 146.170090,478.481232 145.000000,476.000000 " stroke-linecap="round" stroke-linejoin="round" stroke="#000000" stroke-width="3.00" fade-time="6" fade-enable="0" RotationPoint="(320.000000,240.000000)" transform="rotate(0.00,135.17,487.12)" xml:id="annotation.P8BRQ2RJ3T1V38PS807U4MH52" visible="1"/><polyline fill="none" points="174.000000,488.000000 173.777771,483.543213 172.938263,481.241425 172.181061,480.494324 170.154556,479.664124 168.068680,479.591461 167.045792,479.727661 166.141632,480.262878 164.544434,482.042755 162.926743,485.012665 162.708176,487.598206 163.506134,491.880981 164.669388,494.502655 166.297501,496.778961 168.428528,498.012848 169.619034,498.341919 170.634903,498.116791 172.356262,496.681519 175.160904,492.249847 176.900085,488.049377 177.266724,487.032928 177.622269,486.799713 177.970398,487.088715 180.000000,491.000000 " stroke-linecap="round" stroke-linejoin="round" stroke="#000000" stroke-width="3.00" fade-time="6" fade-enable="0" RotationPoint="(320.000000,240.000000)" transform="rotate(0.00,171.35,488.97)" xml:id="annotation.2UBMB60IV51R7AJNSQR8GNHFO" visible="1"/><polyline fill="none" points="191.000000,503.000000 191.791489,499.440308 191.938217,495.241577 192.194763,491.774017 193.477448,486.809601 194.610611,482.585541 195.308411,480.260223 195.872269,479.729065 196.581512,479.597168 197.387680,479.731445 198.875992,481.065857 202.703888,485.543884 205.000000,488.000000 " stroke-linecap="round" stroke-linejoin="round" stroke="#000000" stroke-width="3.00" fade-time="6" fade-enable="0" RotationPoint="(320.000000,240.000000)" transform="rotate(0.00,198.00,491.30)" xml:id="annotation.54KA9GNO7L18NCFLBCU39ITIT" visible="1"/><polyline fill="none" points="219.000000,454.000000 218.312759,456.617279 218.092667,460.602631 218.027466,464.647675 218.008148,468.661072 218.002411,472.665039 218.000717,476.666199 218.000214,480.666534 218.000076,484.777740 218.000031,489.131653 218.000000,493.000000 " stroke-linecap="round" stroke-linejoin="round" stroke="#000000" stroke-width="3.00" fade-time="6" fade-enable="0" RotationPoint="(320.000000,240.000000)" transform="rotate(0.00,218.50,473.50)" xml:id="annotation.SLVR1AH21525LACALS5CPQ8C0" visible="1"/><polyline fill="none" points="214.000000,475.000000 218.647461,476.384064 223.191833,477.817505 227.167953,478.649628 230.000000,479.000000 " stroke-linecap="round" stroke-linejoin="round" stroke="#000000" stroke-width="3.00" fade-time="6" fade-enable="0" RotationPoint="(320.000000,240.000000)" transform="rotate(0.00,222.00,477.00)" xml:id="annotation.J5QVVQSU8529JCDARDVR10T8Q" visible="1"/><polyline fill="none" points="242.000000,480.000000 245.314575,482.783752 249.154953,484.701355 253.280472,485.615234 255.383896,485.236389 256.255920,484.824249 256.615051,484.105042 256.421509,482.120758 255.836563,481.302765 254.001434,480.097504 250.469559,479.325195 246.608261,480.158081 243.711075,481.812286 242.464188,483.657349 241.976135,484.771545 242.026428,487.491058 242.900635,490.440491 245.585312,495.066406 247.000000,497.000000 " stroke-linecap="round" stroke-linejoin="round" stroke="#000000" stroke-width="3.00" fade-time="6" fade-enable="0" RotationPoint="(320.000000,240.000000)" transform="rotate(0.00,249.30,488.16)" xml:id="annotation.8RGMMT22051ST9QKGJO7B51L0" visible="1"/><polyline fill="none" points="272.000000,488.000000 269.876526,488.530853 268.241425,489.976685 266.996185,492.100739 266.442749,494.526245 266.662048,497.859619 267.961578,500.958405 270.284912,503.987671 271.189972,504.547363 273.084412,504.872894 274.741211,504.350922 277.615540,502.205109 280.323242,498.044647 282.219238,494.247772 283.534088,490.196869 284.627380,485.527496 285.655029,480.625427 286.552094,475.765533 286.756165,471.239197 286.410156,467.661865 285.590668,462.961548 285.171539,462.307678 284.669922,462.205139 284.113281,462.470093 283.742188,463.202271 283.329865,465.497284 283.442902,468.961761 283.863525,472.760803 284.613892,477.398254 284.996735,481.587158 285.764465,485.643127 286.695648,489.659729 287.675262,493.664642 288.780334,497.554962 290.791992,501.912109 293.215424,506.655090 294.000000,508.000000 " stroke-linecap="round" stroke-linejoin="round" stroke="#000000" stroke-width="3.00" fade-time="6" fade-enable="0" RotationPoint="(320.000000,240.000000)" transform="rotate(0.00,280.22,485.10)" xml:id="annotation.712AS0PH8133H8K5552RLJR6V" visible="1"/><polyline fill="none" points="334.000000,492.000000 334.530884,493.592590 334.909485,493.839508 335.384094,493.781891 335.922729,493.521271 337.742554,491.031006 339.158264,486.416595 340.281464,482.419739 341.767517,477.971802 342.859650,475.505981 344.678345,473.817444 345.785583,473.211639 346.857056,473.141113 348.936493,473.951599 350.675476,475.719238 352.077972,478.208527 353.071686,481.537109 354.180023,484.942444 356.053345,489.686676 357.719513,493.610840 359.000000,497.000000 " stroke-linecap="round" stroke-linejoin="round" stroke="#000000" stroke-width="3.00" fade-time="6" fade-enable="0" RotationPoint="(320.000000,240.000000)" transform="rotate(0.00,346.50,485.07)" xml:id="annotation.1TQNMFQJRT0MH43RE3PAA2CEF" visible="1"/><polyline fill="none" points="376.000000,483.000000 375.469116,481.407410 374.868286,480.938263 373.015564,480.416992 372.121490,480.500183 370.535431,481.185272 369.386108,482.526794 368.924072,483.351196 368.273804,487.165802 368.611969,491.283722 369.946747,494.787750 370.742279,495.414062 372.811371,495.813660 373.874268,495.320221 375.944092,493.290466 378.452545,489.024353 380.072327,485.303497 380.492676,484.980133 380.884003,485.208984 381.256012,485.806000 381.964142,489.846436 383.058777,494.265961 384.313721,497.782501 386.000000,502.000000 " stroke-linecap="round" stroke-linejoin="round" stroke="#000000" stroke-width="3.00" fade-time="6" fade-enable="0" RotationPoint="(320.000000,240.000000)" transform="rotate(0.00,377.14,491.21)" xml:id="annotation.8J25SIS1PH1033U0VFV8TOS0K" visible="1"/><polyline fill="none" points="392.000031,444.000000 391.312775,448.901245 391.139038,452.882019 391.061829,456.651245 391.018372,461.600372 391.301758,466.177887 391.793121,470.756470 391.938721,474.927856 392.518768,479.788239 392.857452,483.998993 393.000031,488.000000 " stroke-linecap="round" stroke-linejoin="round" stroke="#000000" stroke-width="3.00" fade-time="6" fade-enable="0" RotationPoint="(320.000000,240.000000)" transform="rotate(0.00,392.01,466.00)" xml:id="annotation.T3DQFN8ICP3B56MSRU3JBUAE3" visible="1"/><polyline fill="none" points="387.000000,464.000000 387.530884,461.345673 388.020599,460.452637 389.453583,459.164124 391.794159,458.813690 394.575195,459.139404 398.528442,460.461029 402.906860,462.255646 406.981628,464.186310 410.996368,465.748749 415.468689,468.721344 416.319427,470.616913 416.865601,475.455200 416.973480,480.357391 417.000000,483.000000 " stroke-linecap="round" stroke-linejoin="round" stroke="#000000" stroke-width="3.00" fade-time="6" fade-enable="0" RotationPoint="(320.000000,240.000000)" transform="rotate(0.00,402.00,470.91)" xml:id="annotation.44NE23MJNP3UJ05980T7PSLQD" visible="1"/><polyline fill="none" points="421.000000,452.000000 422.000000,452.000000 " stroke-linecap="round" stroke-linejoin="round" stroke="#000000" stroke-width="3.00" fade-time="6" fade-enable="0" RotationPoint="(320.000000,240.000000)" transform="rotate(0.00,421.50,452.50)" xml:id="annotation.RGR0UPQTT148J7NTDI3IL45QB" visible="1"/><polyline fill="none" points="439.000000,469.000000 437.407410,469.530853 432.478851,473.603516 431.657288,475.564514 431.403259,478.028656 431.996033,482.206024 432.961212,484.165649 435.815674,487.579926 438.214386,489.220703 440.761963,490.098083 443.375702,490.117645 446.815033,488.973114 447.654480,488.093170 449.366760,484.200439 450.355560,479.528564 449.932495,474.736877 448.338013,470.564056 445.461823,466.407715 444.000000,464.000000 " stroke-linecap="round" stroke-linejoin="round" stroke="#000000" stroke-width="3.00" fade-time="6" fade-enable="0" RotationPoint="(320.000000,240.000000)" transform="rotate(0.00,440.88,477.06)" xml:id="annotation.9KPSJ3U3JD21P6T5H7JISNLE2" visible="1"/><polyline fill="none" points="458.000000,482.000000 459.592590,480.938263 460.670776,479.231812 461.742584,477.102997 464.850372,473.020355 466.377930,471.231293 468.167969,470.065765 469.111969,470.043823 471.049774,470.908386 473.483856,472.738281 475.612518,476.280487 476.679626,479.569122 477.635406,483.030731 479.200623,487.255981 480.000000,491.000000 " stroke-linecap="round" stroke-linejoin="round" stroke="#000000" stroke-width="3.00" fade-time="6" fade-enable="0" RotationPoint="(320.000000,240.000000)" transform="rotate(0.00,469.00,480.52)" xml:id="annotation.VJMI79EVFH2L36IQ0JBHCBS1D" visible="1"/><polyline fill="none" points="502.000000,476.000000 499.216248,473.216248 498.366425,472.921967 496.236938,472.891235 492.539337,474.560364 490.832306,476.545349 489.814331,479.020172 489.361938,481.971924 490.049744,484.839355 491.466522,487.373077 493.207367,489.239868 494.249329,489.715485 496.592316,489.947632 498.818787,489.087830 500.697235,487.594604 504.268799,482.651672 505.921448,478.634918 506.280975,477.423279 506.631744,477.059998 506.976715,477.262207 507.317810,477.841461 507.797882,481.841919 508.470978,485.656860 509.374146,489.960022 510.876312,493.691864 512.093140,495.270447 514.000000,497.000000 " stroke-linecap="round" stroke-linejoin="round" stroke="#000000" stroke-width="3.00" fade-time="6" fade-enable="0" RotationPoint="(320.000000,240.000000)" transform="rotate(0.00,501.68,484.95)" xml:id="annotation.8R1I6B7EED0E7DAJTS90Q5L7O" visible="1"/><polyline fill="none" points="526.999939,445.000000 526.703674,449.351196 526.208496,453.104034 526.061707,457.030823 526.018250,461.305450 526.005371,465.794220 526.297852,470.235352 526.791931,475.069702 527.234558,479.724335 528.069458,483.918335 528.999939,488.000000 " stroke-linecap="round" stroke-linejoin="round" stroke="#000000" stroke-width="3.00" fade-time="6" fade-enable="0" RotationPoint="(320.000000,240.000000)" transform="rotate(0.00,527.50,466.50)" xml:id="annotation.AQ603VFH4P6SL785VC7UDBS01" visible="1"/><polyline fill="none" points="550.999939,471.000000 549.608093,475.706451 549.180176,479.443909 549.584229,483.896942 550.407593,488.734924 550.736694,491.141449 550.999939,494.000000 " stroke-linecap="round" stroke-linejoin="round" stroke="#000000" stroke-width="3.00" fade-time="6" fade-enable="0" RotationPoint="(320.000000,240.000000)" transform="rotate(0.00,550.09,482.50)" xml:id="annotation.F39KI0AA215HD9K6K8PLUNPI9" visible="1"/><polyline fill="none" points="558.000000,459.000000 559.000000,458.000000 " stroke-linecap="round" stroke-linejoin="round" stroke="#000000" stroke-width="3.00" fade-time="6" fade-enable="0" RotationPoint="(320.000000,240.000000)" transform="rotate(0.00,558.50,458.50)" xml:id="annotation.F2CR5PAA8T0FV1G6QGT9TBDOL" visible="1"/><polyline fill="none" points="583.000000,475.000000 580.216248,470.824402 577.236938,468.478851 574.070190,466.907349 573.268982,466.938232 572.623779,467.292145 572.082520,467.861450 571.777405,469.975433 572.486877,474.797638 573.808044,479.758392 575.362854,483.693878 576.576660,487.563599 577.982239,491.913788 578.321533,492.942535 578.103210,493.517273 577.513245,493.789276 576.675476,493.859528 573.372986,492.896667 569.184814,489.893188 567.042419,487.844910 566.000000,486.000000 " stroke-linecap="round" stroke-linejoin="round" stroke="#000000" stroke-width="3.00" fade-time="6" fade-enable="0" RotationPoint="(320.000000,240.000000)" transform="rotate(0.00,574.50,480.38)" xml:id="annotation.K45KTTQEA93SFEB28C5MKVG3L" visible="1"/><polyline fill="none" points="593.000000,491.000000 593.296265,495.846405 593.530823,496.897614 593.798340,497.265045 594.087769,497.176697 594.816772,495.967407 596.799194,491.256958 597.940552,487.187225 598.982361,482.648071 599.321594,481.432037 599.881104,481.065765 600.587402,481.266052 601.391602,481.844025 604.279053,486.652283 606.206116,490.551300 607.128601,492.800598 607.752441,493.311523 608.501648,493.429901 609.334412,493.286591 610.852356,491.942230 613.637512,487.457733 616.188904,484.666473 617.125916,484.222137 619.055969,484.024628 619.926208,484.460846 621.485657,486.130737 623.888428,491.017242 624.670654,494.301422 625.465759,498.862030 625.841736,503.020844 626.000000,506.000000 " stroke-linecap="round" stroke-linejoin="round" stroke="#000000" stroke-width="3.00" fade-time="6" fade-enable="0" RotationPoint="(320.000000,240.000000)" transform="rotate(0.00,609.50,493.53)" xml:id="annotation.SON1H1H6151JNDUUMVM4ISNPA" visible="1"/><polyline fill="none" points="314.000000,531.000000 310.008240,529.403259 305.582703,527.588623 301.296112,525.754639 296.556854,524.569275 293.284515,524.252991 289.682007,524.112488 285.969757,523.938843 282.468048,523.491333 278.763550,523.218384 274.894928,523.097046 270.953278,523.043091 266.682983,523.019165 262.303528,523.119629 258.134949,523.534668 253.763687,523.793213 249.228317,523.908081 244.619995,523.959167 240.275558,524.278137 236.011322,524.679199 231.523560,524.857422 226.936401,525.232910 222.416183,525.659058 218.184967,525.848450 213.785919,526.228943 209.349289,526.768433 205.155243,527.378540 200.772690,527.723816 196.232300,527.988342 191.621765,528.476318 187.276321,528.767273 183.011688,528.896545 178.523727,528.954041 173.936462,528.979553 169.305099,528.990906 164.654114,528.995972 159.994431,528.701904 155.441956,528.311951 151.196426,528.138611 146.791000,527.765320 142.240448,527.229004 137.625381,526.620300 132.981659,525.979370 128.325195,525.213074 123.663040,524.131714 118.998383,523.206726 114.332611,522.425232 109.666344,521.707520 104.999855,520.721863 100.333275,519.654114 95.666641,518.809265 90.999985,517.767090 86.444435,516.674316 82.197540,515.818237 77.791504,514.771057 73.240677,513.676025 68.625481,512.818970 63.981697,512.067688 59.436306,511.363434 55.193916,510.680054 50.789890,510.302246 46.239952,510.023254 41.625164,509.528870 37.277847,508.938751 33.012375,508.417236 28.524019,508.185425 24.529192,508.082397 19.749390,508.024414 16.000000,508.000000 " stroke-linecap="round" stroke-linejoin="round" stroke="#000000" stroke-width="3.00" fade-time="6" fade-enable="0" RotationPoint="(320.000000,240.000000)" transform="rotate(0.00,165.00,519.50)" xml:id="annotation.20GBPLM1BL5FPATOK42M8HIM9" visible="1"/></g><g class="group" xml:id="annotation.O8OAMTT71T1AV1JOO8DBO238Q" xbk_transform="rotate(0.00,227.65,573.90)"><polyline fill="none" points="196.000000,554.000000 198.395065,556.172852 202.374329,557.902466 206.110916,558.674744 208.604843,558.633179 210.824356,557.874023 212.329346,556.499573 212.886230,555.666382 213.669998,552.370300 213.260742,550.164612 212.840500,549.109741 212.115891,548.295410 210.125580,547.094238 205.975479,546.324219 203.137253,547.032959 199.336975,549.306030 197.260880,551.358215 194.953842,555.414795 193.628296,558.937683 193.297272,562.635864 193.613602,564.838135 195.478119,568.482910 199.000000,573.000000 " stroke-linecap="round" stroke-linejoin="round" stroke="#000000" stroke-width="3.00" fade-time="6" fade-enable="0" RotationPoint="(320.000000,240.000000)" transform="rotate(0.00,203.48,559.66)" xml:id="annotation.1AOME8FMGD17R3HU2V9MGS2EP" visible="1"/><polyline fill="none" points="227.000000,567.000000 227.000000,569.000000 " stroke-linecap="round" stroke-linejoin="round" stroke="#000000" stroke-width="3.00" fade-time="6" fade-enable="0" RotationPoint="(320.000000,240.000000)" transform="rotate(0.00,227.50,568.00)" xml:id="annotation.3Q5VTVE7CT5MH15I27E74T495" visible="1"/><polyline fill="none" points="254.000000,560.000000 253.469131,558.407410 252.319611,557.329224 251.546402,556.886169 250.586487,556.812988 248.334747,557.324280 245.099182,559.392395 242.560257,563.177979 241.462296,567.287292 241.667847,570.788818 242.741272,572.609802 243.494171,573.406555 245.515930,574.291748 246.677277,574.527832 249.152893,574.197510 251.512390,573.309998 255.558563,570.286377 258.311981,566.060669 259.657166,563.545471 260.215912,563.252502 260.699493,563.612793 261.132996,564.408508 261.743103,569.244507 261.923889,574.010681 261.977448,578.237732 261.993317,582.304993 261.998016,586.855774 261.702820,590.380310 261.090118,594.057922 259.384735,598.918396 257.726532,601.037781 256.706604,601.469604 254.388107,601.356873 250.584122,600.044006 246.642212,597.716736 241.677170,594.643066 240.000000,594.000000 " stroke-linecap="round" stroke-linejoin="round" stroke="#000000" stroke-width="3.00" fade-time="6" fade-enable="0" RotationPoint="(320.000000,240.000000)" transform="rotate(0.00,251.00,579.14)" xml:id="annotation.T2T0RG41A164DFIVQ29HM5AFC" visible="1"/></g><g class="group" xml:id="annotation.H06CHUA12P50F202AP4949P58" xbk_transform="rotate(0.00,624.50,118.90)"><polyline fill="none" points="510.000000,87.000000 510.791443,91.647469 510.938202,95.895538 510.981659,100.265350 510.698303,105.078621 510.310364,108.479385 510.137939,112.213051 509.765015,115.798393 509.339996,119.243729 509.151123,122.626846 508.770874,126.278595 508.342590,130.012711 508.152283,133.524170 507.771362,136.936661 507.228577,141.684921 507.067719,145.906631 506.723755,149.972336 506.214478,153.991806 505.767242,158.293869 505.227325,162.198181 505.000000,165.000000 " stroke-linecap="round" stroke-linejoin="round" stroke="#009300" stroke-width="3.00" fade-time="6" fade-enable="0" RotationPoint="(320.000000,240.000000)" transform="rotate(0.00,507.99,126.00)" xml:id="annotation.NR5VF3NGD914F0PS7C0NB10FJ" visible="1"/><polyline fill="none" points="473.000000,116.000000 473.909424,111.897110 474.922699,108.509827 476.211670,103.916496 478.359009,99.209816 481.106384,94.827599 484.562347,90.183487 487.870331,85.819794 491.492432,81.712044 495.380493,77.680115 499.347290,73.670654 503.337463,70.198708 507.869110,66.837601 511.974182,64.330063 512.982788,63.886711 517.056641,63.793594 519.580750,65.093452 521.591431,67.041534 522.855469,69.018463 524.191711,73.067200 525.291382,77.785339 525.981323,81.349037 526.547241,85.266243 526.798767,89.599808 526.614258,94.118439 526.273010,98.830414 526.182007,101.331390 526.121338,103.887589 526.053955,108.801895 525.912842,113.689728 525.719666,116.237602 525.479797,118.825058 525.213196,123.774101 525.094788,128.455154 525.042114,132.757843 525.018738,136.596085 525.005554,141.584030 525.001648,146.173050 525.001099,147.782043 525.222961,148.632477 525.593079,148.977203 526.062073,148.984802 526.485840,148.656540 527.252991,147.402908 528.650818,142.972595 529.773071,138.461029 531.463623,133.716843 533.371887,129.335846 535.455872,124.790871 538.793762,120.452515 541.625916,117.422729 542.528381,117.059601 544.716309,116.952408 545.699768,117.523827 547.385071,119.640221 549.052368,123.424263 549.719238,127.360283 549.916809,131.341324 549.975342,135.866562 549.992737,140.725906 549.997864,145.153351 550.909058,149.943863 553.113647,154.758453 554.272766,156.559311 556.000000,158.000000 " stroke-linecap="round" stroke-linejoin="round" stroke="#009300" stroke-width="3.00" fade-time="6" fade-enable="0" RotationPoint="(320.000000,240.000000)" transform="rotate(0.00,514.50,110.90)" xml:id="annotation.LELFCVBFE17L9BOH6MM80KC10" visible="1"/><polyline fill="none" points="564.000000,147.000000 568.175598,145.608139 573.023193,143.992279 578.003113,141.533966 582.469604,138.315857 586.649353,133.470810 588.661560,130.843201 590.134277,126.891815 590.318970,124.396362 590.212646,123.264244 589.697327,122.509499 588.909363,122.006332 587.939575,121.670891 587.070801,121.669487 585.512939,122.260513 580.935852,125.374496 578.277283,128.407272 575.785889,132.416977 573.529114,137.123550 571.860474,141.740295 570.551270,145.923050 570.459656,150.569794 571.093201,153.919907 572.485840,156.519958 573.657227,157.235535 576.736572,157.734299 579.438477,157.289322 583.000000,156.000000 " stroke-linecap="round" stroke-linejoin="round" stroke="#009300" stroke-width="3.00" fade-time="6" fade-enable="0" RotationPoint="(320.000000,240.000000)" transform="rotate(0.00,577.16,139.70)" xml:id="annotation.R9OV3VDJOL7S71T4VQA537HOB" visible="1"/><polyline fill="none" points="604.000000,137.000000 604.000000,141.351151 604.000000,145.400330 604.296265,149.822327 604.530823,151.214874 604.909424,151.698807 605.384033,151.576981 605.922729,151.051331 607.211670,146.595444 608.297302,141.941864 609.853516,137.748199 611.191162,133.690811 613.548035,129.025345 615.243591,126.529785 617.404541,124.828056 618.603027,124.218704 619.735352,124.256920 621.882385,125.484558 623.355164,127.511650 625.205933,131.903534 625.954285,136.779297 627.056885,141.725952 628.344604,145.945877 629.867554,148.453110 630.467285,148.524292 631.089233,148.127319 633.684326,144.827621 635.649597,140.278702 637.766235,136.055038 639.817993,131.480011 640.545349,130.764450 641.363525,130.398514 642.242310,130.265686 643.050415,130.621567 644.540955,132.202179 645.351501,134.978745 645.822937,138.434998 646.402771,142.193329 647.353882,146.995544 649.497925,151.187332 650.000000,152.000000 " stroke-linecap="round" stroke-linejoin="round" stroke="#009300" stroke-width="3.00" fade-time="6" fade-enable="0" RotationPoint="(320.000000,240.000000)" transform="rotate(0.00,627.00,138.11)" xml:id="annotation.GLF8N76HNH52H3T7KQE3U350H" visible="1"/><polyline fill="none" points="672.000000,134.000000 671.469177,132.407410 670.757263,132.049377 668.484680,131.947876 667.434204,132.298584 663.434448,135.640152 660.797729,139.126450 658.727844,144.016663 658.746521,148.066666 659.479919,150.288879 659.986633,151.192596 660.879944,151.683960 663.354065,151.933609 665.416687,151.377884 668.419739,149.223083 672.354431,145.044067 675.271667,141.008698 678.658569,136.532013 680.422241,132.998093 680.614868,133.220947 680.885864,136.546936 680.949280,140.354187 680.977417,144.638901 681.524170,149.300415 681.904968,149.978058 682.381104,150.207581 682.920715,150.138397 683.280457,149.870026 684.000000,148.000000 " stroke-linecap="round" stroke-linejoin="round" stroke="#009300" stroke-width="3.00" fade-time="6" fade-enable="0" RotationPoint="(320.000000,240.000000)" transform="rotate(0.00,671.36,141.94)" xml:id="annotation.B3A3SRI35H2SP8V9FQN88BS2R" visible="1"/><polyline fill="none" points="712.000000,93.000000 712.000000,97.567902 711.888916,101.637405 711.312805,105.769112 710.981567,110.462456 710.340210,115.371590 710.100769,120.344666 710.029907,125.225571 710.008850,129.647095 710.002625,134.315186 710.000793,138.895859 710.000305,142.879639 710.000122,146.353912 710.000000,151.000000 " stroke-linecap="round" stroke-linejoin="round" stroke="#009300" stroke-width="3.00" fade-time="6" fade-enable="0" RotationPoint="(320.000000,240.000000)" transform="rotate(0.00,711.00,122.00)" xml:id="annotation.AKA6OKJMOT53P0DBKTNHTNJFD" visible="1"/><polyline fill="none" points="696.000000,134.000000 697.922729,129.824417 701.182312,126.076439 706.023987,122.387291 710.803101,120.475685 715.040405,119.486618 718.943848,119.216270 723.390747,119.594940 727.881226,121.472572 731.668518,125.201752 732.963806,128.830399 733.539429,133.035736 733.795288,137.497360 733.408508,142.258469 733.121094,146.311157 733.000000,151.000000 " stroke-linecap="round" stroke-linejoin="round" stroke="#009300" stroke-width="3.00" fade-time="6" fade-enable="0" RotationPoint="(320.000000,240.000000)" transform="rotate(0.00,714.90,135.11)" xml:id="annotation.SJS5ICQA895193KCG7AR2IIEJ" visible="1"/><polyline fill="none" points="738.000000,111.000000 739.000000,108.000000 " stroke-linecap="round" stroke-linejoin="round" stroke="#009300" stroke-width="3.00" fade-time="6" fade-enable="0" RotationPoint="(320.000000,240.000000)" transform="rotate(0.00,738.50,109.50)" xml:id="annotation.NJEIBRCUGP70D0U3K74K5J6T8" visible="1"/><polyline fill="none" points="758.000000,122.000000 756.615967,126.647461 755.182495,130.895554 754.054077,135.265350 753.312256,140.078629 753.092529,145.023285 753.323669,149.710602 754.032715,152.538055 755.459045,155.276169 757.796631,157.085709 759.197754,157.723816 762.828613,158.136520 766.590454,157.838440 770.582397,156.532379 774.324951,155.335617 776.000000,155.000000 " stroke-linecap="round" stroke-linejoin="round" stroke="#009300" stroke-width="3.00" fade-time="6" fade-enable="0" RotationPoint="(320.000000,240.000000)" transform="rotate(0.00,764.55,140.07)" xml:id="annotation.ON11OUOI9L079BSBC2UTJBD60" visible="1"/><polyline fill="none" points="519.000000,174.000000 522.526733,173.888885 526.160034,173.469147 530.367432,173.208511 534.496643,173.092667 539.431152,173.027466 544.362305,173.008133 549.341919,173.002411 554.335815,173.000717 557.667786,173.000320 561.296814,173.000153 565.020813,172.888962 568.527771,172.469162 572.234619,172.208527 576.104248,172.092682 580.046326,172.041199 584.020569,171.722015 588.009155,171.320892 592.004089,171.142609 596.001770,171.063385 600.111877,171.028168 604.531189,171.012512 608.791687,171.005554 613.018494,171.002472 617.489746,171.001083 621.773193,170.704178 625.899231,170.312973 629.955139,170.139099 634.276367,170.061829 638.678406,170.027481 642.857056,170.012222 647.232727,170.005432 651.658997,170.002411 655.848389,170.001083 660.228882,170.000488 664.657288,170.000214 668.847656,170.000107 673.228577,170.000061 677.657104,170.000031 681.847656,170.000000 685.932312,169.703705 689.858826,169.312759 693.455750,169.138992 697.202515,169.061783 700.978882,169.027466 704.509094,169.012207 707.929932,169.005432 712.682922,169.001617 717.202393,169.000488 721.763611,169.000153 726.226318,169.000061 729.545044,169.000031 733.242188,169.000000 736.811340,169.296295 741.351501,169.791489 745.000000,170.000000 " stroke-linecap="round" stroke-linejoin="round" stroke="#009300" stroke-width="3.00" fade-time="6" fade-enable="0" RotationPoint="(320.000000,240.000000)" transform="rotate(0.00,632.00,171.50)" xml:id="annotation.DHKHUS0AKH4CP0LJL7A6HCC42" visible="1"/></g></g></svg>